<svg xmlns="http://www.w3.org/2000/svg" xmlns:xlink="http://www.w3.org/1999/xlink" width="100" zoomAndPan="magnify" viewBox="0 0 75 74.999997" height="100" preserveAspectRatio="xMidYMid meet" version="1.0"><defs><clipPath id="33b0c83808"><path d="M 9.339844 0 L 65.589844 0 L 65.589844 75 L 9.339844 75 Z M 9.339844 0 " clip-rule="nonzero"/></clipPath></defs><g clip-path="url(#33b0c83808)"><path fill="#6e9026" d="M 60.296875 21.527344 L 62.996094 21.527344 C 62.167969 28.148438 58.597656 56.710938 57.136719 68.398438 C 56.855469 70.644531 54.945312 72.332031 52.679688 72.332031 C 45.007812 72.332031 30.503906 72.332031 22.832031 72.332031 C 20.566406 72.332031 18.660156 70.644531 18.375 68.398438 C 18.375 68.398438 12.515625 21.527344 12.515625 21.527344 C 12.515625 21.527344 54.417969 21.527344 54.417969 21.527344 C 55.097656 21.527344 55.652344 20.976562 55.652344 20.296875 C 55.652344 19.613281 55.097656 19.0625 54.417969 19.0625 L 11.121094 19.0625 C 10.769531 19.0625 10.429688 19.214844 10.199219 19.480469 C 9.964844 19.742188 9.855469 20.097656 9.898438 20.449219 C 9.898438 20.449219 14.273438 55.441406 15.933594 68.703125 C 16.367188 72.183594 19.324219 74.796875 22.832031 74.796875 C 30.503906 74.796875 45.007812 74.796875 52.679688 74.796875 C 56.1875 74.796875 59.144531 72.183594 59.582031 68.703125 C 61.238281 55.441406 65.613281 20.449219 65.613281 20.449219 C 65.65625 20.097656 65.550781 19.742188 65.3125 19.480469 C 65.082031 19.214844 64.742188 19.0625 64.390625 19.0625 L 60.296875 19.0625 C 59.617188 19.0625 59.066406 19.613281 59.066406 20.296875 C 59.066406 20.976562 59.617188 21.527344 60.296875 21.527344 Z M 36.523438 33.613281 L 36.523438 60.246094 C 36.523438 60.925781 37.078125 61.480469 37.753906 61.480469 C 38.4375 61.480469 38.988281 60.925781 38.988281 60.246094 L 38.988281 33.613281 C 38.988281 32.933594 38.4375 32.378906 37.753906 32.378906 C 37.078125 32.378906 36.523438 32.933594 36.523438 33.613281 Z M 22.300781 33.757812 L 24.488281 60.304688 C 24.546875 60.980469 25.140625 61.484375 25.816406 61.429688 C 26.496094 61.375 27 60.777344 26.945312 60.101562 L 24.757812 33.558594 C 24.699219 32.878906 24.105469 32.375 23.425781 32.429688 C 22.75 32.484375 22.246094 33.082031 22.300781 33.757812 Z M 50.390625 33.558594 L 48.203125 60.101562 C 48.148438 60.777344 48.652344 61.375 49.328125 61.429688 C 50.007812 61.484375 50.601562 60.980469 50.660156 60.304688 L 52.847656 33.757812 C 52.902344 33.082031 52.398438 32.484375 51.722656 32.429688 C 51.042969 32.375 50.445312 32.878906 50.390625 33.558594 Z M 28.484375 10.660156 L 10.378906 15.511719 C 9.722656 15.683594 9.332031 16.363281 9.507812 17.019531 C 9.683594 17.675781 10.359375 18.066406 11.015625 17.890625 L 62.46875 4.105469 C 63.128906 3.925781 63.519531 3.25 63.34375 2.59375 C 63.164062 1.9375 62.488281 1.546875 61.832031 1.722656 L 43.726562 6.574219 L 42.324219 1.332031 C 42.144531 0.671875 41.472656 0.285156 40.8125 0.460938 L 27.949219 3.90625 C 27.292969 4.082031 26.902344 4.761719 27.078125 5.417969 Z M 41.347656 7.210938 L 40.261719 3.160156 C 40.261719 3.160156 29.777344 5.96875 29.777344 5.96875 L 30.863281 10.019531 Z M 41.347656 7.210938 " fill-opacity="1" fill-rule="evenodd"/></g></svg>