<svg xmlns="http://www.w3.org/2000/svg" xmlns:xlink="http://www.w3.org/1999/xlink" width="100" zoomAndPan="magnify" viewBox="0 0 75 74.999997" height="100" preserveAspectRatio="xMidYMid meet" version="1.0"><path fill="#6e9026" d="M 15.578125 57.78125 L 7.804688 65.554688 C 7.355469 66.003906 7.355469 66.738281 7.804688 67.1875 C 8.257812 67.636719 8.988281 67.636719 9.4375 67.1875 L 17.210938 59.414062 C 18.777344 60.3125 22.472656 62.222656 27.085938 63.210938 C 33.34375 64.554688 41.25 64.214844 47.890625 57.574219 C 53.050781 52.414062 56.671875 44.117188 59.121094 35.996094 C 62.75 23.984375 63.84375 12.40625 63.84375 12.40625 C 63.878906 12.0625 63.753906 11.722656 63.511719 11.480469 C 63.269531 11.238281 62.929688 11.117188 62.585938 11.148438 C 62.585938 11.148438 51.007812 12.246094 38.996094 15.871094 C 30.875 18.320312 22.578125 21.941406 17.417969 27.101562 C 10.777344 33.742188 10.4375 41.652344 11.78125 47.90625 C 12.773438 52.519531 14.683594 56.214844 15.578125 57.78125 Z M 18.90625 57.71875 C 20.558594 58.617188 23.722656 60.128906 27.570312 60.957031 C 33.1875 62.160156 40.296875 61.902344 46.257812 55.941406 C 51.179688 51.019531 54.574219 43.074219 56.910156 35.332031 C 59.71875 26.035156 60.980469 17.003906 61.390625 13.601562 C 57.992188 14.011719 48.957031 15.273438 39.664062 18.082031 C 31.917969 20.417969 23.972656 23.8125 19.050781 28.734375 C 13.089844 34.695312 12.832031 41.808594 14.039062 47.421875 C 14.863281 51.273438 16.378906 54.433594 17.277344 56.085938 L 24.289062 49.070312 L 24.289062 35.953125 C 24.289062 35.316406 24.808594 34.796875 25.445312 34.796875 C 26.082031 34.796875 26.597656 35.316406 26.597656 35.953125 L 26.597656 46.761719 L 33.902344 39.457031 L 33.902344 33.136719 C 33.902344 32.5 34.421875 31.984375 35.058594 31.984375 C 35.695312 31.984375 36.210938 32.5 36.210938 33.136719 C 36.210938 33.136719 36.210938 38.78125 36.210938 38.78125 L 41.855469 38.78125 C 42.492188 38.78125 43.011719 39.296875 43.011719 39.933594 C 43.011719 40.570312 42.492188 41.089844 41.855469 41.089844 L 35.535156 41.089844 L 28.230469 48.394531 L 39.039062 48.394531 C 39.675781 48.394531 40.195312 48.910156 40.195312 49.546875 C 40.195312 50.183594 39.675781 50.703125 39.039062 50.703125 L 25.921875 50.703125 Z M 18.90625 57.71875 " fill-opacity="1" fill-rule="evenodd"/></svg>