<svg xmlns="http://www.w3.org/2000/svg" xmlns:xlink="http://www.w3.org/1999/xlink" width="100" zoomAndPan="magnify" viewBox="0 0 75 74.999997" height="100" preserveAspectRatio="xMidYMid meet" version="1.0"><path fill="#6e9026" d="M 49.964844 57.570312 C 48.199219 57.570312 45.898438 57.347656 43.234375 56.578125 C 37.917969 55.039062 32.792969 51.828125 28 47.035156 C 23.203125 42.238281 19.992188 37.113281 18.457031 31.800781 C 17.183594 27.40625 17.40625 24.003906 17.652344 22.363281 C 17.804688 21.359375 18.378906 20.476562 19.230469 19.945312 C 20.878906 18.917969 22.644531 18.226562 24.476562 17.894531 C 25.394531 17.726562 26.335938 18.019531 26.996094 18.679688 L 31.277344 22.960938 C 32.277344 23.964844 32.765625 25.34375 32.613281 26.75 C 32.5 27.804688 32.023438 28.792969 31.277344 29.542969 L 29.960938 30.855469 C 29.710938 31.105469 29.628906 31.488281 29.75 31.828125 C 30.6875 34.453125 34.167969 38.335938 35.429688 39.613281 C 35.464844 39.648438 40.046875 44.15625 43.207031 45.285156 C 43.546875 45.40625 43.925781 45.320312 44.175781 45.070312 L 45.492188 43.757812 C 46.238281 43.007812 47.230469 42.535156 48.28125 42.421875 C 49.6875 42.269531 51.070312 42.757812 52.070312 43.757812 L 56.351562 48.039062 C 57.011719 48.699219 57.304688 49.636719 57.140625 50.554688 C 56.804688 52.390625 56.113281 54.15625 55.085938 55.804688 C 54.554688 56.65625 53.675781 57.230469 52.667969 57.378906 C 52.023438 57.476562 51.105469 57.570312 49.964844 57.570312 Z M 24.988281 20.257812 C 24.960938 20.257812 24.933594 20.257812 24.910156 20.265625 C 23.375 20.542969 21.894531 21.125 20.503906 21.992188 C 20.253906 22.148438 20.082031 22.414062 20.035156 22.722656 C 19.816406 24.164062 19.625 27.175781 20.769531 31.128906 C 22.191406 36.050781 25.199219 40.828125 29.703125 45.332031 C 34.207031 49.835938 38.984375 52.839844 43.902344 54.265625 C 47.855469 55.40625 50.867188 55.214844 52.3125 55 C 52.617188 54.953125 52.886719 54.78125 53.042969 54.527344 C 53.910156 53.140625 54.492188 51.65625 54.769531 50.125 C 54.792969 49.984375 54.75 49.84375 54.648438 49.742188 L 50.367188 45.460938 C 49.886719 44.976562 49.21875 44.742188 48.539062 44.816406 C 48.035156 44.871094 47.554688 45.097656 47.195312 45.460938 L 45.878906 46.773438 C 44.976562 47.679688 43.605469 47.984375 42.394531 47.550781 C 38.734375 46.246094 33.929688 41.515625 33.726562 41.316406 C 33.515625 41.105469 28.789062 36.300781 27.480469 32.636719 C 27.046875 31.425781 27.351562 30.058594 28.257812 29.152344 L 29.574219 27.839844 C 29.933594 27.476562 30.164062 27 30.21875 26.492188 C 30.289062 25.8125 30.054688 25.148438 29.574219 24.664062 L 25.292969 20.382812 C 25.210938 20.300781 25.097656 20.257812 24.984375 20.257812 Z M 24.988281 20.257812 " fill-opacity="1" fill-rule="nonzero"/><path fill="#6e9026" d="M 37.554688 74.945312 C 31.957031 74.945312 26.570312 73.738281 21.539062 71.351562 C 19.257812 70.273438 16.660156 69.976562 14.226562 70.523438 L 0.0117188 73.714844 L 3.96875 61.046875 C 4.796875 58.398438 4.621094 55.558594 3.46875 53.042969 C 1.148438 47.976562 0.0117188 42.554688 0.09375 36.933594 C 0.230469 27 4.1875 17.703125 11.230469 10.757812 C 18.273438 3.816406 27.625 -0.0078125 37.5625 -0.0078125 C 47.574219 -0.0078125 56.984375 3.890625 64.0625 10.96875 C 71.140625 18.046875 75.039062 27.460938 75.039062 37.46875 C 75.039062 47.417969 71.210938 56.773438 64.257812 63.820312 C 57.308594 70.863281 48 74.8125 38.054688 74.941406 C 37.890625 74.945312 37.722656 74.945312 37.554688 74.945312 Z M 16.65625 67.847656 C 18.683594 67.847656 20.714844 68.296875 22.570312 69.175781 C 27.417969 71.472656 32.617188 72.601562 38.027344 72.535156 C 47.332031 72.414062 56.039062 68.71875 62.542969 62.125 C 69.046875 55.535156 72.628906 46.777344 72.628906 37.46875 C 72.628906 28.101562 68.984375 19.296875 62.359375 12.675781 C 55.738281 6.050781 46.929688 2.402344 37.5625 2.402344 C 28.261719 2.402344 19.511719 5.980469 12.921875 12.476562 C 6.332031 18.96875 2.628906 27.667969 2.5 36.96875 C 2.425781 42.230469 3.488281 47.300781 5.660156 52.042969 C 7.058594 55.097656 7.273438 58.550781 6.269531 61.765625 L 3.554688 70.449219 L 13.699219 68.175781 C 14.671875 67.957031 15.664062 67.847656 16.65625 67.847656 Z M 16.65625 67.847656 " fill-opacity="1" fill-rule="nonzero"/></svg>