<svg xmlns="http://www.w3.org/2000/svg" xmlns:xlink="http://www.w3.org/1999/xlink" width="100" zoomAndPan="magnify" viewBox="0 0 75 74.999997" height="100" preserveAspectRatio="xMidYMid meet" version="1.0"><defs><clipPath id="1066a34b6c"><path d="M 15 1.808594 L 62 1.808594 L 62 31 L 15 31 Z M 15 1.808594 " clip-rule="nonzero"/></clipPath><clipPath id="7ecd591fd2"><path d="M 36 30 L 75 30 L 75 74.558594 L 36 74.558594 Z M 36 30 " clip-rule="nonzero"/></clipPath></defs><g clip-path="url(#1066a34b6c)"><path fill="#6e9026" d="M 28.949219 29.496094 C 24.242188 26.835938 19.742188 24.292969 15.140625 21.691406 C 15.382812 21.089844 15.523438 20.601562 15.765625 20.171875 C 18.003906 16.144531 20.222656 12.101562 22.519531 8.105469 C 24.886719 3.988281 28.503906 1.914062 33.246094 1.84375 C 36.039062 1.804688 38.832031 1.804688 41.625 1.847656 C 46.375 1.917969 49.957031 4.035156 52.328125 8.144531 C 53.6875 10.5 54.988281 12.890625 56.410156 15.4375 C 57.949219 14.597656 59.382812 13.808594 60.816406 13.023438 C 60.917969 13.117188 61.015625 13.207031 61.117188 13.296875 C 59.335938 19.023438 57.554688 24.75 55.714844 30.675781 C 49.730469 29.183594 43.914062 27.734375 37.664062 26.175781 C 39.390625 25.132812 40.753906 24.308594 42.347656 23.347656 C 40.753906 20.484375 39.199219 17.6875 37.46875 14.578125 C 34.417969 19.542969 31.914062 24.484375 28.949219 29.496094 Z M 54.824219 29.085938 C 56.214844 24.625 57.550781 20.335938 58.992188 15.699219 C 57.753906 16.269531 56.898438 16.660156 55.929688 17.105469 C 55.546875 16.488281 55.195312 15.957031 54.882812 15.402344 C 53.570312 13.085938 52.3125 10.738281 50.953125 8.445312 C 48.980469 5.117188 45.996094 3.347656 42.144531 3.222656 C 38.964844 3.125 35.777344 3.179688 32.59375 3.230469 C 31.71875 3.246094 30.851562 3.492188 29.976562 3.628906 C 34.140625 6.230469 36.511719 10.078125 38.703125 14.085938 C 40.230469 16.878906 41.808594 19.644531 43.355469 22.425781 C 43.601562 22.863281 43.796875 23.332031 44.054688 23.867188 C 43.160156 24.464844 42.34375 25.003906 41.246094 25.734375 C 45.992188 26.90625 50.320312 27.972656 54.824219 29.085938 Z M 28.484375 27.71875 C 31.304688 22.675781 33.980469 17.882812 36.644531 13.121094 C 35.257812 10.71875 33.824219 8.558594 31.8125 6.871094 C 31.03125 6.214844 30.125 5.675781 29.207031 5.222656 C 28.050781 4.65625 26.902344 4.785156 26.027344 5.8125 C 25.152344 6.84375 24.214844 7.859375 23.539062 9.019531 C 21.476562 12.542969 19.523438 16.132812 17.539062 19.699219 C 17.296875 20.136719 17.109375 20.601562 16.855469 21.144531 C 20.71875 23.328125 24.484375 25.457031 28.484375 27.71875 Z M 28.484375 27.71875 " fill-opacity="1" fill-rule="nonzero"/></g><path fill="#6e9026" d="M 15.289062 53.386719 C 21.179688 53.441406 26.664062 53.488281 32.273438 53.539062 C 32.273438 58.957031 32.273438 64.179688 32.273438 69.519531 C 31.710938 69.566406 31.210938 69.648438 30.710938 69.648438 C 26.097656 69.648438 21.484375 69.679688 16.867188 69.621094 C 12.429688 69.566406 8.972656 67.625 6.675781 63.832031 C 4.996094 61.054688 3.40625 58.210938 1.925781 55.324219 C 0.0117188 51.59375 0.0742188 47.792969 2.113281 44.121094 C 3.53125 41.570312 5.09375 39.097656 6.710938 36.390625 C 5.292969 35.453125 3.914062 34.542969 2.15625 33.382812 C 8.40625 32.050781 14.265625 30.800781 20.332031 29.503906 C 21.957031 35.441406 23.542969 41.222656 25.125 47.007812 C 25.027344 47.089844 24.925781 47.175781 24.828125 47.261719 C 23.464844 46.476562 22.101562 45.695312 20.523438 44.789062 C 18.832031 47.566406 17.171875 50.296875 15.289062 53.386719 Z M 22.59375 44.347656 C 22.722656 44.28125 22.851562 44.214844 22.980469 44.148438 C 21.792969 39.8125 20.605469 35.476562 19.394531 31.050781 C 14.785156 32.035156 10.433594 32.960938 5.765625 33.957031 C 6.816406 34.761719 7.601562 35.363281 8.453125 36.015625 C 8.015625 36.769531 7.671875 37.390625 7.308594 37.996094 C 6.039062 40.113281 4.738281 42.214844 3.492188 44.347656 C 1.417969 47.890625 1.347656 51.507812 3.289062 55.121094 C 4.738281 57.808594 6.242188 60.46875 7.78125 63.109375 C 8.25 63.914062 8.917969 64.601562 9.648438 65.539062 C 10.257812 59.945312 10.914062 58.046875 13.753906 53.371094 C 15.507812 50.484375 17.253906 47.589844 19.011719 44.703125 C 19.34375 44.160156 19.714844 43.640625 20.113281 43.042969 C 21.019531 43.515625 21.808594 43.933594 22.59375 44.347656 Z M 31.027344 54.796875 C 25.621094 54.796875 20.4375 54.800781 15.253906 54.789062 C 14.566406 54.789062 14.207031 55.175781 13.90625 55.722656 C 12.707031 57.890625 11.648438 60.117188 11.265625 62.589844 C 11.140625 63.410156 11.128906 64.265625 11.1875 65.097656 C 11.28125 66.472656 12 67.445312 13.390625 67.710938 C 14.847656 67.988281 16.324219 68.28125 17.800781 68.3125 C 21.691406 68.398438 25.589844 68.347656 29.480469 68.335938 C 29.980469 68.335938 30.476562 68.230469 31.027344 68.167969 C 31.027344 63.71875 31.027344 59.394531 31.027344 54.796875 Z M 31.027344 54.796875 " fill-opacity="1" fill-rule="nonzero"/><g clip-path="url(#7ecd591fd2)"><path fill="#6e9026" d="M 49.511719 69.738281 C 49.511719 71.429688 49.511719 73.015625 49.511719 74.601562 C 49.378906 74.65625 49.242188 74.710938 49.105469 74.765625 C 44.925781 70.480469 40.890625 66.054688 36.644531 61.515625 C 40.828125 57.074219 44.945312 52.699219 49.257812 48.117188 C 49.824219 49.964844 49.21875 51.664062 49.734375 53.378906 C 52.910156 53.378906 56.050781 53.378906 59.515625 53.378906 C 56.753906 48.34375 53.667969 43.734375 50.855469 38.691406 C 55.410156 35.921875 59.871094 33.207031 64.441406 30.425781 C 64.871094 31.019531 65.230469 31.460938 65.523438 31.941406 C 67.875 35.835938 70.238281 39.714844 72.539062 43.636719 C 74.898438 47.660156 74.984375 51.765625 72.738281 55.871094 C 71.367188 58.378906 69.972656 60.871094 68.550781 63.351562 C 66.144531 67.542969 62.507812 69.652344 57.664062 69.652344 C 55.585938 69.65625 53.507812 69.644531 51.429688 69.652344 C 50.863281 69.65625 50.292969 69.703125 49.511719 69.738281 Z M 72.726562 52.511719 C 67.769531 54.410156 65.984375 54.796875 60.566406 54.804688 C 57.058594 54.808594 53.546875 54.800781 50.035156 54.785156 C 49.476562 54.78125 48.917969 54.699219 48.300781 54.648438 C 48.222656 53.589844 48.152344 52.667969 48.054688 51.324219 C 44.679688 54.914062 41.597656 58.191406 38.449219 61.535156 C 41.671875 64.96875 44.714844 68.21875 47.992188 71.714844 C 48.109375 70.375 48.191406 69.433594 48.285156 68.34375 C 48.890625 68.34375 49.398438 68.34375 49.902344 68.34375 C 52.570312 68.34375 55.234375 68.386719 57.898438 68.332031 C 62.058594 68.242188 65.265625 66.457031 67.34375 62.796875 C 68.816406 60.195312 70.300781 57.597656 71.730469 54.972656 C 72.148438 54.203125 72.398438 53.335938 72.726562 52.511719 Z M 52.605469 39.164062 C 55.414062 43.828125 58.066406 48.21875 60.699219 52.625 C 61.125 53.339844 61.683594 53.582031 62.480469 53.492188 C 63.515625 53.371094 64.570312 53.386719 65.589844 53.203125 C 67.699219 52.824219 69.816406 52.410156 71.574219 51.03125 C 72.691406 50.15625 73.351562 49.109375 72.753906 47.652344 C 72.191406 46.277344 71.710938 44.847656 70.972656 43.566406 C 68.992188 40.132812 66.898438 36.765625 64.835938 33.375 C 64.613281 33.007812 64.324219 32.675781 64 32.238281 C 60.199219 34.550781 56.492188 36.800781 52.605469 39.164062 Z M 52.605469 39.164062 " fill-opacity="1" fill-rule="nonzero"/></g></svg>