<svg xmlns="http://www.w3.org/2000/svg" xmlns:xlink="http://www.w3.org/1999/xlink" width="100" zoomAndPan="magnify" viewBox="0 0 75 74.999997" height="100" preserveAspectRatio="xMidYMid meet" version="1.0"><defs><clipPath id="94cdcf1105"><path d="M 17 0.308594 L 58 0.308594 L 58 56 L 17 56 Z M 17 0.308594 " clip-rule="nonzero"/></clipPath><clipPath id="702a3dd19b"><path d="M 7.5 12 L 67.5 12 L 67.5 74.558594 L 7.5 74.558594 Z M 7.5 12 " clip-rule="nonzero"/></clipPath></defs><g clip-path="url(#94cdcf1105)"><path fill="#ff6200" d="M 37.390625 55.421875 C 36.996094 55.386719 36.523438 55.070312 35.972656 54.472656 C 34.355469 52.714844 32.917969 51.003906 31.652344 49.339844 C 28.523438 45.222656 25.578125 40.886719 22.820312 36.328125 C 21.570312 34.269531 20.476562 32.238281 19.539062 30.234375 C 18.390625 27.785156 17.652344 25.605469 17.324219 23.695312 C 16.695312 19.996094 17.140625 16.339844 18.65625 12.730469 C 20.519531 8.300781 23.582031 4.945312 27.835938 2.664062 C 32.757812 0.0351562 38.808594 -0.371094 43.992188 1.355469 C 50.914062 3.664062 56.433594 9.992188 57.65625 17.234375 C 58.277344 20.910156 57.835938 24.542969 56.328125 28.132812 C 54.941406 31.441406 53.316406 34.570312 51.457031 37.519531 C 48.261719 42.585938 44.78125 47.570312 41.007812 52.121094 C 40.132812 53.175781 39.3125 54.097656 38.546875 54.882812 C 38.320312 55.113281 38.015625 55.285156 37.640625 55.394531 C 37.558594 55.417969 37.472656 55.425781 37.390625 55.421875 Z M 37.355469 52.648438 C 37.4375 52.738281 37.523438 52.742188 37.613281 52.660156 C 37.617188 52.65625 37.621094 52.652344 37.625 52.648438 C 38.378906 51.851562 39.128906 50.984375 39.882812 50.046875 C 42.019531 47.382812 44.339844 44.1875 46.839844 40.46875 C 49.855469 35.988281 52.351562 31.960938 54.25 27.257812 C 56.484375 21.734375 56.085938 16.480469 53.054688 11.5 C 49.144531 5.070312 42.351562 1.828125 34.847656 2.769531 C 26.375 3.832031 19.914062 11.0625 19.390625 19.53125 C 19.1875 22.890625 19.886719 25.554688 21.269531 28.5625 C 24.308594 35.171875 28.40625 41.054688 32.804688 47.085938 C 34.234375 49.046875 35.75 50.902344 37.355469 52.648438 Z M 37.355469 52.648438 " fill-opacity="1" fill-rule="nonzero"/></g><g clip-path="url(#702a3dd19b)"><path fill="#ff6200" d="M 29.335938 20.554688 C 29.460938 16.074219 33.238281 12.546875 37.765625 12.671875 C 42.296875 12.796875 45.867188 16.535156 45.742188 21.015625 C 45.617188 25.496094 41.84375 29.023438 37.3125 28.898438 C 32.785156 28.769531 29.210938 25.035156 29.335938 20.554688 Z M 43.519531 20.777344 C 43.519531 17.476562 40.839844 14.796875 37.539062 14.796875 C 34.234375 14.796875 31.558594 17.476562 31.558594 20.777344 C 31.558594 24.082031 34.234375 26.757812 37.539062 26.757812 C 40.839844 26.757812 43.519531 24.082031 43.519531 20.777344 Z M 48.683594 49.148438 L 48.6875 49.113281 C 48.777344 48.558594 49.292969 48.175781 49.847656 48.246094 C 51.214844 48.421875 53.257812 48.953125 55.972656 49.84375 C 59.125 50.878906 62.285156 52.421875 64.648438 54.703125 C 67.828125 57.769531 68.566406 62.148438 65.742188 65.746094 C 63.824219 68.1875 60.933594 69.914062 58 71.082031 C 55.417969 72.105469 52.808594 72.882812 50.175781 73.40625 C 44.8125 74.480469 39.296875 74.878906 33.625 74.601562 C 28.242188 74.335938 23.074219 73.296875 18.128906 71.476562 C 14.308594 70.070312 9.246094 67.496094 7.894531 63.273438 C 7.121094 60.859375 7.480469 58.597656 8.96875 56.492188 C 10.058594 54.953125 11.457031 53.65625 13.15625 52.601562 C 16.617188 50.460938 20.574219 49.070312 25.039062 48.433594 C 25.605469 48.351562 26.144531 48.722656 26.273438 49.285156 L 26.285156 49.332031 C 26.402344 49.847656 26.082031 50.359375 25.566406 50.476562 C 25.546875 50.480469 25.523438 50.484375 25.503906 50.488281 C 22.292969 51.007812 19.253906 51.953125 16.382812 53.324219 C 13.570312 54.671875 10.558594 56.828125 9.773438 59.941406 C 9.101562 62.597656 11.117188 65.109375 13.257812 66.558594 C 15.140625 67.832031 17.347656 68.90625 19.882812 69.789062 C 29.476562 73.121094 40.113281 73.191406 50.1875 71.222656 C 54.550781 70.371094 59.011719 68.742188 62.335938 66.203125 C 64.636719 64.457031 66.28125 61.613281 64.9375 58.753906 C 63.839844 56.417969 61.851562 54.878906 59.535156 53.714844 C 56.433594 52.15625 53.101562 51.039062 49.539062 50.367188 C 48.96875 50.261719 48.589844 49.71875 48.683594 49.148438 Z M 48.683594 49.148438 " fill-opacity="1" fill-rule="nonzero"/></g><path fill="#ff6200" d="M 37.535156 67.835938 C 33.207031 67.839844 28.882812 67.265625 24.902344 65.546875 C 23.332031 64.867188 21.566406 63.605469 20.949219 62.019531 C 19.984375 59.550781 21.785156 57.585938 23.867188 56.480469 C 25.398438 55.664062 27.214844 55.097656 29.316406 54.777344 C 29.898438 54.6875 30.445312 55.078125 30.546875 55.660156 L 30.546875 55.664062 C 30.644531 56.214844 30.277344 56.738281 29.730469 56.839844 C 27.535156 57.246094 25.449219 57.8125 23.796875 59.125 C 22.597656 60.074219 22.535156 61.078125 23.601562 62.128906 C 24.148438 62.667969 24.761719 63.09375 25.445312 63.414062 C 29.152344 65.136719 33.320312 65.660156 37.53125 65.65625 C 41.738281 65.652344 45.902344 65.117188 49.609375 63.386719 C 50.289062 63.066406 50.90625 62.636719 51.449219 62.101562 C 52.515625 61.042969 52.449219 60.039062 51.25 59.09375 C 49.59375 57.785156 47.503906 57.226562 45.308594 56.824219 C 44.761719 56.722656 44.394531 56.199219 44.488281 55.648438 L 44.488281 55.640625 C 44.589844 55.0625 45.136719 54.667969 45.71875 54.757812 C 47.820312 55.074219 49.636719 55.636719 51.171875 56.449219 C 53.257812 57.550781 55.0625 59.511719 54.105469 61.980469 C 53.488281 63.566406 51.726562 64.835938 50.15625 65.515625 C 46.179688 67.246094 41.859375 67.832031 37.535156 67.835938 Z M 37.535156 67.835938 " fill-opacity="1" fill-rule="nonzero"/></svg>