<svg xmlns="http://www.w3.org/2000/svg" xmlns:xlink="http://www.w3.org/1999/xlink" width="100" zoomAndPan="magnify" viewBox="0 0 75 74.999997" height="100" preserveAspectRatio="xMidYMid meet" version="1.0"><defs><clipPath id="a31d0f14f6"><path d="M 14.511719 11.453125 L 60.261719 11.453125 L 60.261719 63.203125 L 14.511719 63.203125 Z M 14.511719 11.453125 " clip-rule="nonzero"/></clipPath></defs><g clip-path="url(#a31d0f14f6)"><path fill="#ff6200" d="M 59.617188 18.449219 L 37.863281 11.511719 C 37.621094 11.425781 37.378906 11.425781 37.136719 11.511719 L 15.382812 18.449219 C 15.132812 18.527344 14.925781 18.675781 14.773438 18.886719 C 14.617188 19.097656 14.535156 19.335938 14.535156 19.597656 L 14.535156 35.429688 C 14.535156 35.921875 14.535156 36.417969 14.535156 36.917969 C 14.6875 39.761719 15.296875 42.503906 16.359375 45.148438 C 17.480469 47.820312 19 50.242188 20.921875 52.414062 C 22.84375 54.582031 25.058594 56.386719 27.578125 57.824219 L 36.859375 63.25 C 37.261719 63.484375 37.664062 63.484375 38.066406 63.25 L 47.347656 57.824219 C 49.863281 56.386719 52.082031 54.582031 54.003906 52.414062 C 55.925781 50.242188 57.445312 47.820312 58.566406 45.148438 C 59.652344 42.507812 60.285156 39.765625 60.460938 36.917969 C 60.460938 36.417969 60.460938 35.921875 60.460938 35.429688 L 60.460938 19.597656 C 60.460938 19.335938 60.382812 19.097656 60.226562 18.886719 C 60.070312 18.675781 59.867188 18.527344 59.617188 18.449219 Z M 58.042969 35.429688 C 58.042969 35.890625 58.042969 36.335938 58.042969 36.796875 C 57.910156 39.375 57.355469 41.859375 56.390625 44.253906 C 55.367188 46.675781 53.988281 48.871094 52.242188 50.839844 C 50.5 52.808594 48.484375 54.441406 46.199219 55.746094 L 37.5 60.808594 L 28.832031 55.746094 C 26.550781 54.441406 24.535156 52.808594 22.792969 50.839844 C 21.046875 48.871094 19.664062 46.675781 18.644531 44.253906 C 17.664062 41.863281 17.101562 39.375 16.953125 36.796875 C 16.953125 36.335938 16.953125 35.890625 16.953125 35.429688 L 16.953125 20.515625 L 37.5 13.964844 L 58.042969 20.515625 Z M 58.042969 35.429688 " fill-opacity="1" fill-rule="nonzero"/></g><path fill="#ff6200" d="M 27.480469 34.160156 C 27.367188 34.046875 27.234375 33.960938 27.085938 33.898438 C 26.9375 33.835938 26.78125 33.804688 26.621094 33.804688 C 26.460938 33.804688 26.304688 33.835938 26.15625 33.898438 C 26.007812 33.960938 25.878906 34.046875 25.765625 34.160156 C 25.652344 34.277344 25.5625 34.40625 25.5 34.554688 C 25.441406 34.703125 25.410156 34.859375 25.410156 35.019531 C 25.410156 35.179688 25.441406 35.335938 25.5 35.484375 C 25.5625 35.632812 25.648438 35.761719 25.761719 35.878906 L 33.4375 43.589844 C 33.671875 43.828125 33.960938 43.949219 34.296875 43.949219 C 34.632812 43.949219 34.917969 43.828125 35.15625 43.589844 L 50.589844 28.15625 C 50.792969 27.914062 50.890625 27.636719 50.878906 27.320312 C 50.867188 27.007812 50.746094 26.738281 50.523438 26.515625 C 50.300781 26.289062 50.03125 26.171875 49.714844 26.160156 C 49.402344 26.148438 49.125 26.246094 48.882812 26.449219 L 34.296875 41.0625 Z M 27.480469 34.160156 " fill-opacity="1" fill-rule="nonzero"/></svg>