<svg xmlns="http://www.w3.org/2000/svg" xmlns:xlink="http://www.w3.org/1999/xlink" width="100" zoomAndPan="magnify" viewBox="0 0 75 74.999997" height="100" preserveAspectRatio="xMidYMid meet" version="1.0"><defs><clipPath id="911ef63e44"><path d="M 0.613281 1 L 74.113281 1 L 74.113281 75 L 0.613281 75 Z M 0.613281 1 " clip-rule="nonzero"/></clipPath></defs><path fill="#ff6200" d="M 21.085938 56.671875 L 14.648438 52.953125 C 14.410156 52.816406 14.117188 52.816406 13.878906 52.953125 L 7.441406 56.671875 C 7.199219 56.808594 7.054688 57.0625 7.054688 57.339844 L 7.054688 64.773438 C 7.054688 65.050781 7.199219 65.304688 7.441406 65.441406 L 13.878906 69.160156 C 13.996094 69.226562 14.128906 69.261719 14.261719 69.261719 C 14.398438 69.261719 14.53125 69.226562 14.648438 69.160156 L 21.085938 65.441406 C 21.328125 65.304688 21.472656 65.050781 21.472656 64.773438 L 21.472656 57.339844 C 21.472656 57.0625 21.328125 56.808594 21.085938 56.671875 Z M 19.929688 64.328125 L 14.261719 67.597656 L 8.597656 64.328125 L 8.597656 57.785156 L 14.261719 54.515625 L 19.929688 57.785156 Z M 19.929688 64.328125 " fill-opacity="1" fill-rule="nonzero"/><g clip-path="url(#911ef63e44)"><path fill="#ff6200" d="M 74.214844 13.785156 C 74.203125 13.5625 74.191406 13.34375 74.164062 13.121094 C 74.089844 12.46875 73.964844 11.820312 73.792969 11.175781 C 73.722656 10.910156 73.515625 10.699219 73.246094 10.628906 C 72.984375 10.558594 72.695312 10.632812 72.503906 10.828125 L 63.054688 20.277344 C 59.234375 19.101562 56.21875 16.085938 55.042969 12.265625 L 64.492188 2.820312 C 64.589844 2.722656 64.65625 2.601562 64.691406 2.472656 C 64.726562 2.34375 64.726562 2.203125 64.691406 2.070312 C 64.617188 1.804688 64.410156 1.597656 64.144531 1.527344 C 59.449219 0.273438 54.394531 1.625 50.964844 5.058594 C 50.902344 5.121094 50.851562 5.1875 50.789062 5.253906 C 50.523438 5.53125 50.261719 5.8125 50.019531 6.109375 C 49.957031 6.183594 49.90625 6.265625 49.847656 6.34375 C 49.609375 6.644531 49.382812 6.949219 49.175781 7.265625 C 49.140625 7.324219 49.109375 7.378906 49.074219 7.4375 C 48.855469 7.78125 48.648438 8.136719 48.464844 8.503906 C 48.4375 8.550781 48.417969 8.597656 48.394531 8.644531 C 48.210938 9.019531 48.039062 9.398438 47.890625 9.785156 C 47.867188 9.847656 47.847656 9.910156 47.824219 9.972656 C 47.6875 10.339844 47.566406 10.710938 47.460938 11.09375 C 47.433594 11.191406 47.414062 11.289062 47.386719 11.390625 C 47.304688 11.726562 47.230469 12.066406 47.171875 12.414062 C 47.148438 12.558594 47.128906 12.707031 47.105469 12.851562 C 47.066406 13.152344 47.035156 13.449219 47.015625 13.753906 C 47 13.9375 46.992188 14.121094 46.988281 14.304688 C 46.984375 14.4375 46.96875 14.566406 46.96875 14.695312 C 46.964844 16.136719 46.363281 17.5625 45.316406 18.609375 L 18.164062 45.761719 C 17.117188 46.808594 15.691406 47.410156 14.25 47.414062 C 12.0625 47.414062 9.957031 47.9375 8.0625 48.90625 C 8.007812 48.933594 7.953125 48.953125 7.902344 48.984375 C 7.625 49.128906 7.355469 49.296875 7.089844 49.460938 C 6.96875 49.535156 6.84375 49.601562 6.726562 49.679688 C 6.546875 49.800781 6.375 49.9375 6.195312 50.070312 C 6.003906 50.210938 5.808594 50.34375 5.621094 50.496094 C 5.617188 50.5 5.613281 50.503906 5.609375 50.507812 C 5.265625 50.789062 4.933594 51.085938 4.613281 51.40625 C 4.417969 51.601562 4.246094 51.8125 4.0625 52.015625 C 3.941406 52.152344 3.808594 52.285156 3.691406 52.425781 C 3.625 52.507812 3.566406 52.597656 3.503906 52.683594 C 1.636719 55.066406 0.613281 57.980469 0.613281 61.058594 C 0.613281 64.140625 1.640625 67.058594 3.511719 69.445312 C 3.574219 69.523438 3.628906 69.609375 3.691406 69.6875 C 3.808594 69.832031 3.945312 69.964844 4.070312 70.105469 C 4.25 70.308594 4.421875 70.511719 4.613281 70.707031 C 4.8125 70.90625 5.027344 71.085938 5.238281 71.269531 C 5.371094 71.386719 5.496094 71.515625 5.632812 71.628906 C 5.722656 71.699219 5.816406 71.761719 5.90625 71.832031 C 8.289062 73.6875 11.195312 74.707031 14.261719 74.707031 C 17.339844 74.707031 20.25 73.6875 22.628906 71.824219 C 22.71875 71.757812 22.808594 71.699219 22.894531 71.628906 C 23.03125 71.515625 23.160156 71.382812 23.296875 71.265625 C 23.503906 71.082031 23.714844 70.90625 23.914062 70.707031 C 24.21875 70.402344 24.5 70.082031 24.769531 69.757812 C 24.789062 69.738281 24.808594 69.71875 24.824219 69.699219 C 24.972656 69.519531 25.101562 69.328125 25.238281 69.140625 C 25.375 68.957031 25.515625 68.78125 25.640625 68.59375 C 25.714844 68.480469 25.773438 68.367188 25.84375 68.253906 C 26.015625 67.976562 26.1875 67.703125 26.339844 67.414062 C 26.359375 67.375 26.375 67.332031 26.398438 67.292969 C 27.378906 65.390625 27.90625 63.269531 27.90625 61.070312 C 27.910156 59.628906 28.511719 58.203125 29.558594 57.15625 L 56.726562 29.988281 C 57.753906 28.957031 59.042969 28.382812 60.402344 28.347656 C 60.46875 28.347656 60.539062 28.355469 60.609375 28.355469 C 63.238281 28.355469 65.867188 27.59375 68.136719 26.089844 C 68.523438 25.835938 68.902344 25.566406 69.261719 25.269531 L 69.265625 25.269531 C 70.488281 24.257812 71.496094 23.058594 72.285156 21.742188 C 72.328125 21.671875 72.378906 21.601562 72.421875 21.527344 C 72.441406 21.492188 72.457031 21.457031 72.476562 21.421875 C 73.726562 19.203125 74.351562 16.660156 74.242188 14.097656 C 74.238281 13.992188 74.222656 13.886719 74.214844 13.785156 Z M 68.273438 24.078125 C 67.992188 24.308594 67.703125 24.523438 67.40625 24.726562 C 65.402344 26.070312 62.976562 26.777344 60.53125 26.789062 C 60.492188 26.789062 60.449219 26.800781 60.410156 26.800781 C 57.816406 26.757812 55.230469 25.898438 53.101562 24.199219 C 50.347656 22.003906 48.726562 18.875 48.53125 15.386719 C 48.511719 15.03125 48.519531 14.679688 48.53125 14.324219 C 48.535156 14.179688 48.542969 14.03125 48.550781 13.886719 C 48.570312 13.601562 48.601562 13.316406 48.640625 13.03125 C 48.65625 12.917969 48.671875 12.804688 48.691406 12.691406 C 48.746094 12.371094 48.8125 12.054688 48.890625 11.738281 C 48.910156 11.664062 48.925781 11.589844 48.945312 11.515625 C 49.042969 11.167969 49.152344 10.824219 49.277344 10.488281 C 49.296875 10.441406 49.308594 10.394531 49.328125 10.351562 C 49.464844 10 49.617188 9.65625 49.785156 9.320312 C 49.800781 9.28125 49.816406 9.246094 49.835938 9.207031 C 50.003906 8.882812 50.1875 8.566406 50.382812 8.253906 C 50.414062 8.207031 50.441406 8.15625 50.46875 8.109375 C 50.652344 7.828125 50.855469 7.558594 51.0625 7.292969 C 51.117188 7.222656 51.164062 7.148438 51.21875 7.082031 C 51.425781 6.824219 51.652344 6.582031 51.882812 6.34375 C 51.941406 6.28125 51.992188 6.214844 52.054688 6.152344 C 54.347656 3.859375 57.457031 2.613281 60.636719 2.613281 C 61.21875 2.613281 61.804688 2.65625 62.386719 2.738281 L 53.628906 11.492188 C 53.53125 11.589844 53.464844 11.710938 53.429688 11.839844 C 53.394531 11.96875 53.390625 12.109375 53.425781 12.242188 C 54.039062 14.542969 55.261719 16.65625 56.960938 18.359375 C 58.664062 20.058594 60.777344 21.28125 63.078125 21.894531 C 63.210938 21.925781 63.347656 21.925781 63.480469 21.890625 C 63.578125 21.863281 63.667969 21.800781 63.75 21.734375 C 63.773438 21.714844 63.800781 21.714844 63.820312 21.691406 L 63.824219 21.691406 L 72.582031 12.933594 C 72.589844 12.980469 72.585938 13.027344 72.59375 13.074219 C 72.960938 15.824219 72.355469 18.59375 70.945312 20.945312 C 70.242188 22.113281 69.359375 23.183594 68.273438 24.078125 Z M 25.042969 66.546875 C 25.015625 66.597656 24.996094 66.648438 24.96875 66.699219 C 24.847656 66.933594 24.703125 67.160156 24.5625 67.390625 C 24.488281 67.507812 24.425781 67.628906 24.351562 67.742188 C 24.253906 67.886719 24.144531 68.023438 24.042969 68.164062 C 23.671875 68.671875 23.269531 69.160156 22.820312 69.613281 C 22.628906 69.804688 22.421875 69.976562 22.222656 70.15625 C 22.121094 70.246094 22.023438 70.34375 21.917969 70.429688 C 21.839844 70.496094 21.753906 70.550781 21.671875 70.613281 C 17.335938 73.976562 11.230469 73.984375 6.882812 70.632812 C 6.792969 70.5625 6.695312 70.5 6.609375 70.429688 C 6.511719 70.351562 6.425781 70.261719 6.332031 70.179688 C 6.121094 69.992188 5.90625 69.8125 5.707031 69.613281 C 5.511719 69.414062 5.332031 69.203125 5.148438 68.996094 C 5.0625 68.902344 4.972656 68.808594 4.890625 68.710938 C 4.820312 68.625 4.761719 68.535156 4.691406 68.445312 C 1.527344 64.347656 1.339844 58.671875 4.15625 54.398438 C 4.15625 54.398438 4.15625 54.394531 4.15625 54.394531 C 4.320312 54.148438 4.507812 53.910156 4.691406 53.671875 C 4.757812 53.582031 4.820312 53.488281 4.890625 53.402344 C 4.972656 53.304688 5.066406 53.210938 5.148438 53.117188 C 5.332031 52.90625 5.511719 52.699219 5.707031 52.5 C 6.152344 52.054688 6.632812 51.664062 7.132812 51.296875 C 7.28125 51.1875 7.425781 51.070312 7.578125 50.96875 C 7.683594 50.898438 7.792969 50.839844 7.902344 50.773438 C 8.140625 50.628906 8.378906 50.480469 8.625 50.347656 C 8.664062 50.328125 8.703125 50.3125 8.746094 50.292969 C 13.292969 47.964844 19.019531 48.695312 22.820312 52.5 C 26.617188 56.292969 27.351562 62.003906 25.042969 66.546875 Z M 55.632812 28.894531 L 28.464844 56.0625 C 28.050781 56.476562 27.710938 56.953125 27.410156 57.449219 C 26.808594 55.234375 25.648438 53.140625 23.914062 51.40625 C 22.179688 49.671875 20.085938 48.511719 17.871094 47.910156 C 18.367188 47.609375 18.84375 47.269531 19.257812 46.855469 L 46.410156 19.703125 C 46.824219 19.289062 47.160156 18.820312 47.457031 18.324219 C 48.222656 21.089844 49.847656 23.578125 52.136719 25.40625 C 53.597656 26.570312 55.246094 27.382812 56.972656 27.855469 C 56.496094 28.152344 56.042969 28.484375 55.632812 28.894531 Z M 55.632812 28.894531 " fill-opacity="1" fill-rule="nonzero"/></g><path fill="#ff6200" d="M 45.996094 28.234375 L 27.789062 46.441406 C 27.484375 46.742188 27.484375 47.230469 27.789062 47.53125 C 27.9375 47.683594 28.136719 47.757812 28.332031 47.757812 C 28.53125 47.757812 28.730469 47.683594 28.878906 47.53125 L 47.085938 29.324219 C 47.386719 29.023438 47.386719 28.535156 47.085938 28.234375 C 46.785156 27.929688 46.296875 27.929688 45.996094 28.234375 Z M 45.996094 28.234375 " fill-opacity="1" fill-rule="nonzero"/></svg>