<svg xmlns="http://www.w3.org/2000/svg" xmlns:xlink="http://www.w3.org/1999/xlink" width="100" zoomAndPan="magnify" viewBox="0 0 75 74.999997" height="100" preserveAspectRatio="xMidYMid meet" version="1.0"><defs><clipPath id="24acdee5e9"><path d="M 1.640625 0 L 73.640625 0 L 73.640625 75 L 1.640625 75 Z M 1.640625 0 " clip-rule="nonzero"/></clipPath></defs><g clip-path="url(#24acdee5e9)"><path fill="#ff6200" d="M 26.414062 0.0351562 C 26.441406 0.0351562 26.472656 0.0390625 26.5 0.0429688 C 27.476562 0.148438 27.3125 0.808594 27.457031 1.523438 C 27.5 1.734375 27.761719 2.148438 27.871094 2.355469 C 28.3125 3.183594 28.042969 3.90625 27.886719 4.75 C 27.71875 5.6875 28.535156 6.492188 29.097656 7.230469 C 29.296875 7.160156 29.960938 6.824219 30.15625 6.71875 C 31.636719 5.929688 32.144531 5.941406 33.726562 6.167969 C 33.523438 5.699219 33.15625 4.945312 33.9375 4.785156 C 34.261719 4.71875 34.617188 4.769531 34.949219 4.742188 C 35.527344 4.6875 36.113281 4.5 36.691406 4.636719 C 37.144531 4.738281 37.457031 5.144531 37.914062 5.21875 C 38.398438 5.300781 38.875 5.039062 39.351562 5.035156 C 39.617188 5.035156 39.917969 5.226562 40.214844 5.222656 C 40.402344 5.078125 40.535156 4.632812 40.628906 4.386719 C 40.980469 3.476562 42.117188 1.566406 43.328125 2.089844 C 44.3125 2.53125 44.144531 4.640625 44.710938 5.269531 C 45.753906 6.433594 46.78125 6.410156 45.890625 8.332031 C 46.546875 8.933594 46.894531 8.753906 47.066406 9.8125 C 48.253906 9.816406 48.683594 10.128906 48.957031 11.292969 C 49.609375 11.339844 50.285156 11.132812 50.96875 11.222656 C 51.949219 11.355469 52.636719 12.148438 53.503906 12.453125 C 54.015625 12.597656 54.582031 12.464844 55.050781 12.753906 C 55.769531 13.199219 55.941406 14.152344 56.136719 14.90625 C 57.394531 14.367188 58.546875 14.429688 59.765625 15.023438 C 60.664062 14.789062 60.992188 15.359375 61.730469 15.4375 C 62.296875 15.496094 63.375 15.308594 63.941406 15.449219 C 65.761719 15.933594 66.914062 18.054688 68.4375 18.988281 C 69.636719 19.722656 71.914062 19.179688 72.582031 20.789062 C 73.085938 22.011719 73.410156 23.90625 73.351562 25.21875 C 73.328125 25.789062 73.222656 26.347656 73.042969 26.886719 C 72.222656 29.28125 70.753906 29.945312 69.289062 31.855469 C 68.652344 32.683594 68.289062 33.746094 67.527344 34.511719 C 67.042969 34.996094 66.789062 34.957031 66.214844 35.242188 L 66.171875 35.265625 C 65.75 36.574219 65.777344 37.363281 66.019531 38.738281 C 66.101562 39.195312 66.195312 39.667969 66.175781 40.132812 C 66.144531 40.820312 65.765625 41.457031 65.734375 42.136719 C 65.710938 42.582031 65.925781 43.03125 65.808594 43.515625 C 65.695312 43.984375 65.175781 44.121094 65.046875 44.507812 C 64.9375 44.828125 64.914062 45.335938 64.863281 45.679688 C 64.765625 46.351562 64.582031 46.816406 64.332031 47.421875 C 63.886719 48.511719 62.980469 49.136719 62.4375 50.132812 C 62.207031 50.550781 62.179688 51.035156 62.054688 51.46875 C 61.886719 52.027344 61.238281 52.277344 60.757812 52.503906 C 60.546875 52.84375 60.339844 53.390625 59.949219 53.558594 C 59.007812 54 57.617188 53.878906 56.667969 54.183594 C 55.308594 54.617188 54.476562 55.394531 52.996094 55.625 C 52.308594 55.734375 49.878906 57.449219 49.40625 57.953125 C 48.667969 58.738281 48.761719 61.691406 48.597656 62.734375 C 48.34375 64.1875 47.21875 65.042969 46.433594 66.210938 C 46.207031 66.621094 46.15625 67.160156 45.984375 67.613281 C 45.328125 69.359375 44.261719 70.574219 42.628906 71.484375 C 42.367188 71.628906 41.976562 72.835938 41.789062 73.242188 C 41.492188 73.894531 40.238281 75.402344 39.4375 74.847656 C 39.195312 74.675781 39.238281 73.988281 39.234375 73.671875 C 39.210938 73.421875 39.179688 73.164062 39.019531 72.96875 C 38.203125 71.941406 36.898438 71.1875 35.933594 70.34375 C 34.933594 69.46875 34.730469 67.871094 33.09375 68.140625 C 30.535156 68.5625 33.273438 65.582031 33.738281 64.976562 C 34.457031 63.957031 35.050781 63.261719 36.023438 62.507812 C 36.5625 62.085938 37.160156 61.945312 37.703125 61.546875 C 38.476562 60.984375 38.46875 60.054688 38.570312 59.179688 C 38.03125 59.199219 37.527344 59.152344 37.46875 58.480469 C 37.429688 58.054688 37.570312 57.613281 37.589844 57.1875 C 37.613281 56.722656 37.609375 56.25 37.605469 55.785156 C 35.980469 55.703125 35.914062 55.273438 35.679688 53.804688 C 35.523438 52.8125 34.5 53.445312 34.28125 52.101562 C 33.40625 52.320312 33.058594 52.445312 32.167969 52.183594 C 30.515625 51.703125 31.007812 50.609375 31.058594 49.28125 C 31.089844 48.457031 30.910156 47.863281 31.230469 47.035156 C 30.589844 46.054688 31.371094 45.09375 31.472656 44.0625 C 31.640625 42.277344 30.039062 42.722656 30.296875 40.796875 C 29.210938 40.585938 28.25 41.082031 27.316406 40.453125 C 26.808594 40.234375 26.800781 38.933594 26.632812 38.734375 C 25.613281 37.539062 26.359375 37.410156 26.363281 36.171875 C 26.363281 35.960938 26.082031 35.597656 25.867188 35.496094 C 25.328125 35.242188 24.628906 35.339844 24.078125 35.089844 C 23.226562 34.671875 22.761719 34.039062 21.808594 33.730469 C 21 33.464844 20.21875 33.542969 19.460938 33.246094 C 19.105469 33.105469 18.78125 32.625 18.480469 32.386719 C 18.320312 32.253906 17.980469 32.128906 17.835938 32 C 17.0625 31.300781 17.15625 29.542969 17 28.566406 C 15.980469 28.703125 14.414062 29.691406 13.625 30.320312 C 12.058594 31.578125 11.574219 31.324219 9.691406 31.296875 C 7.816406 31.269531 7.042969 31.621094 7.546875 29.261719 C 6.78125 29.613281 5.730469 30.035156 5.046875 29.304688 C 4.914062 29.164062 4.824219 28.957031 4.738281 28.785156 C 3.878906 28.464844 2.675781 28.605469 3.136719 27.308594 C 2.734375 26.785156 2.277344 26.230469 1.929688 25.667969 C 1.21875 24.535156 1.957031 23.183594 2.5625 22.191406 C 2.671875 22.011719 2.773438 21.472656 2.851562 21.253906 C 3.1875 20.289062 3.953125 19.582031 4.75 18.980469 C 5.539062 18.386719 6.582031 17.800781 7.59375 17.730469 C 7.707031 17.722656 8.277344 17.8125 8.425781 17.832031 C 8.683594 16.789062 9.394531 14.015625 8.96875 13.023438 C 8.726562 12.464844 8.222656 12.027344 8.039062 11.464844 C 7.917969 11.105469 7.84375 10.585938 8.035156 10.246094 C 8.214844 9.941406 8.5 9.851562 8.820312 9.769531 C 8.800781 9.757812 8.78125 9.746094 8.757812 9.734375 C 8.457031 9.570312 8.234375 9.285156 8.144531 8.949219 C 7.753906 7.488281 9.222656 7.191406 10.332031 7.011719 C 10.621094 6.964844 11.035156 7.132812 11.359375 7.035156 C 11.808594 6.902344 12.167969 6.609375 12.628906 6.515625 C 13.914062 6.355469 14.019531 7.355469 14.667969 8.046875 C 14.785156 8.171875 15.660156 8.707031 15.882812 8.851562 C 16.210938 8.664062 16.507812 8.347656 16.855469 8.175781 C 17.335938 7.933594 17.898438 7.851562 18.347656 7.546875 C 18.914062 7.164062 19.335938 6.792969 19.507812 6.113281 C 19.273438 5.730469 18.984375 5.332031 18.765625 4.941406 C 18.597656 4.671875 18.632812 4.101562 18.449219 3.863281 C 18.0625 3.359375 17.078125 2.789062 17.832031 2.078125 C 18.613281 1.339844 19.558594 2.566406 20.316406 2.460938 C 21.421875 2.308594 22.550781 1.660156 23.664062 1.460938 C 24.097656 1.382812 24.410156 1.386719 24.84375 1.386719 C 25.425781 0.890625 25.417969 0.210938 26.414062 0.0351562 Z M 19.160156 3.164062 C 19.507812 3.695312 19.496094 4.039062 19.714844 4.605469 C 19.867188 4.996094 20.273438 5.378906 20.414062 5.785156 C 20.726562 6.988281 19.371094 8.140625 18.425781 8.628906 C 18.132812 8.777344 17.441406 8.925781 17.25 9.070312 C 16.191406 9.863281 15.953125 10.148438 14.753906 9.289062 C 14.40625 9.039062 13.84375 8.753906 13.617188 8.292969 C 13.023438 7.117188 12.777344 7.464844 11.769531 7.9375 C 11.382812 8.117188 10.878906 8.03125 10.464844 8.003906 C 10.148438 7.988281 8.75 8.269531 9.054688 8.75 C 9.410156 8.964844 10.335938 8.835938 10.410156 9.347656 C 10.601562 10.699219 9.582031 10.578125 8.902344 10.753906 C 8.90625 10.882812 8.894531 11.066406 8.945312 11.1875 C 9.023438 11.378906 9.21875 11.585938 9.339844 11.753906 C 9.628906 12.148438 9.917969 12.65625 10.035156 13.136719 C 10.085938 13.332031 10.101562 13.542969 10.09375 13.746094 C 10.070312 14.527344 9.582031 18.148438 9.097656 18.65625 C 8.960938 18.796875 8.769531 18.84375 8.578125 18.839844 C 8.25 18.832031 7.917969 18.695312 7.59375 18.710938 C 6.574219 18.765625 5.4375 19.582031 4.714844 20.242188 C 4.398438 20.527344 4.109375 20.851562 3.898438 21.222656 C 3.652344 21.648438 3.644531 22.09375 3.476562 22.535156 C 3.214844 23.207031 2.660156 23.753906 2.621094 24.519531 C 2.566406 25.460938 3.773438 26.234375 4.078125 26.988281 C 4.15625 27.183594 4.054688 27.433594 4.140625 27.597656 C 4.28125 27.648438 5.105469 27.863281 5.136719 27.886719 C 5.867188 28.46875 5.660156 29.042969 6.796875 28.527344 C 7.234375 28.328125 7.746094 27.652344 8.195312 27.835938 C 9.046875 28.183594 8.382812 29.691406 8.363281 30.359375 C 9.574219 30.203125 10.664062 30.496094 11.808594 30.300781 C 12.335938 30.148438 12.773438 29.726562 13.214844 29.441406 C 14.347656 28.699219 15.496094 27.789062 16.867188 27.625 C 18 27.488281 17.871094 28.085938 18.019531 29.023438 C 18.132812 29.722656 18.097656 30.496094 18.339844 31.191406 C 18.59375 31.34375 18.820312 31.476562 19.058594 31.648438 C 19.207031 31.730469 19.78125 32.347656 19.894531 32.375 C 20.625 32.5625 21.316406 32.59375 22.0625 32.796875 C 23.054688 33.0625 23.640625 33.785156 24.5 34.199219 C 25.039062 34.457031 26 34.285156 26.527344 34.753906 C 26.949219 35.058594 27.167969 35.453125 27.289062 35.953125 C 27.457031 36.652344 27.359375 36.992188 27.035156 37.589844 C 27.230469 37.898438 27.429688 38.121094 27.574219 38.433594 C 27.785156 38.878906 27.609375 39.6875 28.195312 39.78125 C 29.109375 39.929688 30.550781 39.359375 31.167969 40.339844 C 31.398438 40.707031 31.136719 41.128906 31.292969 41.484375 C 31.382812 41.691406 31.746094 42.027344 31.910156 42.207031 C 32.621094 42.988281 32.53125 44.058594 32.261719 45.003906 C 32.128906 45.480469 32.003906 45.820312 31.929688 46.316406 C 32.113281 46.59375 32.296875 46.796875 32.226562 47.148438 C 32.199219 47.289062 32.035156 47.617188 32.039062 47.71875 C 32.058594 48.800781 31.933594 49.96875 31.996094 51.03125 C 32.339844 51.230469 32.574219 51.335938 32.984375 51.339844 C 33.980469 51.355469 35.300781 50.386719 35.265625 52.136719 C 35.796875 52.382812 36.324219 52.621094 36.542969 53.199219 C 36.671875 53.542969 36.597656 54.59375 37.019531 54.738281 C 37.460938 54.890625 38.226562 54.707031 38.480469 55.40625 C 38.714844 56.039062 38.554688 57.535156 38.433594 58.195312 C 39.773438 58.09375 39.574219 59.328125 39.425781 60.214844 C 39.3125 60.910156 39.140625 61.5 38.632812 62.019531 C 38.101562 62.582031 37.390625 62.785156 36.757812 63.183594 C 35.753906 63.886719 35.164062 64.648438 34.464844 65.621094 C 34.117188 66.109375 33.707031 66.550781 33.34375 67.074219 C 35.253906 67.140625 35.535156 68.535156 36.671875 69.710938 C 36.980469 70.03125 37.488281 70.304688 37.839844 70.578125 C 38.394531 71.054688 39.292969 71.722656 39.722656 72.261719 C 40.109375 72.8125 40.15625 73.042969 40.210938 73.703125 C 41.28125 72.726562 41.015625 72.128906 41.753906 70.984375 C 42.050781 70.519531 42.53125 70.464844 42.921875 70.179688 C 43.296875 69.902344 43.851562 69.378906 44.148438 69.015625 C 44.632812 68.394531 45.007812 67.613281 45.226562 66.863281 C 45.328125 66.554688 45.375 66.003906 45.550781 65.738281 C 46.375 64.484375 47.632812 63.707031 47.703125 62.074219 C 47.761719 60.730469 47.765625 57.992188 48.898438 57.085938 C 50 56.203125 51.261719 55.265625 52.570312 54.730469 C 53.078125 54.542969 53.773438 54.476562 54.253906 54.230469 C 55.019531 53.832031 55.5625 53.492188 56.398438 53.238281 C 57.347656 52.949219 58.65625 53.015625 59.523438 52.691406 C 59.835938 52.203125 59.941406 51.820312 60.503906 51.546875 C 60.660156 51.46875 60.941406 51.351562 61.074219 51.265625 C 61.285156 50.710938 61.320312 50.09375 61.625 49.570312 C 62.164062 48.648438 63.03125 47.96875 63.476562 46.984375 C 63.644531 46.597656 63.773438 46.191406 63.851562 45.777344 C 64.070312 44.59375 63.84375 44.105469 64.882812 43.246094 C 64.761719 42.460938 64.671875 41.953125 64.945312 41.175781 C 65.058594 40.816406 65.199219 40.445312 65.210938 40.0625 C 65.226562 39.511719 65.070312 38.960938 64.996094 38.417969 C 64.832031 37.226562 64.800781 35.292969 65.691406 34.335938 C 66.113281 34.214844 66.523438 34.140625 66.84375 33.816406 C 67.585938 33.058594 67.929688 31.945312 68.605469 31.152344 C 70.777344 28.597656 72.671875 27.703125 72.347656 23.976562 C 72.289062 23.304688 72.171875 22.644531 71.988281 21.996094 C 71.660156 20.847656 71.375 20.640625 70.238281 20.472656 C 69.457031 20.355469 68.5 20.167969 67.824219 19.75 C 66.503906 18.882812 65.441406 17.222656 64.03125 16.480469 C 63.472656 16.1875 62.097656 16.515625 61.4375 16.355469 C 60.980469 16.246094 60.886719 16.179688 60.449219 15.964844 C 60.285156 16.035156 60.160156 16.09375 59.988281 16.144531 C 59.371094 16.003906 58.921875 15.605469 58.253906 15.550781 C 57.929688 15.523438 57.609375 15.5 57.277344 15.558594 C 56.585938 15.671875 55.875 16.34375 55.359375 15.550781 C 55.023438 15.027344 55.070312 13.617188 54.371094 13.539062 C 53.507812 13.445312 52.953125 13.414062 52.222656 12.855469 C 51.304688 12.15625 50.582031 12.050781 49.460938 12.246094 C 49.035156 12.273438 48.445312 12.316406 48.175781 11.925781 C 47.945312 11.59375 48.03125 10.886719 47.5625 10.824219 C 46.613281 10.699219 45.96875 10.925781 46.054688 9.644531 C 45.582031 9.339844 45.121094 9.09375 44.957031 8.511719 C 44.816406 8.011719 45.371094 7.464844 45.226562 7.171875 C 44.902344 6.527344 44.289062 6.441406 43.820312 5.6875 C 43.320312 4.886719 43.3125 3.664062 42.972656 3.058594 C 42.910156 3.019531 42.828125 2.960938 42.757812 3.003906 C 42.371094 3.242188 41.902344 3.96875 41.710938 4.347656 C 41.371094 5.027344 41.269531 5.886719 40.488281 6.207031 C 40.070312 6.363281 39.664062 5.996094 39.214844 6.050781 C 38.570312 6.136719 38.078125 6.339844 37.421875 6.109375 C 37.1875 6.027344 36.734375 5.667969 36.5625 5.628906 C 36.003906 5.5 35.195312 5.714844 34.601562 5.738281 C 34.765625 6.246094 34.886719 6.886719 34.167969 7.035156 C 33.171875 7.246094 32.242188 6.710938 31.25 7.238281 C 30.8125 7.425781 29.21875 8.285156 28.976562 8.328125 C 28.867188 8.347656 28.753906 8.324219 28.660156 8.265625 C 28.46875 8.148438 28.351562 7.855469 28.210938 7.660156 C 27.636719 6.859375 27.15625 6.476562 26.949219 5.5 C 26.734375 4.472656 27.257812 3.984375 27.117188 3.058594 C 27.0625 2.691406 26.671875 2.253906 26.535156 1.886719 C 26.449219 1.652344 26.492188 1.144531 26.410156 0.992188 C 25.976562 1.316406 25.859375 1.886719 25.417969 2.175781 C 24.9375 2.480469 24.3125 2.308594 23.796875 2.425781 C 23.21875 2.5625 22.613281 2.785156 22.050781 2.984375 C 21.003906 3.355469 20.234375 3.691406 19.160156 3.164062 Z M 19.160156 3.164062 " fill-opacity="1" fill-rule="nonzero"/></g></svg>