<svg xmlns="http://www.w3.org/2000/svg" xmlns:xlink="http://www.w3.org/1999/xlink" width="100" zoomAndPan="magnify" viewBox="0 0 75 74.999997" height="100" preserveAspectRatio="xMidYMid meet" version="1.0"><defs><clipPath id="c6ec8c0b7a"><path d="M 10.839844 19.4375 L 64.089844 19.4375 L 64.089844 55.4375 L 10.839844 55.4375 Z M 10.839844 19.4375 " clip-rule="nonzero"/></clipPath></defs><g clip-path="url(#c6ec8c0b7a)"><path fill="#ff6200" d="M 38.191406 43.171875 L 49.425781 40.148438 C 48.054688 38.207031 46.257812 36.585938 44.167969 35.425781 C 41.902344 34.167969 39.289062 33.449219 36.507812 33.449219 C 32.144531 33.449219 28.195312 35.21875 25.339844 38.074219 C 22.480469 40.933594 20.710938 44.882812 20.710938 49.246094 C 20.710938 49.613281 20.414062 49.910156 20.046875 49.910156 L 11.5 49.910156 C 11.132812 49.910156 10.832031 49.613281 10.832031 49.246094 C 10.832031 42.15625 13.707031 35.738281 18.351562 31.089844 C 23 26.445312 29.417969 23.570312 36.507812 23.570312 C 41.492188 23.570312 46.144531 24.992188 50.082031 27.449219 C 53.996094 29.894531 57.203125 33.363281 59.332031 37.484375 L 62.066406 36.746094 C 59.835938 32.191406 56.417969 28.320312 52.21875 25.53125 C 47.71875 22.542969 42.316406 20.800781 36.507812 20.800781 C 36.140625 20.800781 35.84375 20.503906 35.84375 20.136719 C 35.84375 19.769531 36.140625 19.472656 36.507812 19.472656 C 42.585938 19.472656 48.238281 21.292969 52.953125 24.421875 C 57.484375 27.429688 61.140625 31.644531 63.472656 36.609375 L 63.523438 36.632812 C 63.757812 36.742188 63.949219 36.933594 64.058594 37.1875 C 64.167969 37.433594 64.179688 37.707031 64.105469 37.949219 C 64.03125 38.199219 63.871094 38.417969 63.640625 38.5625 L 60.640625 40.46875 C 61.113281 41.769531 61.484375 43.121094 61.746094 44.511719 C 62.03125 46.054688 62.183594 47.636719 62.183594 49.246094 C 62.183594 49.613281 61.882812 49.910156 61.515625 49.910156 L 52.96875 49.910156 C 52.601562 49.910156 52.304688 49.613281 52.304688 49.246094 C 52.304688 48.519531 52.257812 47.820312 52.167969 47.144531 C 52.117188 46.753906 52.046875 46.363281 51.96875 45.980469 L 42.003906 52.304688 C 41.71875 52.816406 41.367188 53.28125 40.957031 53.691406 C 39.820312 54.828125 38.246094 55.53125 36.507812 55.53125 C 34.769531 55.53125 33.195312 54.828125 32.058594 53.691406 C 30.917969 52.550781 30.214844 50.976562 30.214844 49.238281 C 30.214844 47.5 30.917969 45.929688 32.058594 44.789062 C 33.195312 43.648438 34.769531 42.945312 36.507812 42.945312 C 37.089844 42.945312 37.65625 43.023438 38.191406 43.171875 Z M 50.785156 39.785156 L 50.8125 39.777344 L 58.019531 37.835938 C 56.917969 35.757812 55.519531 33.859375 53.882812 32.195312 L 48.78125 37.300781 C 49.523438 38.0625 50.195312 38.894531 50.785156 39.785156 Z M 59.492188 41.199219 L 53.195312 45.199219 L 53.160156 45.222656 C 53.292969 45.789062 53.402344 46.371094 53.484375 46.972656 C 53.554688 47.507812 53.601562 48.042969 53.621094 48.578125 L 60.84375 48.578125 C 60.808594 47.269531 60.671875 45.992188 60.441406 44.753906 C 60.210938 43.535156 59.894531 42.347656 59.492188 41.199219 Z M 52.015625 44.371094 C 52.03125 44.363281 52.042969 44.355469 52.058594 44.34375 L 52.480469 44.078125 L 61.695312 38.226562 L 51.152344 41.0625 L 40.0625 44.046875 C 40.382812 44.265625 40.683594 44.515625 40.957031 44.789062 C 42.097656 45.929688 42.800781 47.5 42.800781 49.238281 C 42.800781 49.59375 42.773438 49.941406 42.714844 50.277344 Z M 52.925781 31.269531 C 51.832031 30.269531 50.644531 29.367188 49.378906 28.578125 C 45.824219 26.359375 41.648438 25.03125 37.171875 24.910156 L 37.171875 32.132812 C 39.9375 32.238281 42.53125 33 44.8125 34.265625 C 45.890625 34.863281 46.894531 35.574219 47.8125 36.382812 Z M 35.84375 24.910156 C 29.621094 25.078125 23.984375 27.578125 19.769531 31.566406 L 24.878906 36.671875 C 27.78125 33.988281 31.613281 32.292969 35.84375 32.132812 Z M 18.832031 32.507812 C 14.839844 36.722656 12.339844 42.359375 12.171875 48.578125 L 19.394531 48.578125 C 19.554688 44.351562 21.25 40.515625 23.9375 37.613281 Z M 40.015625 45.730469 C 39.121094 44.832031 37.878906 44.277344 36.507812 44.277344 C 35.136719 44.277344 33.894531 44.832031 33 45.730469 C 32.101562 46.628906 31.546875 47.867188 31.546875 49.238281 C 31.546875 50.609375 32.101562 51.851562 33 52.75 C 33.894531 53.644531 35.136719 54.203125 36.507812 54.203125 C 37.878906 54.203125 39.121094 53.644531 40.015625 52.75 C 40.914062 51.851562 41.46875 50.609375 41.46875 49.238281 C 41.46875 47.867188 40.914062 46.628906 40.015625 45.730469 Z M 40.015625 45.730469 " fill-opacity="1" fill-rule="evenodd"/></g></svg>