<svg xmlns="http://www.w3.org/2000/svg" xmlns:xlink="http://www.w3.org/1999/xlink" width="100" zoomAndPan="magnify" viewBox="0 0 75 74.999997" height="100" preserveAspectRatio="xMidYMid meet" version="1.0"><defs><clipPath id="ae1e782748"><path d="M 0 0.375 L 75 0.375 L 75 74.625 L 0 74.625 Z M 0 0.375 " clip-rule="nonzero"/></clipPath></defs><g clip-path="url(#ae1e782748)"><path fill="#ff6200" d="M 74.5 56.609375 C 73.996094 55.101562 72.851562 53.914062 71.351562 53.351562 L 55.671875 47.46875 C 54.074219 46.867188 52.402344 47.050781 50.96875 47.976562 L 45.6875 51.398438 C 44.699219 52.039062 43.511719 52.046875 42.511719 51.414062 C 38.8125 49.074219 35.351562 46.300781 32.234375 43.179688 C 32.234375 43.179688 32.234375 43.175781 32.234375 43.175781 C 29.109375 40.058594 26.339844 36.601562 23.996094 32.898438 C 23.367188 31.902344 23.371094 30.714844 24.011719 29.722656 L 27.433594 24.441406 C 28.363281 23.007812 28.542969 21.335938 27.941406 19.738281 L 22.058594 4.058594 C 21.496094 2.5625 20.3125 1.414062 18.804688 0.914062 C 17.296875 0.410156 15.65625 0.617188 14.308594 1.476562 L 6.101562 6.722656 C 1.949219 9.375 0.00390625 14.1875 1.148438 18.980469 C 4.324219 32.285156 11.234375 44.492188 21.125 54.277344 C 30.917969 64.179688 43.128906 71.089844 56.429688 74.261719 C 57.34375 74.480469 58.257812 74.585938 59.15625 74.585938 C 62.976562 74.585938 66.542969 72.671875 68.691406 69.308594 L 73.933594 61.101562 C 74.796875 59.753906 75 58.117188 74.5 56.609375 Z M 71.988281 59.859375 L 66.742188 68.066406 C 64.625 71.378906 60.789062 72.929688 56.964844 72.015625 C 44.085938 68.941406 32.257812 62.246094 22.757812 52.644531 C 13.164062 43.152344 6.46875 31.328125 3.394531 18.445312 C 2.484375 14.621094 4.035156 10.785156 7.347656 8.667969 L 15.554688 3.425781 C 16.039062 3.113281 16.59375 2.953125 17.148438 2.953125 C 17.460938 2.953125 17.769531 3.003906 18.074219 3.105469 C 18.914062 3.386719 19.582031 4.03125 19.898438 4.871094 L 25.78125 20.550781 C 26.121094 21.460938 26.023438 22.371094 25.492188 23.1875 L 22.074219 28.464844 C 20.945312 30.207031 20.933594 32.378906 22.042969 34.132812 C 24.476562 37.980469 27.355469 41.574219 30.601562 44.8125 C 33.839844 48.054688 37.429688 50.933594 41.277344 53.367188 C 43.03125 54.476562 45.203125 54.464844 46.945312 53.335938 L 52.226562 49.917969 C 53.039062 49.390625 53.953125 49.292969 54.863281 49.632812 L 70.539062 55.515625 C 71.382812 55.832031 72.027344 56.496094 72.308594 57.339844 C 72.589844 58.179688 72.472656 59.101562 71.988281 59.859375 Z M 71.988281 59.859375 " fill-opacity="1" fill-rule="nonzero"/></g></svg>