<svg xmlns="http://www.w3.org/2000/svg" xmlns:xlink="http://www.w3.org/1999/xlink" width="100" zoomAndPan="magnify" viewBox="0 0 75 74.999997" height="100" preserveAspectRatio="xMidYMid meet" version="1.0"><defs><clipPath id="7ebda09567"><path d="M 0 14.015625 L 75 14.015625 L 75 61 L 0 61 Z M 0 14.015625 " clip-rule="nonzero"/></clipPath></defs><g clip-path="url(#7ebda09567)"><path fill="#ff6200" d="M 74.273438 32.941406 L 64.550781 16.09375 C 64.027344 15.195312 63.191406 14.554688 62.179688 14.28125 C 61.175781 14.015625 60.125 14.148438 59.222656 14.667969 L 55.84375 16.621094 C 54.007812 17.679688 53.367188 20.023438 54.394531 21.867188 C 53.683594 22.238281 52.957031 22.566406 52.183594 22.847656 C 50.636719 23.414062 49.148438 23.375 47.632812 22.734375 L 46.117188 22.085938 C 44.46875 21.386719 42.824219 21.265625 41.097656 21.734375 L 35.28125 23.289062 C 34.046875 23.621094 33.035156 24.171875 32.113281 25.015625 C 30.90625 24.671875 29.691406 24.445312 28.410156 24.210938 C 25.933594 23.753906 23.375 23.285156 20.667969 21.867188 C 21.695312 20.023438 21.054688 17.679688 19.21875 16.617188 L 15.835938 14.664062 C 14.9375 14.144531 13.886719 14.007812 12.878906 14.28125 C 11.871094 14.546875 11.03125 15.191406 10.511719 16.09375 L 0.785156 32.941406 C 0.265625 33.839844 0.128906 34.890625 0.398438 35.898438 C 0.667969 36.90625 1.3125 37.746094 2.214844 38.265625 L 5.597656 40.21875 C 6.203125 40.570312 6.871094 40.738281 7.527344 40.738281 C 8.699219 40.738281 9.847656 40.207031 10.597656 39.242188 C 11.835938 41.132812 13.0625 42.476562 14.457031 43.808594 L 14.074219 44.472656 C 13.558594 45.371094 13.421875 46.414062 13.691406 47.421875 C 13.960938 48.425781 14.601562 49.265625 15.496094 49.78125 C 16.109375 50.136719 16.777344 50.300781 17.433594 50.300781 C 17.761719 50.300781 18.089844 50.257812 18.40625 50.179688 C 18.363281 50.632812 18.402344 51.09375 18.523438 51.550781 C 18.792969 52.558594 19.433594 53.394531 20.332031 53.910156 C 20.941406 54.261719 21.605469 54.433594 22.269531 54.433594 C 22.804688 54.433594 23.335938 54.320312 23.828125 54.105469 C 23.960938 55.289062 24.632812 56.398438 25.742188 57.035156 C 26.335938 57.382812 27 57.554688 27.671875 57.554688 C 28.011719 57.554688 28.355469 57.511719 28.691406 57.417969 C 29.144531 57.296875 29.5625 57.097656 29.933594 56.835938 C 30.199219 57.78125 30.820312 58.628906 31.734375 59.15625 C 32.328125 59.5 32.992188 59.675781 33.664062 59.675781 C 34.003906 59.675781 34.347656 59.632812 34.679688 59.542969 C 35.625 59.289062 36.421875 58.707031 36.941406 57.898438 L 41.371094 60.453125 C 41.964844 60.796875 42.628906 60.976562 43.300781 60.976562 C 43.640625 60.976562 43.980469 60.929688 44.316406 60.839844 C 45.324219 60.570312 46.164062 59.925781 46.679688 59.03125 C 47.136719 58.238281 47.28125 57.34375 47.148438 56.496094 C 48.882812 57.109375 50.859375 56.421875 51.808594 54.777344 C 52.265625 53.984375 52.414062 53.089844 52.28125 52.242188 C 53.015625 52.503906 53.808594 52.535156 54.578125 52.328125 C 55.585938 52.058594 56.421875 51.417969 56.941406 50.519531 C 57.398438 49.726562 57.542969 48.835938 57.410156 47.988281 C 59.136719 48.597656 61.121094 47.910156 62.070312 46.265625 C 62.804688 44.996094 62.734375 43.476562 62.019531 42.304688 C 62.804688 41.410156 63.585938 40.402344 64.433594 39.191406 C 65.183594 40.183594 66.34375 40.734375 67.535156 40.734375 C 68.191406 40.734375 68.855469 40.566406 69.464844 40.214844 L 72.847656 38.265625 C 73.75 37.742188 74.390625 36.90625 74.660156 35.894531 C 74.929688 34.890625 74.792969 33.839844 74.273438 32.941406 Z M 35.675781 24.761719 L 41.492188 23.207031 C 42.898438 22.828125 44.175781 22.917969 45.519531 23.492188 L 47.039062 24.136719 C 48.898438 24.925781 50.808594 24.972656 52.703125 24.277344 C 53.5625 23.960938 54.367188 23.601562 55.15625 23.191406 L 63.570312 37.765625 C 62.644531 39.125 61.808594 40.230469 60.984375 41.183594 C 60.875 41.105469 60.765625 41.03125 60.644531 40.960938 L 51.699219 35.796875 C 54.15625 35.640625 55.769531 34.855469 55.84375 34.820312 C 56.222656 34.636719 56.375 34.179688 56.1875 33.800781 C 56.003906 33.421875 55.546875 33.269531 55.167969 33.457031 C 55.097656 33.492188 47.96875 36.898438 41.074219 29.695312 C 40.933594 29.550781 40.746094 29.46875 40.546875 29.464844 L 36.941406 29.355469 C 36.730469 29.355469 36.527344 29.429688 36.378906 29.578125 L 33.878906 32.078125 C 32.84375 33.113281 31.628906 33.28125 30.789062 33.238281 C 29.613281 33.179688 28.730469 32.699219 28.339844 32.308594 C 27.960938 31.929688 27.960938 31.308594 28.339844 30.929688 L 32.902344 26.367188 C 33.714844 25.554688 34.570312 25.058594 35.675781 24.761719 Z M 6.355469 38.902344 L 2.976562 36.949219 C 2.425781 36.632812 2.035156 36.121094 1.871094 35.507812 C 1.703125 34.890625 1.789062 34.253906 2.105469 33.703125 L 11.832031 16.859375 C 12.144531 16.3125 12.660156 15.917969 13.273438 15.753906 C 13.480469 15.699219 13.691406 15.671875 13.898438 15.671875 C 14.304688 15.671875 14.714844 15.78125 15.078125 15.988281 L 18.460938 17.941406 C 19.585938 18.589844 19.972656 20.035156 19.324219 21.160156 L 9.574219 38.039062 C 8.925781 39.164062 7.484375 39.550781 6.355469 38.902344 Z M 16.253906 48.464844 C 15.710938 48.152344 15.320312 47.640625 15.15625 47.027344 C 14.992188 46.417969 15.078125 45.78125 15.390625 45.234375 L 18.527344 39.800781 C 19.179688 38.671875 20.628906 38.285156 21.757812 38.933594 C 22.886719 39.585938 23.273438 41.035156 22.621094 42.164062 L 19.484375 47.601562 C 18.832031 48.726562 17.386719 49.117188 16.253906 48.464844 Z M 21.089844 52.589844 C 20.546875 52.277344 20.15625 51.769531 19.992188 51.15625 C 19.828125 50.542969 19.910156 49.90625 20.222656 49.363281 L 24.519531 41.921875 C 24.832031 41.378906 25.34375 40.988281 25.957031 40.824219 C 26.570312 40.660156 27.203125 40.742188 27.75 41.058594 C 28.878906 41.707031 29.265625 43.15625 28.613281 44.285156 L 24.320312 51.726562 C 23.667969 52.855469 22.21875 53.242188 21.089844 52.589844 Z M 28.296875 55.949219 C 27.683594 56.113281 27.046875 56.03125 26.5 55.71875 C 25.371094 55.0625 24.984375 53.617188 25.636719 52.488281 L 30.511719 44.042969 C 30.824219 43.5 31.335938 43.109375 31.949219 42.945312 C 32.558594 42.78125 33.195312 42.867188 33.738281 43.179688 C 34.867188 43.832031 35.257812 45.28125 34.605469 46.410156 L 29.730469 54.851562 C 29.417969 55.394531 28.90625 55.785156 28.296875 55.949219 Z M 34.285156 58.070312 C 33.675781 58.238281 33.035156 58.152344 32.492188 57.835938 C 31.363281 57.1875 30.976562 55.738281 31.628906 54.609375 L 34.765625 49.171875 C 35.078125 48.628906 35.589844 48.238281 36.203125 48.074219 C 36.8125 47.910156 37.449219 47.992188 37.992188 48.308594 C 39.121094 48.960938 39.511719 50.410156 38.859375 51.539062 L 35.722656 56.972656 C 35.40625 57.515625 34.898438 57.90625 34.285156 58.070312 Z M 60.75 45.507812 C 60.097656 46.636719 58.648438 47.023438 57.519531 46.375 L 49.875 41.960938 C 49.511719 41.75 49.046875 41.875 48.839844 42.242188 C 48.625 42.605469 48.753906 43.066406 49.117188 43.277344 L 54.769531 46.542969 C 54.769531 46.542969 54.769531 46.542969 54.773438 46.542969 C 55.886719 47.199219 56.265625 48.644531 55.621094 49.761719 C 55.308594 50.304688 54.796875 50.695312 54.183594 50.859375 C 53.570312 51.023438 52.933594 50.941406 52.390625 50.628906 L 46.75 47.375 C 46.386719 47.164062 45.925781 47.289062 45.714844 47.652344 C 45.503906 48.015625 45.628906 48.480469 45.992188 48.691406 L 49.640625 50.796875 C 49.640625 50.796875 49.644531 50.800781 49.644531 50.800781 C 50.757812 51.460938 51.132812 52.898438 50.488281 54.015625 C 49.835938 55.144531 48.386719 55.53125 47.257812 54.882812 L 43.625 52.785156 C 43.261719 52.574219 42.796875 52.699219 42.585938 53.0625 C 42.378906 53.425781 42.503906 53.894531 42.867188 54.101562 L 44.511719 55.050781 C 44.511719 55.050781 44.515625 55.054688 44.519531 55.058594 C 45.625 55.714844 46.003906 57.15625 45.355469 58.269531 C 45.046875 58.816406 44.535156 59.203125 43.921875 59.367188 C 43.308594 59.53125 42.671875 59.453125 42.128906 59.136719 L 37.703125 56.582031 L 40.179688 52.296875 C 41.246094 50.441406 40.609375 48.0625 38.753906 46.992188 C 37.980469 46.542969 37.09375 46.382812 36.222656 46.519531 C 36.832031 44.789062 36.148438 42.8125 34.5 41.859375 C 33.605469 41.34375 32.558594 41.207031 31.554688 41.476562 C 31.097656 41.597656 30.679688 41.796875 30.304688 42.058594 C 30.042969 41.113281 29.425781 40.269531 28.507812 39.738281 C 27.613281 39.222656 26.566406 39.085938 25.558594 39.355469 C 25.105469 39.476562 24.683594 39.675781 24.3125 39.9375 C 24.050781 38.992188 23.429688 38.144531 22.515625 37.617188 C 21.621094 37.101562 20.574219 36.960938 19.566406 37.234375 C 18.5625 37.5 17.722656 38.144531 17.207031 39.039062 L 15.234375 42.453125 C 13.851562 41.113281 12.691406 39.777344 11.472656 37.785156 L 19.902344 23.191406 C 22.84375 24.738281 25.644531 25.253906 28.128906 25.710938 C 29.066406 25.882812 29.96875 26.054688 30.84375 26.265625 L 27.257812 29.851562 C 26.285156 30.824219 26.285156 32.410156 27.257812 33.382812 C 28.039062 34.164062 29.363281 34.691406 30.710938 34.757812 C 32.328125 34.835938 33.832031 34.265625 34.945312 33.152344 L 37.214844 30.882812 L 40.183594 30.972656 C 43.007812 33.835938 45.871094 35.082031 48.25 35.5625 C 48.257812 35.566406 48.261719 35.574219 48.269531 35.578125 L 59.878906 42.277344 C 61.011719 42.929688 61.402344 44.375 60.75 45.507812 Z M 73.191406 35.503906 C 73.027344 36.121094 72.636719 36.632812 72.085938 36.949219 L 68.703125 38.902344 C 67.578125 39.550781 66.136719 39.167969 65.484375 38.039062 L 55.738281 21.160156 C 55.089844 20.035156 55.476562 18.589844 56.601562 17.941406 L 59.984375 15.988281 C 60.53125 15.671875 61.171875 15.589844 61.789062 15.753906 C 62.402344 15.917969 62.914062 16.308594 63.230469 16.859375 L 72.957031 33.703125 C 73.273438 34.25 73.355469 34.890625 73.191406 35.503906 Z M 73.191406 35.503906 " fill-opacity="1" fill-rule="nonzero"/></g></svg>