<svg xmlns="http://www.w3.org/2000/svg" xmlns:xlink="http://www.w3.org/1999/xlink" width="100" zoomAndPan="magnify" viewBox="0 0 75 74.999997" height="100" preserveAspectRatio="xMidYMid meet" version="1.0"><defs><clipPath id="50566080c8"><path d="M 12 12 L 62.957031 12 L 62.957031 63 L 12 63 Z M 12 12 " clip-rule="nonzero"/></clipPath></defs><g clip-path="url(#50566080c8)"><path fill="#ff6200" d="M 62.625 36.335938 C 56.382812 32.976562 48.558594 35.699219 45.703125 41.785156 C 41.738281 37.511719 35.199219 36.875 30.476562 40.136719 L 29.574219 26.148438 C 29.539062 25.652344 29.804688 25.1875 30.246094 24.960938 L 30.957031 24.597656 C 31.398438 24.371094 31.929688 24.429688 32.3125 24.742188 L 33.113281 25.402344 C 34.1875 26.289062 35.746094 26.222656 36.746094 25.257812 L 40.761719 21.367188 C 41.765625 20.390625 41.875 18.824219 41.007812 17.722656 L 37.769531 13.59375 C 36.714844 12.253906 34.886719 11.800781 33.328125 12.496094 L 22.253906 17.433594 C 21.261719 17.875 20.511719 18.726562 20.199219 19.773438 L 12.714844 45.484375 C 11.984375 47.9375 12.71875 50.542969 14.632812 52.28125 C 18.171875 55.492188 24.117188 59.609375 32.359375 60.988281 C 37.617188 61.867188 43.132812 61.492188 48.335938 59.902344 C 52.523438 62.6875 58.402344 63.199219 62.449219 62.195312 C 62.78125 62.113281 63.015625 61.816406 63.015625 61.472656 L 63.015625 36.992188 C 63.015625 36.71875 62.863281 36.464844 62.625 36.335938 Z M 61.527344 60.863281 C 59.6875 61.183594 53.71875 61.871094 48.886719 58.476562 C 48.699219 58.34375 48.457031 58.308594 48.234375 58.378906 C 43.152344 59.988281 37.75 60.382812 32.605469 59.519531 C 24.71875 58.199219 19.023438 54.257812 15.632812 51.179688 C 14.144531 49.832031 13.574219 47.808594 14.140625 45.902344 L 21.628906 20.191406 C 21.8125 19.566406 22.261719 19.058594 22.859375 18.792969 L 33.933594 13.855469 C 34.871094 13.4375 35.964844 13.707031 36.597656 14.515625 L 39.839844 18.640625 C 40.230469 19.144531 40.183594 19.855469 39.726562 20.296875 L 35.710938 24.1875 C 35.257812 24.628906 34.546875 24.65625 34.058594 24.253906 L 33.257812 23.59375 C 32.417969 22.902344 31.246094 22.777344 30.277344 23.273438 L 29.566406 23.636719 C 28.597656 24.136719 28.015625 25.160156 28.089844 26.246094 L 29.0625 41.289062 C 28.472656 41.855469 27.9375 42.484375 27.472656 43.175781 C 27.246094 43.515625 27.335938 43.976562 27.675781 44.207031 C 28.015625 44.4375 28.480469 44.34375 28.707031 44.003906 C 30.574219 41.234375 33.71875 39.558594 37.140625 39.558594 C 41.496094 39.558594 45.304688 42.285156 46.683594 46.222656 C 46.820312 46.609375 47.242188 46.816406 47.632812 46.679688 C 48.019531 46.542969 48.226562 46.121094 48.089844 45.730469 C 47.757812 44.789062 47.308594 43.910156 46.757812 43.105469 C 48.925781 37.414062 55.902344 34.707031 61.527344 37.445312 Z M 61.527344 60.863281 " fill-opacity="1" fill-rule="nonzero"/></g></svg>