<svg xmlns="http://www.w3.org/2000/svg" xmlns:xlink="http://www.w3.org/1999/xlink" width="100" zoomAndPan="magnify" viewBox="0 0 75 74.999997" height="100" preserveAspectRatio="xMidYMid meet" version="1.0"><defs><clipPath id="613fd3bec2"><path d="M 0 13.546875 L 75 13.546875 L 75 61.546875 L 0 61.546875 Z M 0 13.546875 " clip-rule="nonzero"/></clipPath></defs><g clip-path="url(#613fd3bec2)"><path fill="#ff6200" d="M 73.972656 14.378906 C 73.96875 14.375 73.96875 14.375 73.964844 14.371094 C 73.945312 14.351562 73.921875 14.339844 73.898438 14.320312 C 73.78125 14.214844 73.65625 14.117188 73.523438 14.03125 C 73.480469 14.003906 73.4375 13.984375 73.390625 13.960938 C 73.273438 13.886719 73.148438 13.824219 73.019531 13.769531 C 72.941406 13.738281 72.859375 13.722656 72.78125 13.695312 C 72.492188 13.589844 72.191406 13.542969 71.882812 13.546875 L 3.117188 13.546875 C 2.917969 13.546875 2.722656 13.566406 2.53125 13.605469 C 2.421875 13.632812 2.3125 13.664062 2.207031 13.699219 C 2.132812 13.722656 2.054688 13.742188 1.980469 13.769531 C 1.851562 13.824219 1.722656 13.890625 1.601562 13.964844 C 1.558594 13.988281 1.515625 14.003906 1.476562 14.03125 C 1.347656 14.117188 1.222656 14.210938 1.109375 14.3125 C 1.085938 14.332031 1.058594 14.347656 1.035156 14.371094 C 1.03125 14.371094 1.03125 14.375 1.027344 14.378906 C 0.375 14.984375 0.046875 15.726562 0.046875 16.617188 L 0.046875 58.367188 C 0.046875 59.257812 0.375 60.003906 1.027344 60.605469 C 1.03125 60.609375 1.035156 60.613281 1.035156 60.613281 C 1.058594 60.636719 1.085938 60.652344 1.109375 60.671875 C 1.226562 60.773438 1.347656 60.871094 1.480469 60.953125 C 1.519531 60.980469 1.558594 60.996094 1.597656 61.019531 C 1.722656 61.09375 1.851562 61.160156 1.984375 61.214844 C 2.054688 61.242188 2.132812 61.261719 2.207031 61.285156 C 2.3125 61.320312 2.421875 61.351562 2.53125 61.378906 C 2.722656 61.417969 2.917969 61.4375 3.117188 61.4375 L 71.882812 61.4375 C 72.195312 61.441406 72.5 61.390625 72.792969 61.285156 C 72.867188 61.261719 72.945312 61.242188 73.019531 61.214844 C 73.148438 61.160156 73.277344 61.09375 73.402344 61.019531 C 73.441406 60.996094 73.484375 60.980469 73.523438 60.953125 C 73.652344 60.871094 73.773438 60.773438 73.890625 60.671875 C 73.914062 60.652344 73.941406 60.636719 73.964844 60.613281 C 73.96875 60.613281 73.96875 60.609375 73.972656 60.605469 C 74.625 60.003906 74.953125 59.257812 74.953125 58.367188 L 74.953125 16.617188 C 74.953125 15.726562 74.625 14.980469 73.972656 14.378906 Z M 2.492188 60.097656 L 28.660156 38.289062 L 33.175781 42.054688 C 33.78125 42.5625 34.457031 42.949219 35.199219 43.21875 C 35.941406 43.488281 36.710938 43.621094 37.5 43.621094 C 38.289062 43.621094 39.058594 43.488281 39.800781 43.21875 C 40.542969 42.949219 41.21875 42.5625 41.824219 42.054688 L 46.339844 38.289062 L 72.507812 60.097656 C 72.308594 60.171875 72.097656 60.210938 71.882812 60.210938 L 3.117188 60.210938 C 2.902344 60.210938 2.691406 60.171875 2.492188 60.097656 Z M 72.507812 14.886719 L 41.039062 41.113281 C 40.542969 41.527344 39.988281 41.84375 39.382812 42.0625 C 38.773438 42.285156 38.144531 42.394531 37.5 42.394531 C 36.855469 42.394531 36.226562 42.285156 35.617188 42.0625 C 35.011719 41.84375 34.457031 41.527344 33.960938 41.113281 L 2.492188 14.886719 C 2.691406 14.8125 2.902344 14.773438 3.117188 14.773438 L 71.882812 14.773438 C 72.097656 14.773438 72.308594 14.8125 72.507812 14.886719 Z M 73.726562 16.617188 L 73.726562 58.367188 C 73.722656 58.699219 73.636719 59.011719 73.464844 59.296875 L 47.300781 37.492188 L 73.464844 15.6875 C 73.636719 15.972656 73.722656 16.285156 73.726562 16.617188 Z M 1.273438 58.367188 L 1.273438 16.617188 C 1.277344 16.285156 1.363281 15.972656 1.535156 15.6875 L 27.699219 37.492188 L 1.535156 59.296875 C 1.363281 59.011719 1.277344 58.699219 1.273438 58.367188 Z M 1.273438 58.367188 " fill-opacity="1" fill-rule="nonzero"/></g></svg>