<svg xmlns="http://www.w3.org/2000/svg" xmlns:xlink="http://www.w3.org/1999/xlink" width="100" zoomAndPan="magnify" viewBox="0 0 75 74.999997" height="100" preserveAspectRatio="xMidYMid meet" version="1.0"><defs><clipPath id="9f212da71f"><path d="M 28 0 L 74.25 0 L 74.25 47 L 28 47 Z M 28 0 " clip-rule="nonzero"/></clipPath></defs><path fill="#ff6200" d="M 29.476562 75.242188 C 45.730469 75.242188 58.949219 61.714844 58.949219 45.085938 C 58.949219 39.429688 57.410156 33.917969 54.496094 29.144531 C 54.261719 28.761719 53.761719 28.640625 53.378906 28.875 C 52.996094 29.105469 52.878906 29.605469 53.109375 29.988281 C 55.871094 34.507812 57.328125 39.730469 57.328125 45.085938 C 57.328125 60.820312 44.832031 73.621094 29.476562 73.621094 C 14.117188 73.621094 1.621094 60.820312 1.621094 45.085938 C 1.621094 29.351562 14.117188 16.550781 29.476562 16.550781 C 35.636719 16.550781 41.472656 18.570312 46.359375 22.394531 C 46.710938 22.667969 47.222656 22.605469 47.496094 22.253906 C 47.773438 21.902344 47.710938 21.394531 47.359375 21.117188 C 42.183594 17.066406 36 14.929688 29.476562 14.929688 C 13.222656 14.929688 0 28.457031 0 45.085938 C 0 61.714844 13.222656 75.242188 29.476562 75.242188 Z M 29.476562 75.242188 " fill-opacity="1" fill-rule="nonzero"/><path fill="#ff6200" d="M 39.464844 29.777344 C 39.671875 29.378906 39.515625 28.890625 39.117188 28.683594 C 36.347656 27.257812 33.222656 26.503906 30.074219 26.503906 C 19.347656 26.503906 10.621094 35.046875 10.621094 45.550781 C 10.621094 56.050781 19.347656 64.59375 30.074219 64.59375 C 40.800781 64.59375 49.527344 56.050781 49.527344 45.550781 C 49.527344 42.273438 48.664062 39.042969 47.03125 36.207031 C 46.804688 35.820312 46.308594 35.6875 45.921875 35.910156 C 45.535156 36.132812 45.402344 36.628906 45.625 37.019531 C 47.117188 39.605469 47.90625 42.558594 47.90625 45.550781 C 47.90625 55.15625 39.90625 62.972656 30.074219 62.972656 C 20.242188 62.972656 12.242188 55.15625 12.242188 45.550781 C 12.242188 35.941406 20.242188 28.125 30.074219 28.125 C 32.964844 28.125 35.832031 28.816406 38.375 30.125 C 38.773438 30.332031 39.261719 30.175781 39.464844 29.777344 Z M 39.464844 29.777344 " fill-opacity="1" fill-rule="nonzero"/><path fill="#ff6200" d="M 29.839844 38.558594 C 30.664062 38.558594 31.472656 38.699219 32.238281 38.96875 C 32.664062 39.121094 33.125 38.898438 33.273438 38.476562 C 33.425781 38.054688 33.203125 37.59375 32.78125 37.441406 C 31.839844 37.109375 30.847656 36.9375 29.839844 36.9375 C 25.085938 36.9375 21.21875 40.730469 21.21875 45.386719 C 21.21875 50.050781 25.085938 53.839844 29.839844 53.839844 C 34.597656 53.839844 38.464844 50.050781 38.464844 45.386719 C 38.464844 44.308594 38.257812 43.253906 37.851562 42.257812 C 37.683594 41.84375 37.210938 41.640625 36.796875 41.8125 C 36.378906 41.980469 36.183594 42.457031 36.351562 42.871094 C 36.679688 43.671875 36.84375 44.519531 36.84375 45.386719 C 36.84375 49.15625 33.703125 52.21875 29.839844 52.21875 C 25.980469 52.21875 22.839844 49.15625 22.839844 45.386719 C 22.839844 41.621094 25.980469 38.558594 29.839844 38.558594 Z M 29.839844 38.558594 " fill-opacity="1" fill-rule="nonzero"/><g clip-path="url(#9f212da71f)"><path fill="#ff6200" d="M 28.804688 45.09375 C 28.488281 45.410156 28.488281 45.921875 28.804688 46.242188 C 28.964844 46.398438 29.171875 46.476562 29.378906 46.476562 C 29.585938 46.476562 29.792969 46.398438 29.953125 46.242188 L 51.953125 24.257812 L 62.734375 23.511719 C 62.921875 23.5 63.097656 23.421875 63.234375 23.292969 L 74.324219 12.816406 C 74.574219 12.582031 74.648438 12.21875 74.511719 11.90625 C 74.375 11.589844 74.054688 11.394531 73.71875 11.417969 L 63.328125 12.050781 C 63.292969 11.988281 63.261719 11.917969 63.207031 11.867188 C 63.191406 11.851562 63.175781 11.847656 63.160156 11.835938 L 63.726562 1.03125 C 63.742188 0.695312 63.550781 0.382812 63.246094 0.25 C 62.9375 0.113281 62.578125 0.179688 62.34375 0.417969 L 51.183594 11.59375 C 51.039062 11.742188 50.953125 11.9375 50.949219 12.144531 L 50.636719 23.277344 Z M 62.332031 21.914062 L 53.699219 22.511719 L 62.492188 13.726562 L 71.585938 13.171875 Z M 52.558594 12.511719 L 61.996094 3.058594 L 61.507812 12.414062 L 52.304688 21.613281 Z M 52.558594 12.511719 " fill-opacity="1" fill-rule="nonzero"/></g></svg>