<svg xmlns="http://www.w3.org/2000/svg" xmlns:xlink="http://www.w3.org/1999/xlink" width="100" zoomAndPan="magnify" viewBox="0 0 75 74.999997" height="100" preserveAspectRatio="xMidYMid meet" version="1.0"><defs><clipPath id="2b0c964670"><path d="M 12.632812 12.21875 L 62.132812 12.21875 L 62.132812 62.46875 L 12.632812 62.46875 Z M 12.632812 12.21875 " clip-rule="nonzero"/></clipPath><clipPath id="002d74ae08"><path d="M 42.65625 46.148438 L 62.15625 46.148438 L 62.15625 56 L 42.65625 56 Z M 42.65625 46.148438 " clip-rule="nonzero"/></clipPath><clipPath id="cd7d1a788a"><path d="M 42.65625 53 L 62.15625 53 L 62.15625 62.648438 L 42.65625 62.648438 Z M 42.65625 53 " clip-rule="nonzero"/></clipPath></defs><path fill="#ff6200" d="M 26.433594 50.417969 L 22.09375 47.914062 C 21.933594 47.820312 21.734375 47.820312 21.574219 47.914062 L 17.234375 50.417969 C 17.074219 50.511719 16.972656 50.683594 16.972656 50.871094 L 16.972656 55.882812 C 16.972656 56.066406 17.074219 56.238281 17.234375 56.332031 L 21.574219 58.839844 C 21.652344 58.886719 21.742188 58.910156 21.832031 58.910156 C 21.921875 58.910156 22.011719 58.886719 22.09375 58.839844 L 26.433594 56.332031 C 26.59375 56.238281 26.695312 56.066406 26.695312 55.882812 L 26.695312 50.871094 C 26.695312 50.683594 26.59375 50.511719 26.433594 50.417969 Z M 25.652344 55.582031 L 21.832031 57.785156 L 18.015625 55.582031 L 18.015625 51.171875 L 21.832031 48.964844 L 25.652344 51.171875 Z M 25.652344 55.582031 " fill-opacity="1" fill-rule="nonzero"/><g clip-path="url(#2b0c964670)"><path fill="#ff6200" d="M 62.253906 21.507812 C 62.242188 21.359375 62.234375 21.207031 62.21875 21.058594 C 62.167969 20.621094 62.085938 20.183594 61.96875 19.746094 C 61.921875 19.566406 61.78125 19.425781 61.601562 19.378906 C 61.421875 19.328125 61.226562 19.382812 61.097656 19.511719 L 54.726562 25.882812 C 52.152344 25.089844 50.121094 23.058594 49.328125 20.484375 L 55.695312 14.113281 C 55.761719 14.046875 55.808594 13.964844 55.832031 13.878906 C 55.855469 13.792969 55.855469 13.699219 55.832031 13.609375 C 55.78125 13.429688 55.644531 13.289062 55.460938 13.242188 C 52.296875 12.394531 48.890625 13.308594 46.578125 15.621094 C 46.535156 15.664062 46.5 15.710938 46.457031 15.753906 C 46.277344 15.941406 46.101562 16.132812 45.941406 16.332031 C 45.898438 16.382812 45.863281 16.4375 45.824219 16.488281 C 45.664062 16.691406 45.511719 16.898438 45.371094 17.113281 C 45.347656 17.148438 45.328125 17.1875 45.304688 17.226562 C 45.15625 17.460938 45.015625 17.699219 44.890625 17.945312 C 44.875 17.976562 44.859375 18.007812 44.84375 18.042969 C 44.71875 18.292969 44.605469 18.546875 44.503906 18.808594 C 44.488281 18.851562 44.476562 18.894531 44.460938 18.933594 C 44.367188 19.183594 44.285156 19.433594 44.214844 19.691406 C 44.199219 19.757812 44.183594 19.824219 44.164062 19.890625 C 44.109375 20.117188 44.058594 20.347656 44.019531 20.582031 C 44.003906 20.679688 43.988281 20.777344 43.976562 20.878906 C 43.949219 21.078125 43.925781 21.28125 43.914062 21.484375 C 43.90625 21.609375 43.898438 21.734375 43.894531 21.859375 C 43.890625 21.945312 43.882812 22.03125 43.882812 22.121094 C 43.882812 23.09375 43.476562 24.054688 42.769531 24.761719 L 24.464844 43.066406 C 23.757812 43.773438 22.796875 44.175781 21.824219 44.175781 C 20.351562 44.179688 18.929688 44.53125 17.652344 45.183594 C 17.617188 45.203125 17.578125 45.21875 17.542969 45.234375 C 17.355469 45.335938 17.175781 45.449219 16.996094 45.558594 C 16.914062 45.609375 16.832031 45.652344 16.753906 45.707031 C 16.628906 45.789062 16.515625 45.878906 16.394531 45.96875 C 16.265625 46.0625 16.132812 46.152344 16.007812 46.257812 C 16.003906 46.257812 16 46.261719 16 46.265625 C 15.769531 46.453125 15.542969 46.65625 15.328125 46.871094 C 15.195312 47.003906 15.078125 47.144531 14.957031 47.28125 C 14.875 47.375 14.785156 47.460938 14.707031 47.558594 C 14.660156 47.613281 14.621094 47.671875 14.578125 47.730469 C 13.320312 49.335938 12.632812 51.300781 12.632812 53.375 C 12.632812 55.457031 13.324219 57.425781 14.585938 59.03125 C 14.628906 59.085938 14.664062 59.140625 14.707031 59.195312 C 14.785156 59.292969 14.878906 59.382812 14.960938 59.476562 C 15.082031 59.613281 15.199219 59.753906 15.328125 59.882812 C 15.464844 60.015625 15.605469 60.136719 15.75 60.261719 C 15.839844 60.34375 15.921875 60.425781 16.015625 60.503906 C 16.074219 60.550781 16.140625 60.59375 16.199219 60.640625 C 17.804688 61.894531 19.765625 62.578125 21.832031 62.578125 C 23.90625 62.578125 25.867188 61.890625 27.476562 60.636719 C 27.53125 60.589844 27.59375 60.550781 27.652344 60.503906 C 27.746094 60.425781 27.832031 60.339844 27.925781 60.257812 C 28.0625 60.132812 28.207031 60.015625 28.339844 59.882812 C 28.546875 59.675781 28.734375 59.460938 28.917969 59.242188 C 28.929688 59.230469 28.941406 59.21875 28.953125 59.203125 C 29.054688 59.082031 29.140625 58.953125 29.234375 58.828125 C 29.324219 58.703125 29.421875 58.582031 29.503906 58.457031 C 29.554688 58.382812 29.59375 58.304688 29.640625 58.230469 C 29.757812 58.042969 29.871094 57.855469 29.976562 57.664062 C 29.988281 57.636719 30 57.609375 30.015625 57.578125 C 30.675781 56.296875 31.03125 54.867188 31.03125 53.386719 C 31.035156 52.414062 31.4375 51.453125 32.144531 50.746094 L 50.460938 32.429688 C 51.152344 31.734375 52.023438 31.347656 52.9375 31.324219 C 52.984375 31.324219 53.03125 31.328125 53.078125 31.328125 C 54.851562 31.328125 56.625 30.816406 58.152344 29.804688 C 58.414062 29.632812 58.671875 29.449219 58.914062 29.25 C 59.738281 28.566406 60.417969 27.757812 60.953125 26.871094 C 60.980469 26.824219 61.015625 26.777344 61.042969 26.726562 C 61.054688 26.703125 61.066406 26.679688 61.078125 26.65625 C 61.925781 25.160156 62.34375 23.445312 62.269531 21.714844 C 62.265625 21.644531 62.257812 21.578125 62.253906 21.507812 Z M 58.246094 28.445312 C 58.058594 28.601562 57.863281 28.746094 57.660156 28.882812 C 56.308594 29.789062 54.675781 30.265625 53.027344 30.273438 C 53 30.273438 52.972656 30.28125 52.945312 30.28125 C 51.195312 30.253906 49.453125 29.671875 48.019531 28.527344 C 46.164062 27.046875 45.066406 24.9375 44.9375 22.585938 C 44.925781 22.347656 44.929688 22.109375 44.933594 21.871094 C 44.9375 21.773438 44.945312 21.671875 44.949219 21.574219 C 44.964844 21.382812 44.984375 21.191406 45.007812 21 C 45.019531 20.921875 45.03125 20.847656 45.042969 20.769531 C 45.082031 20.554688 45.125 20.339844 45.179688 20.128906 C 45.191406 20.078125 45.203125 20.027344 45.21875 19.976562 C 45.28125 19.742188 45.355469 19.511719 45.441406 19.285156 C 45.453125 19.253906 45.460938 19.222656 45.472656 19.191406 C 45.566406 18.953125 45.667969 18.722656 45.78125 18.496094 C 45.792969 18.472656 45.804688 18.445312 45.816406 18.421875 C 45.929688 18.199219 46.054688 17.988281 46.183594 17.777344 C 46.207031 17.746094 46.222656 17.710938 46.242188 17.679688 C 46.367188 17.492188 46.503906 17.308594 46.644531 17.128906 C 46.679688 17.082031 46.710938 17.03125 46.75 16.988281 C 46.886719 16.8125 47.042969 16.652344 47.195312 16.488281 C 47.234375 16.449219 47.269531 16.402344 47.3125 16.363281 C 48.859375 14.816406 50.953125 13.972656 53.097656 13.972656 C 53.488281 13.972656 53.882812 14.003906 54.277344 14.058594 L 48.375 19.960938 C 48.308594 20.027344 48.261719 20.109375 48.238281 20.195312 C 48.214844 20.28125 48.214844 20.375 48.238281 20.46875 C 48.648438 22.015625 49.472656 23.441406 50.621094 24.589844 C 51.765625 25.738281 53.191406 26.5625 54.742188 26.972656 C 54.832031 26.996094 54.925781 26.996094 55.015625 26.972656 C 55.082031 26.953125 55.140625 26.910156 55.195312 26.867188 C 55.210938 26.855469 55.230469 26.851562 55.246094 26.835938 L 61.152344 20.933594 C 61.15625 20.964844 61.152344 20.996094 61.160156 21.027344 C 61.40625 22.878906 60.996094 24.75 60.046875 26.332031 C 59.574219 27.121094 58.980469 27.84375 58.246094 28.445312 Z M 29.101562 57.078125 C 29.082031 57.113281 29.070312 57.148438 29.050781 57.179688 C 28.96875 57.339844 28.871094 57.492188 28.777344 57.644531 C 28.726562 57.726562 28.683594 57.808594 28.632812 57.882812 C 28.570312 57.980469 28.496094 58.074219 28.425781 58.167969 C 28.175781 58.507812 27.90625 58.839844 27.601562 59.144531 C 27.472656 59.273438 27.335938 59.390625 27.199219 59.511719 C 27.128906 59.570312 27.066406 59.636719 26.992188 59.695312 C 26.941406 59.738281 26.882812 59.777344 26.828125 59.816406 C 23.90625 62.085938 19.789062 62.09375 16.859375 59.832031 C 16.796875 59.785156 16.730469 59.746094 16.671875 59.695312 C 16.609375 59.640625 16.546875 59.582031 16.484375 59.527344 C 16.34375 59.402344 16.199219 59.277344 16.066406 59.144531 C 15.933594 59.011719 15.8125 58.871094 15.6875 58.730469 C 15.632812 58.664062 15.570312 58.601562 15.515625 58.539062 C 15.46875 58.480469 15.425781 58.417969 15.382812 58.359375 C 13.246094 55.59375 13.121094 51.769531 15.019531 48.886719 C 15.132812 48.71875 15.253906 48.558594 15.378906 48.398438 C 15.425781 48.335938 15.464844 48.273438 15.515625 48.214844 C 15.570312 48.148438 15.632812 48.085938 15.6875 48.023438 C 15.8125 47.882812 15.933594 47.742188 16.066406 47.609375 C 16.367188 47.308594 16.691406 47.042969 17.027344 46.796875 C 17.125 46.722656 17.222656 46.644531 17.328125 46.574219 C 17.398438 46.527344 17.472656 46.488281 17.542969 46.445312 C 17.703125 46.34375 17.867188 46.246094 18.03125 46.15625 C 18.058594 46.144531 18.085938 46.132812 18.113281 46.117188 C 21.179688 44.550781 25.039062 45.042969 27.601562 47.605469 C 30.160156 50.164062 30.65625 54.015625 29.101562 57.078125 Z M 49.726562 31.691406 L 31.40625 50.007812 C 31.128906 50.289062 30.898438 50.609375 30.699219 50.945312 C 30.289062 49.453125 29.507812 48.039062 28.339844 46.871094 C 27.167969 45.699219 25.757812 44.917969 24.265625 44.511719 C 24.601562 44.3125 24.921875 44.082031 25.199219 43.800781 L 43.503906 25.496094 C 43.785156 25.21875 44.011719 24.898438 44.214844 24.566406 C 44.726562 26.429688 45.824219 28.109375 47.367188 29.339844 C 48.351562 30.128906 49.464844 30.671875 50.625 30.992188 C 50.308594 31.191406 50 31.417969 49.726562 31.691406 Z M 49.726562 31.691406 " fill-opacity="1" fill-rule="nonzero"/></g><path fill="#ff6200" d="M 43.226562 31.246094 L 30.953125 43.523438 C 30.746094 43.726562 30.746094 44.054688 30.953125 44.257812 C 31.054688 44.359375 31.1875 44.410156 31.320312 44.410156 C 31.453125 44.410156 31.585938 44.359375 31.6875 44.257812 L 43.960938 31.984375 C 44.167969 31.78125 44.167969 31.449219 43.960938 31.246094 C 43.757812 31.042969 43.429688 31.042969 43.226562 31.246094 Z M 43.226562 31.246094 " fill-opacity="1" fill-rule="nonzero"/><g clip-path="url(#002d74ae08)"><path fill="#ffffff" d="M 57.441406 50.839844 L 62.371094 46.195312 L 57.902344 46.195312 L 57.441406 46.628906 L 52.511719 51.273438 L 47.578125 46.628906 L 47.121094 46.195312 L 42.648438 46.195312 L 47.578125 50.839844 L 52.511719 55.484375 Z M 57.441406 50.839844 " fill-opacity="1" fill-rule="nonzero"/></g><g clip-path="url(#cd7d1a788a)"><path fill="#ffffff" d="M 57.441406 58.105469 L 62.371094 53.460938 L 57.902344 53.460938 L 57.441406 53.894531 L 52.511719 58.539062 L 47.578125 53.894531 L 47.121094 53.460938 L 42.648438 53.460938 L 47.578125 58.105469 L 52.511719 62.75 Z M 57.441406 58.105469 " fill-opacity="1" fill-rule="nonzero"/></g></svg>