<svg xmlns="http://www.w3.org/2000/svg" xmlns:xlink="http://www.w3.org/1999/xlink" width="100" zoomAndPan="magnify" viewBox="0 0 75 74.999997" height="100" preserveAspectRatio="xMidYMid meet" version="1.0"><defs><clipPath id="6e9bcb6b59"><path d="M 17.46875 10.96875 L 57.21875 10.96875 L 57.21875 52 L 17.46875 52 Z M 17.46875 10.96875 " clip-rule="nonzero"/></clipPath><clipPath id="98473d3ba3"><path d="M 38 44 L 56 44 L 56 64.21875 L 38 64.21875 Z M 38 44 " clip-rule="nonzero"/></clipPath><clipPath id="d776280447"><path d="M 19 44 L 37 44 L 37 64.21875 L 19 64.21875 Z M 19 44 " clip-rule="nonzero"/></clipPath></defs><path fill="#ff6200" d="M 37.496094 45.699219 C 29.398438 45.699219 22.796875 39.109375 22.796875 31 C 22.796875 22.902344 29.386719 16.300781 37.496094 16.300781 C 45.605469 16.300781 52.195312 22.902344 52.195312 31.011719 C 52.195312 39.109375 45.59375 45.699219 37.496094 45.699219 Z M 37.496094 17.726562 C 30.175781 17.726562 24.210938 23.679688 24.210938 31.011719 C 24.210938 38.332031 30.164062 44.296875 37.496094 44.296875 C 44.828125 44.296875 50.78125 38.332031 50.78125 31.011719 C 50.78125 23.679688 44.816406 17.726562 37.496094 17.726562 Z M 37.496094 17.726562 " fill-opacity="1" fill-rule="nonzero"/><g clip-path="url(#6e9bcb6b59)"><path fill="#ff6200" d="M 37.496094 51.027344 C 36.328125 51.027344 35.316406 50.378906 34.410156 49.800781 C 33.808594 49.414062 33.242188 49.046875 32.699219 48.90625 C 32.121094 48.753906 31.425781 48.777344 30.683594 48.8125 C 29.585938 48.859375 28.445312 48.90625 27.476562 48.351562 C 26.488281 47.785156 25.96875 46.761719 25.449219 45.78125 C 25.121094 45.132812 24.800781 44.519531 24.390625 44.109375 C 23.976562 43.695312 23.363281 43.378906 22.714844 43.046875 C 21.726562 42.539062 20.710938 42.011719 20.144531 41.019531 C 19.578125 40.054688 19.636719 38.910156 19.6875 37.8125 C 19.722656 37.070312 19.746094 36.375 19.589844 35.796875 C 19.449219 35.253906 19.085938 34.691406 18.695312 34.089844 C 18.117188 33.191406 17.46875 32.167969 17.46875 31 C 17.46875 29.832031 18.117188 28.820312 18.695312 27.910156 C 19.085938 27.3125 19.449219 26.746094 19.589844 26.203125 C 19.746094 25.625 19.722656 24.929688 19.6875 24.1875 C 19.636719 23.089844 19.589844 21.945312 20.144531 20.980469 C 20.710938 19.992188 21.738281 19.472656 22.714844 18.953125 C 23.363281 18.621094 23.976562 18.304688 24.390625 17.890625 C 24.800781 17.480469 25.121094 16.867188 25.449219 16.21875 C 25.957031 15.226562 26.488281 14.214844 27.476562 13.648438 C 28.445312 13.082031 29.585938 13.140625 30.683594 13.1875 C 31.425781 13.222656 32.121094 13.246094 32.699219 13.09375 C 33.242188 12.953125 33.808594 12.585938 34.410156 12.199219 C 35.304688 11.621094 36.328125 10.972656 37.496094 10.972656 C 38.664062 10.972656 39.679688 11.621094 40.585938 12.199219 C 41.1875 12.585938 41.753906 12.953125 42.292969 13.09375 C 42.871094 13.246094 43.566406 13.222656 44.308594 13.1875 C 45.40625 13.140625 46.550781 13.09375 47.515625 13.648438 C 48.507812 14.214844 49.027344 15.238281 49.542969 16.21875 C 49.875 16.867188 50.191406 17.480469 50.605469 17.890625 C 51.015625 18.304688 51.628906 18.621094 52.277344 18.953125 C 53.269531 19.460938 54.28125 19.992188 54.847656 20.980469 C 55.414062 21.945312 55.355469 23.089844 55.308594 24.1875 C 55.273438 24.929688 55.25 25.625 55.402344 26.203125 C 55.542969 26.746094 55.910156 27.3125 56.296875 27.910156 C 56.875 28.808594 57.523438 29.832031 57.523438 31 C 57.523438 32.167969 56.875 33.179688 56.296875 34.089844 C 55.910156 34.691406 55.542969 35.253906 55.402344 35.796875 C 55.25 36.375 55.273438 37.070312 55.308594 37.8125 C 55.355469 38.910156 55.402344 40.054688 54.847656 41.019531 C 54.28125 42.011719 53.257812 42.527344 52.277344 43.046875 C 51.628906 43.378906 51.015625 43.695312 50.605469 44.109375 C 50.191406 44.519531 49.875 45.132812 49.542969 45.78125 C 49.039062 46.773438 48.507812 47.785156 47.515625 48.351562 C 46.550781 48.917969 45.40625 48.859375 44.308594 48.8125 C 43.566406 48.777344 42.871094 48.753906 42.292969 48.90625 C 41.753906 49.046875 41.1875 49.414062 40.585938 49.800781 C 39.679688 50.378906 38.664062 51.027344 37.496094 51.027344 Z M 31.566406 47.375 C 32.074219 47.375 32.582031 47.410156 33.066406 47.539062 C 33.820312 47.738281 34.515625 48.1875 35.175781 48.609375 C 35.976562 49.128906 36.742188 49.613281 37.496094 49.613281 C 38.25 49.613281 39.003906 49.128906 39.820312 48.609375 C 40.492188 48.1875 41.175781 47.738281 41.929688 47.539062 C 42.71875 47.324219 43.554688 47.363281 44.371094 47.398438 C 45.3125 47.433594 46.195312 47.480469 46.808594 47.125 C 47.433594 46.761719 47.847656 45.96875 48.28125 45.121094 C 48.648438 44.402344 49.039062 43.671875 49.601562 43.105469 C 50.167969 42.539062 50.910156 42.152344 51.617188 41.785156 C 52.457031 41.351562 53.257812 40.9375 53.621094 40.3125 C 53.976562 39.699219 53.941406 38.816406 53.894531 37.871094 C 53.859375 37.058594 53.824219 36.222656 54.035156 35.433594 C 54.234375 34.679688 54.683594 33.980469 55.109375 33.324219 C 55.625 32.519531 56.109375 31.753906 56.109375 31 C 56.109375 30.246094 55.625 29.492188 55.109375 28.679688 C 54.683594 28.007812 54.234375 27.324219 54.035156 26.566406 C 53.824219 25.777344 53.859375 24.941406 53.894531 24.128906 C 53.929688 23.183594 53.976562 22.300781 53.621094 21.6875 C 53.257812 21.0625 52.46875 20.652344 51.617188 20.214844 C 50.898438 19.847656 50.167969 19.460938 49.601562 18.894531 C 49.039062 18.328125 48.648438 17.585938 48.28125 16.878906 C 47.847656 16.042969 47.433594 15.238281 46.808594 14.875 C 46.195312 14.519531 45.3125 14.554688 44.371094 14.601562 C 43.554688 14.640625 42.71875 14.675781 41.929688 14.460938 C 41.175781 14.261719 40.480469 13.8125 39.820312 13.390625 C 39.019531 12.871094 38.25 12.386719 37.496094 12.386719 C 36.742188 12.386719 35.988281 12.871094 35.175781 13.390625 C 34.503906 13.8125 33.820312 14.261719 33.066406 14.460938 C 32.273438 14.675781 31.4375 14.640625 30.625 14.601562 C 29.683594 14.566406 28.796875 14.519531 28.183594 14.875 C 27.558594 15.238281 27.148438 16.03125 26.710938 16.878906 C 26.347656 17.597656 25.957031 18.328125 25.390625 18.894531 C 24.824219 19.460938 24.082031 19.847656 23.375 20.214844 C 22.539062 20.652344 21.738281 21.0625 21.371094 21.6875 C 21.019531 22.300781 21.054688 23.183594 21.101562 24.128906 C 21.136719 24.941406 21.171875 25.777344 20.957031 26.566406 C 20.757812 27.324219 20.308594 28.019531 19.886719 28.679688 C 19.367188 29.480469 18.882812 30.246094 18.882812 31 C 18.882812 31.753906 19.367188 32.507812 19.886719 33.324219 C 20.308594 33.996094 20.757812 34.679688 20.957031 35.433594 C 21.171875 36.222656 21.136719 37.058594 21.101562 37.871094 C 21.066406 38.816406 21.019531 39.699219 21.371094 40.3125 C 21.738281 40.9375 22.527344 41.351562 23.375 41.785156 C 24.09375 42.152344 24.824219 42.539062 25.390625 43.105469 C 25.957031 43.671875 26.347656 44.414062 26.710938 45.121094 C 27.148438 45.957031 27.558594 46.761719 28.183594 47.125 C 28.796875 47.480469 29.683594 47.445312 30.625 47.398438 C 30.929688 47.386719 31.25 47.375 31.566406 47.375 Z M 31.566406 47.375 " fill-opacity="1" fill-rule="nonzero"/></g><g clip-path="url(#98473d3ba3)"><path fill="#ff6200" d="M 44.863281 64.003906 C 44.582031 64.003906 44.320312 63.839844 44.214844 63.570312 L 38.523438 50.109375 C 38.371094 49.742188 38.535156 49.328125 38.898438 49.175781 C 39.265625 49.023438 39.679688 49.1875 39.832031 49.554688 L 44.804688 61.316406 L 46.492188 56.34375 C 46.609375 55.988281 46.984375 55.789062 47.351562 55.894531 L 53.8125 57.699219 L 48.257812 45.78125 C 48.09375 45.429688 48.246094 45.003906 48.601562 44.839844 C 48.953125 44.675781 49.378906 44.828125 49.542969 45.179688 L 55.746094 58.488281 C 55.863281 58.738281 55.828125 59.03125 55.636719 59.242188 C 55.449219 59.457031 55.179688 59.539062 54.90625 59.46875 L 47.609375 57.429688 L 45.535156 63.535156 C 45.441406 63.816406 45.183594 64.003906 44.886719 64.015625 C 44.875 64.003906 44.875 64.003906 44.863281 64.003906 Z M 44.863281 64.003906 " fill-opacity="1" fill-rule="nonzero"/></g><g clip-path="url(#d776280447)"><path fill="#ff6200" d="M 30.128906 64.003906 C 30.117188 64.003906 30.117188 64.003906 30.105469 64.003906 C 29.8125 63.992188 29.550781 63.804688 29.457031 63.523438 L 27.382812 57.417969 L 20.085938 59.457031 C 19.816406 59.527344 19.53125 59.445312 19.355469 59.230469 C 19.179688 59.019531 19.132812 58.726562 19.25 58.476562 L 25.449219 45.167969 C 25.613281 44.816406 26.039062 44.660156 26.394531 44.828125 C 26.746094 44.992188 26.898438 45.417969 26.734375 45.769531 L 21.183594 57.6875 L 27.640625 55.882812 C 28.007812 55.777344 28.386719 55.976562 28.503906 56.332031 L 30.1875 61.304688 L 35.164062 49.542969 C 35.316406 49.175781 35.730469 49.011719 36.09375 49.164062 C 36.460938 49.316406 36.625 49.730469 36.472656 50.097656 L 30.777344 63.582031 C 30.671875 63.839844 30.414062 64.003906 30.128906 64.003906 Z M 30.128906 64.003906 " fill-opacity="1" fill-rule="nonzero"/></g><path fill="#ff6200" d="M 35.539062 38.589844 C 34.878906 38.589844 34.253906 38.332031 33.796875 37.859375 L 29.128906 33.203125 C 28.65625 32.734375 28.398438 32.121094 28.398438 31.460938 C 28.398438 30.800781 28.65625 30.175781 29.128906 29.714844 C 29.597656 29.242188 30.210938 28.984375 30.871094 28.984375 C 31.53125 28.984375 32.15625 29.242188 32.617188 29.714844 L 35.527344 32.625 L 42.53125 25.625 C 43 25.152344 43.613281 24.894531 44.273438 24.894531 C 44.933594 24.894531 45.558594 25.152344 46.019531 25.625 C 46.492188 26.097656 46.75 26.710938 46.75 27.371094 C 46.75 28.03125 46.492188 28.65625 46.019531 29.113281 L 37.273438 37.859375 C 36.824219 38.332031 36.199219 38.589844 35.539062 38.589844 Z M 30.871094 30.386719 C 30.589844 30.386719 30.316406 30.492188 30.117188 30.695312 C 29.917969 30.894531 29.8125 31.164062 29.8125 31.449219 C 29.8125 31.730469 29.917969 32.003906 30.117188 32.203125 L 34.785156 36.871094 C 34.984375 37.070312 35.257812 37.175781 35.539062 37.175781 C 35.824219 37.175781 36.09375 37.070312 36.292969 36.871094 L 45.042969 28.125 C 45.242188 27.921875 45.347656 27.652344 45.347656 27.371094 C 45.347656 27.085938 45.242188 26.816406 45.042969 26.613281 C 44.839844 26.414062 44.570312 26.308594 44.285156 26.308594 C 44.003906 26.308594 43.734375 26.414062 43.53125 26.613281 L 36.035156 34.113281 C 35.765625 34.382812 35.316406 34.382812 35.035156 34.113281 L 31.613281 30.695312 C 31.425781 30.503906 31.15625 30.386719 30.871094 30.386719 Z M 30.871094 30.386719 " fill-opacity="1" fill-rule="nonzero"/></svg>