<svg xmlns="http://www.w3.org/2000/svg" xmlns:xlink="http://www.w3.org/1999/xlink" width="100" zoomAndPan="magnify" viewBox="0 0 75 74.999997" height="100" preserveAspectRatio="xMidYMid meet" version="1.0"><defs><clipPath id="693c7dd35d"><path d="M 15.828125 32 L 59.328125 32 L 59.328125 61.585938 L 15.828125 61.585938 Z M 15.828125 32 " clip-rule="nonzero"/></clipPath><clipPath id="1f40d79766"><path d="M 18 13.585938 L 27 13.585938 L 27 40 L 18 40 Z M 18 13.585938 " clip-rule="nonzero"/></clipPath></defs><g clip-path="url(#693c7dd35d)"><path fill="#ff6200" d="M 17.28125 59.921875 L 57.714844 59.921875 L 57.714844 43.15625 L 43.882812 34.066406 L 43.882812 40.628906 C 43.882812 40.882812 43.75 41.117188 43.53125 41.246094 C 43.316406 41.378906 43.046875 41.386719 42.820312 41.265625 L 30.976562 34.984375 L 30.976562 41.417969 C 30.976562 41.683594 30.832031 41.925781 30.601562 42.050781 C 30.371094 42.179688 30.085938 42.171875 29.863281 42.03125 L 17.28125 34.042969 Z M 58.4375 61.371094 L 16.558594 61.371094 C 16.15625 61.371094 15.832031 61.042969 15.832031 60.644531 L 15.832031 32.726562 C 15.832031 32.460938 15.976562 32.21875 16.207031 32.09375 C 16.441406 31.964844 16.71875 31.972656 16.945312 32.117188 L 29.53125 40.101562 L 29.53125 33.777344 C 29.53125 33.527344 29.664062 33.289062 29.878906 33.160156 C 30.097656 33.027344 30.367188 33.023438 30.59375 33.140625 L 42.4375 39.425781 L 42.4375 32.726562 C 42.4375 32.460938 42.582031 32.214844 42.816406 32.089844 C 43.050781 31.964844 43.335938 31.976562 43.558594 32.121094 L 58.835938 42.164062 C 59.039062 42.296875 59.160156 42.523438 59.160156 42.765625 L 59.160156 60.644531 C 59.160156 61.042969 58.835938 61.371094 58.4375 61.371094 " fill-opacity="1" fill-rule="nonzero"/></g><path fill="#ff6200" d="M 22.539062 46.125 C 22.40625 46.125 22.296875 46.230469 22.296875 46.363281 L 22.296875 50.027344 C 22.296875 50.160156 22.40625 50.269531 22.539062 50.269531 L 28.703125 50.269531 C 28.835938 50.269531 28.941406 50.160156 28.941406 50.027344 L 28.941406 46.363281 C 28.941406 46.230469 28.835938 46.125 28.703125 46.125 Z M 28.703125 51.714844 L 22.539062 51.714844 C 21.605469 51.714844 20.847656 50.957031 20.847656 50.027344 L 20.847656 46.363281 C 20.847656 45.433594 21.605469 44.675781 22.539062 44.675781 L 28.703125 44.675781 C 29.632812 44.675781 30.386719 45.433594 30.386719 46.363281 L 30.386719 50.027344 C 30.386719 50.957031 29.632812 51.714844 28.703125 51.714844 " fill-opacity="1" fill-rule="nonzero"/><path fill="#ff6200" d="M 34.414062 46.125 C 34.28125 46.125 34.171875 46.230469 34.171875 46.363281 L 34.171875 50.027344 C 34.171875 50.160156 34.28125 50.269531 34.414062 50.269531 L 40.578125 50.269531 C 40.710938 50.269531 40.820312 50.160156 40.820312 50.027344 L 40.820312 46.363281 C 40.820312 46.230469 40.710938 46.125 40.578125 46.125 Z M 40.578125 51.714844 L 34.414062 51.714844 C 33.484375 51.714844 32.726562 50.957031 32.726562 50.027344 L 32.726562 46.363281 C 32.726562 45.433594 33.484375 44.675781 34.414062 44.675781 L 40.578125 44.675781 C 41.507812 44.675781 42.269531 45.433594 42.269531 46.363281 L 42.269531 50.027344 C 42.269531 50.957031 41.507812 51.714844 40.578125 51.714844 " fill-opacity="1" fill-rule="nonzero"/><path fill="#ff6200" d="M 46.292969 46.125 C 46.160156 46.125 46.050781 46.230469 46.050781 46.363281 L 46.050781 50.027344 C 46.050781 50.160156 46.160156 50.269531 46.292969 50.269531 L 52.457031 50.269531 C 52.589844 50.269531 52.699219 50.160156 52.699219 50.027344 L 52.699219 46.363281 C 52.699219 46.230469 52.589844 46.125 52.457031 46.125 Z M 52.457031 51.714844 L 46.292969 51.714844 C 45.363281 51.714844 44.605469 50.957031 44.605469 50.027344 L 44.605469 46.363281 C 44.605469 45.433594 45.363281 44.675781 46.292969 44.675781 L 52.457031 44.675781 C 53.386719 44.675781 54.144531 45.433594 54.144531 46.363281 L 54.144531 50.027344 C 54.144531 50.957031 53.386719 51.714844 52.457031 51.714844 " fill-opacity="1" fill-rule="nonzero"/><g clip-path="url(#1f40d79766)"><path fill="#ff6200" d="M 25.601562 39.1875 C 25.214844 39.1875 24.894531 38.886719 24.878906 38.496094 L 23.824219 15.078125 L 21.300781 15.074219 L 20.855469 24.574219 C 20.734375 27.121094 20.613281 29.667969 20.519531 31.578125 C 20.449219 33.042969 20.40625 33.957031 20.339844 34.527344 C 20.347656 34.578125 20.351562 34.632812 20.351562 34.691406 L 20.316406 34.6875 C 20.316406 34.695312 20.316406 34.699219 20.316406 34.703125 L 20.351562 34.707031 L 20.3125 34.707031 C 20.203125 35.46875 20.03125 35.464844 19.609375 35.449219 C 19.214844 35.4375 18.898438 35.058594 18.90625 34.664062 C 18.90625 34.617188 18.914062 34.574219 18.917969 34.53125 C 19.007812 33.101562 19.640625 19.597656 19.886719 14.320312 C 19.90625 13.933594 20.222656 13.628906 20.609375 13.628906 L 24.515625 13.628906 C 24.902344 13.628906 25.21875 13.933594 25.238281 14.320312 L 26.320312 38.433594 C 26.339844 38.828125 26.03125 39.167969 25.632812 39.1875 L 25.601562 39.1875 " fill-opacity="1" fill-rule="nonzero"/></g></svg>