<svg xmlns="http://www.w3.org/2000/svg" xmlns:xlink="http://www.w3.org/1999/xlink" width="100" zoomAndPan="magnify" viewBox="0 0 75 74.999997" height="100" preserveAspectRatio="xMidYMid meet" version="1.0"><defs><clipPath id="327d23bc15"><path d="M 15 1.015625 L 62 1.015625 L 62 30 L 15 30 Z M 15 1.015625 " clip-rule="nonzero"/></clipPath><clipPath id="73573fc762"><path d="M 36 29 L 75 29 L 75 73.765625 L 36 73.765625 Z M 36 29 " clip-rule="nonzero"/></clipPath></defs><g clip-path="url(#327d23bc15)"><path fill="#ff6200" d="M 28.949219 28.703125 C 24.242188 26.042969 19.742188 23.5 15.140625 20.898438 C 15.382812 20.292969 15.523438 19.808594 15.765625 19.378906 C 18.003906 15.347656 20.222656 11.308594 22.519531 7.3125 C 24.886719 3.195312 28.503906 1.117188 33.246094 1.050781 C 36.039062 1.011719 38.832031 1.011719 41.625 1.054688 C 46.375 1.121094 49.957031 3.242188 52.328125 7.351562 C 53.6875 9.707031 54.988281 12.097656 56.410156 14.644531 C 57.949219 13.800781 59.382812 13.015625 60.816406 12.230469 C 60.917969 12.320312 61.015625 12.414062 61.117188 12.503906 C 59.335938 18.230469 57.554688 23.957031 55.714844 29.878906 C 49.730469 28.390625 43.914062 26.9375 37.664062 25.378906 C 39.390625 24.335938 40.753906 23.515625 42.347656 22.554688 C 40.753906 19.691406 39.199219 16.890625 37.46875 13.78125 C 34.417969 18.746094 31.914062 23.6875 28.949219 28.703125 Z M 54.824219 28.289062 C 56.214844 23.832031 57.550781 19.542969 58.992188 14.902344 C 57.753906 15.476562 56.898438 15.867188 55.929688 16.3125 C 55.546875 15.691406 55.195312 15.160156 54.882812 14.609375 C 53.570312 12.292969 52.3125 9.945312 50.953125 7.652344 C 48.980469 4.324219 45.996094 2.550781 42.144531 2.429688 C 38.964844 2.328125 35.777344 2.386719 32.59375 2.4375 C 31.71875 2.449219 30.851562 2.695312 29.976562 2.835938 C 34.140625 5.4375 36.511719 9.285156 38.703125 13.292969 C 40.230469 16.085938 41.808594 18.851562 43.355469 21.632812 C 43.601562 22.070312 43.796875 22.535156 44.054688 23.074219 C 43.160156 23.671875 42.34375 24.210938 41.246094 24.941406 C 45.992188 26.109375 50.320312 27.179688 54.824219 28.289062 Z M 28.484375 26.925781 C 31.304688 21.882812 33.980469 17.089844 36.644531 12.328125 C 35.257812 9.925781 33.824219 7.765625 31.8125 6.074219 C 31.03125 5.421875 30.125 4.878906 29.207031 4.429688 C 28.050781 3.863281 26.902344 3.988281 26.027344 5.019531 C 25.152344 6.050781 24.214844 7.066406 23.539062 8.222656 C 21.476562 11.75 19.523438 15.335938 17.539062 18.90625 C 17.296875 19.339844 17.109375 19.804688 16.855469 20.351562 C 20.71875 22.535156 24.484375 24.664062 28.484375 26.925781 Z M 28.484375 26.925781 " fill-opacity="1" fill-rule="nonzero"/></g><path fill="#ff6200" d="M 15.289062 52.59375 C 21.179688 52.644531 26.664062 52.695312 32.273438 52.746094 C 32.273438 58.164062 32.273438 63.386719 32.273438 68.726562 C 31.710938 68.773438 31.210938 68.851562 30.710938 68.855469 C 26.097656 68.855469 21.484375 68.882812 16.867188 68.828125 C 12.429688 68.769531 8.972656 66.828125 6.675781 63.035156 C 4.996094 60.257812 3.40625 57.417969 1.925781 54.53125 C 0.0117188 50.800781 0.0742188 47 2.113281 43.324219 C 3.53125 40.777344 5.09375 38.304688 6.710938 35.597656 C 5.292969 34.660156 3.914062 33.75 2.15625 32.589844 C 8.40625 31.257812 14.265625 30.003906 20.332031 28.710938 C 21.957031 34.648438 23.542969 40.429688 25.125 46.210938 C 25.027344 46.296875 24.925781 46.382812 24.828125 46.464844 C 23.464844 45.683594 22.101562 44.902344 20.523438 43.996094 C 18.832031 46.773438 17.171875 49.503906 15.289062 52.59375 Z M 22.59375 43.554688 C 22.722656 43.488281 22.851562 43.421875 22.980469 43.355469 C 21.792969 39.019531 20.605469 34.679688 19.394531 30.257812 C 14.785156 31.238281 10.433594 32.167969 5.765625 33.164062 C 6.816406 33.96875 7.601562 34.570312 8.453125 35.21875 C 8.015625 35.976562 7.671875 36.59375 7.308594 37.203125 C 6.039062 39.320312 4.738281 41.417969 3.492188 43.550781 C 1.417969 47.097656 1.347656 50.714844 3.289062 54.324219 C 4.738281 57.015625 6.242188 59.675781 7.78125 62.3125 C 8.25 63.117188 8.917969 63.808594 9.648438 64.746094 C 10.257812 59.152344 10.914062 57.253906 13.753906 52.578125 C 15.507812 49.6875 17.253906 46.792969 19.011719 43.90625 C 19.34375 43.363281 19.714844 42.847656 20.113281 42.246094 C 21.019531 42.722656 21.808594 43.136719 22.59375 43.554688 Z M 31.027344 54 C 25.621094 54 20.4375 54.003906 15.253906 53.996094 C 14.566406 53.996094 14.207031 54.382812 13.90625 54.929688 C 12.707031 57.097656 11.648438 59.324219 11.265625 61.792969 C 11.140625 62.617188 11.128906 63.472656 11.1875 64.304688 C 11.28125 65.675781 12 66.652344 13.390625 66.914062 C 14.847656 67.191406 16.324219 67.488281 17.800781 67.519531 C 21.691406 67.605469 25.589844 67.554688 29.480469 67.542969 C 29.980469 67.539062 30.476562 67.4375 31.027344 67.375 C 31.027344 62.921875 31.027344 58.601562 31.027344 54 Z M 31.027344 54 " fill-opacity="1" fill-rule="nonzero"/><g clip-path="url(#73573fc762)"><path fill="#ff6200" d="M 49.511719 68.945312 C 49.511719 70.636719 49.511719 72.222656 49.511719 73.804688 C 49.378906 73.863281 49.242188 73.917969 49.105469 73.972656 C 44.925781 69.6875 40.890625 65.257812 36.644531 60.722656 C 40.828125 56.277344 44.945312 51.90625 49.257812 47.324219 C 49.824219 49.171875 49.21875 50.871094 49.734375 52.585938 C 52.910156 52.585938 56.050781 52.585938 59.515625 52.585938 C 56.753906 47.550781 53.667969 42.941406 50.855469 37.898438 C 55.410156 35.125 59.871094 32.414062 64.441406 29.628906 C 64.871094 30.226562 65.230469 30.664062 65.523438 31.148438 C 67.875 35.039062 70.238281 38.921875 72.539062 42.84375 C 74.898438 46.863281 74.984375 50.96875 72.738281 55.078125 C 71.367188 57.585938 69.972656 60.078125 68.550781 62.554688 C 66.144531 66.75 62.507812 68.855469 57.664062 68.859375 C 55.585938 68.863281 53.507812 68.851562 51.429688 68.859375 C 50.863281 68.859375 50.292969 68.910156 49.511719 68.945312 Z M 72.726562 51.71875 C 67.769531 53.617188 65.984375 54.003906 60.566406 54.011719 C 57.058594 54.015625 53.546875 54.007812 50.035156 53.992188 C 49.476562 53.988281 48.917969 53.90625 48.300781 53.855469 C 48.222656 52.792969 48.152344 51.875 48.054688 50.53125 C 44.679688 54.117188 41.597656 57.398438 38.449219 60.742188 C 41.671875 64.175781 44.714844 67.425781 47.992188 70.921875 C 48.109375 69.582031 48.191406 68.636719 48.285156 67.550781 C 48.890625 67.550781 49.398438 67.550781 49.902344 67.550781 C 52.570312 67.550781 55.234375 67.59375 57.898438 67.535156 C 62.058594 67.449219 65.265625 65.664062 67.34375 62 C 68.816406 59.402344 70.300781 56.804688 71.730469 54.179688 C 72.148438 53.410156 72.398438 52.542969 72.726562 51.71875 Z M 52.605469 38.367188 C 55.414062 43.035156 58.066406 47.425781 60.699219 51.832031 C 61.125 52.546875 61.683594 52.789062 62.480469 52.695312 C 63.515625 52.578125 64.570312 52.59375 65.589844 52.410156 C 67.699219 52.03125 69.816406 51.617188 71.574219 50.238281 C 72.691406 49.359375 73.351562 48.316406 72.753906 46.859375 C 72.191406 45.484375 71.710938 44.050781 70.972656 42.773438 C 68.992188 39.339844 66.898438 35.96875 64.835938 32.582031 C 64.613281 32.210938 64.324219 31.882812 64 31.445312 C 60.199219 33.753906 56.492188 36.007812 52.605469 38.367188 Z M 52.605469 38.367188 " fill-opacity="1" fill-rule="nonzero"/></g></svg>