<svg xmlns="http://www.w3.org/2000/svg" xmlns:xlink="http://www.w3.org/1999/xlink" width="100" zoomAndPan="magnify" viewBox="0 0 75 74.999997" height="100" preserveAspectRatio="xMidYMid meet" version="1.0"><path fill="#ff6200" d="M 37.5 74.988281 C 36.757812 74.988281 36.007812 74.964844 35.269531 74.921875 L 34.761719 74.890625 L 32.207031 69.050781 C 30.199219 68.714844 28.222656 68.183594 26.3125 67.472656 L 21.183594 71.253906 L 20.726562 71.023438 C 19.402344 70.363281 18.101562 69.609375 16.863281 68.792969 L 16.4375 68.511719 L 17.148438 62.179688 C 15.578125 60.882812 14.128906 59.433594 12.832031 57.863281 L 6.5 58.574219 L 6.21875 58.148438 C 5.402344 56.910156 4.648438 55.609375 3.988281 54.285156 L 3.757812 53.828125 L 7.539062 48.699219 C 6.828125 46.789062 6.296875 44.8125 5.960938 42.804688 L 0.121094 40.25 L 0.0898438 39.742188 C 0.00390625 38.261719 0.00390625 36.761719 0.0898438 35.28125 L 0.121094 34.773438 L 5.960938 32.21875 C 6.296875 30.214844 6.828125 28.234375 7.539062 26.328125 L 3.757812 21.195312 L 3.988281 20.738281 C 4.652344 19.414062 5.402344 18.113281 6.21875 16.875 L 6.5 16.449219 L 12.832031 17.160156 C 14.128906 15.589844 15.578125 14.140625 17.148438 12.847656 L 16.4375 6.511719 L 16.863281 6.230469 C 18.105469 5.414062 19.402344 4.664062 20.726562 4 L 21.183594 3.773438 L 26.3125 7.554688 C 28.222656 6.84375 30.199219 6.3125 32.207031 5.972656 L 34.761719 0.132812 L 35.269531 0.105469 C 36.746094 0.015625 38.25 0.015625 39.730469 0.105469 L 40.238281 0.132812 L 42.792969 5.972656 C 44.800781 6.3125 46.777344 6.84375 48.683594 7.554688 L 53.816406 3.773438 L 54.273438 4 C 55.597656 4.664062 56.894531 5.414062 58.136719 6.230469 L 58.5625 6.511719 L 57.851562 12.847656 C 59.421875 14.140625 60.871094 15.589844 62.167969 17.160156 L 68.5 16.449219 L 68.78125 16.875 C 69.597656 18.117188 70.347656 19.414062 71.011719 20.738281 L 71.242188 21.195312 L 67.457031 26.328125 C 68.171875 28.234375 68.699219 30.210938 69.039062 32.21875 L 74.878906 34.773438 L 74.910156 35.28125 C 74.996094 36.761719 74.996094 38.261719 74.910156 39.742188 L 74.878906 40.25 L 69.039062 42.804688 C 68.699219 44.8125 68.171875 46.792969 67.457031 48.699219 L 71.242188 53.828125 L 71.011719 54.285156 C 70.347656 55.609375 69.597656 56.910156 68.78125 58.148438 L 68.5 58.574219 L 62.167969 57.863281 C 60.871094 59.433594 59.421875 60.882812 57.851562 62.179688 L 58.5625 68.511719 L 58.136719 68.792969 C 56.898438 69.613281 55.597656 70.363281 54.273438 71.023438 L 53.816406 71.253906 L 48.683594 67.472656 C 46.777344 68.183594 44.800781 68.714844 42.792969 69.050781 L 40.238281 74.890625 L 39.730469 74.921875 C 38.992188 74.964844 38.238281 74.988281 37.5 74.988281 Z M 35.875 73.285156 C 36.957031 73.332031 38.042969 73.332031 39.125 73.285156 L 41.632812 67.546875 L 42.085938 67.476562 C 44.28125 67.140625 46.441406 66.5625 48.511719 65.753906 L 48.9375 65.589844 L 53.980469 69.304688 C 54.9375 68.808594 55.882812 68.261719 56.792969 67.679688 L 56.09375 61.457031 L 56.453125 61.171875 C 58.183594 59.78125 59.769531 58.199219 61.15625 56.464844 L 61.445312 56.109375 L 67.667969 56.804688 C 68.25 55.894531 68.792969 54.953125 69.292969 53.992188 L 65.574219 48.949219 L 65.742188 48.523438 C 66.546875 46.453125 67.128906 44.292969 67.464844 42.097656 L 67.535156 41.644531 L 73.273438 39.136719 C 73.320312 38.054688 73.320312 36.96875 73.273438 35.890625 L 67.535156 33.378906 L 67.464844 32.925781 C 67.128906 30.730469 66.546875 28.570312 65.742188 26.5 L 65.574219 26.074219 L 69.292969 21.03125 C 68.792969 20.074219 68.25 19.132812 67.667969 18.21875 L 61.445312 18.917969 L 61.15625 18.558594 C 59.769531 16.824219 58.183594 15.242188 56.453125 13.855469 L 56.09375 13.570312 L 56.792969 7.34375 C 55.878906 6.761719 54.9375 6.21875 53.980469 5.722656 L 48.9375 9.4375 L 48.511719 9.269531 C 46.441406 8.464844 44.28125 7.882812 42.085938 7.546875 L 41.632812 7.480469 L 39.125 1.738281 C 38.042969 1.691406 36.957031 1.691406 35.875 1.738281 L 33.367188 7.480469 L 32.914062 7.546875 C 30.71875 7.882812 28.558594 8.464844 26.488281 9.269531 L 26.0625 9.4375 L 21.019531 5.71875 C 20.0625 6.21875 19.117188 6.761719 18.207031 7.34375 L 18.90625 13.566406 L 18.546875 13.855469 C 16.8125 15.242188 15.230469 16.824219 13.84375 18.558594 L 13.554688 18.917969 L 7.332031 18.21875 C 6.75 19.128906 6.203125 20.074219 5.707031 21.03125 L 9.421875 26.074219 L 9.257812 26.5 C 8.449219 28.570312 7.871094 30.734375 7.535156 32.925781 L 7.464844 33.378906 L 1.726562 35.886719 C 1.679688 36.96875 1.679688 38.054688 1.726562 39.136719 L 7.464844 41.644531 L 7.535156 42.097656 C 7.871094 44.292969 8.449219 46.453125 9.257812 48.523438 L 9.421875 48.949219 L 5.707031 53.992188 C 6.203125 54.949219 6.75 55.894531 7.332031 56.804688 L 13.554688 56.109375 L 13.84375 56.464844 C 15.230469 58.199219 16.8125 59.78125 18.546875 61.167969 L 18.90625 61.457031 L 18.207031 67.679688 C 19.117188 68.261719 20.0625 68.808594 21.019531 69.304688 L 26.0625 65.589844 L 26.488281 65.753906 C 28.558594 66.5625 30.71875 67.140625 32.914062 67.476562 L 33.367188 67.546875 Z M 37.5 64.496094 C 22.621094 64.496094 10.515625 52.390625 10.515625 37.511719 C 10.515625 22.632812 22.621094 10.527344 37.5 10.527344 C 52.378906 10.527344 64.484375 22.632812 64.484375 37.511719 C 64.484375 52.390625 52.378906 64.496094 37.5 64.496094 Z M 37.5 12.195312 C 23.539062 12.195312 12.179688 23.550781 12.179688 37.511719 C 12.179688 51.472656 23.539062 62.832031 37.5 62.832031 C 51.460938 62.832031 62.816406 51.472656 62.816406 37.511719 C 62.816406 23.550781 51.460938 12.195312 37.5 12.195312 Z M 37.5 12.195312 " fill-opacity="1" fill-rule="nonzero"/></svg>