<svg xmlns="http://www.w3.org/2000/svg" xmlns:xlink="http://www.w3.org/1999/xlink" width="100" zoomAndPan="magnify" viewBox="0 0 75 74.999997" height="100" preserveAspectRatio="xMidYMid meet" version="1.0"><defs><clipPath id="6721711882"><path d="M 9.96875 8.859375 L 64.71875 8.859375 L 64.71875 74.988281 L 9.96875 74.988281 Z M 9.96875 8.859375 " clip-rule="nonzero"/></clipPath></defs><g clip-path="url(#6721711882)"><path fill="#ff6200" d="M 13.441406 10.46875 C 12.410156 10.46875 11.570312 11.304688 11.570312 12.335938 L 11.570312 71.515625 C 11.570312 72.546875 12.410156 73.382812 13.441406 73.382812 L 61.550781 73.382812 C 62.582031 73.382812 63.421875 72.546875 63.421875 71.515625 L 63.421875 12.335938 C 63.421875 11.304688 62.582031 10.46875 61.550781 10.46875 L 55.371094 10.46875 L 55.371094 13.101562 C 55.371094 14.683594 54.082031 15.972656 52.5 15.972656 L 21.808594 15.972656 C 20.226562 15.972656 18.9375 14.683594 18.9375 13.101562 L 18.9375 10.46875 Z M 61.550781 74.988281 L 13.441406 74.988281 C 11.527344 74.988281 9.96875 73.429688 9.96875 71.515625 L 9.96875 12.335938 C 9.96875 10.421875 11.527344 8.863281 13.441406 8.863281 L 20.542969 8.863281 L 20.542969 13.101562 C 20.542969 13.800781 21.109375 14.367188 21.808594 14.367188 L 52.5 14.367188 C 53.199219 14.367188 53.765625 13.800781 53.765625 13.101562 L 53.765625 8.863281 L 61.550781 8.863281 C 63.464844 8.863281 65.023438 10.421875 65.023438 12.335938 L 65.023438 71.515625 C 65.023438 73.429688 63.464844 74.988281 61.550781 74.988281 " fill-opacity="1" fill-rule="nonzero"/></g><path fill="#ff6200" d="M 21.808594 6.351562 C 21.109375 6.351562 20.542969 6.917969 20.542969 7.617188 L 20.542969 13.101562 C 20.542969 13.800781 21.109375 14.367188 21.808594 14.367188 L 52.5 14.367188 C 53.199219 14.367188 53.765625 13.800781 53.765625 13.101562 L 53.765625 7.617188 C 53.765625 6.917969 53.199219 6.351562 52.5 6.351562 L 45.585938 6.351562 C 44.304688 6.351562 43.136719 5.601562 42.535156 4.394531 C 41.695312 2.707031 39.738281 1.617188 37.542969 1.617188 C 35.351562 1.617188 33.390625 2.707031 32.554688 4.394531 C 31.953125 5.601562 30.785156 6.351562 29.503906 6.351562 Z M 52.5 15.972656 L 21.808594 15.972656 C 20.226562 15.972656 18.9375 14.683594 18.9375 13.101562 L 18.9375 7.617188 C 18.9375 6.035156 20.226562 4.746094 21.808594 4.746094 L 29.503906 4.746094 C 30.171875 4.746094 30.789062 4.339844 31.117188 3.679688 C 32.222656 1.453125 34.746094 0.0117188 37.542969 0.0117188 C 40.339844 0.0117188 42.863281 1.453125 43.972656 3.679688 C 44.296875 4.339844 44.917969 4.746094 45.585938 4.746094 L 52.5 4.746094 C 54.082031 4.746094 55.371094 6.035156 55.371094 7.617188 L 55.371094 13.101562 C 55.371094 14.683594 54.082031 15.972656 52.5 15.972656 " fill-opacity="1" fill-rule="nonzero"/><path fill="#ff6200" d="M 38.84375 8.820312 C 38.84375 9.566406 38.238281 10.167969 37.496094 10.167969 C 36.753906 10.167969 36.148438 9.566406 36.148438 8.820312 C 36.148438 8.078125 36.753906 7.472656 37.496094 7.472656 C 38.238281 7.472656 38.84375 8.078125 38.84375 8.820312 " fill-opacity="1" fill-rule="nonzero"/><path fill="#ff6200" d="M 54.492188 29.09375 L 40.445312 29.09375 C 39.707031 29.09375 39.109375 28.496094 39.109375 27.757812 C 39.109375 27.019531 39.707031 26.421875 40.445312 26.421875 L 54.492188 26.421875 C 55.230469 26.421875 55.828125 27.019531 55.828125 27.757812 C 55.828125 28.496094 55.230469 29.09375 54.492188 29.09375 " fill-opacity="1" fill-rule="nonzero"/><path fill="#ff6200" d="M 54.492188 43.542969 L 40.445312 43.542969 C 39.707031 43.542969 39.109375 42.945312 39.109375 42.207031 C 39.109375 41.46875 39.707031 40.871094 40.445312 40.871094 L 54.492188 40.871094 C 55.230469 40.871094 55.828125 41.46875 55.828125 42.207031 C 55.828125 42.945312 55.230469 43.542969 54.492188 43.542969 " fill-opacity="1" fill-rule="nonzero"/><path fill="#ff6200" d="M 23.164062 29.367188 C 23.429688 29.769531 23.71875 30.148438 24.019531 30.511719 C 24.320312 30.878906 24.660156 31.207031 25.015625 31.519531 L 25.171875 31.65625 L 25.238281 31.707031 C 25.757812 32.09375 26.492188 31.988281 26.878906 31.46875 C 27.40625 30.765625 27.878906 30.011719 28.421875 29.320312 C 28.953125 28.617188 29.492188 27.925781 30.007812 27.207031 C 30.53125 26.5 31.046875 25.78125 31.550781 25.058594 C 32.0625 24.335938 32.574219 23.617188 33.066406 22.878906 C 33.097656 22.835938 33.09375 22.773438 33.058594 22.730469 C 33.011719 22.675781 32.933594 22.667969 32.878906 22.710938 C 32.195312 23.277344 31.535156 23.859375 30.867188 24.441406 C 30.199219 25.019531 29.539062 25.601562 28.886719 26.199219 C 28.230469 26.785156 27.59375 27.394531 26.949219 27.992188 C 26.644531 28.292969 26.316406 28.574219 25.992188 28.855469 C 25.933594 28.808594 25.882812 28.753906 25.828125 28.707031 C 25.460938 28.40625 25.082031 28.117188 24.683594 27.851562 C 24.28125 27.582031 23.867188 27.328125 23.425781 27.105469 C 22.988281 26.878906 22.523438 26.675781 22.011719 26.519531 C 21.984375 26.511719 21.957031 26.511719 21.929688 26.519531 C 21.851562 26.542969 21.808594 26.621094 21.832031 26.695312 C 21.988281 27.207031 22.191406 27.671875 22.421875 28.109375 C 22.644531 28.554688 22.898438 28.96875 23.164062 29.367188 " fill-opacity="1" fill-rule="nonzero"/><path fill="#ff6200" d="M 32.878906 37.160156 C 32.195312 37.726562 31.535156 38.308594 30.867188 38.890625 C 30.199219 39.46875 29.539062 40.054688 28.886719 40.648438 C 28.230469 41.234375 27.59375 41.84375 26.949219 42.441406 C 26.644531 42.742188 26.316406 43.023438 25.992188 43.304688 C 25.933594 43.257812 25.882812 43.203125 25.828125 43.15625 C 25.460938 42.855469 25.082031 42.566406 24.683594 42.300781 C 24.28125 42.03125 23.867188 41.78125 23.425781 41.554688 C 22.988281 41.328125 22.523438 41.125 22.011719 40.96875 C 21.984375 40.960938 21.957031 40.960938 21.929688 40.96875 C 21.851562 40.992188 21.808594 41.070312 21.832031 41.148438 C 21.988281 41.660156 22.191406 42.121094 22.421875 42.558594 C 22.644531 43.003906 22.898438 43.417969 23.164062 43.816406 C 23.429688 44.21875 23.71875 44.597656 24.019531 44.960938 C 24.320312 45.328125 24.660156 45.65625 25.015625 45.96875 L 25.171875 46.105469 L 25.238281 46.15625 C 25.757812 46.546875 26.492188 46.4375 26.878906 45.921875 C 27.40625 45.214844 27.878906 44.460938 28.421875 43.769531 C 28.953125 43.066406 29.492188 42.375 30.007812 41.65625 C 30.53125 40.949219 31.046875 40.230469 31.550781 39.507812 C 32.0625 38.785156 32.574219 38.066406 33.066406 37.328125 C 33.097656 37.285156 33.09375 37.222656 33.058594 37.179688 C 33.011719 37.125 32.933594 37.117188 32.878906 37.160156 " fill-opacity="1" fill-rule="nonzero"/><path fill="#ff6200" d="M 32.878906 51.613281 C 32.195312 52.175781 31.535156 52.757812 30.867188 53.339844 C 30.199219 53.917969 29.539062 54.503906 28.886719 55.097656 C 28.230469 55.683594 27.59375 56.292969 26.949219 56.894531 C 26.644531 57.191406 26.316406 57.472656 25.992188 57.753906 C 25.933594 57.707031 25.882812 57.652344 25.828125 57.605469 C 25.460938 57.304688 25.082031 57.015625 24.683594 56.75 C 24.28125 56.484375 23.867188 56.230469 23.425781 56.007812 C 22.988281 55.777344 22.523438 55.574219 22.011719 55.417969 C 21.984375 55.410156 21.957031 55.410156 21.929688 55.417969 C 21.851562 55.441406 21.808594 55.519531 21.832031 55.597656 C 21.988281 56.109375 22.191406 56.574219 22.421875 57.011719 C 22.644531 57.453125 22.898438 57.867188 23.164062 58.265625 C 23.429688 58.667969 23.71875 59.046875 24.019531 59.414062 C 24.320312 59.777344 24.660156 60.109375 25.015625 60.417969 L 25.171875 60.554688 L 25.238281 60.609375 C 25.757812 60.996094 26.492188 60.886719 26.878906 60.371094 C 27.40625 59.664062 27.878906 58.910156 28.421875 58.21875 C 28.953125 57.515625 29.492188 56.824219 30.007812 56.109375 C 30.53125 55.398438 31.046875 54.679688 31.550781 53.957031 C 32.0625 53.238281 32.574219 52.519531 33.066406 51.78125 C 33.097656 51.734375 33.09375 51.671875 33.058594 51.628906 C 33.011719 51.574219 32.933594 51.566406 32.878906 51.613281 " fill-opacity="1" fill-rule="nonzero"/><path fill="#ff6200" d="M 54.492188 57.992188 L 40.445312 57.992188 C 39.707031 57.992188 39.109375 57.394531 39.109375 56.65625 C 39.109375 55.917969 39.707031 55.320312 40.445312 55.320312 L 54.492188 55.320312 C 55.230469 55.320312 55.828125 55.917969 55.828125 56.65625 C 55.828125 57.394531 55.230469 57.992188 54.492188 57.992188 " fill-opacity="1" fill-rule="nonzero"/></svg>