<svg xmlns="http://www.w3.org/2000/svg" xmlns:xlink="http://www.w3.org/1999/xlink" width="100" zoomAndPan="magnify" viewBox="0 0 75 74.999997" height="100" preserveAspectRatio="xMidYMid meet" version="1.0"><path fill="#ff6200" d="M 37.492188 75 C 16.910156 75.078125 0.0351562 58.273438 0 37.589844 C -0.0351562 16.691406 16.773438 0.335938 36.84375 0.00390625 C 57.8125 -0.339844 74.714844 16.484375 74.996094 36.976562 C 75.28125 57.714844 58.5625 74.996094 37.492188 75 Z M 38.699219 2.398438 C 38.699219 3.164062 38.703125 3.863281 38.695312 4.558594 C 38.6875 5.527344 38.257812 6.039062 37.472656 6.027344 C 36.714844 6.011719 36.332031 5.535156 36.328125 4.585938 C 36.320312 3.867188 36.324219 3.152344 36.324219 2.390625 C 30.820312 2.628906 25.769531 3.957031 20.988281 6.507812 C 21.386719 7.203125 21.757812 7.824219 22.105469 8.460938 C 22.511719 9.203125 22.375 9.898438 21.785156 10.242188 C 21.148438 10.609375 20.472656 10.378906 20.027344 9.621094 C 19.660156 9.003906 19.304688 8.378906 18.949219 7.765625 C 15.425781 9.476562 9.054688 15.875 7.792969 18.960938 C 8.386719 19.308594 8.988281 19.65625 9.589844 20.011719 C 10.378906 20.476562 10.621094 21.113281 10.269531 21.753906 C 9.914062 22.398438 9.1875 22.515625 8.375 22.054688 C 7.769531 21.714844 7.167969 21.367188 6.503906 20.984375 C 3.957031 25.816406 2.597656 30.863281 2.40625 36.304688 C 3.28125 36.304688 4.035156 36.289062 4.785156 36.3125 C 5.554688 36.335938 6.046875 36.828125 6.035156 37.515625 C 6.027344 38.222656 5.5625 38.652344 4.75 38.667969 C 4.003906 38.683594 3.253906 38.671875 2.410156 38.671875 C 2.601562 44.152344 3.957031 49.203125 6.46875 53.933594 C 6.59375 53.917969 6.621094 53.917969 6.644531 53.90625 C 7.234375 53.578125 7.820312 53.242188 8.410156 52.914062 C 9.191406 52.484375 9.894531 52.605469 10.257812 53.230469 C 10.625 53.859375 10.386719 54.515625 9.609375 54.976562 C 8.992188 55.339844 8.371094 55.699219 7.757812 56.054688 C 9.550781 59.636719 15.667969 65.730469 18.957031 67.234375 C 19.132812 66.925781 19.3125 66.613281 19.496094 66.300781 C 19.675781 65.984375 19.851562 65.664062 20.042969 65.355469 C 20.519531 64.585938 21.175781 64.371094 21.804688 64.769531 C 22.394531 65.136719 22.511719 65.8125 22.097656 66.554688 C 21.75 67.1875 21.382812 67.808594 20.988281 68.496094 C 25.808594 71.035156 30.855469 72.410156 36.324219 72.589844 C 36.324219 71.796875 36.320312 71.125 36.328125 70.453125 C 36.332031 69.476562 36.753906 68.953125 37.519531 68.96875 C 38.269531 68.980469 38.691406 69.519531 38.695312 70.492188 C 38.703125 71.160156 38.699219 71.832031 38.699219 72.597656 C 44.164062 72.386719 49.214844 71.050781 54.007812 68.484375 C 53.601562 67.777344 53.242188 67.175781 52.902344 66.5625 C 52.464844 65.769531 52.59375 65.097656 53.246094 64.738281 C 53.898438 64.375 54.503906 64.605469 54.980469 65.410156 C 55.347656 66.027344 55.710938 66.644531 56.09375 67.292969 C 60.703125 64.378906 64.394531 60.691406 67.292969 56.085938 C 66.597656 55.683594 65.992188 55.335938 65.390625 54.980469 C 64.621094 54.527344 64.390625 53.878906 64.753906 53.230469 C 65.105469 52.601562 65.792969 52.484375 66.589844 52.921875 C 67.214844 53.269531 67.835938 53.625 68.5 54 C 71.058594 49.167969 72.386719 44.125 72.601562 38.671875 C 71.792969 38.671875 71.070312 38.675781 70.347656 38.671875 C 69.460938 38.660156 68.984375 38.265625 68.972656 37.535156 C 68.953125 36.78125 69.46875 36.320312 70.359375 36.308594 C 71.082031 36.296875 71.804688 36.304688 72.609375 36.304688 C 72.371094 30.859375 71.058594 25.816406 68.554688 21.105469 C 68.429688 21.105469 68.367188 21.085938 68.328125 21.105469 C 67.738281 21.433594 67.152344 21.769531 66.558594 22.09375 C 65.800781 22.511719 65.136719 22.402344 64.777344 21.816406 C 64.390625 21.179688 64.609375 20.496094 65.347656 20.046875 C 65.96875 19.675781 66.59375 19.316406 67.292969 18.90625 C 64.382812 14.304688 60.691406 10.617188 56.179688 7.761719 C 56.082031 7.828125 56.023438 7.847656 55.996094 7.886719 C 55.664062 8.445312 55.332031 9.003906 55 9.5625 C 54.53125 10.34375 53.894531 10.605469 53.269531 10.277344 C 52.597656 9.921875 52.464844 9.226562 52.929688 8.386719 C 53.265625 7.777344 53.625 7.179688 54.015625 6.503906 C 49.1875 3.945312 44.144531 2.621094 38.699219 2.398438 Z M 38.699219 2.398438 " fill-opacity="1" fill-rule="nonzero"/><path fill="#ff6200" d="M 38.699219 22.726562 C 38.699219 26.320312 38.703125 29.914062 38.691406 33.511719 C 38.6875 33.984375 38.765625 34.300781 39.242188 34.570312 C 40.332031 35.195312 40.925781 36.1875 40.898438 37.46875 C 40.886719 37.960938 41.074219 38.203125 41.480469 38.4375 C 44.960938 40.425781 48.429688 42.4375 51.898438 44.441406 C 52.058594 44.535156 52.21875 44.621094 52.371094 44.722656 C 53.015625 45.140625 53.214844 45.808594 52.875 46.390625 C 52.535156 46.96875 51.847656 47.140625 51.164062 46.753906 C 49.398438 45.753906 47.644531 44.730469 45.886719 43.714844 C 44.015625 42.636719 42.140625 41.5625 40.28125 40.464844 C 39.90625 40.246094 39.632812 40.207031 39.222656 40.445312 C 37.539062 41.417969 35.476562 40.859375 34.542969 39.226562 C 33.578125 37.546875 34.125 35.484375 35.855469 34.515625 C 36.339844 34.246094 36.328125 33.90625 36.328125 33.488281 C 36.324219 26.351562 36.324219 19.214844 36.324219 12.082031 C 36.324219 11.820312 36.304688 11.554688 36.351562 11.300781 C 36.460938 10.714844 36.867188 10.304688 37.429688 10.390625 C 37.84375 10.453125 38.269531 10.792969 38.570312 11.121094 C 38.742188 11.304688 38.691406 11.714844 38.695312 12.023438 C 38.699219 15.589844 38.699219 19.160156 38.699219 22.726562 Z M 38.699219 22.726562 " fill-opacity="1" fill-rule="nonzero"/></svg>