<svg xmlns="http://www.w3.org/2000/svg" xmlns:xlink="http://www.w3.org/1999/xlink" width="100" zoomAndPan="magnify" viewBox="0 0 75 74.999997" height="100" preserveAspectRatio="xMidYMid meet" version="1.0"><defs><clipPath id="c2a841d738"><path d="M 0 10.546875 L 75 10.546875 L 75 64.546875 L 0 64.546875 Z M 0 10.546875 " clip-rule="nonzero"/></clipPath></defs><g clip-path="url(#c2a841d738)"><path fill="#ff6200" d="M 67.96875 10.546875 L 25.78125 10.546875 C 21.914062 10.546875 18.75 13.710938 18.75 17.578125 L 18.75 30.46875 L 4.6875 30.46875 C 2.109375 30.46875 0 32.578125 0 35.15625 L 0 51.5625 C 0 54.140625 2.109375 56.25 4.6875 56.25 L 8.203125 56.25 L 8.203125 63.28125 C 8.203125 63.75 8.4375 64.21875 8.90625 64.335938 C 9.023438 64.453125 9.257812 64.453125 9.375 64.453125 C 9.726562 64.453125 9.960938 64.335938 10.195312 64.101562 L 18.046875 56.25 L 35.15625 56.25 C 37.734375 56.25 39.84375 54.140625 39.84375 51.5625 L 39.84375 48.046875 L 52.265625 48.046875 L 61.289062 57.070312 C 61.523438 57.304688 61.757812 57.421875 62.109375 57.421875 C 62.226562 57.421875 62.460938 57.421875 62.578125 57.304688 C 63.046875 57.070312 63.28125 56.71875 63.28125 56.25 L 63.28125 48.046875 L 67.96875 48.046875 C 71.835938 48.046875 75 44.882812 75 41.015625 L 75 17.578125 C 75 13.710938 71.835938 10.546875 67.96875 10.546875 Z M 37.5 51.5625 C 37.5 52.851562 36.445312 53.90625 35.15625 53.90625 L 17.578125 53.90625 C 17.226562 53.90625 16.992188 54.023438 16.757812 54.257812 L 10.546875 60.46875 L 10.546875 55.078125 C 10.546875 54.375 10.078125 53.90625 9.375 53.90625 L 4.6875 53.90625 C 3.398438 53.90625 2.34375 52.851562 2.34375 51.5625 L 2.34375 35.15625 C 2.34375 33.867188 3.398438 32.8125 4.6875 32.8125 L 18.75 32.8125 L 18.75 41.015625 C 18.75 44.882812 21.914062 48.046875 25.78125 48.046875 L 37.5 48.046875 Z M 72.65625 41.015625 C 72.65625 43.59375 70.546875 45.703125 67.96875 45.703125 L 62.109375 45.703125 C 61.40625 45.703125 60.9375 46.171875 60.9375 46.875 L 60.9375 53.4375 L 53.554688 46.054688 C 53.320312 45.820312 53.085938 45.703125 52.734375 45.703125 L 25.78125 45.703125 C 23.203125 45.703125 21.09375 43.59375 21.09375 41.015625 L 21.09375 17.578125 C 21.09375 15 23.203125 12.890625 25.78125 12.890625 L 67.96875 12.890625 C 70.546875 12.890625 72.65625 15 72.65625 17.578125 Z M 72.65625 41.015625 " fill-opacity="1" fill-rule="nonzero"/></g><path fill="#ff6200" d="M 64.453125 21.09375 L 29.296875 21.09375 C 28.59375 21.09375 28.125 21.5625 28.125 22.265625 C 28.125 22.96875 28.59375 23.4375 29.296875 23.4375 L 64.453125 23.4375 C 65.15625 23.4375 65.625 22.96875 65.625 22.265625 C 65.625 21.5625 65.15625 21.09375 64.453125 21.09375 Z M 64.453125 21.09375 " fill-opacity="1" fill-rule="nonzero"/><path fill="#ff6200" d="M 29.296875 30.46875 L 49.21875 30.46875 C 49.921875 30.46875 50.390625 30 50.390625 29.296875 C 50.390625 28.59375 49.921875 28.125 49.21875 28.125 L 29.296875 28.125 C 28.59375 28.125 28.125 28.59375 28.125 29.296875 C 28.125 30 28.59375 30.46875 29.296875 30.46875 Z M 29.296875 30.46875 " fill-opacity="1" fill-rule="nonzero"/><path fill="#ff6200" d="M 58.59375 35.15625 L 29.296875 35.15625 C 28.59375 35.15625 28.125 35.625 28.125 36.328125 C 28.125 37.03125 28.59375 37.5 29.296875 37.5 L 58.59375 37.5 C 59.296875 37.5 59.765625 37.03125 59.765625 36.328125 C 59.765625 35.625 59.296875 35.15625 58.59375 35.15625 Z M 58.59375 35.15625 " fill-opacity="1" fill-rule="nonzero"/></svg>