<svg xmlns="http://www.w3.org/2000/svg" xmlns:xlink="http://www.w3.org/1999/xlink" width="100" zoomAndPan="magnify" viewBox="0 0 75 74.999997" height="100" preserveAspectRatio="xMidYMid meet" version="1.0"><path fill="#ffffff" d="M 8.144531 -0.0351562 C 7.96875 -0.0351562 7.804688 -0.00390625 7.644531 0.0625 C 7.488281 0.128906 7.347656 0.226562 7.226562 0.347656 C 7.105469 0.46875 7.011719 0.609375 6.945312 0.769531 C 6.878906 0.929688 6.847656 1.09375 6.847656 1.265625 L 6.847656 19.332031 C 6.847656 19.503906 6.882812 19.667969 6.949219 19.828125 C 7.011719 19.984375 7.105469 20.125 7.226562 20.246094 C 7.347656 20.367188 7.488281 20.460938 7.648438 20.527344 C 7.804688 20.59375 7.972656 20.625 8.144531 20.628906 L 26.371094 20.628906 C 26.542969 20.628906 26.710938 20.59375 26.867188 20.53125 C 27.027344 20.464844 27.167969 20.371094 27.289062 20.25 C 27.414062 20.128906 27.507812 19.988281 27.574219 19.828125 C 27.640625 19.671875 27.671875 19.503906 27.671875 19.332031 L 27.671875 14.460938 C 27.671875 14.289062 27.640625 14.125 27.574219 13.964844 C 27.507812 13.804688 27.414062 13.664062 27.289062 13.542969 C 27.167969 13.421875 27.027344 13.328125 26.867188 13.265625 C 26.710938 13.199219 26.542969 13.167969 26.371094 13.167969 C 26.199219 13.167969 26.035156 13.199219 25.878906 13.265625 C 25.71875 13.332031 25.578125 13.425781 25.457031 13.546875 C 25.335938 13.667969 25.242188 13.808594 25.179688 13.96875 C 25.113281 14.125 25.078125 14.289062 25.078125 14.460938 L 25.078125 18.039062 L 9.445312 18.039062 L 9.445312 2.5625 L 17.371094 2.5625 C 17.542969 2.5625 17.707031 2.527344 17.867188 2.464844 C 18.027344 2.398438 18.167969 2.304688 18.289062 2.183594 C 18.414062 2.0625 18.507812 1.921875 18.574219 1.761719 C 18.640625 1.605469 18.671875 1.4375 18.671875 1.265625 C 18.671875 1.09375 18.640625 0.925781 18.574219 0.765625 C 18.507812 0.609375 18.414062 0.464844 18.292969 0.34375 C 18.171875 0.222656 18.03125 0.128906 17.871094 0.0625 C 17.710938 -0.00390625 17.542969 -0.0351562 17.371094 -0.0351562 Z M 28.59375 0.144531 C 28.527344 0.140625 28.457031 0.140625 28.390625 0.148438 C 28.035156 0.179688 27.742188 0.332031 27.511719 0.609375 L 19.210938 10.515625 L 16.335938 7.050781 C 16.226562 6.917969 16.097656 6.8125 15.945312 6.734375 C 15.792969 6.65625 15.632812 6.609375 15.460938 6.59375 C 15.289062 6.578125 15.125 6.597656 14.960938 6.648438 C 14.796875 6.699219 14.648438 6.777344 14.519531 6.886719 C 14.386719 6.996094 14.28125 7.128906 14.203125 7.277344 C 14.121094 7.429688 14.074219 7.589844 14.058594 7.761719 C 14.042969 7.933594 14.058594 8.097656 14.109375 8.261719 C 14.160156 8.425781 14.238281 8.574219 14.347656 8.707031 L 18.214844 13.371094 C 18.335938 13.519531 18.484375 13.632812 18.660156 13.714844 C 18.832031 13.796875 19.015625 13.839844 19.207031 13.839844 C 19.398438 13.839844 19.582031 13.800781 19.757812 13.722656 C 19.933594 13.640625 20.082031 13.527344 20.207031 13.378906 L 29.503906 2.273438 C 29.613281 2.140625 29.695312 1.992188 29.746094 1.828125 C 29.796875 1.664062 29.816406 1.496094 29.800781 1.324219 C 29.785156 1.152344 29.734375 0.988281 29.65625 0.835938 C 29.574219 0.683594 29.46875 0.554688 29.335938 0.445312 C 29.121094 0.261719 28.875 0.164062 28.59375 0.144531 Z M 37.746094 9.003906 C 37.574219 9.003906 37.410156 9.035156 37.25 9.101562 C 37.09375 9.167969 36.953125 9.261719 36.832031 9.382812 C 36.710938 9.503906 36.617188 9.644531 36.554688 9.800781 C 36.488281 9.957031 36.453125 10.125 36.453125 10.292969 C 36.453125 10.464844 36.484375 10.632812 36.550781 10.792969 C 36.613281 10.949219 36.707031 11.089844 36.828125 11.214844 C 36.949219 11.335938 37.089844 11.429688 37.25 11.496094 C 37.40625 11.5625 37.574219 11.597656 37.746094 11.597656 L 67.011719 11.597656 C 67.1875 11.597656 67.351562 11.566406 67.511719 11.5 C 67.671875 11.433594 67.8125 11.339844 67.933594 11.214844 C 68.058594 11.09375 68.152344 10.953125 68.21875 10.792969 C 68.285156 10.632812 68.316406 10.46875 68.316406 10.292969 C 68.316406 10.121094 68.28125 9.957031 68.214844 9.796875 C 68.148438 9.640625 68.054688 9.5 67.933594 9.378906 C 67.808594 9.257812 67.667969 9.164062 67.511719 9.097656 C 67.351562 9.035156 67.183594 9 67.011719 9.003906 Z M 8.144531 27.25 C 7.972656 27.25 7.804688 27.285156 7.648438 27.351562 C 7.488281 27.417969 7.351562 27.507812 7.230469 27.628906 C 7.109375 27.75 7.015625 27.890625 6.949219 28.050781 C 6.882812 28.207031 6.847656 28.371094 6.847656 28.542969 L 6.847656 46.621094 C 6.847656 46.792969 6.882812 46.957031 6.949219 47.113281 C 7.015625 47.273438 7.109375 47.410156 7.230469 47.53125 C 7.351562 47.652344 7.488281 47.746094 7.648438 47.8125 C 7.804688 47.878906 7.972656 47.910156 8.144531 47.910156 L 26.371094 47.910156 C 26.542969 47.914062 26.707031 47.878906 26.867188 47.816406 C 27.027344 47.75 27.167969 47.65625 27.289062 47.535156 C 27.410156 47.414062 27.507812 47.273438 27.574219 47.117188 C 27.640625 46.957031 27.671875 46.792969 27.671875 46.621094 L 27.671875 41.746094 C 27.675781 41.574219 27.640625 41.40625 27.574219 41.246094 C 27.507812 41.085938 27.414062 40.945312 27.292969 40.824219 C 27.171875 40.703125 27.03125 40.609375 26.871094 40.542969 C 26.710938 40.476562 26.542969 40.445312 26.371094 40.445312 C 26.199219 40.445312 26.035156 40.476562 25.875 40.542969 C 25.714844 40.609375 25.578125 40.707031 25.457031 40.828125 C 25.335938 40.949219 25.242188 41.089844 25.175781 41.25 C 25.109375 41.410156 25.078125 41.574219 25.078125 41.746094 L 25.078125 45.316406 L 9.445312 45.316406 L 9.445312 29.84375 L 17.371094 29.84375 C 17.542969 29.847656 17.710938 29.8125 17.871094 29.746094 C 18.03125 29.683594 18.171875 29.585938 18.292969 29.464844 C 18.414062 29.34375 18.507812 29.203125 18.574219 29.042969 C 18.640625 28.882812 18.671875 28.714844 18.671875 28.542969 C 18.671875 28.371094 18.640625 28.207031 18.574219 28.046875 C 18.503906 27.890625 18.410156 27.75 18.289062 27.628906 C 18.167969 27.507812 18.027344 27.414062 17.867188 27.347656 C 17.707031 27.28125 17.542969 27.25 17.371094 27.25 Z M 28.59375 27.429688 C 28.527344 27.425781 28.457031 27.425781 28.390625 27.433594 C 28.035156 27.464844 27.742188 27.617188 27.511719 27.890625 L 19.210938 37.800781 L 16.335938 34.335938 C 16.226562 34.207031 16.097656 34.101562 15.945312 34.019531 C 15.792969 33.941406 15.632812 33.890625 15.464844 33.875 C 15.292969 33.859375 15.125 33.875 14.960938 33.925781 C 14.796875 33.976562 14.652344 34.054688 14.519531 34.164062 C 14.386719 34.273438 14.277344 34.40625 14.199219 34.558594 C 14.117188 34.710938 14.070312 34.871094 14.054688 35.042969 C 14.035156 35.214844 14.054688 35.382812 14.105469 35.546875 C 14.15625 35.710938 14.234375 35.859375 14.347656 35.992188 L 18.214844 40.65625 C 18.335938 40.800781 18.488281 40.917969 18.660156 40.996094 C 18.835938 41.078125 19.019531 41.121094 19.210938 41.121094 C 19.402344 41.121094 19.585938 41.078125 19.757812 40.996094 C 19.933594 40.917969 20.082031 40.800781 20.207031 40.65625 L 29.503906 29.558594 C 29.613281 29.425781 29.695312 29.277344 29.746094 29.113281 C 29.796875 28.949219 29.816406 28.78125 29.800781 28.609375 C 29.785156 28.4375 29.734375 28.277344 29.65625 28.125 C 29.574219 27.972656 29.46875 27.839844 29.335938 27.730469 C 29.121094 27.550781 28.875 27.449219 28.59375 27.429688 Z M 37.746094 36.289062 C 37.574219 36.289062 37.410156 36.324219 37.25 36.390625 C 37.09375 36.457031 36.953125 36.546875 36.832031 36.667969 C 36.710938 36.789062 36.617188 36.929688 36.554688 37.089844 C 36.488281 37.246094 36.453125 37.410156 36.453125 37.582031 C 36.453125 37.753906 36.484375 37.917969 36.550781 38.078125 C 36.613281 38.238281 36.707031 38.378906 36.828125 38.5 C 36.949219 38.621094 37.089844 38.714844 37.25 38.78125 C 37.40625 38.847656 37.574219 38.882812 37.746094 38.882812 L 67.011719 38.882812 C 67.1875 38.882812 67.351562 38.851562 67.511719 38.785156 C 67.671875 38.71875 67.8125 38.625 67.933594 38.503906 C 68.058594 38.382812 68.152344 38.242188 68.21875 38.082031 C 68.285156 37.921875 68.316406 37.753906 68.316406 37.582031 C 68.316406 37.410156 68.28125 37.246094 68.214844 37.085938 C 68.148438 36.925781 68.054688 36.789062 67.933594 36.667969 C 67.808594 36.546875 67.667969 36.453125 67.511719 36.386719 C 67.351562 36.320312 67.183594 36.289062 67.011719 36.289062 Z M 8.144531 54.539062 C 7.972656 54.539062 7.804688 54.570312 7.648438 54.636719 C 7.488281 54.703125 7.351562 54.796875 7.230469 54.917969 C 7.109375 55.039062 7.015625 55.179688 6.949219 55.335938 C 6.882812 55.496094 6.847656 55.660156 6.847656 55.832031 L 6.847656 73.90625 C 6.847656 74.078125 6.882812 74.242188 6.949219 74.402344 C 7.015625 74.558594 7.109375 74.699219 7.230469 74.820312 C 7.351562 74.941406 7.488281 75.035156 7.648438 75.101562 C 7.804688 75.164062 7.972656 75.199219 8.144531 75.199219 L 26.371094 75.199219 C 26.542969 75.199219 26.707031 75.167969 26.867188 75.101562 C 27.027344 75.035156 27.167969 74.945312 27.289062 74.824219 C 27.410156 74.703125 27.507812 74.5625 27.574219 74.402344 C 27.640625 74.246094 27.671875 74.078125 27.671875 73.90625 L 27.671875 69.035156 C 27.675781 68.859375 27.640625 68.695312 27.574219 68.535156 C 27.507812 68.375 27.414062 68.234375 27.292969 68.109375 C 27.171875 67.988281 27.03125 67.894531 26.871094 67.828125 C 26.710938 67.761719 26.542969 67.730469 26.371094 67.730469 C 26.199219 67.730469 26.035156 67.765625 25.875 67.832031 C 25.714844 67.898438 25.578125 67.992188 25.457031 68.113281 C 25.335938 68.238281 25.242188 68.378906 25.175781 68.535156 C 25.109375 68.695312 25.078125 68.863281 25.078125 69.035156 L 25.078125 72.605469 L 9.445312 72.605469 L 9.445312 57.132812 L 17.371094 57.132812 C 17.542969 57.132812 17.710938 57.101562 17.871094 57.035156 C 18.03125 56.96875 18.171875 56.875 18.292969 56.753906 C 18.414062 56.628906 18.507812 56.488281 18.574219 56.328125 C 18.640625 56.167969 18.671875 56.003906 18.671875 55.832031 C 18.671875 55.660156 18.640625 55.492188 18.574219 55.335938 C 18.503906 55.175781 18.410156 55.035156 18.289062 54.914062 C 18.167969 54.792969 18.027344 54.699219 17.867188 54.636719 C 17.707031 54.570312 17.542969 54.539062 17.371094 54.539062 Z M 28.390625 54.71875 C 28.035156 54.75 27.742188 54.90625 27.511719 55.179688 L 19.210938 65.089844 L 16.335938 61.625 C 16.226562 61.492188 16.097656 61.386719 15.945312 61.304688 C 15.796875 61.226562 15.632812 61.179688 15.464844 61.160156 C 15.292969 61.144531 15.125 61.164062 14.960938 61.210938 C 14.800781 61.261719 14.652344 61.339844 14.519531 61.449219 C 14.386719 61.558594 14.277344 61.691406 14.199219 61.84375 C 14.117188 61.996094 14.070312 62.15625 14.054688 62.328125 C 14.035156 62.5 14.054688 62.667969 14.105469 62.832031 C 14.15625 62.996094 14.234375 63.144531 14.347656 63.277344 L 18.214844 67.941406 C 18.335938 68.089844 18.488281 68.203125 18.660156 68.285156 C 18.835938 68.367188 19.019531 68.40625 19.210938 68.40625 C 19.402344 68.40625 19.585938 68.367188 19.757812 68.285156 C 19.933594 68.203125 20.082031 68.089844 20.207031 67.941406 L 29.503906 56.847656 C 29.613281 56.714844 29.695312 56.566406 29.746094 56.402344 C 29.796875 56.238281 29.816406 56.070312 29.800781 55.898438 C 29.785156 55.726562 29.734375 55.5625 29.65625 55.410156 C 29.574219 55.257812 29.46875 55.128906 29.335938 55.015625 C 29.0625 54.785156 28.746094 54.6875 28.390625 54.71875 Z M 37.746094 63.566406 C 37.574219 63.566406 37.40625 63.601562 37.25 63.667969 C 37.089844 63.734375 36.949219 63.828125 36.828125 63.949219 C 36.707031 64.074219 36.613281 64.214844 36.550781 64.371094 C 36.484375 64.53125 36.453125 64.695312 36.453125 64.867188 C 36.453125 65.039062 36.488281 65.203125 36.554688 65.363281 C 36.617188 65.519531 36.710938 65.660156 36.832031 65.78125 C 36.953125 65.902344 37.09375 65.996094 37.25 66.0625 C 37.410156 66.125 37.574219 66.160156 37.746094 66.160156 L 67.011719 66.160156 C 67.183594 66.160156 67.351562 66.128906 67.511719 66.0625 C 67.667969 66 67.808594 65.90625 67.933594 65.785156 C 68.054688 65.664062 68.148438 65.523438 68.214844 65.363281 C 68.28125 65.207031 68.316406 65.039062 68.316406 64.867188 C 68.316406 64.695312 68.285156 64.53125 68.21875 64.371094 C 68.152344 64.210938 68.058594 64.070312 67.933594 63.945312 C 67.8125 63.824219 67.671875 63.730469 67.511719 63.664062 C 67.351562 63.597656 67.1875 63.566406 67.011719 63.566406 Z M 37.746094 63.566406 " fill-opacity="1" fill-rule="nonzero"/></svg>