<svg xmlns="http://www.w3.org/2000/svg" xmlns:xlink="http://www.w3.org/1999/xlink" width="100" zoomAndPan="magnify" viewBox="0 0 75 74.999997" height="100" preserveAspectRatio="xMidYMid meet" version="1.0"><defs><clipPath id="050cd1f123"><path d="M 7.5 17.128906 L 67.5 17.128906 L 67.5 57.628906 L 7.5 57.628906 Z M 7.5 17.128906 " clip-rule="nonzero"/></clipPath></defs><g clip-path="url(#050cd1f123)"><path fill="#ffffff" d="M 38.351562 43.898438 L 51.023438 40.488281 C 49.476562 38.296875 47.449219 36.46875 45.09375 35.160156 C 42.539062 33.738281 39.589844 32.929688 36.453125 32.929688 C 31.53125 32.929688 27.078125 34.925781 23.855469 38.148438 C 20.628906 41.371094 18.636719 45.828125 18.636719 50.746094 C 18.636719 51.160156 18.300781 51.496094 17.886719 51.496094 L 8.246094 51.496094 C 7.828125 51.496094 7.492188 51.160156 7.492188 50.746094 C 7.492188 42.75 10.734375 35.511719 15.976562 30.269531 C 21.214844 25.03125 28.457031 21.789062 36.453125 21.789062 C 42.074219 21.789062 47.320312 23.390625 51.761719 26.164062 C 56.179688 28.917969 59.796875 32.832031 62.195312 37.480469 L 65.28125 36.652344 C 62.765625 31.511719 58.910156 27.144531 54.175781 24 C 49.097656 20.628906 43.003906 18.664062 36.453125 18.664062 C 36.039062 18.664062 35.703125 18.328125 35.703125 17.914062 C 35.703125 17.5 36.039062 17.164062 36.453125 17.164062 C 43.308594 17.164062 49.683594 19.222656 55 22.75 C 60.109375 26.140625 64.238281 30.894531 66.863281 36.496094 L 66.925781 36.519531 C 67.1875 36.644531 67.402344 36.863281 67.527344 37.144531 C 67.652344 37.425781 67.664062 37.730469 67.578125 38.007812 C 67.492188 38.289062 67.3125 38.535156 67.054688 38.699219 L 63.671875 40.847656 C 64.207031 42.316406 64.625 43.839844 64.917969 45.410156 C 65.242188 47.148438 65.410156 48.933594 65.410156 50.746094 C 65.410156 51.160156 65.074219 51.496094 64.660156 51.496094 L 55.019531 51.496094 C 54.605469 51.496094 54.269531 51.160156 54.269531 50.746094 C 54.269531 49.929688 54.214844 49.140625 54.113281 48.375 C 54.058594 47.9375 53.980469 47.5 53.890625 47.0625 L 42.652344 54.199219 C 42.332031 54.773438 41.933594 55.296875 41.472656 55.757812 C 40.1875 57.042969 38.414062 57.839844 36.453125 57.839844 C 34.492188 57.839844 32.71875 57.042969 31.433594 55.757812 C 30.148438 54.476562 29.351562 52.699219 29.351562 50.738281 C 29.351562 48.78125 30.148438 47.003906 31.433594 45.71875 C 32.71875 44.4375 34.492188 43.640625 36.453125 43.640625 C 37.109375 43.640625 37.746094 43.730469 38.351562 43.898438 Z M 52.554688 40.074219 L 52.585938 40.066406 L 60.71875 37.878906 C 59.472656 35.535156 57.894531 33.394531 56.050781 31.515625 L 50.292969 37.273438 C 51.132812 38.132812 51.890625 39.070312 52.554688 40.074219 Z M 62.375 41.671875 L 55.273438 46.183594 L 55.234375 46.207031 C 55.386719 46.847656 55.507812 47.507812 55.597656 48.183594 C 55.679688 48.785156 55.730469 49.390625 55.753906 49.996094 L 63.898438 49.996094 C 63.859375 48.519531 63.707031 47.078125 63.445312 45.679688 C 63.1875 44.304688 62.828125 42.964844 62.375 41.671875 Z M 53.945312 45.25 C 53.960938 45.238281 53.976562 45.230469 53.992188 45.21875 L 54.46875 44.917969 L 64.859375 38.316406 L 52.972656 41.515625 L 40.464844 44.882812 C 40.824219 45.128906 41.164062 45.410156 41.472656 45.71875 C 42.757812 47.003906 43.550781 48.78125 43.550781 50.738281 C 43.550781 51.140625 43.519531 51.53125 43.453125 51.914062 Z M 54.972656 30.472656 C 53.738281 29.34375 52.398438 28.328125 50.972656 27.4375 C 46.960938 24.933594 42.25 23.433594 37.203125 23.300781 L 37.203125 31.445312 C 40.320312 31.5625 43.25 32.421875 45.820312 33.851562 C 47.035156 34.527344 48.167969 35.328125 49.203125 36.238281 Z M 35.703125 23.300781 C 28.6875 23.488281 22.328125 26.308594 17.574219 30.808594 L 23.332031 36.566406 C 26.609375 33.535156 30.933594 31.625 35.703125 31.445312 Z M 16.511719 31.871094 C 12.011719 36.621094 9.195312 42.980469 9.003906 49.996094 L 17.148438 49.996094 C 17.332031 45.226562 19.242188 40.902344 22.273438 37.628906 Z M 40.410156 46.78125 C 39.398438 45.769531 37.996094 45.144531 36.453125 45.144531 C 34.90625 45.144531 33.507812 45.769531 32.496094 46.78125 C 31.480469 47.792969 30.855469 49.195312 30.855469 50.738281 C 30.855469 52.285156 31.480469 53.683594 32.496094 54.699219 C 33.507812 55.710938 34.90625 56.335938 36.453125 56.335938 C 37.996094 56.335938 39.398438 55.710938 40.410156 54.699219 C 41.421875 53.6875 42.050781 52.285156 42.050781 50.738281 C 42.050781 49.195312 41.421875 47.792969 40.410156 46.78125 Z M 40.410156 46.78125 " fill-opacity="1" fill-rule="evenodd"/></g></svg>