<svg xmlns="http://www.w3.org/2000/svg" xmlns:xlink="http://www.w3.org/1999/xlink" width="100" zoomAndPan="magnify" viewBox="0 0 75 74.999997" height="100" preserveAspectRatio="xMidYMid meet" version="1.0"><defs><clipPath id="688ef92b2b"><path d="M 0 1.976562 L 75 1.976562 L 75 73 L 0 73 Z M 0 1.976562 " clip-rule="nonzero"/></clipPath></defs><g clip-path="url(#688ef92b2b)"><path fill="#ffffff" d="M 69.199219 55.933594 C 65.625 52.355469 60.683594 50.132812 55.253906 50.132812 L 48.425781 50.132812 C 48.425781 50.042969 48.433594 49.953125 48.433594 49.863281 L 48.433594 46.585938 C 48.730469 46.328125 49.015625 46.0625 49.292969 45.785156 C 50.136719 44.941406 50.894531 44.003906 51.542969 42.996094 C 54.960938 42.605469 57.632812 41.414062 58.3125 38.238281 C 59.398438 38.027344 60.371094 37.488281 61.125 36.734375 C 62.117188 35.742188 62.734375 34.371094 62.734375 32.867188 L 62.734375 26.796875 C 62.734375 25.289062 62.117188 23.921875 61.125 22.929688 L 61.046875 22.859375 C 60.394531 22.230469 59.585938 21.761719 58.6875 21.515625 C 58.691406 21.492188 58.691406 21.472656 58.691406 21.449219 C 58.691406 16.085938 56.359375 11.214844 52.597656 7.683594 C 48.851562 4.171875 43.699219 1.992188 38.035156 1.992188 L 36.96875 1.992188 C 31.304688 1.992188 26.148438 4.171875 22.40625 7.683594 C 18.644531 11.214844 16.3125 16.085938 16.3125 21.449219 C 16.3125 21.472656 16.3125 21.492188 16.3125 21.515625 C 15.386719 21.769531 14.550781 22.261719 13.882812 22.929688 L 13.878906 22.933594 C 12.886719 23.925781 12.269531 25.296875 12.269531 26.796875 L 12.269531 32.867188 C 12.269531 34.332031 12.855469 35.671875 13.808594 36.660156 L 13.878906 36.734375 C 14.871094 37.726562 16.238281 38.34375 17.746094 38.34375 C 19.015625 38.34375 20.183594 37.90625 21.113281 37.179688 C 21.761719 40.5 23.398438 43.476562 25.707031 45.785156 C 26.140625 46.21875 26.597656 46.625 27.074219 47.011719 L 27.074219 49.867188 C 27.074219 49.957031 27.078125 50.046875 27.082031 50.136719 L 19.746094 50.136719 C 14.316406 50.136719 9.378906 52.359375 5.800781 55.9375 C 2.222656 59.511719 0 64.449219 0 69.878906 L 0 71.789062 C 0 72.457031 0.542969 72.996094 1.210938 72.996094 L 73.789062 72.996094 C 74.457031 72.996094 75 72.457031 75 71.789062 L 75 69.878906 C 75 64.449219 72.777344 59.511719 69.199219 55.933594 Z M 52.972656 40.238281 C 53.371094 39.261719 53.679688 38.234375 53.886719 37.175781 C 54.445312 37.613281 55.089844 37.945312 55.789062 38.140625 C 55.328125 39.207031 54.324219 39.855469 52.972656 40.238281 Z M 59.410156 24.636719 C 59.964844 25.191406 60.3125 25.957031 60.3125 26.796875 L 60.3125 32.867188 C 60.3125 33.707031 59.964844 34.46875 59.410156 35.023438 C 58.855469 35.578125 58.089844 35.921875 57.25 35.921875 C 56.410156 35.921875 55.644531 35.578125 55.09375 35.023438 L 55.085938 35.023438 C 54.535156 34.472656 54.191406 33.707031 54.191406 32.867188 L 54.191406 26.796875 C 54.191406 25.953125 54.535156 25.1875 55.085938 24.636719 L 55.09375 24.632812 C 55.644531 24.082031 56.410156 23.738281 57.253906 23.738281 C 58.070312 23.738281 58.8125 24.058594 59.359375 24.578125 Z M 24.058594 9.441406 C 27.367188 6.339844 31.933594 4.414062 36.964844 4.414062 L 38.03125 4.414062 C 43.0625 4.414062 47.632812 6.339844 50.941406 9.441406 C 54.21875 12.519531 56.257812 16.753906 56.269531 21.410156 C 55.480469 21.554688 54.75 21.871094 54.117188 22.316406 C 53.742188 18.347656 51.964844 14.773438 49.289062 12.097656 C 46.265625 9.074219 42.089844 7.195312 37.5 7.195312 C 32.90625 7.195312 28.730469 9.074219 25.707031 12.097656 C 23.03125 14.773438 21.253906 18.347656 20.878906 22.316406 C 20.246094 21.871094 19.515625 21.554688 18.726562 21.410156 C 18.742188 16.753906 20.777344 12.519531 24.058594 9.441406 Z M 51.664062 22.152344 C 48.816406 22.140625 46.078125 21.773438 43.457031 21.058594 C 40.457031 20.238281 37.59375 18.949219 34.875 17.191406 C 34.40625 16.890625 33.773438 16.945312 33.367188 17.355469 C 32.160156 18.5625 30.613281 19.570312 28.726562 20.375 C 27.167969 21.035156 25.378906 21.558594 23.363281 21.945312 C 23.796875 18.792969 25.265625 15.957031 27.421875 13.804688 C 30.007812 11.21875 33.578125 9.613281 37.5 9.613281 C 41.425781 9.613281 44.996094 11.21875 47.582031 13.804688 C 49.78125 16.003906 51.269531 18.917969 51.664062 22.152344 Z M 17.746094 35.921875 C 16.90625 35.921875 16.140625 35.578125 15.589844 35.023438 L 15.53125 34.972656 C 15.011719 34.421875 14.691406 33.679688 14.691406 32.867188 L 14.691406 26.796875 C 14.691406 25.953125 15.035156 25.1875 15.585938 24.636719 L 15.589844 24.632812 C 16.140625 24.082031 16.90625 23.738281 17.75 23.738281 C 18.59375 23.738281 19.359375 24.082031 19.910156 24.632812 L 19.910156 24.636719 C 20.464844 25.191406 20.808594 25.957031 20.808594 26.796875 L 20.808594 32.867188 C 20.808594 33.707031 20.464844 34.46875 19.910156 35.023438 C 19.351562 35.578125 18.585938 35.921875 17.746094 35.921875 Z M 23.222656 33.992188 L 23.222656 24.425781 C 25.648438 24 27.796875 23.390625 29.667969 22.59375 C 31.496094 21.816406 33.0625 20.855469 34.363281 19.71875 C 37.046875 21.351562 39.867188 22.574219 42.824219 23.382812 C 45.691406 24.164062 48.671875 24.558594 51.777344 24.5625 L 51.777344 33.992188 C 51.777344 36.40625 51.164062 38.6875 50.09375 40.6875 C 48.234375 40.8125 46.125 40.734375 44.050781 40.65625 L 43.628906 40.640625 C 43.4375 40.019531 43.105469 39.464844 42.664062 39.011719 C 41.953125 38.285156 40.972656 37.835938 39.890625 37.835938 C 38.8125 37.835938 37.828125 38.285156 37.121094 39.011719 C 36.417969 39.730469 35.984375 40.722656 35.984375 41.8125 C 35.984375 42.902344 36.417969 43.890625 37.121094 44.609375 C 37.828125 45.335938 38.8125 45.789062 39.890625 45.789062 C 40.972656 45.789062 41.953125 45.339844 42.664062 44.609375 C 43.085938 44.175781 43.410156 43.644531 43.601562 43.054688 L 43.96875 43.066406 C 45.460938 43.125 46.964844 43.179688 48.414062 43.167969 C 48.148438 43.480469 47.871094 43.785156 47.582031 44.074219 C 44.996094 46.664062 41.425781 48.269531 37.5 48.269531 C 35.117188 48.269531 32.867188 47.675781 30.890625 46.632812 C 30.234375 46.277344 29.609375 45.867188 29.023438 45.414062 C 28.945312 45.351562 28.859375 45.304688 28.773438 45.265625 C 28.300781 44.894531 27.84375 44.5 27.421875 44.074219 C 24.832031 41.488281 23.222656 37.917969 23.222656 33.992188 Z M 41.382812 41.8125 C 41.382812 42.25 41.210938 42.644531 40.933594 42.925781 C 40.667969 43.199219 40.296875 43.371094 39.890625 43.371094 C 39.480469 43.371094 39.109375 43.199219 38.84375 42.925781 C 38.566406 42.644531 38.394531 42.25 38.394531 41.8125 C 38.394531 41.371094 38.566406 40.976562 38.84375 40.695312 C 39.109375 40.421875 39.480469 40.253906 39.890625 40.253906 C 40.296875 40.253906 40.667969 40.421875 40.933594 40.695312 C 41.210938 40.976562 41.382812 41.371094 41.382812 41.8125 Z M 30.660156 49.214844 C 31.152344 49.441406 31.65625 49.648438 32.171875 49.824219 C 33.707031 50.351562 35.351562 50.648438 37.054688 50.679688 C 37.070312 50.679688 37.085938 50.679688 37.105469 50.683594 C 37.183594 50.683594 37.265625 50.6875 37.34375 50.6875 L 38.15625 50.6875 C 39.964844 50.6875 41.707031 50.382812 43.332031 49.824219 C 44.265625 49.503906 45.160156 49.097656 46.011719 48.617188 L 46.011719 49.863281 C 46.011719 52.066406 45.109375 54.066406 43.65625 55.515625 C 42.207031 56.96875 40.203125 57.871094 38.003906 57.871094 L 37.5 57.871094 C 35.296875 57.871094 33.296875 56.96875 31.847656 55.515625 C 30.394531 54.066406 29.492188 52.0625 29.492188 49.863281 L 29.492188 48.628906 C 29.875 48.835938 30.265625 49.035156 30.660156 49.214844 Z M 2.417969 69.878906 C 2.417969 65.117188 4.367188 60.785156 7.507812 57.640625 C 10.648438 54.5 14.984375 52.550781 19.746094 52.550781 L 27.429688 52.550781 C 27.914062 54.34375 28.859375 55.949219 30.136719 57.226562 C 31.753906 58.84375 33.902344 59.933594 36.289062 60.214844 L 36.289062 70.578125 L 2.417969 70.578125 Z M 72.582031 70.578125 L 38.710938 70.578125 L 38.710938 60.261719 C 41.296875 60.089844 43.636719 58.960938 45.371094 57.226562 C 46.644531 55.949219 47.59375 54.34375 48.074219 52.554688 L 55.253906 52.554688 C 60.015625 52.554688 64.347656 54.503906 67.488281 57.644531 C 70.628906 60.785156 72.578125 65.117188 72.578125 69.882812 L 72.578125 70.578125 Z M 72.582031 70.578125 " fill-opacity="1" fill-rule="nonzero"/></g></svg>