<svg xmlns="http://www.w3.org/2000/svg" xmlns:xlink="http://www.w3.org/1999/xlink" width="100" zoomAndPan="magnify" viewBox="0 0 75 74.999997" height="100" preserveAspectRatio="xMidYMid meet" version="1.0"><defs><clipPath id="7a30f431e8"><path d="M 0 1.523438 L 75 1.523438 L 75 59 L 0 59 Z M 0 1.523438 " clip-rule="nonzero"/></clipPath></defs><g clip-path="url(#7a30f431e8)"><path fill="#ffffff" d="M 68.8125 45.488281 C 70.59375 35.914062 72.660156 26.394531 74.464844 16.824219 C 75 13.941406 73.371094 10.25 70.222656 9.792969 C 68.832031 9.40625 67.203125 10.886719 67.773438 12.304688 C 67.953125 13.496094 69.308594 13.628906 70.222656 13.933594 C 70.5 14.703125 71.011719 15.503906 70.6875 16.359375 C 70.484375 17.386719 70.277344 18.414062 70.074219 19.441406 L 23.667969 19.441406 C 22.75 19.441406 22.007812 20.183594 22.007812 21.101562 C 22.007812 22.019531 22.75 22.765625 23.667969 22.765625 L 69.414062 22.765625 C 68.171875 28.992188 66.917969 35.21875 65.695312 41.453125 C 65.421875 42.75 65.226562 44.085938 64.683594 45.308594 C 63.707031 45.6875 62.613281 45.496094 61.597656 45.546875 C 49.53125 45.515625 37.460938 45.542969 25.402344 45.535156 C 22.335938 32.464844 19.3125 19.386719 16.238281 6.3125 C 15.847656 3.847656 13.738281 1.574219 11.121094 1.664062 C 7.988281 1.679688 4.851562 1.53125 1.726562 1.753906 C 0.00390625 2.34375 0.00390625 4.890625 1.691406 5.535156 C 4.988281 5.847656 8.320312 5.449219 11.621094 5.726562 C 12.410156 6.113281 12.265625 7.210938 12.570312 7.929688 C 16.175781 23.46875 19.808594 39 23.480469 54.53125 C 23.953125 57.0625 26.367188 59.085938 28.984375 58.832031 C 41.871094 58.8125 54.757812 58.878906 67.632812 58.800781 C 70.09375 58.878906 70.109375 54.816406 67.648438 54.875 C 56.09375 54.796875 44.53125 54.855469 32.976562 54.84375 C 31.238281 54.800781 29.476562 55.003906 27.761719 54.65625 C 27 53.042969 26.792969 51.234375 26.332031 49.523438 C 38.753906 49.523438 51.171875 49.53125 63.59375 49.523438 C 66.007812 49.730469 68.453125 47.902344 68.8125 45.488281 Z M 68.8125 45.488281 " fill-opacity="1" fill-rule="nonzero"/></g><path fill="#ffffff" d="M 30.410156 60.300781 C 28.132812 60.746094 26.246094 62.640625 25.808594 64.914062 C 25.0625 68.046875 27.296875 71.464844 30.476562 72.003906 C 33.765625 72.761719 37.296875 70.222656 37.574219 66.851562 C 38.199219 62.949219 34.238281 59.324219 30.410156 60.300781 Z M 33.292969 67.238281 C 32.65625 68.285156 31.03125 68.492188 30.226562 67.515625 C 29.125 66.539062 29.730469 64.585938 31.105469 64.238281 C 32.742188 63.613281 34.449219 65.859375 33.292969 67.238281 Z M 33.292969 67.238281 " fill-opacity="1" fill-rule="nonzero"/><path fill="#ffffff" d="M 59.722656 60.289062 C 55.367188 60.953125 53.378906 66.851562 56.371094 70.050781 C 59.070312 73.464844 65.183594 72.410156 66.511719 68.234375 C 68.265625 64.078125 64.105469 59.183594 59.722656 60.289062 Z M 61.988281 67.792969 C 59.949219 69.382812 57.570312 65.757812 59.816406 64.496094 C 61.859375 62.902344 64.25 66.53125 61.988281 67.792969 Z M 61.988281 67.792969 " fill-opacity="1" fill-rule="nonzero"/></svg>