<svg xmlns="http://www.w3.org/2000/svg" xmlns:xlink="http://www.w3.org/1999/xlink" width="100" zoomAndPan="magnify" viewBox="0 0 75 74.999997" height="100" preserveAspectRatio="xMidYMid meet" version="1.0"><defs><clipPath id="536853f58e"><path d="M 11.136719 11.136719 L 63.636719 11.136719 L 63.636719 63.636719 L 11.136719 63.636719 Z M 11.136719 11.136719 " clip-rule="nonzero"/></clipPath><clipPath id="4c71b817b8"><path d="M 14 0.136719 L 21 0.136719 L 21 9 L 14 9 Z M 14 0.136719 " clip-rule="nonzero"/></clipPath><clipPath id="5ceb4b9a71"><path d="M 31 44 L 38 44 L 38 52.636719 L 31 52.636719 Z M 31 44 " clip-rule="nonzero"/></clipPath><clipPath id="ce8453168f"><path d="M 0.519531 32 L 8 32 L 8 39 L 0.519531 39 Z M 0.519531 32 " clip-rule="nonzero"/></clipPath><clipPath id="1014e1371f"><path d="M 44 15 L 52.359375 15 L 52.359375 22 L 44 22 Z M 44 15 " clip-rule="nonzero"/></clipPath><clipPath id="4c98afebd1"><rect x="0" width="53" y="0" height="53"/></clipPath></defs><g clip-path="url(#536853f58e)"><g transform="matrix(1, 0, 0, 1, 11, 11)"><g clip-path="url(#4c98afebd1)"><g clip-path="url(#4c71b817b8)"><path fill="#ffffff" d="M 17.109375 8.429688 C 17.417969 8.429688 17.757812 8.277344 17.914062 7.96875 L 20.164062 3.898438 C 20.410156 3.4375 20.222656 2.882812 19.792969 2.636719 L 15.722656 0.382812 C 15.261719 0.136719 14.707031 0.324219 14.457031 0.753906 C 14.210938 1.214844 14.367188 1.773438 14.828125 2.019531 L 18.097656 3.804688 L 16.308594 7.074219 C 16.0625 7.539062 16.214844 8.09375 16.648438 8.339844 C 16.800781 8.402344 16.957031 8.429688 17.109375 8.429688 Z M 17.109375 8.429688 " fill-opacity="1" fill-rule="evenodd"/></g><g clip-path="url(#5ceb4b9a71)"><path fill="#ffffff" d="M 36.566406 52.859375 C 36.933594 52.859375 37.273438 52.644531 37.429688 52.304688 C 37.613281 51.84375 37.398438 51.289062 36.933594 51.070312 L 33.511719 49.621094 L 34.960938 46.199219 C 35.179688 45.738281 34.960938 45.183594 34.5 44.96875 C 34.007812 44.78125 33.480469 44.996094 33.265625 45.460938 L 31.449219 49.746094 C 31.355469 49.960938 31.355469 50.207031 31.449219 50.457031 C 31.539062 50.671875 31.695312 50.855469 31.941406 50.949219 L 36.195312 52.796875 C 36.320312 52.828125 36.441406 52.859375 36.566406 52.859375 Z M 36.566406 52.859375 " fill-opacity="1" fill-rule="evenodd"/></g><g clip-path="url(#ce8453168f)"><path fill="#ffffff" d="M 1.570312 38.738281 C 2.003906 38.738281 2.371094 38.429688 2.464844 38 L 3.207031 34.332031 L 6.875 35.070312 C 7.367188 35.195312 7.859375 34.855469 7.953125 34.359375 C 8.046875 33.867188 7.738281 33.375 7.246094 33.28125 L 2.679688 32.355469 C 2.15625 32.234375 1.695312 32.574219 1.570312 33.066406 L 0.644531 37.628906 C 0.554688 38.121094 0.863281 38.617188 1.386719 38.707031 C 1.449219 38.738281 1.507812 38.738281 1.570312 38.738281 Z M 1.570312 38.738281 " fill-opacity="1" fill-rule="evenodd"/></g><g clip-path="url(#1014e1371f)"><path fill="#ffffff" d="M 49.144531 21.226562 C 49.238281 21.226562 49.328125 21.226562 49.390625 21.195312 C 49.636719 21.132812 49.824219 20.949219 49.945312 20.734375 L 52.199219 16.664062 C 52.445312 16.230469 52.289062 15.675781 51.828125 15.429688 C 51.394531 15.183594 50.808594 15.335938 50.5625 15.769531 L 48.773438 19.039062 L 45.507812 17.25 C 45.074219 17.003906 44.519531 17.15625 44.273438 17.621094 C 44.027344 18.050781 44.179688 18.636719 44.613281 18.882812 L 48.714844 21.101562 C 48.835938 21.195312 48.992188 21.226562 49.144531 21.226562 Z M 49.144531 21.226562 " fill-opacity="1" fill-rule="evenodd"/></g><path fill="#ffffff" d="M 21.703125 51.566406 C 22.136719 51.566406 22.535156 51.226562 22.597656 50.792969 C 22.691406 50.269531 22.351562 49.808594 21.859375 49.714844 C 13.011719 48.203125 5.765625 41.636719 3.390625 33.003906 C 3.234375 32.511719 2.742188 32.234375 2.25 32.355469 C 1.757812 32.480469 1.449219 33.003906 1.601562 33.496094 C 4.191406 42.808594 11.992188 49.898438 21.519531 51.535156 C 21.582031 51.535156 21.644531 51.566406 21.703125 51.566406 Z M 32.28125 51.042969 C 32.371094 51.042969 32.464844 51.011719 32.527344 50.980469 C 41.867188 48.421875 48.929688 40.589844 50.59375 31.0625 C 50.65625 30.570312 50.316406 30.074219 49.824219 29.984375 C 49.328125 29.921875 48.835938 30.261719 48.773438 30.753906 C 47.234375 39.570312 40.695312 46.816406 32.03125 49.222656 C 31.539062 49.34375 31.261719 49.871094 31.386719 50.363281 C 31.507812 50.761719 31.878906 51.042969 32.28125 51.042969 Z M 1.972656 23.570312 C 2.402344 23.570312 2.804688 23.261719 2.867188 22.800781 C 4.40625 13.980469 10.945312 6.734375 19.578125 4.332031 C 20.070312 4.207031 20.378906 3.683594 20.222656 3.191406 C 20.101562 2.695312 19.578125 2.417969 19.082031 2.542969 C 9.773438 5.132812 2.679688 12.964844 1.046875 22.492188 C 0.953125 22.984375 1.292969 23.476562 1.816406 23.570312 C 1.847656 23.570312 1.910156 23.570312 1.972656 23.570312 Z M 49.144531 21.226562 C 49.238281 21.226562 49.300781 21.226562 49.390625 21.195312 C 49.886719 21.042969 50.164062 20.546875 50.039062 20.054688 C 47.449219 10.742188 39.617188 3.652344 30.089844 2.019531 C 29.597656 1.925781 29.136719 2.265625 29.042969 2.757812 C 28.949219 3.28125 29.289062 3.746094 29.78125 3.835938 C 38.601562 5.347656 45.875 11.914062 48.25 20.546875 C 48.375 20.949219 48.742188 21.226562 49.144531 21.226562 Z M 49.144531 21.226562 " fill-opacity="1" fill-rule="evenodd"/><path fill="#ffffff" d="M 22.9375 45.214844 L 28.703125 45.214844 C 28.949219 45.214844 29.195312 45.089844 29.382812 44.90625 C 29.566406 44.71875 29.660156 44.472656 29.628906 44.195312 L 29.257812 39.847656 C 30.429688 39.539062 31.570312 39.078125 32.648438 38.429688 L 35.457031 41.792969 C 35.609375 41.976562 35.855469 42.101562 36.101562 42.128906 C 36.378906 42.128906 36.628906 42.039062 36.8125 41.851562 L 40.882812 37.785156 C 41.066406 37.597656 41.160156 37.320312 41.160156 37.074219 C 41.160156 36.828125 41.035156 36.582031 40.820312 36.394531 L 37.492188 33.589844 C 38.105469 32.542969 38.570312 31.402344 38.910156 30.199219 L 43.257812 30.570312 C 43.503906 30.597656 43.75 30.507812 43.964844 30.351562 C 44.148438 30.167969 44.242188 29.921875 44.242188 29.675781 L 44.242188 23.878906 C 44.242188 23.632812 44.148438 23.386719 43.964844 23.199219 C 43.75 23.046875 43.503906 22.953125 43.257812 22.984375 L 38.878906 23.355469 C 38.570312 22.152344 38.105469 21.011719 37.492188 19.960938 L 40.820312 17.15625 C 41.035156 16.972656 41.160156 16.726562 41.160156 16.476562 C 41.160156 16.199219 41.066406 15.953125 40.882812 15.769531 L 36.8125 11.699219 C 36.628906 11.515625 36.378906 11.421875 36.101562 11.421875 C 35.855469 11.453125 35.609375 11.574219 35.457031 11.761719 L 32.648438 15.121094 C 31.570312 14.472656 30.429688 14.011719 29.257812 13.703125 L 29.628906 9.355469 C 29.660156 9.078125 29.566406 8.832031 29.382812 8.648438 C 29.195312 8.460938 28.949219 8.339844 28.703125 8.339844 L 22.9375 8.339844 C 22.660156 8.339844 22.414062 8.460938 22.257812 8.648438 C 22.074219 8.832031 21.980469 9.078125 22.011719 9.355469 L 22.382812 13.703125 C 21.210938 14.011719 20.070312 14.472656 18.992188 15.121094 L 16.183594 11.761719 C 16.03125 11.574219 15.785156 11.453125 15.507812 11.421875 C 15.261719 11.421875 15.015625 11.515625 14.828125 11.699219 L 10.726562 15.769531 C 10.574219 15.953125 10.449219 16.199219 10.480469 16.476562 C 10.480469 16.726562 10.605469 16.972656 10.789062 17.15625 L 14.152344 19.960938 C 13.535156 21.011719 13.039062 22.152344 12.730469 23.355469 L 8.386719 22.984375 C 8.136719 22.953125 7.859375 23.046875 7.675781 23.199219 C 7.492188 23.386719 7.398438 23.632812 7.398438 23.878906 L 7.398438 29.675781 C 7.398438 29.921875 7.492188 30.167969 7.675781 30.351562 C 7.859375 30.507812 8.136719 30.597656 8.386719 30.570312 L 12.730469 30.199219 C 13.039062 31.402344 13.535156 32.542969 14.152344 33.589844 L 10.789062 36.394531 C 10.605469 36.582031 10.480469 36.828125 10.480469 37.074219 C 10.449219 37.320312 10.574219 37.597656 10.726562 37.785156 L 14.828125 41.851562 C 15.015625 42.039062 15.261719 42.128906 15.507812 42.128906 C 15.785156 42.101562 16.03125 41.976562 16.183594 41.792969 L 18.992188 38.429688 C 20.070312 39.078125 21.210938 39.539062 22.382812 39.847656 L 22.011719 44.195312 C 21.980469 44.472656 22.074219 44.71875 22.257812 44.90625 C 22.414062 45.089844 22.660156 45.214844 22.9375 45.214844 Z M 27.6875 43.363281 L 23.957031 43.363281 L 24.292969 39.203125 C 24.355469 38.738281 24.015625 38.308594 23.554688 38.214844 C 22.042969 37.9375 20.625 37.320312 19.332031 36.457031 C 18.929688 36.210938 18.40625 36.273438 18.097656 36.640625 L 15.414062 39.816406 L 12.761719 37.167969 L 15.96875 34.484375 C 16.308594 34.175781 16.402344 33.652344 16.125 33.28125 C 15.261719 31.988281 14.675781 30.570312 14.367188 29.027344 C 14.273438 28.566406 13.84375 28.257812 13.378906 28.285156 L 9.25 28.65625 L 9.25 24.894531 L 13.378906 25.265625 C 13.84375 25.296875 14.273438 24.988281 14.367188 24.527344 C 14.675781 22.984375 15.261719 21.566406 16.125 20.269531 C 16.402344 19.902344 16.308594 19.347656 15.9375 19.066406 L 12.761719 16.386719 L 15.414062 13.734375 L 18.097656 16.910156 C 18.40625 17.28125 18.929688 17.339844 19.332031 17.09375 C 20.625 16.230469 22.042969 15.613281 23.554688 15.335938 C 24.015625 15.246094 24.355469 14.8125 24.292969 14.351562 L 23.957031 10.1875 L 27.6875 10.1875 L 27.347656 14.351562 C 27.285156 14.8125 27.625 15.246094 28.085938 15.335938 C 29.597656 15.613281 31.015625 16.230469 32.3125 17.09375 C 32.710938 17.339844 33.234375 17.28125 33.542969 16.910156 L 36.226562 13.734375 L 38.878906 16.386719 L 35.671875 19.066406 C 35.332031 19.347656 35.238281 19.902344 35.515625 20.269531 C 36.378906 21.566406 36.964844 22.984375 37.273438 24.527344 C 37.367188 24.988281 37.769531 25.296875 38.261719 25.265625 L 42.394531 24.894531 L 42.394531 28.65625 L 38.261719 28.285156 C 37.769531 28.257812 37.367188 28.566406 37.273438 29.027344 C 36.964844 30.570312 36.378906 31.988281 35.515625 33.28125 C 35.238281 33.652344 35.332031 34.207031 35.671875 34.484375 L 38.878906 37.167969 L 36.226562 39.816406 L 33.542969 36.640625 C 33.234375 36.273438 32.710938 36.210938 32.3125 36.457031 C 31.015625 37.320312 29.597656 37.9375 28.085938 38.214844 C 27.625 38.308594 27.285156 38.738281 27.347656 39.203125 Z M 27.6875 43.363281 " fill-opacity="1" fill-rule="evenodd"/><path fill="#ffffff" d="M 25.804688 33.773438 C 29.691406 33.773438 32.835938 30.628906 32.835938 26.777344 C 32.835938 22.921875 29.691406 19.777344 25.804688 19.777344 C 21.949219 19.777344 18.804688 22.921875 18.804688 26.777344 C 18.804688 30.628906 21.949219 33.773438 25.804688 33.773438 Z M 25.804688 21.628906 C 28.671875 21.628906 30.984375 23.941406 30.984375 26.777344 C 30.984375 29.613281 28.671875 31.925781 25.804688 31.925781 C 22.96875 31.925781 20.65625 29.613281 20.65625 26.777344 C 20.65625 23.941406 22.96875 21.628906 25.804688 21.628906 Z M 25.804688 21.628906 " fill-opacity="1" fill-rule="evenodd"/></g></g></g></svg>