<svg xmlns="http://www.w3.org/2000/svg" xmlns:xlink="http://www.w3.org/1999/xlink" width="100" zoomAndPan="magnify" viewBox="0 0 75 74.999997" height="100" preserveAspectRatio="xMidYMid meet" version="1.0"><defs><clipPath id="0e5d73817c"><path d="M 10 10 L 65.289062 10 L 65.289062 65 L 10 65 Z M 10 10 " clip-rule="nonzero"/></clipPath></defs><g clip-path="url(#0e5d73817c)"><path fill="#ffffff" d="M 64.761719 36.242188 C 57.988281 32.59375 49.5 35.546875 46.402344 42.152344 C 42.097656 37.515625 35.003906 36.824219 29.878906 40.363281 L 28.898438 25.1875 C 28.863281 24.648438 29.148438 24.144531 29.628906 23.898438 L 30.398438 23.503906 C 30.878906 23.257812 31.453125 23.320312 31.871094 23.660156 L 32.742188 24.378906 C 33.902344 25.335938 35.597656 25.269531 36.679688 24.21875 L 41.039062 19.996094 C 42.128906 18.941406 42.246094 17.242188 41.304688 16.046875 L 37.789062 11.566406 C 36.644531 10.109375 34.664062 9.617188 32.972656 10.371094 L 20.957031 15.730469 C 19.878906 16.210938 19.066406 17.132812 18.730469 18.269531 L 10.605469 46.164062 C 9.8125 48.828125 10.609375 51.65625 12.6875 53.542969 C 16.527344 57.027344 22.976562 61.492188 31.921875 62.988281 C 37.625 63.945312 43.613281 63.539062 49.257812 61.8125 C 53.800781 64.832031 60.179688 65.386719 64.570312 64.300781 C 64.933594 64.210938 65.183594 63.886719 65.183594 63.515625 L 65.183594 36.953125 C 65.183594 36.65625 65.023438 36.382812 64.761719 36.242188 Z M 63.570312 62.855469 C 61.574219 63.203125 55.097656 63.949219 49.855469 60.265625 C 49.648438 60.121094 49.386719 60.082031 49.148438 60.15625 C 43.632812 61.902344 37.769531 62.332031 32.1875 61.398438 C 23.632812 59.964844 17.449219 55.683594 13.773438 52.347656 C 12.160156 50.882812 11.539062 48.691406 12.152344 46.621094 L 20.277344 18.726562 C 20.480469 18.046875 20.964844 17.492188 21.613281 17.203125 L 33.628906 11.847656 C 34.644531 11.394531 35.832031 11.6875 36.519531 12.5625 L 40.035156 17.042969 C 40.464844 17.585938 40.410156 18.359375 39.914062 18.839844 L 35.558594 23.0625 C 35.066406 23.539062 34.296875 23.570312 33.765625 23.132812 L 32.894531 22.414062 C 31.984375 21.664062 30.714844 21.527344 29.664062 22.066406 L 28.890625 22.464844 C 27.839844 23.003906 27.210938 24.113281 27.289062 25.292969 L 28.34375 41.617188 C 27.703125 42.226562 27.125 42.910156 26.621094 43.660156 C 26.371094 44.03125 26.46875 44.53125 26.839844 44.78125 C 27.210938 45.027344 27.710938 44.929688 27.960938 44.5625 C 29.984375 41.554688 33.398438 39.734375 37.109375 39.734375 C 41.835938 39.734375 45.96875 42.695312 47.464844 46.96875 C 47.613281 47.386719 48.074219 47.613281 48.496094 47.464844 C 48.914062 47.316406 49.136719 46.855469 48.988281 46.433594 C 48.628906 45.410156 48.140625 44.457031 47.546875 43.585938 C 49.894531 37.410156 57.46875 34.472656 63.570312 37.445312 Z M 63.570312 62.855469 " fill-opacity="1" fill-rule="nonzero"/></g></svg>