<svg xmlns="http://www.w3.org/2000/svg" xmlns:xlink="http://www.w3.org/1999/xlink" width="100" zoomAndPan="magnify" viewBox="0 0 75 74.999997" height="100" preserveAspectRatio="xMidYMid meet" version="1.0"><defs><clipPath id="74675820ef"><path d="M 7.640625 0 L 67.640625 0 L 67.640625 75 L 7.640625 75 Z M 7.640625 0 " clip-rule="nonzero"/></clipPath></defs><g clip-path="url(#74675820ef)"><path fill="#ffffff" d="M 37.5 74.992188 L 36.78125 74.300781 C 35.589844 73.15625 7.640625 46.042969 7.640625 29.871094 C 7.640625 13.695312 21.035156 0.0078125 37.5 0.0078125 C 53.964844 0.0078125 67.359375 13.40625 67.359375 29.871094 C 67.359375 46.335938 39.410156 73.15625 38.21875 74.300781 L 37.5 74.996094 Z M 37.5 2.082031 C 22.175781 2.082031 9.710938 14.546875 9.710938 29.871094 C 9.710938 43.785156 33.066406 67.691406 37.5 72.101562 C 41.929688 67.691406 65.285156 43.785156 65.285156 29.871094 C 65.285156 14.546875 52.820312 2.082031 37.5 2.082031 Z M 37.5 43.921875 C 28.511719 43.921875 21.199219 36.613281 21.199219 27.625 C 21.199219 18.636719 28.511719 11.328125 37.5 11.328125 C 46.488281 11.328125 53.796875 18.640625 53.796875 27.625 C 53.796875 36.613281 46.488281 43.925781 37.5 43.925781 Z M 37.5 13.398438 C 29.65625 13.398438 23.273438 19.78125 23.273438 27.625 C 23.273438 35.46875 29.65625 41.851562 37.5 41.851562 C 45.34375 41.851562 51.722656 35.46875 51.722656 27.625 C 51.722656 19.78125 45.34375 13.398438 37.5 13.398438 Z M 37.5 13.398438 " fill-opacity="1" fill-rule="nonzero"/></g></svg>