<svg xmlns="http://www.w3.org/2000/svg" xmlns:xlink="http://www.w3.org/1999/xlink" width="100" zoomAndPan="magnify" viewBox="0 0 75 74.999997" height="100" preserveAspectRatio="xMidYMid meet" version="1.0"><defs><clipPath id="a7340dabe7"><path d="M 16.941406 17.214844 L 57.441406 17.214844 L 57.441406 57.714844 L 16.941406 57.714844 Z M 16.941406 17.214844 " clip-rule="nonzero"/></clipPath><clipPath id="68380f2ac5"><path d="M 37.34375 17.214844 C 26.074219 17.214844 16.941406 26.347656 16.941406 37.617188 C 16.941406 48.882812 26.074219 58.019531 37.34375 58.019531 C 48.609375 58.019531 57.746094 48.882812 57.746094 37.617188 C 57.746094 26.347656 48.609375 17.214844 37.34375 17.214844 Z M 37.34375 17.214844 " clip-rule="nonzero"/></clipPath><clipPath id="9cba624dfc"><path d="M 21.546875 21.820312 L 53.046875 21.820312 L 53.046875 53.320312 L 21.546875 53.320312 Z M 21.546875 21.820312 " clip-rule="nonzero"/></clipPath><clipPath id="f46f887867"><path d="M 37.34375 21.820312 C 28.621094 21.820312 21.546875 28.894531 21.546875 37.617188 C 21.546875 46.339844 28.621094 53.414062 37.34375 53.414062 C 46.070312 53.414062 53.140625 46.339844 53.140625 37.617188 C 53.140625 28.894531 46.070312 21.820312 37.34375 21.820312 Z M 37.34375 21.820312 " clip-rule="nonzero"/></clipPath><clipPath id="54d4fe2473"><path d="M 35.640625 8.339844 L 39.050781 8.339844 L 39.050781 18.167969 L 35.640625 18.167969 Z M 35.640625 8.339844 " clip-rule="nonzero"/></clipPath><clipPath id="5d952e79b2"><path d="M 0.640625 0.339844 L 4.050781 0.339844 L 4.050781 10.167969 L 0.640625 10.167969 Z M 0.640625 0.339844 " clip-rule="nonzero"/></clipPath><clipPath id="b4fd92daf4"><rect x="0" width="5" y="0" height="11"/></clipPath><clipPath id="7339a07b2e"><path d="M 35.640625 56.832031 L 39.050781 56.832031 L 39.050781 66.660156 L 35.640625 66.660156 Z M 35.640625 56.832031 " clip-rule="nonzero"/></clipPath><clipPath id="0a8ae1b299"><path d="M 0.640625 0.832031 L 4.050781 0.832031 L 4.050781 10.660156 L 0.640625 10.660156 Z M 0.640625 0.832031 " clip-rule="nonzero"/></clipPath><clipPath id="ed4765311e"><rect x="0" width="5" y="0" height="11"/></clipPath><clipPath id="618326b6f6"><path d="M 56.867188 35.910156 L 66.695312 35.910156 L 66.695312 39.320312 L 56.867188 39.320312 Z M 56.867188 35.910156 " clip-rule="nonzero"/></clipPath><clipPath id="c53a6d9756"><path d="M 0.867188 0.910156 L 10.695312 0.910156 L 10.695312 4.320312 L 0.867188 4.320312 Z M 0.867188 0.910156 " clip-rule="nonzero"/></clipPath><clipPath id="fad170f9ed"><rect x="0" width="11" y="0" height="5"/></clipPath><clipPath id="06e4e53343"><path d="M 8.308594 35.910156 L 18.136719 35.910156 L 18.136719 39.320312 L 8.308594 39.320312 Z M 8.308594 35.910156 " clip-rule="nonzero"/></clipPath><clipPath id="49c7c2a44e"><path d="M 0.308594 0.910156 L 10.136719 0.910156 L 10.136719 4.320312 L 0.308594 4.320312 Z M 0.308594 0.910156 " clip-rule="nonzero"/></clipPath><clipPath id="ff7c3ff232"><rect x="0" width="11" y="0" height="5"/></clipPath><clipPath id="6f79d39217"><path d="M 50 15 L 61 15 L 61 26 L 50 26 Z M 50 15 " clip-rule="nonzero"/></clipPath><clipPath id="ab68aa584e"><path d="M 57.628906 15.984375 L 60.042969 18.398438 L 53.09375 25.347656 L 50.679688 22.933594 Z M 57.628906 15.984375 " clip-rule="nonzero"/></clipPath><clipPath id="6e6be09d5f"><path d="M 0.640625 0.839844 L 10.238281 0.839844 L 10.238281 10.441406 L 0.640625 10.441406 Z M 0.640625 0.839844 " clip-rule="nonzero"/></clipPath><clipPath id="61cbc2fe3e"><path d="M 7.628906 0.984375 L 10.042969 3.398438 L 3.09375 10.347656 L 0.679688 7.933594 Z M 7.628906 0.984375 " clip-rule="nonzero"/></clipPath><clipPath id="15e60138ff"><rect x="0" width="11" y="0" height="11"/></clipPath><clipPath id="bcbb79ecc6"><path d="M 15 50 L 25 50 L 25 61 L 15 61 Z M 15 50 " clip-rule="nonzero"/></clipPath><clipPath id="04d16b7988"><path d="M 22.550781 50.789062 L 24.964844 53.203125 L 18.015625 60.152344 L 15.601562 57.738281 Z M 22.550781 50.789062 " clip-rule="nonzero"/></clipPath><clipPath id="150aab6d73"><path d="M 0.601562 0.640625 L 10 0.640625 L 10 10.238281 L 0.601562 10.238281 Z M 0.601562 0.640625 " clip-rule="nonzero"/></clipPath><clipPath id="e532cb01c7"><path d="M 7.550781 0.789062 L 9.964844 3.203125 L 3.015625 10.152344 L 0.601562 7.738281 Z M 7.550781 0.789062 " clip-rule="nonzero"/></clipPath><clipPath id="3b42ba08c0"><rect x="0" width="10" y="0" height="11"/></clipPath><clipPath id="40365291c8"><path d="M 15 15 L 25 15 L 25 26 L 15 26 Z M 15 15 " clip-rule="nonzero"/></clipPath><clipPath id="fb299a657c"><path d="M 15.605469 18.394531 L 18.019531 15.984375 L 24.96875 22.933594 L 22.554688 25.34375 Z M 15.605469 18.394531 " clip-rule="nonzero"/></clipPath><clipPath id="4c65899cc3"><path d="M 0.601562 0.839844 L 10 0.839844 L 10 10.441406 L 0.601562 10.441406 Z M 0.601562 0.839844 " clip-rule="nonzero"/></clipPath><clipPath id="57f88519c7"><path d="M 0.605469 3.394531 L 3.019531 0.984375 L 9.96875 7.933594 L 7.554688 10.34375 Z M 0.605469 3.394531 " clip-rule="nonzero"/></clipPath><clipPath id="4b424a1c0d"><rect x="0" width="10" y="0" height="11"/></clipPath><clipPath id="5906cf21ed"><path d="M 48 50 L 58 50 L 58 61 L 48 61 Z M 48 50 " clip-rule="nonzero"/></clipPath><clipPath id="34a8dd9704"><path d="M 48.464844 53.203125 L 50.878906 50.789062 L 57.828125 57.738281 L 55.414062 60.152344 Z M 48.464844 53.203125 " clip-rule="nonzero"/></clipPath><clipPath id="d84631d5ac"><path d="M 0.238281 0.640625 L 9.839844 0.640625 L 9.839844 10.238281 L 0.238281 10.238281 Z M 0.238281 0.640625 " clip-rule="nonzero"/></clipPath><clipPath id="5d4b306646"><path d="M 0.464844 3.203125 L 2.878906 0.789062 L 9.828125 7.738281 L 7.414062 10.152344 Z M 0.464844 3.203125 " clip-rule="nonzero"/></clipPath><clipPath id="6288838761"><rect x="0" width="10" y="0" height="11"/></clipPath><clipPath id="a1d9f1fed9"><path d="M 36.628906 19.949219 L 38.0625 19.949219 L 38.0625 21.382812 L 36.628906 21.382812 Z M 36.628906 19.949219 " clip-rule="nonzero"/></clipPath><clipPath id="7c1de64bed"><path d="M 37.347656 19.949219 C 36.949219 19.949219 36.628906 20.269531 36.628906 20.667969 C 36.628906 21.0625 36.949219 21.382812 37.347656 21.382812 C 37.742188 21.382812 38.0625 21.0625 38.0625 20.667969 C 38.0625 20.269531 37.742188 19.949219 37.347656 19.949219 Z M 37.347656 19.949219 " clip-rule="nonzero"/></clipPath><clipPath id="29a86e1b19"><path d="M 0.628906 0.949219 L 2.0625 0.949219 L 2.0625 2.382812 L 0.628906 2.382812 Z M 0.628906 0.949219 " clip-rule="nonzero"/></clipPath><clipPath id="282ba33317"><path d="M 1.347656 0.949219 C 0.949219 0.949219 0.628906 1.269531 0.628906 1.667969 C 0.628906 2.0625 0.949219 2.382812 1.347656 2.382812 C 1.742188 2.382812 2.0625 2.0625 2.0625 1.667969 C 2.0625 1.269531 1.742188 0.949219 1.347656 0.949219 Z M 1.347656 0.949219 " clip-rule="nonzero"/></clipPath><clipPath id="73acdacd10"><rect x="0" width="3" y="0" height="3"/></clipPath><clipPath id="210213d482"><path d="M 49.25 25.347656 L 50.683594 25.347656 L 50.683594 26.78125 L 49.25 26.78125 Z M 49.25 25.347656 " clip-rule="nonzero"/></clipPath><clipPath id="cb1e45c212"><path d="M 49.964844 25.347656 C 49.570312 25.347656 49.25 25.667969 49.25 26.0625 C 49.25 26.460938 49.570312 26.78125 49.964844 26.78125 C 50.363281 26.78125 50.683594 26.460938 50.683594 26.0625 C 50.683594 25.667969 50.363281 25.347656 49.964844 25.347656 Z M 49.964844 25.347656 " clip-rule="nonzero"/></clipPath><clipPath id="22817537b0"><path d="M 0.25 0.347656 L 1.683594 0.347656 L 1.683594 1.78125 L 0.25 1.78125 Z M 0.25 0.347656 " clip-rule="nonzero"/></clipPath><clipPath id="8c49da8c62"><path d="M 0.964844 0.347656 C 0.570312 0.347656 0.25 0.667969 0.25 1.0625 C 0.25 1.460938 0.570312 1.78125 0.964844 1.78125 C 1.363281 1.78125 1.683594 1.460938 1.683594 1.0625 C 1.683594 0.667969 1.363281 0.347656 0.964844 0.347656 Z M 0.964844 0.347656 " clip-rule="nonzero"/></clipPath><clipPath id="f55d4043f3"><rect x="0" width="2" y="0" height="2"/></clipPath><clipPath id="968a8a4a1d"><path d="M 53.929688 36.902344 L 55.363281 36.902344 L 55.363281 38.335938 L 53.929688 38.335938 Z M 53.929688 36.902344 " clip-rule="nonzero"/></clipPath><clipPath id="93adc83ea5"><path d="M 54.648438 36.902344 C 54.25 36.902344 53.929688 37.222656 53.929688 37.621094 C 53.929688 38.015625 54.25 38.335938 54.648438 38.335938 C 55.042969 38.335938 55.363281 38.015625 55.363281 37.621094 C 55.363281 37.222656 55.042969 36.902344 54.648438 36.902344 Z M 54.648438 36.902344 " clip-rule="nonzero"/></clipPath><clipPath id="7a84146aa4"><path d="M 0.929688 0.902344 L 2.363281 0.902344 L 2.363281 2.335938 L 0.929688 2.335938 Z M 0.929688 0.902344 " clip-rule="nonzero"/></clipPath><clipPath id="ccdf53a460"><path d="M 1.648438 0.902344 C 1.25 0.902344 0.929688 1.222656 0.929688 1.621094 C 0.929688 2.015625 1.25 2.335938 1.648438 2.335938 C 2.042969 2.335938 2.363281 2.015625 2.363281 1.621094 C 2.363281 1.222656 2.042969 0.902344 1.648438 0.902344 Z M 1.648438 0.902344 " clip-rule="nonzero"/></clipPath><clipPath id="a7043f21f5"><rect x="0" width="3" y="0" height="3"/></clipPath><clipPath id="15f7c05f92"><path d="M 47.816406 50.074219 L 49.25 50.074219 L 49.25 51.507812 L 47.816406 51.507812 Z M 47.816406 50.074219 " clip-rule="nonzero"/></clipPath><clipPath id="b81ea9f095"><path d="M 48.53125 50.074219 C 48.136719 50.074219 47.816406 50.394531 47.816406 50.789062 C 47.816406 51.1875 48.136719 51.507812 48.53125 51.507812 C 48.929688 51.507812 49.25 51.1875 49.25 50.789062 C 49.25 50.394531 48.929688 50.074219 48.53125 50.074219 Z M 48.53125 50.074219 " clip-rule="nonzero"/></clipPath><clipPath id="227bed59ed"><path d="M 0.816406 0.0742188 L 2.25 0.0742188 L 2.25 1.507812 L 0.816406 1.507812 Z M 0.816406 0.0742188 " clip-rule="nonzero"/></clipPath><clipPath id="e109a43605"><path d="M 1.53125 0.0742188 C 1.136719 0.0742188 0.816406 0.394531 0.816406 0.789062 C 0.816406 1.1875 1.136719 1.507812 1.53125 1.507812 C 1.929688 1.507812 2.25 1.1875 2.25 0.789062 C 2.25 0.394531 1.929688 0.0742188 1.53125 0.0742188 Z M 1.53125 0.0742188 " clip-rule="nonzero"/></clipPath><clipPath id="9b0395aae4"><rect x="0" width="3" y="0" height="2"/></clipPath><clipPath id="6469f67ae2"><path d="M 36.628906 54.039062 L 38.0625 54.039062 L 38.0625 55.472656 L 36.628906 55.472656 Z M 36.628906 54.039062 " clip-rule="nonzero"/></clipPath><clipPath id="7fe5ddf599"><path d="M 37.347656 54.039062 C 36.949219 54.039062 36.628906 54.359375 36.628906 54.753906 C 36.628906 55.152344 36.949219 55.472656 37.347656 55.472656 C 37.742188 55.472656 38.0625 55.152344 38.0625 54.753906 C 38.0625 54.359375 37.742188 54.039062 37.347656 54.039062 Z M 37.347656 54.039062 " clip-rule="nonzero"/></clipPath><clipPath id="20eca630c2"><path d="M 0.628906 0.0390625 L 2.0625 0.0390625 L 2.0625 1.472656 L 0.628906 1.472656 Z M 0.628906 0.0390625 " clip-rule="nonzero"/></clipPath><clipPath id="7450cd54ad"><path d="M 1.347656 0.0390625 C 0.949219 0.0390625 0.628906 0.359375 0.628906 0.753906 C 0.628906 1.152344 0.949219 1.472656 1.347656 1.472656 C 1.742188 1.472656 2.0625 1.152344 2.0625 0.753906 C 2.0625 0.359375 1.742188 0.0390625 1.347656 0.0390625 Z M 1.347656 0.0390625 " clip-rule="nonzero"/></clipPath><clipPath id="64778a69f6"><rect x="0" width="3" y="0" height="2"/></clipPath><clipPath id="dea1875e15"><path d="M 24.964844 49.359375 L 26.398438 49.359375 L 26.398438 50.789062 L 24.964844 50.789062 Z M 24.964844 49.359375 " clip-rule="nonzero"/></clipPath><clipPath id="3f183adb46"><path d="M 25.683594 49.359375 C 25.285156 49.359375 24.964844 49.679688 24.964844 50.074219 C 24.964844 50.46875 25.285156 50.789062 25.683594 50.789062 C 26.078125 50.789062 26.398438 50.46875 26.398438 50.074219 C 26.398438 49.679688 26.078125 49.359375 25.683594 49.359375 Z M 25.683594 49.359375 " clip-rule="nonzero"/></clipPath><clipPath id="1203f078c3"><path d="M 0.964844 0.359375 L 2.398438 0.359375 L 2.398438 1.789062 L 0.964844 1.789062 Z M 0.964844 0.359375 " clip-rule="nonzero"/></clipPath><clipPath id="336e4d9f3b"><path d="M 1.683594 0.359375 C 1.285156 0.359375 0.964844 0.679688 0.964844 1.074219 C 0.964844 1.46875 1.285156 1.789062 1.683594 1.789062 C 2.078125 1.789062 2.398438 1.46875 2.398438 1.074219 C 2.398438 0.679688 2.078125 0.359375 1.683594 0.359375 Z M 1.683594 0.359375 " clip-rule="nonzero"/></clipPath><clipPath id="1263892233"><rect x="0" width="3" y="0" height="2"/></clipPath><clipPath id="b87c8bbf5f"><path d="M 19.433594 37.351562 L 20.863281 37.351562 L 20.863281 38.785156 L 19.433594 38.785156 Z M 19.433594 37.351562 " clip-rule="nonzero"/></clipPath><clipPath id="2621800563"><path d="M 20.148438 37.351562 C 19.753906 37.351562 19.433594 37.671875 19.433594 38.070312 C 19.433594 38.464844 19.753906 38.785156 20.148438 38.785156 C 20.542969 38.785156 20.863281 38.464844 20.863281 38.070312 C 20.863281 37.671875 20.542969 37.351562 20.148438 37.351562 Z M 20.148438 37.351562 " clip-rule="nonzero"/></clipPath><clipPath id="ecdea0e3c4"><path d="M 0.433594 0.351562 L 1.863281 0.351562 L 1.863281 1.785156 L 0.433594 1.785156 Z M 0.433594 0.351562 " clip-rule="nonzero"/></clipPath><clipPath id="791a2ad054"><path d="M 1.148438 0.351562 C 0.753906 0.351562 0.433594 0.671875 0.433594 1.070312 C 0.433594 1.464844 0.753906 1.785156 1.148438 1.785156 C 1.542969 1.785156 1.863281 1.464844 1.863281 1.070312 C 1.863281 0.671875 1.542969 0.351562 1.148438 0.351562 Z M 1.148438 0.351562 " clip-rule="nonzero"/></clipPath><clipPath id="d01908a81d"><rect x="0" width="2" y="0" height="2"/></clipPath><clipPath id="0595a133c2"><path d="M 24.25 24.628906 L 25.683594 24.628906 L 25.683594 26.0625 L 24.25 26.0625 Z M 24.25 24.628906 " clip-rule="nonzero"/></clipPath><clipPath id="f411ca1588"><path d="M 24.964844 24.628906 C 24.570312 24.628906 24.25 24.953125 24.25 25.347656 C 24.25 25.742188 24.570312 26.0625 24.964844 26.0625 C 25.363281 26.0625 25.683594 25.742188 25.683594 25.347656 C 25.683594 24.953125 25.363281 24.628906 24.964844 24.628906 Z M 24.964844 24.628906 " clip-rule="nonzero"/></clipPath><clipPath id="17f4bce06b"><path d="M 0.25 0.628906 L 1.683594 0.628906 L 1.683594 2.0625 L 0.25 2.0625 Z M 0.25 0.628906 " clip-rule="nonzero"/></clipPath><clipPath id="5d110470ff"><path d="M 0.964844 0.628906 C 0.570312 0.628906 0.25 0.953125 0.25 1.347656 C 0.25 1.742188 0.570312 2.0625 0.964844 2.0625 C 1.363281 2.0625 1.683594 1.742188 1.683594 1.347656 C 1.683594 0.953125 1.363281 0.628906 0.964844 0.628906 Z M 0.964844 0.628906 " clip-rule="nonzero"/></clipPath><clipPath id="21715684f7"><rect x="0" width="2" y="0" height="3"/></clipPath></defs><g clip-path="url(#a7340dabe7)"><g clip-path="url(#68380f2ac5)"><path stroke-linecap="butt" transform="matrix(0.75, 0, 0, 0.75, 16.940808, 17.21379)" fill="none" stroke-linejoin="miter" d="M 27.203925 0.00140469 C 12.177882 0.00140469 0.000797511 12.178489 0.000797511 27.204532 C 0.000797511 42.225366 12.177882 54.407659 27.203925 54.407659 C 42.224759 54.407659 54.407052 42.225366 54.407052 27.204532 C 54.407052 12.178489 42.224759 0.00140469 27.203925 0.00140469 Z M 27.203925 0.00140469 " stroke="#ffffff" stroke-width="6" stroke-opacity="1" stroke-miterlimit="4"/></g></g><g clip-path="url(#9cba624dfc)"><g clip-path="url(#f46f887867)"><path stroke-linecap="butt" transform="matrix(0.75, 0, 0, 0.75, 21.54743, 21.820414)" fill="none" stroke-linejoin="miter" d="M 21.061762 -0.000135571 C 9.431552 -0.000135571 -0.000740187 9.432157 -0.000740187 21.062366 C -0.000740187 32.692575 9.431552 42.124868 21.061762 42.124868 C 32.697179 42.124868 42.124263 32.692575 42.124263 21.062366 C 42.124263 9.432157 32.697179 -0.000135571 21.061762 -0.000135571 Z M 21.061762 -0.000135571 " stroke="#ffffff" stroke-width="20" stroke-opacity="1" stroke-miterlimit="4"/></g></g><g clip-path="url(#54d4fe2473)"><g transform="matrix(1, 0, 0, 1, 35, 8)"><g clip-path="url(#b4fd92daf4)"><g clip-path="url(#5d952e79b2)"><path fill="#ffffff" d="M 0.640625 0.339844 L 4.050781 0.339844 L 4.050781 10.164062 L 0.640625 10.164062 Z M 0.640625 0.339844 " fill-opacity="1" fill-rule="nonzero"/></g></g></g></g><g clip-path="url(#7339a07b2e)"><g transform="matrix(1, 0, 0, 1, 35, 56)"><g clip-path="url(#ed4765311e)"><g clip-path="url(#0a8ae1b299)"><path fill="#ffffff" d="M 0.640625 0.832031 L 4.050781 0.832031 L 4.050781 10.65625 L 0.640625 10.65625 Z M 0.640625 0.832031 " fill-opacity="1" fill-rule="nonzero"/></g></g></g></g><g clip-path="url(#618326b6f6)"><g transform="matrix(1, 0, 0, 1, 56, 35)"><g clip-path="url(#fad170f9ed)"><g clip-path="url(#c53a6d9756)"><path fill="#ffffff" d="M 0.867188 4.320312 L 0.867188 0.910156 L 10.691406 0.910156 L 10.691406 4.320312 Z M 0.867188 4.320312 " fill-opacity="1" fill-rule="nonzero"/></g></g></g></g><g clip-path="url(#06e4e53343)"><g transform="matrix(1, 0, 0, 1, 8, 35)"><g clip-path="url(#ff7c3ff232)"><g clip-path="url(#49c7c2a44e)"><path fill="#ffffff" d="M 0.308594 4.320312 L 0.308594 0.910156 L 10.132812 0.910156 L 10.132812 4.320312 Z M 0.308594 4.320312 " fill-opacity="1" fill-rule="nonzero"/></g></g></g></g><g clip-path="url(#6f79d39217)"><g clip-path="url(#ab68aa584e)"><g transform="matrix(1, 0, 0, 1, 50, 15)"><g clip-path="url(#15e60138ff)"><g clip-path="url(#6e6be09d5f)"><g clip-path="url(#61cbc2fe3e)"><path fill="#ffffff" d="M 7.628906 0.984375 L 10.042969 3.398438 L 3.09375 10.34375 L 0.683594 7.929688 Z M 7.628906 0.984375 " fill-opacity="1" fill-rule="nonzero"/></g></g></g></g></g></g><g clip-path="url(#bcbb79ecc6)"><g clip-path="url(#04d16b7988)"><g transform="matrix(1, 0, 0, 1, 15, 50)"><g clip-path="url(#3b42ba08c0)"><g clip-path="url(#150aab6d73)"><g clip-path="url(#e532cb01c7)"><path fill="#ffffff" d="M 7.550781 0.789062 L 9.964844 3.203125 L 3.015625 10.148438 L 0.605469 7.738281 Z M 7.550781 0.789062 " fill-opacity="1" fill-rule="nonzero"/></g></g></g></g></g></g><g clip-path="url(#40365291c8)"><g clip-path="url(#fb299a657c)"><g transform="matrix(1, 0, 0, 1, 15, 15)"><g clip-path="url(#4b424a1c0d)"><g clip-path="url(#4c65899cc3)"><g clip-path="url(#57f88519c7)"><path fill="#ffffff" d="M 0.605469 3.394531 L 3.019531 0.984375 L 9.964844 7.929688 L 7.550781 10.34375 Z M 0.605469 3.394531 " fill-opacity="1" fill-rule="nonzero"/></g></g></g></g></g></g><g clip-path="url(#5906cf21ed)"><g clip-path="url(#34a8dd9704)"><g transform="matrix(1, 0, 0, 1, 48, 50)"><g clip-path="url(#6288838761)"><g clip-path="url(#d84631d5ac)"><g clip-path="url(#5d4b306646)"><path fill="#ffffff" d="M 0.464844 3.203125 L 2.878906 0.789062 L 9.824219 7.734375 L 7.414062 10.148438 Z M 0.464844 3.203125 " fill-opacity="1" fill-rule="nonzero"/></g></g></g></g></g></g><g clip-path="url(#a1d9f1fed9)"><g clip-path="url(#7c1de64bed)"><g transform="matrix(1, 0, 0, 1, 36, 19)"><g clip-path="url(#73acdacd10)"><g clip-path="url(#29a86e1b19)"><g clip-path="url(#282ba33317)"><path fill="#ffffff" d="M 0.628906 0.949219 L 2.0625 0.949219 L 2.0625 2.382812 L 0.628906 2.382812 Z M 0.628906 0.949219 " fill-opacity="1" fill-rule="nonzero"/></g></g></g></g></g></g><g clip-path="url(#210213d482)"><g clip-path="url(#cb1e45c212)"><g transform="matrix(1, 0, 0, 1, 49, 25)"><g clip-path="url(#f55d4043f3)"><g clip-path="url(#22817537b0)"><g clip-path="url(#8c49da8c62)"><path fill="#ffffff" d="M 0.25 0.347656 L 1.683594 0.347656 L 1.683594 1.78125 L 0.25 1.78125 Z M 0.25 0.347656 " fill-opacity="1" fill-rule="nonzero"/></g></g></g></g></g></g><g clip-path="url(#968a8a4a1d)"><g clip-path="url(#93adc83ea5)"><g transform="matrix(1, 0, 0, 1, 53, 36)"><g clip-path="url(#a7043f21f5)"><g clip-path="url(#7a84146aa4)"><g clip-path="url(#ccdf53a460)"><path fill="#ffffff" d="M 0.929688 0.902344 L 2.363281 0.902344 L 2.363281 2.335938 L 0.929688 2.335938 Z M 0.929688 0.902344 " fill-opacity="1" fill-rule="nonzero"/></g></g></g></g></g></g><g clip-path="url(#15f7c05f92)"><g clip-path="url(#b81ea9f095)"><g transform="matrix(1, 0, 0, 1, 47, 50)"><g clip-path="url(#9b0395aae4)"><g clip-path="url(#227bed59ed)"><g clip-path="url(#e109a43605)"><path fill="#ffffff" d="M 0.816406 0.0742188 L 2.25 0.0742188 L 2.25 1.507812 L 0.816406 1.507812 Z M 0.816406 0.0742188 " fill-opacity="1" fill-rule="nonzero"/></g></g></g></g></g></g><g clip-path="url(#6469f67ae2)"><g clip-path="url(#7fe5ddf599)"><g transform="matrix(1, 0, 0, 1, 36, 54)"><g clip-path="url(#64778a69f6)"><g clip-path="url(#20eca630c2)"><g clip-path="url(#7450cd54ad)"><path fill="#ffffff" d="M 0.628906 0.0390625 L 2.0625 0.0390625 L 2.0625 1.472656 L 0.628906 1.472656 Z M 0.628906 0.0390625 " fill-opacity="1" fill-rule="nonzero"/></g></g></g></g></g></g><g clip-path="url(#dea1875e15)"><g clip-path="url(#3f183adb46)"><g transform="matrix(1, 0, 0, 1, 24, 49)"><g clip-path="url(#1263892233)"><g clip-path="url(#1203f078c3)"><g clip-path="url(#336e4d9f3b)"><path fill="#ffffff" d="M 0.964844 0.359375 L 2.398438 0.359375 L 2.398438 1.789062 L 0.964844 1.789062 Z M 0.964844 0.359375 " fill-opacity="1" fill-rule="nonzero"/></g></g></g></g></g></g><g clip-path="url(#b87c8bbf5f)"><g clip-path="url(#2621800563)"><g transform="matrix(1, 0, 0, 1, 19, 37)"><g clip-path="url(#d01908a81d)"><g clip-path="url(#ecdea0e3c4)"><g clip-path="url(#791a2ad054)"><path fill="#ffffff" d="M 0.433594 0.351562 L 1.863281 0.351562 L 1.863281 1.785156 L 0.433594 1.785156 Z M 0.433594 0.351562 " fill-opacity="1" fill-rule="nonzero"/></g></g></g></g></g></g><g clip-path="url(#0595a133c2)"><g clip-path="url(#f411ca1588)"><g transform="matrix(1, 0, 0, 1, 24, 24)"><g clip-path="url(#21715684f7)"><g clip-path="url(#17f4bce06b)"><g clip-path="url(#5d110470ff)"><path fill="#ffffff" d="M 0.25 0.628906 L 1.683594 0.628906 L 1.683594 2.0625 L 0.25 2.0625 Z M 0.25 0.628906 " fill-opacity="1" fill-rule="nonzero"/></g></g></g></g></g></g></svg>