<svg xmlns="http://www.w3.org/2000/svg" xmlns:xlink="http://www.w3.org/1999/xlink" width="100" zoomAndPan="magnify" viewBox="0 0 75 74.999997" height="100" preserveAspectRatio="xMidYMid meet" version="1.0"><defs><clipPath id="1ef3f6cf36"><path d="M 6 19.1875 L 38.976562 19.1875 L 38.976562 52 L 6 52 Z M 6 19.1875 " clip-rule="nonzero"/></clipPath><clipPath id="8913df58c5"><path d="M 5.976562 19.1875 L 38.976562 19.1875 L 38.976562 52.1875 L 5.976562 52.1875 Z M 5.976562 19.1875 " clip-rule="nonzero"/></clipPath><clipPath id="2ecaafd0a0"><path d="M 38 20 L 70 20 L 70 52 L 38 52 Z M 38 20 " clip-rule="nonzero"/></clipPath><clipPath id="c7701a46fd"><path d="M 32.058594 26.671875 L 62.585938 14.132812 L 75.121094 44.660156 L 44.59375 57.195312 Z M 32.058594 26.671875 " clip-rule="nonzero"/></clipPath><clipPath id="8a163b5d2a"><path d="M 32.058594 26.671875 L 62.585938 14.132812 L 75.121094 44.660156 L 44.59375 57.195312 Z M 32.058594 26.671875 " clip-rule="nonzero"/></clipPath><clipPath id="00efb5642e"><path d="M 32.058594 26.671875 L 62.585938 14.132812 L 75.121094 44.660156 L 44.59375 57.195312 Z M 32.058594 26.671875 " clip-rule="nonzero"/></clipPath><clipPath id="8d4337faae"><path d="M 37 19 L 70 19 L 70 52 L 37 52 Z M 37 19 " clip-rule="nonzero"/></clipPath><clipPath id="bd9dce60af"><path d="M 32.058594 26.671875 L 62.585938 14.132812 L 75.121094 44.660156 L 44.59375 57.195312 Z M 32.058594 26.671875 " clip-rule="nonzero"/></clipPath><clipPath id="ffb722adbf"><path d="M 32.058594 26.671875 L 62.585938 14.132812 L 75.121094 44.660156 L 44.59375 57.195312 Z M 32.058594 26.671875 " clip-rule="nonzero"/></clipPath><clipPath id="7b2749ddf1"><path d="M 32.058594 26.671875 L 62.585938 14.132812 L 75.121094 44.660156 L 44.59375 57.195312 Z M 32.058594 26.671875 " clip-rule="nonzero"/></clipPath><clipPath id="3e1352e2aa"><path d="M 44 26 L 63 26 L 63 45 L 44 45 Z M 44 26 " clip-rule="nonzero"/></clipPath><clipPath id="333a305bd3"><path d="M 32.058594 26.671875 L 62.585938 14.132812 L 75.121094 44.660156 L 44.59375 57.195312 Z M 32.058594 26.671875 " clip-rule="nonzero"/></clipPath><clipPath id="c545874bb7"><path d="M 32.058594 26.671875 L 62.585938 14.132812 L 75.121094 44.660156 L 44.59375 57.195312 Z M 32.058594 26.671875 " clip-rule="nonzero"/></clipPath><clipPath id="0a8ba76a99"><path d="M 32.058594 26.671875 L 62.585938 14.132812 L 75.121094 44.660156 L 44.59375 57.195312 Z M 32.058594 26.671875 " clip-rule="nonzero"/></clipPath><clipPath id="8aa922d316"><path d="M 44 26 L 63 26 L 63 46 L 44 46 Z M 44 26 " clip-rule="nonzero"/></clipPath><clipPath id="ee1284195a"><path d="M 32.058594 26.671875 L 62.585938 14.132812 L 75.121094 44.660156 L 44.59375 57.195312 Z M 32.058594 26.671875 " clip-rule="nonzero"/></clipPath><clipPath id="c453ff2cd1"><path d="M 32.058594 26.671875 L 62.585938 14.132812 L 75.121094 44.660156 L 44.59375 57.195312 Z M 32.058594 26.671875 " clip-rule="nonzero"/></clipPath><clipPath id="c205e7db77"><path d="M 32.058594 26.671875 L 62.585938 14.132812 L 75.121094 44.660156 L 44.59375 57.195312 Z M 32.058594 26.671875 " clip-rule="nonzero"/></clipPath></defs><g clip-path="url(#1ef3f6cf36)"><path fill="#ffffff" d="M 16.199219 46.027344 C 16.574219 46.027344 16.957031 46.113281 17.3125 46.289062 C 17.773438 46.519531 18.253906 46.71875 18.738281 46.886719 C 19.773438 47.238281 20.464844 48.207031 20.464844 49.289062 L 20.464844 50.757812 C 20.464844 50.925781 20.605469 51.0625 20.773438 51.0625 L 24.214844 51.0625 C 24.382812 51.0625 24.519531 50.925781 24.519531 50.757812 L 24.519531 49.289062 C 24.519531 48.207031 25.21875 47.238281 26.25 46.886719 C 26.734375 46.71875 27.214844 46.519531 27.675781 46.289062 C 28.632812 45.808594 29.785156 45.992188 30.539062 46.75 L 31.609375 47.820312 L 32.046875 47.820312 L 34.476562 45.386719 L 34.570312 45.171875 L 34.476562 44.953125 L 33.394531 43.867188 C 32.640625 43.117188 32.457031 41.96875 32.929688 41.011719 C 33.15625 40.550781 33.355469 40.070312 33.519531 39.585938 C 33.867188 38.554688 34.828125 37.863281 35.90625 37.863281 L 37.414062 37.863281 C 37.582031 37.863281 37.722656 37.726562 37.722656 37.554688 L 37.722656 34.117188 C 37.722656 33.945312 37.582031 33.808594 37.414062 33.808594 L 35.878906 33.808594 C 34.804688 33.808594 33.847656 33.121094 33.496094 32.097656 C 33.332031 31.621094 33.132812 31.148438 32.90625 30.699219 C 32.429688 29.734375 32.613281 28.582031 33.363281 27.832031 L 34.476562 26.71875 L 34.570312 26.503906 L 34.476562 26.285156 L 32.046875 23.851562 L 31.609375 23.851562 L 30.484375 24.976562 C 29.734375 25.730469 28.589844 25.914062 27.628906 25.441406 C 27.175781 25.21875 26.703125 25.023438 26.226562 24.859375 C 25.207031 24.515625 24.519531 23.5625 24.519531 22.492188 L 24.519531 20.914062 C 24.519531 20.746094 24.382812 20.609375 24.214844 20.609375 L 20.773438 20.609375 C 20.605469 20.609375 20.464844 20.746094 20.464844 20.914062 L 20.464844 22.492188 C 20.464844 23.5625 19.78125 24.515625 18.761719 24.859375 C 18.285156 25.023438 17.816406 25.21875 17.359375 25.441406 C 16.402344 25.914062 15.253906 25.730469 14.503906 24.976562 L 13.375 23.851562 L 12.941406 23.851562 L 10.507812 26.285156 L 10.417969 26.503906 L 10.507812 26.71875 L 11.621094 27.832031 C 12.375 28.585938 12.558594 29.734375 12.082031 30.699219 C 11.855469 31.148438 11.65625 31.621094 11.496094 32.097656 C 11.140625 33.121094 10.183594 33.808594 9.109375 33.808594 L 7.574219 33.808594 C 7.40625 33.808594 7.269531 33.945312 7.269531 34.117188 L 7.269531 37.554688 C 7.269531 37.726562 7.40625 37.863281 7.574219 37.863281 L 9.082031 37.863281 C 10.164062 37.863281 11.121094 38.554688 11.46875 39.585938 C 11.632812 40.070312 11.832031 40.550781 12.058594 41.011719 C 12.53125 41.96875 12.34375 43.117188 11.59375 43.867188 L 10.507812 44.953125 L 10.417969 45.171875 L 10.507812 45.386719 L 12.941406 47.820312 L 13.375 47.820312 L 14.449219 46.75 C 14.921875 46.277344 15.554688 46.027344 16.199219 46.027344 Z M 24.214844 51.964844 L 20.773438 51.964844 C 20.109375 51.964844 19.566406 51.421875 19.566406 50.757812 L 19.566406 49.289062 C 19.566406 48.589844 19.117188 47.96875 18.445312 47.738281 C 17.921875 47.558594 17.40625 47.34375 16.910156 47.09375 C 16.296875 46.789062 15.566406 46.90625 15.085938 47.386719 L 14.015625 48.457031 C 13.558594 48.914062 12.761719 48.914062 12.304688 48.457031 L 9.875 46.023438 C 9.402344 45.554688 9.402344 44.785156 9.875 44.316406 L 10.957031 43.230469 C 11.4375 42.753906 11.550781 42.019531 11.25 41.410156 C 11.003906 40.914062 10.792969 40.398438 10.617188 39.875 C 10.390625 39.210938 9.773438 38.765625 9.082031 38.765625 L 7.574219 38.765625 C 6.910156 38.765625 6.363281 38.222656 6.363281 37.554688 L 6.363281 34.117188 C 6.363281 33.449219 6.910156 32.910156 7.574219 32.910156 L 9.109375 32.910156 C 9.800781 32.910156 10.414062 32.464844 10.640625 31.804688 C 10.820312 31.292969 11.03125 30.785156 11.273438 30.296875 C 11.582031 29.683594 11.464844 28.945312 10.984375 28.46875 L 9.875 27.355469 C 9.644531 27.128906 9.519531 26.824219 9.519531 26.503906 C 9.519531 26.179688 9.644531 25.875 9.875 25.648438 L 12.304688 23.214844 C 12.761719 22.757812 13.558594 22.757812 14.015625 23.214844 L 15.140625 24.339844 C 15.617188 24.820312 16.347656 24.9375 16.960938 24.632812 C 17.449219 24.394531 17.957031 24.183594 18.472656 24.007812 C 19.125 23.785156 19.566406 23.175781 19.566406 22.492188 L 19.566406 20.914062 C 19.566406 20.25 20.109375 19.707031 20.773438 19.707031 L 24.214844 19.707031 C 24.878906 19.707031 25.421875 20.25 25.421875 20.914062 L 25.421875 22.492188 C 25.421875 23.175781 25.859375 23.785156 26.515625 24.007812 C 27.03125 24.183594 27.539062 24.394531 28.027344 24.632812 C 28.640625 24.9375 29.371094 24.816406 29.847656 24.339844 L 30.972656 23.214844 C 31.445312 22.742188 32.210938 22.742188 32.683594 23.214844 L 35.113281 25.648438 C 35.34375 25.875 35.46875 26.179688 35.46875 26.503906 C 35.46875 26.824219 35.34375 27.128906 35.113281 27.355469 L 34.003906 28.46875 C 33.523438 28.945312 33.40625 29.683594 33.714844 30.296875 C 33.957031 30.78125 34.167969 31.292969 34.347656 31.804688 C 34.574219 32.464844 35.1875 32.910156 35.878906 32.910156 L 37.414062 32.910156 C 38.082031 32.910156 38.621094 33.449219 38.621094 34.117188 L 38.621094 37.554688 C 38.621094 38.222656 38.082031 38.765625 37.414062 38.765625 L 35.90625 38.765625 C 35.214844 38.765625 34.597656 39.210938 34.371094 39.875 C 34.195312 40.398438 33.980469 40.914062 33.738281 41.410156 C 33.433594 42.019531 33.550781 42.753906 34.03125 43.230469 L 35.113281 44.316406 C 35.585938 44.785156 35.585938 45.554688 35.113281 46.023438 L 32.683594 48.457031 C 32.210938 48.929688 31.445312 48.929688 30.972656 48.457031 L 29.902344 47.386719 C 29.421875 46.90625 28.6875 46.792969 28.078125 47.09375 C 27.582031 47.34375 27.066406 47.558594 26.542969 47.738281 C 25.871094 47.96875 25.421875 48.589844 25.421875 49.289062 L 25.421875 50.757812 C 25.421875 51.421875 24.878906 51.964844 24.214844 51.964844 Z M 24.214844 51.964844 " fill-opacity="1" fill-rule="nonzero"/></g><g clip-path="url(#8913df58c5)"><path fill="#ffffff" d="M 24.230469 20.925781 C 24.230469 20.921875 24.230469 20.917969 24.230469 20.914062 C 24.234375 20.90625 24.222656 20.890625 24.214844 20.890625 C 23.027344 20.878906 21.933594 20.929688 20.773438 20.980469 C 20.8125 20.988281 20.851562 20.96875 20.859375 20.914062 C 20.882812 21.421875 20.902344 21.941406 20.914062 22.492188 C 20.9375 23.253906 20.625 24.09375 19.957031 24.683594 C 19.621094 24.984375 19.257812 25.171875 18.90625 25.285156 C 18.371094 25.453125 17.933594 25.625 17.535156 25.800781 C 16.5 26.238281 15.339844 26.195312 14.28125 25.199219 C 13.960938 24.871094 13.59375 24.5 13.15625 24.074219 L 13.375 24.164062 C 13.285156 24.164062 13.191406 24.164062 13.09375 24.164062 C 13.042969 24.167969 12.992188 24.167969 12.941406 24.167969 L 13.164062 24.074219 C 12.34375 24.910156 11.515625 25.734375 10.730469 26.507812 L 10.796875 26.40625 C 10.769531 26.476562 10.738281 26.550781 10.707031 26.621094 L 10.707031 26.382812 C 10.738281 26.457031 10.765625 26.527344 10.796875 26.601562 L 10.726562 26.5 C 11.113281 26.890625 11.480469 27.265625 11.832031 27.621094 C 12.847656 28.644531 12.734375 30.082031 12.34375 30.828125 C 12.277344 30.96875 12.222656 31.097656 12.171875 31.21875 C 12.007812 31.617188 11.894531 31.925781 11.789062 32.199219 C 11.40625 32.980469 11.007812 33.828125 9.109375 34.035156 C 8.550781 34.042969 8.046875 34.050781 7.574219 34.050781 C 7.539062 34.050781 7.511719 34.085938 7.511719 34.117188 C 7.515625 35.304688 7.496094 36.332031 7.460938 37.554688 C 7.457031 37.605469 7.496094 37.667969 7.550781 37.679688 C 7.558594 37.683594 7.566406 37.683594 7.574219 37.683594 C 7.957031 37.695312 8.476562 37.703125 9.082031 37.714844 C 10.039062 37.695312 11.21875 38.390625 11.582031 39.550781 C 11.742188 40.03125 11.933594 40.507812 12.15625 40.964844 C 12.699219 42.019531 12.355469 43.304688 11.679688 43.953125 C 11.289062 44.351562 10.953125 44.699219 10.691406 44.976562 C 10.667969 45.003906 10.640625 45.03125 10.613281 45.058594 L 10.648438 45.011719 C 10.617188 45.082031 10.589844 45.15625 10.5625 45.230469 L 10.5625 45.109375 C 10.59375 45.183594 10.625 45.253906 10.65625 45.324219 L 10.621094 45.273438 C 11.449219 46.074219 12.285156 46.9375 13.035156 47.730469 L 12.941406 47.691406 C 13.089844 47.695312 13.234375 47.695312 13.375 47.699219 L 13.292969 47.734375 C 13.691406 47.359375 14.066406 47.007812 14.394531 46.695312 C 14.546875 46.550781 14.707031 46.433594 14.863281 46.339844 C 15.304688 46.082031 15.710938 46.015625 16.011719 46.007812 C 16.136719 46.003906 16.199219 46.015625 16.199219 46.027344 C 16.195312 46.042969 16.105469 46.054688 15.949219 46.070312 C 15.511719 46.117188 14.945312 46.316406 14.496094 46.792969 C 14.175781 47.128906 13.824219 47.5 13.457031 47.898438 L 13.421875 47.929688 L 13.378906 47.929688 C 13.324219 47.933594 13.269531 47.933594 13.21875 47.9375 C 13.125 47.941406 13.03125 47.945312 12.945312 47.949219 L 12.890625 47.949219 L 12.851562 47.910156 C 11.742188 46.871094 11.261719 46.363281 10.40625 45.488281 L 10.375 45.441406 C 10.34375 45.371094 10.316406 45.300781 10.285156 45.226562 L 10.261719 45.167969 L 10.285156 45.113281 C 10.316406 45.042969 10.34375 44.972656 10.375 44.898438 L 10.40625 44.851562 C 10.714844 44.546875 11.066406 44.195312 11.492188 43.761719 C 11.628906 43.621094 11.757812 43.453125 11.863281 43.261719 C 12.257812 42.53125 12.203125 41.710938 11.878906 41.101562 C 11.632812 40.625 11.425781 40.152344 11.25 39.660156 C 10.949219 38.808594 10.117188 38.128906 9.082031 38.128906 C 8.605469 38.128906 8.105469 38.125 7.574219 38.121094 C 7.273438 38.125 7.007812 37.859375 7.015625 37.554688 C 7.019531 37.34375 7.023438 37.128906 7.023438 36.910156 C 7.042969 35.800781 7.035156 34.921875 7.019531 34.117188 C 7.011719 33.8125 7.277344 33.546875 7.574219 33.550781 C 8.089844 33.539062 8.585938 33.523438 9.109375 33.507812 C 9.878906 33.484375 10.789062 33.035156 11.171875 31.988281 C 11.328125 31.535156 11.527344 31.058594 11.789062 30.550781 C 11.96875 30.207031 12.074219 29.785156 12.035156 29.332031 C 11.992188 28.796875 11.75 28.339844 11.4375 28.015625 C 11.035156 27.601562 10.671875 27.234375 10.332031 26.894531 L 10.277344 26.8125 C 10.246094 26.742188 10.21875 26.667969 10.1875 26.597656 L 10.148438 26.5 L 10.1875 26.40625 C 10.21875 26.332031 10.246094 26.261719 10.277344 26.1875 L 10.332031 26.105469 C 11.242188 25.183594 11.929688 24.441406 12.699219 23.609375 L 12.804688 23.507812 L 12.941406 23.507812 C 13.085938 23.503906 13.230469 23.496094 13.375 23.492188 L 13.527344 23.492188 L 13.632812 23.597656 C 13.992188 23.929688 14.371094 24.285156 14.792969 24.683594 C 15.300781 25.171875 16.230469 25.480469 17.144531 25.03125 C 17.148438 25.027344 17.152344 25.027344 17.152344 25.027344 C 17.617188 24.796875 18.101562 24.589844 18.613281 24.417969 C 19.402344 24.160156 20.011719 23.359375 20.003906 22.492188 C 20.007812 21.96875 20.011719 21.441406 20.015625 20.914062 C 20.011719 20.503906 20.371094 20.15625 20.773438 20.164062 C 21.949219 20.171875 23.109375 20.1875 24.214844 20.199219 C 24.605469 20.195312 24.933594 20.539062 24.925781 20.914062 C 24.917969 21.457031 24.910156 21.984375 24.90625 22.492188 C 24.886719 23.484375 25.601562 24.285156 26.34375 24.519531 C 26.8125 24.683594 27.234375 24.859375 27.601562 25.03125 C 27.660156 25.058594 27.722656 25.089844 27.785156 25.117188 C 28.511719 25.492188 29.558594 25.398438 30.222656 24.714844 C 30.585938 24.347656 30.960938 23.972656 31.34375 23.585938 L 31.457031 23.476562 L 31.609375 23.476562 C 31.753906 23.476562 31.898438 23.476562 32.046875 23.476562 L 32.207031 23.476562 L 32.3125 23.585938 C 33.09375 24.363281 33.910156 25.175781 34.75 26.015625 L 34.832031 26.136719 C 34.859375 26.210938 34.890625 26.28125 34.921875 26.351562 L 34.984375 26.503906 L 34.921875 26.648438 C 34.890625 26.722656 34.859375 26.792969 34.832031 26.867188 L 34.746094 26.992188 C 34.378906 27.355469 34.007812 27.726562 33.632812 28.097656 C 33.160156 28.558594 32.925781 29.265625 33.039062 29.9375 C 33.074219 30.144531 33.136719 30.347656 33.230469 30.539062 C 33.457031 30.996094 33.660156 31.480469 33.832031 31.984375 C 34.101562 32.816406 34.957031 33.460938 35.878906 33.449219 C 36.386719 33.445312 36.898438 33.445312 37.414062 33.441406 C 37.773438 33.4375 38.097656 33.75 38.089844 34.117188 C 38.097656 35.253906 38.101562 36.40625 38.101562 37.554688 C 38.109375 37.921875 37.789062 38.25 37.414062 38.246094 C 36.910156 38.246094 36.410156 38.246094 35.90625 38.246094 C 35 38.230469 34.144531 38.859375 33.863281 39.703125 C 33.796875 39.894531 33.722656 40.082031 33.648438 40.265625 C 33.527344 40.566406 33.390625 40.863281 33.238281 41.164062 C 32.835938 41.914062 32.941406 42.984375 33.609375 43.648438 C 33.964844 44.011719 34.324219 44.378906 34.683594 44.75 L 34.746094 44.839844 C 34.773438 44.914062 34.804688 44.988281 34.832031 45.058594 L 34.878906 45.171875 L 34.832031 45.28125 C 34.800781 45.351562 34.769531 45.425781 34.738281 45.496094 L 34.679688 45.585938 C 33.851562 46.394531 33.023438 47.207031 32.21875 47.992188 L 32.144531 48.0625 L 32.046875 48.0625 C 31.902344 48.0625 31.753906 48.0625 31.609375 48.058594 L 31.507812 48.058594 L 31.441406 47.988281 C 31.082031 47.621094 30.726562 47.257812 30.382812 46.902344 C 29.671875 46.15625 28.527344 46.058594 27.757812 46.449219 C 27.246094 46.699219 26.753906 46.886719 26.300781 47.035156 C 26.078125 47.109375 25.875 47.210938 25.703125 47.328125 C 24.925781 47.855469 24.640625 48.644531 24.632812 49.289062 C 24.625 49.820312 24.621094 50.289062 24.617188 50.757812 C 24.621094 50.972656 24.433594 51.164062 24.214844 51.160156 C 23.261719 51.15625 22.257812 51.164062 20.773438 51.175781 C 20.75 51.175781 20.722656 51.175781 20.699219 51.171875 C 20.507812 51.140625 20.347656 50.964844 20.347656 50.757812 C 20.34375 50.296875 20.34375 49.804688 20.34375 49.289062 C 20.367188 48.324219 19.695312 47.308594 18.710938 46.96875 C 18.214844 46.789062 17.734375 46.578125 17.289062 46.335938 C 17.171875 46.273438 17.046875 46.21875 16.921875 46.175781 C 16.378906 46.003906 16.140625 46.039062 16.207031 46.007812 C 16.273438 45.992188 16.652344 45.945312 17.214844 46.164062 C 17.261719 46.183594 17.304688 46.203125 17.347656 46.222656 C 17.839844 46.457031 18.320312 46.648438 18.769531 46.796875 C 19.714844 47.113281 20.230469 47.855469 20.460938 48.398438 C 20.589844 48.703125 20.65625 49.007812 20.671875 49.289062 C 20.707031 49.8125 20.730469 50.265625 20.742188 50.757812 C 20.746094 50.769531 20.761719 50.785156 20.773438 50.78125 C 21.300781 50.777344 21.902344 50.789062 22.6875 50.816406 C 23.269531 50.835938 23.769531 50.835938 24.214844 50.832031 C 24.253906 50.832031 24.285156 50.789062 24.277344 50.757812 C 24.261719 50.207031 24.234375 49.738281 24.214844 49.289062 C 24.203125 48.886719 24.277344 48.488281 24.453125 48.109375 C 24.816406 47.460938 25.046875 47.078125 26.164062 46.636719 C 26.53125 46.515625 26.992188 46.347656 27.5625 46.0625 C 28.292969 45.679688 29.640625 45.515625 30.730469 46.558594 C 30.980469 46.804688 31.246094 47.0625 31.527344 47.339844 C 31.625 47.433594 31.71875 47.527344 31.8125 47.617188 L 31.609375 47.535156 C 31.753906 47.53125 31.902344 47.53125 32.046875 47.527344 L 31.839844 47.613281 C 32.71875 46.714844 33.515625 45.898438 34.246094 45.15625 L 34.175781 45.257812 C 34.203125 45.1875 34.234375 45.113281 34.265625 45.042969 L 34.265625 45.296875 C 34.230469 45.226562 34.203125 45.152344 34.171875 45.082031 L 34.242188 45.1875 C 33.859375 44.8125 33.492188 44.453125 33.148438 44.113281 C 32.175781 43.160156 32.132812 41.757812 32.597656 40.847656 C 32.828125 40.363281 33.011719 39.898438 33.15625 39.464844 C 33.390625 38.753906 33.863281 38.222656 34.378906 37.902344 C 34.769531 37.65625 35.300781 37.464844 35.90625 37.464844 C 36.371094 37.46875 36.878906 37.46875 37.414062 37.472656 C 37.363281 37.476562 37.335938 37.511719 37.335938 37.554688 C 37.34375 36.484375 37.351562 35.3125 37.359375 34.117188 C 37.363281 34.152344 37.382812 34.167969 37.414062 34.167969 C 36.902344 34.167969 36.390625 34.164062 35.878906 34.164062 C 34.726562 34.171875 33.671875 33.421875 33.25 32.457031 C 33.214844 32.378906 33.183594 32.300781 33.152344 32.214844 C 33.003906 31.792969 32.816406 31.335938 32.578125 30.863281 C 32.070312 29.910156 32.175781 28.46875 33.097656 27.566406 C 33.464844 27.199219 33.835938 26.828125 34.210938 26.453125 L 34.128906 26.574219 C 34.160156 26.503906 34.191406 26.429688 34.21875 26.355469 L 34.21875 26.648438 C 34.191406 26.578125 34.160156 26.503906 34.128906 26.433594 L 34.210938 26.554688 C 33.390625 25.734375 32.5625 24.90625 31.777344 24.125 L 32.046875 24.234375 C 31.898438 24.234375 31.753906 24.234375 31.609375 24.234375 L 31.878906 24.125 C 31.492188 24.511719 31.117188 24.890625 30.761719 25.25 C 29.746094 26.28125 28.265625 26.234375 27.445312 25.808594 C 27.394531 25.785156 27.339844 25.757812 27.289062 25.734375 C 26.832031 25.53125 26.4375 25.382812 26.089844 25.265625 C 24.503906 24.597656 24.207031 23.632812 24.179688 22.492188 C 24.195312 22.070312 24.214844 21.578125 24.230469 20.925781 Z M 25.859375 23.09375 C 26.011719 23.40625 26.292969 23.636719 26.605469 23.738281 C 27.144531 23.917969 27.660156 24.117188 28.167969 24.34375 C 28.640625 24.558594 29.230469 24.4375 29.5625 24.054688 C 29.910156 23.679688 30.269531 23.296875 30.652344 22.894531 C 31.207031 22.285156 32.34375 22.191406 33.011719 22.886719 C 33.046875 22.917969 33.078125 22.953125 33.113281 22.988281 C 34.136719 24.035156 34.773438 24.722656 35.382812 25.378906 C 35.667969 25.675781 35.824219 26.085938 35.8125 26.503906 C 35.808594 26.878906 35.652344 27.285156 35.34375 27.582031 C 35.011719 27.902344 34.648438 28.257812 34.21875 28.6875 C 34.027344 28.875 33.882812 29.15625 33.859375 29.480469 C 33.84375 29.710938 33.894531 29.945312 33.996094 30.152344 C 34.253906 30.660156 34.46875 31.179688 34.648438 31.699219 C 34.820312 32.238281 35.351562 32.605469 35.878906 32.601562 C 36.410156 32.605469 36.925781 32.609375 37.414062 32.613281 C 38.304688 32.609375 38.9375 33.414062 38.910156 34.117188 C 38.910156 34.78125 38.914062 35.347656 38.929688 35.777344 C 38.957031 36.574219 38.933594 37.042969 38.90625 37.554688 C 38.878906 38.121094 38.488281 38.929688 37.414062 38.980469 C 37.191406 38.980469 36.945312 38.984375 36.667969 38.988281 C 36.40625 38.992188 36.152344 38.996094 35.90625 39 C 35.265625 39.007812 34.769531 39.449219 34.601562 39.953125 C 34.417969 40.496094 34.199219 41.003906 33.9375 41.507812 C 33.71875 41.921875 33.710938 42.480469 34.015625 42.933594 C 34.054688 42.992188 34.097656 43.050781 34.152344 43.105469 C 34.4375 43.402344 34.800781 43.78125 35.21875 44.210938 C 35.691406 44.660156 35.765625 45.582031 35.203125 46.113281 C 34.414062 46.890625 33.5625 47.730469 32.757812 48.535156 C 32.242188 49.070312 31.34375 49.011719 30.894531 48.539062 C 30.496094 48.144531 30.128906 47.785156 29.8125 47.476562 C 29.628906 47.296875 29.417969 47.191406 29.226562 47.140625 C 28.875 47.039062 28.484375 47.074219 28.152344 47.242188 C 27.648438 47.5 27.121094 47.714844 26.59375 47.886719 C 25.96875 48.078125 25.539062 48.691406 25.53125 49.289062 C 25.519531 49.820312 25.503906 50.316406 25.492188 50.757812 C 25.488281 50.929688 25.453125 51.089844 25.390625 51.230469 C 25.167969 51.742188 24.722656 51.941406 24.414062 51.976562 C 24.277344 51.992188 24.214844 51.972656 24.214844 51.964844 C 24.214844 51.945312 24.308594 51.941406 24.472656 51.902344 C 24.878906 51.824219 25.378906 51.382812 25.359375 50.757812 C 25.351562 50.308594 25.335938 49.816406 25.320312 49.289062 C 25.3125 49.140625 25.328125 48.988281 25.363281 48.835938 C 25.53125 48.148438 26.03125 47.75 26.492188 47.589844 C 27.046875 47.390625 27.5 47.207031 28.007812 46.960938 C 28.519531 46.707031 29.335938 46.644531 30.003906 47.285156 C 30.300781 47.578125 30.640625 47.910156 31.035156 48.296875 C 31.050781 48.3125 31.070312 48.328125 31.085938 48.34375 C 31.511719 48.769531 32.210938 48.699219 32.546875 48.324219 C 33.375 47.464844 34.128906 46.675781 34.9375 45.847656 C 35.28125 45.511719 35.3125 44.875 34.929688 44.503906 C 34.585938 44.160156 34.226562 43.800781 33.847656 43.414062 C 33.488281 43.054688 33.277344 42.511719 33.335938 41.957031 C 33.359375 41.722656 33.429688 41.5 33.527344 41.304688 C 33.796875 40.769531 33.996094 40.269531 34.144531 39.796875 C 34.40625 39.007812 35.136719 38.496094 35.90625 38.480469 C 36.394531 38.46875 36.882812 38.453125 37.414062 38.445312 C 37.832031 38.445312 38.285156 38.078125 38.28125 37.554688 C 38.277344 36.605469 38.289062 35.496094 38.320312 34.117188 C 38.324219 34.039062 38.316406 33.964844 38.296875 33.886719 C 38.207031 33.453125 37.796875 33.167969 37.414062 33.171875 C 36.855469 33.164062 36.347656 33.160156 35.878906 33.15625 C 34.996094 33.15625 34.324219 32.558594 34.089844 31.894531 C 33.898438 31.375 33.679688 30.898438 33.429688 30.4375 C 33.070312 29.789062 33.101562 28.855469 33.726562 28.195312 C 34.058594 27.84375 34.414062 27.46875 34.8125 27.054688 C 34.945312 26.910156 35.027344 26.71875 35.023438 26.503906 C 35.019531 26.308594 34.941406 26.117188 34.792969 25.972656 C 34.648438 25.832031 34.503906 25.691406 34.355469 25.542969 C 33.707031 24.902344 33.035156 24.230469 32.351562 23.546875 C 32.085938 23.261719 31.578125 23.253906 31.300781 23.539062 C 30.921875 23.914062 30.542969 24.289062 30.164062 24.660156 C 29.558594 25.273438 28.566406 25.40625 27.835938 25.023438 C 27.359375 24.78125 26.871094 24.574219 26.382812 24.398438 C 25.5625 24.125 25.007812 23.304688 25.027344 22.492188 C 25.03125 21.949219 25.039062 21.421875 25.042969 20.914062 C 25.058594 20.441406 24.628906 20.058594 24.214844 20.070312 C 23.445312 20.0625 22.753906 20.0625 22.167969 20.0625 C 21.71875 20.066406 21.257812 20.066406 20.773438 20.070312 C 20.347656 20.058594 19.925781 20.449219 19.9375 20.914062 C 19.9375 21.429688 19.941406 21.953125 19.941406 22.492188 C 19.957031 23.300781 19.398438 24.105469 18.59375 24.367188 C 18.105469 24.535156 17.613281 24.738281 17.132812 24.976562 C 16.417969 25.34375 15.453125 25.214844 14.871094 24.609375 C 14.5 24.238281 14.125 23.859375 13.75 23.480469 C 13.488281 23.203125 12.953125 23.164062 12.640625 23.40625 C 12.613281 23.429688 12.585938 23.449219 12.5625 23.472656 C 11.78125 24.246094 10.964844 25.058594 10.125 25.898438 C 9.964844 26.058594 9.875 26.273438 9.878906 26.503906 C 9.878906 26.726562 9.96875 26.941406 10.128906 27.101562 C 10.496094 27.46875 10.871094 27.835938 11.246094 28.210938 C 11.832031 28.777344 11.984375 29.734375 11.609375 30.460938 C 11.375 30.933594 11.171875 31.425781 11 31.929688 C 10.742188 32.71875 9.949219 33.300781 9.109375 33.289062 C 8.597656 33.289062 8.082031 33.289062 7.574219 33.285156 C 7.128906 33.273438 6.726562 33.675781 6.730469 34.117188 C 6.730469 34.535156 6.726562 34.949219 6.71875 35.359375 C 6.710938 36.058594 6.703125 36.796875 6.695312 37.554688 C 6.675781 38.007812 7.085938 38.457031 7.574219 38.453125 C 8.070312 38.460938 8.574219 38.464844 9.082031 38.472656 C 9.882812 38.46875 10.636719 39.035156 10.871094 39.789062 C 11.039062 40.308594 11.242188 40.816406 11.476562 41.300781 C 11.824219 42 11.65625 42.882812 11.121094 43.394531 C 10.746094 43.757812 10.378906 44.117188 10.023438 44.464844 C 9.613281 44.847656 9.640625 45.539062 10.007812 45.890625 C 10.792969 46.699219 11.488281 47.414062 12.046875 47.988281 C 12.167969 48.113281 12.289062 48.238281 12.40625 48.359375 C 12.863281 48.820312 13.59375 48.726562 13.933594 48.375 C 14.328125 47.992188 14.675781 47.652344 15.015625 47.316406 C 15.496094 46.835938 16.269531 46.671875 16.953125 47.007812 C 17.394531 47.226562 17.890625 47.441406 18.480469 47.636719 C 18.707031 47.710938 18.933594 47.839844 19.132812 48.023438 C 19.457031 48.320312 19.6875 48.785156 19.6875 49.289062 C 19.6875 49.761719 19.6875 50.253906 19.683594 50.757812 C 19.664062 51.324219 20.175781 51.871094 20.773438 51.867188 C 21.679688 51.878906 22.582031 51.898438 23.429688 51.921875 C 24.644531 51.960938 24.371094 52.011719 23.148438 52.035156 C 22.269531 52.054688 21.472656 52.054688 20.773438 52.0625 C 19.957031 52.066406 19.472656 51.371094 19.421875 50.859375 C 19.417969 50.824219 19.414062 50.789062 19.414062 50.757812 C 19.375 50.195312 19.34375 49.734375 19.320312 49.289062 C 19.28125 48.753906 18.980469 48.242188 18.355469 48.003906 C 17.976562 47.867188 17.558594 47.695312 17.089844 47.460938 C 16.992188 47.410156 16.894531 47.359375 16.804688 47.308594 C 16.199219 46.992188 15.566406 47.21875 15.261719 47.5625 C 14.875 47.972656 14.554688 48.332031 14.234375 48.675781 C 13.949219 48.976562 13.542969 49.136719 13.128906 49.121094 C 12.691406 49.101562 12.371094 48.949219 12.09375 48.667969 C 11.683594 48.226562 11.140625 47.644531 9.695312 46.203125 C 9.222656 45.769531 9.035156 44.789062 9.6875 44.128906 C 10.015625 43.796875 10.371094 43.433594 10.761719 43.035156 C 10.84375 42.953125 10.914062 42.855469 10.972656 42.75 C 11.179688 42.367188 11.167969 41.898438 10.984375 41.542969 C 10.714844 41.015625 10.496094 40.488281 10.316406 39.976562 C 10.125 39.421875 9.582031 39.085938 9.082031 39.097656 C 8.554688 39.105469 8.050781 39.109375 7.574219 39.113281 C 6.671875 39.128906 5.980469 38.324219 6 37.554688 C 5.988281 36.210938 5.984375 35.085938 5.976562 34.117188 C 5.96875 33.539062 6.289062 33.03125 6.707031 32.765625 C 6.941406 32.613281 7.246094 32.507812 7.574219 32.507812 C 8.03125 32.507812 8.550781 32.511719 9.109375 32.511719 C 9.578125 32.527344 10.101562 32.207031 10.28125 31.679688 C 10.460938 31.167969 10.679688 30.644531 10.941406 30.128906 C 11.175781 29.6875 11.101562 29.085938 10.730469 28.722656 C 10.363281 28.351562 9.992188 27.976562 9.625 27.605469 C 9.332031 27.320312 9.164062 26.90625 9.167969 26.503906 C 9.164062 26.089844 9.335938 25.679688 9.625 25.394531 C 9.859375 25.160156 10.089844 24.925781 10.316406 24.695312 C 10.8125 24.191406 11.402344 23.597656 12.042969 22.953125 C 12.613281 22.375 13.640625 22.320312 14.277344 22.949219 C 14.648438 23.316406 15.023438 23.695312 15.40625 24.074219 C 15.75 24.429688 16.339844 24.527344 16.792969 24.292969 C 17.300781 24.042969 17.824219 23.828125 18.351562 23.644531 C 18.851562 23.484375 19.191406 22.984375 19.183594 22.492188 C 19.179688 21.949219 19.179688 21.417969 19.175781 20.914062 C 19.164062 19.980469 20.007812 19.285156 20.773438 19.308594 C 21.289062 19.304688 21.75 19.300781 22.148438 19.292969 C 23.023438 19.28125 23.679688 19.277344 24.214844 19.28125 C 25.304688 19.328125 25.816406 20.175781 25.792969 20.914062 C 25.773438 21.363281 25.75 21.839844 25.730469 22.492188 C 25.726562 22.679688 25.757812 22.886719 25.859375 23.09375 Z M 25.859375 23.09375 " fill-opacity="1" fill-rule="nonzero"/></g><path fill="#ffffff" d="M 22.496094 27.734375 C 18.027344 27.734375 14.390625 31.367188 14.390625 35.835938 C 14.390625 40.304688 18.027344 43.9375 22.496094 43.9375 C 26.960938 43.9375 30.597656 40.304688 30.597656 35.835938 C 30.597656 31.367188 26.960938 27.734375 22.496094 27.734375 Z M 22.496094 44.839844 C 17.53125 44.839844 13.492188 40.800781 13.492188 35.835938 C 13.492188 30.871094 17.53125 26.835938 22.496094 26.835938 C 27.457031 26.835938 31.496094 30.871094 31.496094 35.835938 C 31.496094 40.800781 27.457031 44.839844 22.496094 44.839844 Z M 22.496094 44.839844 " fill-opacity="1" fill-rule="nonzero"/><path fill="#ffffff" d="M 25.375 43.097656 C 26.410156 42.734375 27.007812 42.054688 27.941406 41.183594 C 28.828125 40.257812 29.105469 40.167969 29.703125 38.78125 C 30.117188 37.738281 30.316406 36.617188 30.308594 35.835938 C 30.308594 35.566406 30.292969 35.339844 30.261719 35.171875 C 30.128906 34.515625 30.316406 34.40625 30.011719 33.484375 C 29.675781 32.582031 29.425781 32.058594 29 31.324219 C 28.652344 30.519531 26.625 28.746094 25.65625 28.535156 C 24.761719 28.210938 23.722656 27.882812 23.0625 27.816406 C 22.855469 27.792969 22.695312 27.777344 22.570312 27.761719 C 22.519531 27.757812 22.496094 27.746094 22.496094 27.734375 C 22.496094 27.71875 22.53125 27.703125 22.601562 27.703125 C 22.933594 27.699219 23.429688 27.703125 24.019531 27.757812 C 25.113281 27.914062 25.230469 28.011719 26.570312 28.65625 C 27.863281 29.382812 28.679688 29.941406 29.601562 31.46875 C 30.359375 33.007812 30.902344 33.375 30.898438 35.835938 C 30.894531 35.867188 30.894531 35.902344 30.890625 35.933594 C 30.535156 38.398438 30.703125 38.800781 29.34375 40.976562 C 27.871094 43.191406 24.578125 44.289062 23.070312 44.273438 C 22.886719 44.289062 22.695312 44.296875 22.496094 44.300781 C 21.050781 44.328125 19.179688 43.910156 17.636719 42.765625 C 15.859375 41.542969 14.21875 39.144531 14.082031 36.714844 C 14.0625 36.4375 14.050781 36.140625 14.0625 35.835938 C 14.03125 33.511719 15.519531 31.007812 16.535156 30.136719 C 17.664062 29.121094 17.988281 28.925781 19.292969 28.269531 C 20.050781 27.914062 21.207031 27.652344 22.179688 27.699219 C 22.667969 27.726562 22.550781 27.773438 22.070312 27.816406 C 21.367188 27.886719 20.796875 27.992188 20.460938 28.144531 C 19.804688 28.464844 19.546875 28.601562 18.71875 28.953125 C 17.890625 29.335938 17.667969 29.757812 17.269531 30.082031 C 16.941406 30.460938 16.578125 30.199219 15.382812 32.585938 C 14.828125 33.90625 14.746094 35 14.757812 35.835938 C 14.773438 36.5625 14.875 37.113281 14.984375 37.554688 C 15.167969 38.519531 16 40.503906 17.28125 41.554688 C 18.292969 42.601562 20.9375 43.691406 22.496094 43.539062 C 22.691406 43.535156 22.863281 43.523438 23.011719 43.507812 C 24.3125 43.316406 24.332031 43.394531 25.375 43.097656 Z M 25.921875 27.199219 C 27.070312 27.742188 28.125 28.046875 29.246094 29.207031 C 30.289062 30.421875 30.335938 30.695312 31.117188 32.3125 C 31.660156 33.546875 31.792969 34.914062 31.78125 35.835938 C 31.78125 36.15625 31.769531 36.425781 31.769531 36.628906 C 31.738281 37.433594 31.570312 37.5 31.300781 38.589844 C 30.988281 39.675781 30.636719 40.292969 30.039062 41.070312 C 29.519531 41.9375 27.171875 43.84375 26.128906 44.230469 C 25.152344 44.75 23.871094 44.871094 23.132812 44.878906 C 22.902344 44.886719 22.722656 44.875 22.582031 44.863281 C 22.523438 44.859375 22.496094 44.847656 22.496094 44.835938 C 22.496094 44.820312 22.535156 44.808594 22.613281 44.804688 C 22.976562 44.792969 23.523438 44.738281 24.144531 44.566406 C 25.273438 44.207031 25.460938 44.3125 26.859375 43.527344 C 28.203125 42.652344 28.882812 41.941406 29.953125 40.421875 C 30.878906 38.832031 30.921875 38.328125 31.195312 35.835938 C 31.195312 35.800781 31.199219 35.769531 31.199219 35.734375 C 31.144531 33.117188 30.726562 32.804688 29.320312 30.714844 C 27.828125 28.574219 24.664062 27.183594 23.085938 27.210938 C 22.894531 27.199219 22.699219 27.195312 22.496094 27.195312 C 21.015625 27.199219 19.148438 27.660156 17.539062 28.765625 C 15.664062 29.980469 14.160156 32.5 13.894531 34.9375 C 13.855469 35.21875 13.832031 35.523438 13.824219 35.835938 C 13.660156 38.21875 15.074219 40.9375 16.097656 41.953125 C 17.226562 43.128906 17.589844 43.382812 19.03125 44.023438 C 19.867188 44.371094 21.082031 44.6875 22.148438 44.789062 C 22.683594 44.835938 22.5625 44.894531 22.015625 44.898438 C 21.214844 44.890625 20.574219 44.726562 20.15625 44.683594 C 19.328125 44.578125 18.945312 44.503906 18.042969 43.945312 C 17.164062 43.359375 16.683594 43.167969 16.226562 42.738281 C 15.859375 42.246094 15.605469 42.429688 14.050781 39.695312 C 13.3125 38.167969 13.148438 36.847656 13.128906 35.835938 C 13.113281 34.957031 13.21875 34.285156 13.332031 33.738281 C 13.523438 32.539062 14.699219 30.222656 16.1875 28.921875 C 17.375 27.605469 20.605469 26.316406 22.496094 26.433594 C 22.734375 26.429688 22.941406 26.433594 23.125 26.441406 C 24.738281 26.5625 24.734375 26.714844 25.921875 27.199219 Z M 25.921875 27.199219 " fill-opacity="1" fill-rule="nonzero"/><g clip-path="url(#2ecaafd0a0)"><g clip-path="url(#c7701a46fd)"><g clip-path="url(#8a163b5d2a)"><g clip-path="url(#00efb5642e)"><path fill="#ffffff" d="M 51.707031 47.613281 C 52.058594 47.472656 52.445312 47.40625 52.839844 47.433594 C 53.355469 47.472656 53.875 47.472656 54.386719 47.445312 C 55.476562 47.378906 56.484375 48.007812 56.898438 49.011719 L 57.453125 50.367188 C 57.519531 50.523438 57.699219 50.601562 57.855469 50.535156 L 61.039062 49.230469 C 61.195312 49.164062 61.269531 48.984375 61.203125 48.828125 L 60.648438 47.472656 C 60.234375 46.46875 60.511719 45.308594 61.335938 44.589844 C 61.71875 44.253906 62.085938 43.886719 62.425781 43.496094 C 63.132812 42.691406 64.265625 42.421875 65.25 42.835938 L 66.648438 43.421875 L 67.050781 43.253906 L 68.375 40.078125 L 68.378906 39.84375 L 68.210938 39.679688 L 66.792969 39.085938 C 65.816406 38.679688 65.207031 37.6875 65.28125 36.621094 C 65.316406 36.109375 65.316406 35.589844 65.285156 35.078125 C 65.214844 33.992188 65.839844 32.988281 66.839844 32.578125 L 68.234375 32.003906 C 68.390625 31.941406 68.46875 31.757812 68.402344 31.601562 L 67.09375 28.421875 C 67.03125 28.265625 66.851562 28.191406 66.695312 28.253906 L 65.273438 28.835938 C 64.277344 29.246094 63.132812 28.972656 62.417969 28.160156 C 62.085938 27.78125 61.722656 27.421875 61.34375 27.089844 C 60.535156 26.378906 60.265625 25.246094 60.675781 24.261719 L 61.285156 22.8125 L 61.285156 22.574219 L 61.121094 22.410156 L 57.945312 21.082031 L 57.542969 21.25 L 56.929688 22.714844 C 56.523438 23.695312 55.53125 24.304688 54.460938 24.230469 C 53.960938 24.195312 53.449219 24.195312 52.945312 24.226562 C 51.871094 24.292969 50.875 23.671875 50.46875 22.683594 L 49.871094 21.222656 C 49.804688 21.070312 49.625 20.992188 49.46875 21.054688 L 46.289062 22.363281 C 46.128906 22.425781 46.054688 22.609375 46.117188 22.765625 L 46.71875 24.226562 C 47.125 25.214844 46.851562 26.355469 46.042969 27.0625 C 45.660156 27.390625 45.300781 27.75 44.964844 28.132812 C 44.257812 28.933594 43.125 29.195312 42.144531 28.789062 L 40.675781 28.175781 L 40.273438 28.339844 L 38.949219 31.515625 L 38.945312 31.75 L 39.113281 31.914062 L 40.5625 32.519531 C 41.550781 32.933594 42.15625 33.925781 42.078125 35 C 42.039062 35.503906 42.039062 36.015625 42.066406 36.519531 C 42.128906 37.597656 41.503906 38.597656 40.511719 39.003906 L 39.089844 39.589844 C 38.933594 39.652344 38.859375 39.832031 38.921875 39.988281 L 40.230469 43.171875 C 40.292969 43.328125 40.476562 43.40625 40.632812 43.339844 L 42.023438 42.769531 C 43.027344 42.359375 44.175781 42.632812 44.890625 43.453125 C 45.226562 43.839844 45.589844 44.210938 45.976562 44.546875 C 46.777344 45.253906 47.039062 46.386719 46.632812 47.367188 L 46.039062 48.785156 L 46.039062 49.019531 L 46.203125 49.183594 L 49.378906 50.511719 L 49.78125 50.34375 L 50.367188 48.945312 C 50.625 48.328125 51.113281 47.859375 51.707031 47.613281 Z M 61.382812 50.0625 L 58.199219 51.371094 C 57.582031 51.625 56.875 51.324219 56.621094 50.710938 L 56.066406 49.355469 C 55.800781 48.707031 55.144531 48.300781 54.4375 48.34375 C 53.886719 48.378906 53.328125 48.375 52.773438 48.332031 C 52.09375 48.28125 51.457031 48.667969 51.195312 49.296875 L 50.613281 50.691406 C 50.363281 51.289062 49.625 51.589844 49.03125 51.34375 L 45.859375 50.015625 C 45.242188 49.757812 44.953125 49.050781 45.207031 48.433594 L 45.800781 47.019531 C 46.058594 46.394531 45.890625 45.675781 45.378906 45.222656 C 44.964844 44.859375 44.570312 44.460938 44.207031 44.042969 C 43.746094 43.515625 43.007812 43.335938 42.367188 43.601562 L 40.972656 44.171875 C 40.355469 44.425781 39.648438 44.132812 39.394531 43.515625 L 38.089844 40.332031 C 37.835938 39.714844 38.132812 39.007812 38.746094 38.757812 L 40.167969 38.171875 C 40.808594 37.910156 41.207031 37.265625 41.167969 36.570312 C 41.136719 36.027344 41.136719 35.476562 41.179688 34.933594 C 41.230469 34.25 40.84375 33.613281 40.21875 33.351562 L 38.765625 32.746094 C 38.46875 32.621094 38.238281 32.390625 38.113281 32.089844 C 37.992188 31.792969 37.992188 31.464844 38.117188 31.167969 L 39.441406 27.992188 C 39.691406 27.398438 40.425781 27.09375 41.023438 27.34375 L 42.492188 27.957031 C 43.113281 28.21875 43.835938 28.046875 44.289062 27.535156 C 44.648438 27.128906 45.039062 26.738281 45.449219 26.382812 C 45.96875 25.929688 46.144531 25.199219 45.886719 24.566406 L 45.285156 23.105469 C 45.03125 22.488281 45.328125 21.78125 45.945312 21.53125 L 49.128906 20.222656 C 49.742188 19.96875 50.449219 20.265625 50.703125 20.882812 L 51.300781 22.34375 C 51.5625 22.972656 52.199219 23.371094 52.890625 23.324219 C 53.429688 23.292969 53.980469 23.296875 54.523438 23.332031 C 55.207031 23.378906 55.839844 22.992188 56.097656 22.371094 L 56.710938 20.902344 C 56.96875 20.285156 57.679688 19.996094 58.292969 20.25 L 61.464844 21.578125 C 61.765625 21.699219 61.996094 21.933594 62.117188 22.234375 C 62.242188 22.53125 62.238281 22.859375 62.117188 23.160156 L 61.507812 24.609375 C 61.25 25.234375 61.421875 25.957031 61.9375 26.410156 C 62.347656 26.765625 62.734375 27.15625 63.09375 27.566406 C 63.554688 28.089844 64.292969 28.265625 64.929688 28.003906 L 66.351562 27.421875 C 66.96875 27.167969 67.675781 27.460938 67.929688 28.078125 L 69.234375 31.261719 C 69.488281 31.878906 69.191406 32.582031 68.578125 32.835938 L 67.183594 33.410156 C 66.539062 33.671875 66.140625 34.320312 66.183594 35.019531 C 66.222656 35.570312 66.21875 36.128906 66.179688 36.683594 C 66.132812 37.363281 66.519531 37.996094 67.140625 38.253906 L 68.558594 38.847656 C 69.171875 39.101562 69.464844 39.8125 69.207031 40.425781 L 67.882812 43.601562 C 67.625 44.214844 66.917969 44.507812 66.300781 44.25 L 64.902344 43.667969 C 64.277344 43.40625 63.554688 43.578125 63.105469 44.089844 C 62.738281 44.507812 62.34375 44.90625 61.925781 45.269531 C 61.394531 45.734375 61.214844 46.484375 61.480469 47.128906 L 62.039062 48.488281 C 62.289062 49.101562 61.996094 49.808594 61.382812 50.0625 Z M 61.382812 50.0625 " fill-opacity="1" fill-rule="nonzero"/></g></g></g></g><g clip-path="url(#8d4337faae)"><g clip-path="url(#bd9dce60af)"><g clip-path="url(#ffb722adbf)"><g clip-path="url(#7b2749ddf1)"><path fill="#ffffff" d="M 49.605469 21.34375 C 49.601562 21.339844 49.601562 21.339844 49.601562 21.335938 C 49.601562 21.324219 49.585938 21.3125 49.578125 21.316406 C 48.472656 21.757812 47.480469 22.222656 46.429688 22.707031 C 46.464844 22.699219 46.496094 22.667969 46.484375 22.613281 C 46.695312 23.074219 46.910156 23.550781 47.132812 24.054688 C 47.441406 24.75 47.472656 25.644531 47.082031 26.445312 C 46.882812 26.847656 46.617188 27.164062 46.335938 27.398438 C 45.90625 27.757812 45.566406 28.085938 45.265625 28.398438 C 44.472656 29.195312 43.378906 29.597656 42.023438 29.074219 C 41.601562 28.894531 41.121094 28.691406 40.558594 28.460938 L 40.792969 28.460938 C 40.710938 28.5 40.621094 28.535156 40.535156 28.570312 C 40.488281 28.589844 40.441406 28.609375 40.394531 28.628906 L 40.566406 28.460938 C 40.121094 29.542969 39.667969 30.621094 39.238281 31.636719 L 39.261719 31.515625 C 39.261719 31.59375 39.257812 31.671875 39.257812 31.75 L 39.167969 31.53125 C 39.222656 31.585938 39.277344 31.640625 39.332031 31.699219 L 39.230469 31.628906 C 39.734375 31.84375 40.21875 32.050781 40.679688 32.246094 C 42.007812 32.8125 42.449219 34.179688 42.371094 35.019531 C 42.363281 35.175781 42.359375 35.316406 42.359375 35.445312 C 42.359375 35.878906 42.371094 36.207031 42.378906 36.5 C 42.320312 37.367188 42.273438 38.300781 40.597656 39.214844 C 40.597656 39.214844 40.59375 39.214844 40.59375 39.214844 C 40.085938 39.433594 39.621094 39.632812 39.183594 39.8125 C 39.152344 39.828125 39.136719 39.867188 39.148438 39.894531 C 39.605469 40.996094 39.976562 41.953125 40.410156 43.097656 C 40.425781 43.148438 40.484375 43.1875 40.539062 43.179688 C 40.546875 43.179688 40.554688 43.175781 40.5625 43.175781 C 40.921875 43.039062 41.40625 42.851562 41.96875 42.628906 C 42.847656 42.25 44.203125 42.441406 44.980469 43.375 C 45.308594 43.761719 45.667969 44.128906 46.046875 44.464844 C 46.949219 45.238281 47.121094 46.558594 46.742188 47.410156 C 46.53125 47.929688 46.351562 48.378906 46.21875 48.734375 C 46.203125 48.769531 46.191406 48.804688 46.175781 48.839844 L 46.1875 48.785156 C 46.191406 48.863281 46.191406 48.941406 46.191406 49.019531 L 46.148438 48.910156 C 46.203125 48.960938 46.261719 49.015625 46.316406 49.070312 L 46.265625 49.035156 C 47.335938 49.460938 48.433594 49.945312 49.429688 50.390625 L 49.328125 50.390625 C 49.464844 50.339844 49.601562 50.285156 49.734375 50.234375 L 49.671875 50.300781 C 49.894531 49.800781 50.109375 49.332031 50.296875 48.917969 C 50.382812 48.726562 50.484375 48.558594 50.59375 48.414062 C 50.902344 48.007812 51.253906 47.789062 51.527344 47.667969 C 51.644531 47.617188 51.703125 47.605469 51.710938 47.617188 C 51.714844 47.632812 51.636719 47.675781 51.496094 47.75 C 51.109375 47.960938 50.660156 48.359375 50.425781 48.972656 C 50.257812 49.402344 50.074219 49.878906 49.882812 50.386719 L 49.863281 50.429688 L 49.824219 50.449219 C 49.773438 50.46875 49.726562 50.492188 49.679688 50.515625 C 49.59375 50.554688 49.507812 50.589844 49.429688 50.628906 L 49.378906 50.648438 L 49.332031 50.628906 C 47.90625 50.089844 47.273438 49.800781 46.148438 49.320312 L 46.101562 49.289062 C 46.046875 49.234375 45.992188 49.175781 45.9375 49.121094 L 45.894531 49.078125 L 45.894531 49.015625 C 45.894531 48.941406 45.894531 48.863281 45.894531 48.78125 L 45.90625 48.726562 C 46.074219 48.332031 46.265625 47.871094 46.496094 47.308594 C 46.570312 47.125 46.625 46.921875 46.648438 46.703125 C 46.738281 45.878906 46.375 45.140625 45.84375 44.699219 C 45.433594 44.355469 45.0625 43.992188 44.714844 43.605469 C 44.113281 42.929688 43.082031 42.621094 42.125 43.011719 C 41.6875 43.191406 41.222656 43.378906 40.726562 43.578125 C 40.453125 43.695312 40.105469 43.550781 39.996094 43.265625 C 39.921875 43.070312 39.839844 42.871094 39.761719 42.664062 C 39.355469 41.632812 39.015625 40.824219 38.695312 40.082031 C 38.570312 39.808594 38.714844 39.460938 38.992188 39.351562 C 39.464844 39.140625 39.917969 38.9375 40.398438 38.726562 C 41.101562 38.414062 41.769531 37.652344 41.726562 36.539062 C 41.699219 36.0625 41.703125 35.542969 41.75 34.976562 C 41.789062 34.589844 41.726562 34.160156 41.515625 33.753906 C 41.273438 33.273438 40.875 32.941406 40.464844 32.761719 C 39.933594 32.53125 39.457031 32.328125 39.015625 32.144531 L 38.933594 32.089844 C 38.878906 32.035156 38.824219 31.980469 38.769531 31.925781 L 38.695312 31.851562 L 38.695312 31.75 C 38.695312 31.667969 38.695312 31.589844 38.695312 31.515625 L 38.714844 31.417969 C 39.207031 30.214844 39.558594 29.269531 39.957031 28.207031 L 40.015625 28.074219 L 40.144531 28.019531 C 40.273438 27.960938 40.40625 27.902344 40.539062 27.839844 L 40.679688 27.785156 L 40.816406 27.84375 C 41.273438 28.015625 41.761719 28.199219 42.304688 28.40625 C 42.957031 28.664062 43.9375 28.59375 44.609375 27.832031 C 44.613281 27.832031 44.613281 27.828125 44.617188 27.824219 C 44.957031 27.4375 45.328125 27.0625 45.734375 26.707031 C 46.367188 26.171875 46.625 25.199219 46.292969 24.398438 C 46.09375 23.910156 45.898438 23.421875 45.703125 22.933594 C 45.542969 22.554688 45.742188 22.097656 46.117188 21.953125 C 47.207031 21.515625 48.285156 21.085938 49.3125 20.679688 C 49.675781 20.527344 50.109375 20.722656 50.242188 21.070312 C 50.441406 21.574219 50.636719 22.066406 50.824219 22.539062 C 51.183594 23.464844 52.152344 23.929688 52.925781 23.867188 C 53.421875 23.839844 53.875 23.84375 54.28125 23.863281 C 54.347656 23.863281 54.417969 23.867188 54.484375 23.871094 C 55.296875 23.941406 56.234375 23.457031 56.585938 22.574219 C 56.785156 22.097656 56.988281 21.605469 57.195312 21.105469 L 57.257812 20.957031 L 57.398438 20.898438 C 57.53125 20.84375 57.667969 20.789062 57.804688 20.734375 L 57.949219 20.671875 L 58.09375 20.734375 C 59.109375 21.15625 60.171875 21.597656 61.265625 22.058594 L 61.390625 22.136719 C 61.445312 22.195312 61.5 22.25 61.554688 22.304688 L 61.671875 22.421875 L 61.667969 22.578125 C 61.667969 22.65625 61.667969 22.734375 61.667969 22.8125 L 61.636719 22.960938 C 61.4375 23.4375 61.234375 23.921875 61.027344 24.40625 C 60.765625 25.015625 60.816406 25.757812 61.175781 26.335938 C 61.285156 26.511719 61.421875 26.675781 61.582031 26.816406 C 61.964844 27.15625 62.335938 27.527344 62.6875 27.925781 C 63.253906 28.59375 64.289062 28.867188 65.136719 28.503906 C 65.605469 28.308594 66.078125 28.113281 66.554688 27.914062 C 66.886719 27.773438 67.300781 27.9375 67.4375 28.28125 C 67.875 29.332031 68.316406 30.394531 68.753906 31.457031 C 68.898438 31.796875 68.726562 32.21875 68.378906 32.355469 C 67.914062 32.546875 67.449219 32.738281 66.984375 32.929688 C 66.140625 33.261719 65.585938 34.167969 65.648438 35.054688 C 65.660156 35.257812 65.664062 35.457031 65.664062 35.65625 C 65.664062 35.980469 65.652344 36.308594 65.625 36.644531 C 65.539062 37.492188 66.042969 38.4375 66.914062 38.800781 C 67.378906 39.003906 67.851562 39.207031 68.324219 39.410156 L 68.414062 39.472656 C 68.46875 39.527344 68.523438 39.585938 68.578125 39.640625 L 68.667969 39.726562 L 68.664062 39.847656 C 68.664062 39.925781 68.660156 40.003906 68.660156 40.082031 L 68.636719 40.1875 C 68.179688 41.25 67.71875 42.316406 67.277344 43.347656 L 67.234375 43.441406 L 67.144531 43.476562 C 67.007812 43.53125 66.875 43.585938 66.738281 43.640625 L 66.644531 43.679688 L 66.554688 43.640625 C 66.082031 43.433594 65.617188 43.234375 65.164062 43.039062 C 64.21875 42.617188 63.125 42.960938 62.5625 43.617188 C 62.183594 44.039062 61.800781 44.402344 61.441406 44.710938 C 61.257812 44.863281 61.109375 45.035156 60.996094 45.207031 C 60.476562 45.992188 60.511719 46.832031 60.75 47.429688 C 60.945312 47.921875 61.121094 48.359375 61.296875 48.792969 C 61.378906 48.988281 61.277344 49.238281 61.074219 49.316406 C 60.191406 49.679688 59.265625 50.066406 57.898438 50.640625 C 57.875 50.652344 57.851562 50.660156 57.828125 50.664062 C 57.640625 50.707031 57.421875 50.605469 57.34375 50.414062 C 57.167969 49.988281 56.980469 49.535156 56.785156 49.058594 C 56.4375 48.15625 55.429688 47.472656 54.390625 47.535156 C 53.863281 47.554688 53.339844 47.539062 52.835938 47.488281 C 52.703125 47.472656 52.570312 47.472656 52.4375 47.480469 C 51.867188 47.527344 51.660156 47.648438 51.710938 47.59375 C 51.765625 47.554688 52.097656 47.363281 52.703125 47.355469 C 52.75 47.355469 52.796875 47.359375 52.84375 47.359375 C 53.390625 47.390625 53.90625 47.382812 54.378906 47.351562 C 55.375 47.285156 56.132812 47.773438 56.550781 48.191406 C 56.789062 48.421875 56.964844 48.679688 57.089844 48.933594 C 57.320312 49.40625 57.511719 49.8125 57.710938 50.265625 C 57.714844 50.273438 57.738281 50.28125 57.75 50.273438 C 58.234375 50.070312 58.792969 49.855469 59.53125 49.578125 C 60.074219 49.378906 60.539062 49.1875 60.949219 49.015625 C 60.984375 49 61 48.949219 60.980469 48.921875 C 60.757812 48.417969 60.554688 47.996094 60.367188 47.589844 C 60.199219 47.21875 60.117188 46.820312 60.136719 46.40625 C 60.226562 45.667969 60.296875 45.226562 61.160156 44.390625 C 61.453125 44.140625 61.8125 43.8125 62.234375 43.332031 C 62.765625 42.699219 63.953125 42.035156 65.355469 42.585938 C 65.675781 42.71875 66.023438 42.859375 66.390625 43.007812 C 66.511719 43.058594 66.636719 43.105469 66.757812 43.15625 L 66.539062 43.15625 C 66.671875 43.097656 66.804688 43.039062 66.9375 42.984375 L 66.78125 43.140625 C 67.253906 41.976562 67.679688 40.917969 68.074219 39.953125 L 68.046875 40.078125 C 68.046875 39.996094 68.046875 39.917969 68.046875 39.839844 L 68.144531 40.078125 C 68.085938 40.023438 68.03125 39.96875 67.976562 39.914062 L 68.082031 39.984375 C 67.582031 39.78125 67.109375 39.589844 66.660156 39.40625 C 65.402344 38.894531 64.828125 37.613281 64.910156 36.59375 C 64.941406 36.058594 64.933594 35.5625 64.902344 35.101562 C 64.847656 34.359375 65.085938 33.6875 65.441406 33.191406 C 65.707031 32.816406 66.128906 32.4375 66.6875 32.210938 C 67.117188 32.035156 67.589844 31.84375 68.085938 31.644531 C 68.039062 31.664062 68.027344 31.707031 68.042969 31.75 C 67.644531 30.757812 67.207031 29.667969 66.757812 28.558594 C 66.777344 28.589844 66.800781 28.597656 66.832031 28.585938 C 66.355469 28.777344 65.878906 28.972656 65.40625 29.164062 C 64.347656 29.613281 63.085938 29.320312 62.328125 28.582031 C 62.265625 28.527344 62.207031 28.464844 62.148438 28.398438 C 61.851562 28.066406 61.5 27.714844 61.101562 27.367188 C 60.269531 26.675781 59.820312 25.304688 60.332031 24.117188 C 60.53125 23.640625 60.730469 23.15625 60.9375 22.667969 L 60.90625 22.808594 C 60.90625 22.730469 60.90625 22.652344 60.90625 22.574219 L 61.019531 22.84375 C 60.964844 22.789062 60.910156 22.734375 60.851562 22.679688 L 60.972656 22.757812 C 59.902344 22.3125 58.824219 21.863281 57.800781 21.4375 L 58.089844 21.4375 C 57.957031 21.492188 57.820312 21.546875 57.6875 21.605469 L 57.894531 21.398438 C 57.6875 21.902344 57.480469 22.394531 57.289062 22.867188 C 56.742188 24.203125 55.351562 24.722656 54.433594 24.640625 C 54.375 24.636719 54.316406 24.632812 54.261719 24.632812 C 53.761719 24.613281 53.335938 24.628906 52.972656 24.652344 C 51.253906 24.640625 50.613281 23.855469 50.152344 22.8125 C 50.007812 22.417969 49.839844 21.953125 49.605469 21.34375 Z M 51.9375 22.730469 C 52.195312 22.960938 52.542969 23.070312 52.871094 23.042969 C 53.4375 23.003906 53.992188 22.992188 54.546875 23.011719 C 55.066406 23.027344 55.5625 22.691406 55.726562 22.214844 C 55.902344 21.738281 56.089844 21.242188 56.292969 20.726562 C 56.574219 19.949219 57.589844 19.433594 58.472656 19.820312 C 58.515625 19.839844 58.558594 19.859375 58.601562 19.878906 C 59.949219 20.457031 60.800781 20.851562 61.613281 21.226562 C 61.988281 21.394531 62.289062 21.710938 62.4375 22.101562 C 62.574219 22.457031 62.585938 22.886719 62.414062 23.28125 C 62.226562 23.703125 62.027344 24.171875 61.792969 24.726562 C 61.6875 24.976562 61.660156 25.289062 61.761719 25.597656 C 61.835938 25.820312 61.96875 26.019531 62.144531 26.171875 C 62.574219 26.539062 62.96875 26.941406 63.332031 27.355469 C 63.699219 27.785156 64.328125 27.921875 64.8125 27.71875 C 65.308594 27.519531 65.785156 27.328125 66.238281 27.148438 C 67.0625 26.804688 67.953125 27.3125 68.191406 27.96875 C 68.445312 28.585938 68.664062 29.105469 68.84375 29.5 C 69.167969 30.226562 69.328125 30.667969 69.496094 31.152344 C 69.683594 31.6875 69.632812 32.582031 68.660156 33.039062 C 68.453125 33.125 68.222656 33.21875 67.972656 33.328125 C 67.730469 33.433594 67.496094 33.53125 67.269531 33.628906 C 66.683594 33.878906 66.390625 34.476562 66.425781 35.003906 C 66.460938 35.578125 66.453125 36.132812 66.402344 36.699219 C 66.355469 37.164062 66.5625 37.683594 67.015625 37.984375 C 67.074219 38.023438 67.136719 38.0625 67.210938 38.09375 C 67.585938 38.261719 68.066406 38.472656 68.617188 38.710938 C 69.222656 38.945312 69.640625 39.769531 69.324219 40.476562 C 68.890625 41.492188 68.421875 42.59375 67.980469 43.644531 C 67.707031 44.335938 66.851562 44.625 66.257812 44.355469 C 65.742188 44.140625 65.265625 43.949219 64.851562 43.785156 C 64.613281 43.691406 64.378906 43.671875 64.183594 43.695312 C 63.820312 43.734375 63.472656 43.917969 63.230469 44.199219 C 62.863281 44.625 62.457031 45.027344 62.03125 45.386719 C 61.527344 45.800781 61.363281 46.53125 61.585938 47.089844 C 61.773438 47.585938 61.945312 48.046875 62.105469 48.460938 C 62.167969 48.621094 62.191406 48.785156 62.191406 48.9375 C 62.179688 49.492188 61.839844 49.847656 61.566406 50 C 61.449219 50.0625 61.382812 50.070312 61.378906 50.0625 C 61.375 50.046875 61.460938 50.003906 61.59375 49.910156 C 61.941406 49.679688 62.238281 49.085938 61.980469 48.507812 C 61.800781 48.097656 61.601562 47.648438 61.386719 47.167969 C 61.324219 47.035156 61.28125 46.886719 61.257812 46.734375 C 61.152344 46.03125 61.460938 45.472656 61.824219 45.152344 C 62.261719 44.757812 62.613281 44.414062 62.988281 43.992188 C 63.367188 43.566406 64.097656 43.195312 64.957031 43.535156 C 65.34375 43.695312 65.785156 43.871094 66.296875 44.078125 C 66.316406 44.085938 66.339844 44.097656 66.363281 44.105469 C 66.917969 44.332031 67.535156 44.003906 67.707031 43.527344 C 68.144531 42.417969 68.542969 41.40625 68.976562 40.332031 C 69.167969 39.886719 68.953125 39.289062 68.457031 39.089844 C 68.007812 38.902344 67.539062 38.707031 67.042969 38.492188 C 66.574219 38.296875 66.171875 37.875 66.015625 37.339844 C 65.949219 37.113281 65.929688 36.882812 65.945312 36.664062 C 65.992188 36.066406 65.984375 35.53125 65.945312 35.035156 C 65.886719 34.203125 66.367188 33.453125 67.074219 33.148438 C 67.519531 32.953125 67.96875 32.753906 68.453125 32.542969 C 68.839844 32.382812 69.121094 31.871094 68.917969 31.390625 C 68.554688 30.511719 68.140625 29.480469 67.648438 28.191406 C 67.621094 28.121094 67.585938 28.054688 67.542969 27.988281 C 67.292969 27.625 66.804688 27.515625 66.453125 27.664062 C 65.929688 27.867188 65.460938 28.058594 65.027344 28.234375 C 64.207031 28.566406 63.359375 28.269531 62.890625 27.742188 C 62.515625 27.335938 62.132812 26.980469 61.726562 26.652344 C 61.148438 26.183594 60.824219 25.308594 61.152344 24.460938 C 61.324219 24.011719 61.507812 23.527344 61.71875 22.992188 C 61.789062 22.808594 61.792969 22.601562 61.707031 22.402344 C 61.628906 22.226562 61.484375 22.078125 61.292969 22 C 61.105469 21.925781 60.917969 21.847656 60.722656 21.769531 C 59.878906 21.421875 59.003906 21.058594 58.113281 20.683594 C 57.757812 20.523438 57.285156 20.707031 57.136719 21.078125 C 56.929688 21.566406 56.722656 22.054688 56.511719 22.542969 C 56.1875 23.339844 55.320312 23.839844 54.496094 23.765625 C 53.960938 23.722656 53.433594 23.714844 52.914062 23.742188 C 52.054688 23.800781 51.226562 23.25 50.9375 22.492188 C 50.734375 21.988281 50.539062 21.496094 50.351562 21.027344 C 50.1875 20.582031 49.644531 20.390625 49.265625 20.558594 C 48.550781 20.847656 47.910156 21.105469 47.367188 21.332031 C 46.957031 21.503906 46.527344 21.679688 46.082031 21.863281 C 45.683594 22.019531 45.441406 22.539062 45.628906 22.964844 C 45.824219 23.4375 46.027344 23.925781 46.234375 24.421875 C 46.554688 25.164062 46.34375 26.117188 45.699219 26.667969 C 45.308594 27.011719 44.933594 27.386719 44.578125 27.789062 C 44.054688 28.398438 43.113281 28.644531 42.34375 28.308594 C 41.859375 28.105469 41.371094 27.898438 40.878906 27.691406 C 40.53125 27.53125 40.023438 27.699219 39.824219 28.042969 C 39.808594 28.074219 39.792969 28.101562 39.777344 28.132812 C 39.347656 29.144531 38.902344 30.207031 38.445312 31.304688 C 38.359375 31.511719 38.359375 31.746094 38.445312 31.953125 C 38.53125 32.164062 38.695312 32.328125 38.90625 32.414062 C 39.386719 32.613281 39.871094 32.8125 40.359375 33.015625 C 41.117188 33.316406 41.621094 34.144531 41.550781 34.960938 C 41.515625 35.488281 41.511719 36.019531 41.542969 36.546875 C 41.605469 37.375 41.09375 38.214844 40.3125 38.523438 C 39.839844 38.71875 39.363281 38.914062 38.890625 39.105469 C 38.476562 39.261719 38.253906 39.789062 38.429688 40.191406 C 38.585938 40.582031 38.738281 40.964844 38.890625 41.347656 C 39.148438 42 39.421875 42.683594 39.699219 43.386719 C 39.855469 43.816406 40.40625 44.074219 40.855469 43.886719 C 41.316406 43.703125 41.785156 43.515625 42.253906 43.328125 C 42.996094 43.019531 43.910156 43.261719 44.410156 43.867188 C 44.765625 44.285156 45.144531 44.675781 45.546875 45.035156 C 46.132812 45.550781 46.3125 46.433594 46.011719 47.109375 C 45.804688 47.589844 45.601562 48.058594 45.402344 48.515625 C 45.167969 49.027344 45.457031 49.652344 45.929688 49.84375 C 46.964844 50.289062 47.878906 50.6875 48.613281 51.007812 C 48.777344 51.078125 48.933594 51.144531 49.085938 51.210938 C 49.683594 51.464844 50.324219 51.101562 50.507812 50.648438 C 50.726562 50.144531 50.917969 49.695312 51.105469 49.257812 C 51.367188 48.632812 52.019531 48.1875 52.78125 48.238281 C 53.273438 48.269531 53.8125 48.28125 54.433594 48.238281 C 54.671875 48.222656 54.929688 48.253906 55.179688 48.347656 C 55.59375 48.5 55.984375 48.839844 56.175781 49.308594 C 56.355469 49.742188 56.542969 50.199219 56.730469 50.664062 C 56.929688 51.199219 57.609375 51.507812 58.160156 51.277344 C 59.003906 50.945312 59.84375 50.621094 60.640625 50.324219 C 61.777344 49.894531 61.542969 50.046875 60.421875 50.535156 C 59.617188 50.882812 58.878906 51.191406 58.234375 51.460938 C 57.480469 51.773438 56.765625 51.3125 56.527344 50.859375 C 56.511719 50.828125 56.496094 50.800781 56.480469 50.769531 C 56.230469 50.265625 56.027344 49.847656 55.839844 49.449219 C 55.597656 48.964844 55.125 48.609375 54.457031 48.625 C 54.054688 48.644531 53.605469 48.640625 53.078125 48.601562 C 52.96875 48.59375 52.863281 48.582031 52.757812 48.574219 C 52.078125 48.503906 51.578125 48.957031 51.425781 49.390625 C 51.226562 49.917969 51.066406 50.375 50.898438 50.8125 C 50.75 51.199219 50.433594 51.5 50.046875 51.644531 C 49.632812 51.792969 49.277344 51.773438 48.917969 51.617188 C 48.371094 51.363281 47.644531 51.035156 45.761719 50.25 C 45.15625 50.027344 44.613281 49.191406 44.964844 48.332031 C 45.144531 47.902344 45.335938 47.429688 45.542969 46.914062 C 45.585938 46.804688 45.617188 46.691406 45.628906 46.570312 C 45.679688 46.136719 45.488281 45.707031 45.183594 45.449219 C 44.734375 45.0625 44.332031 44.660156 43.96875 44.25 C 43.582031 43.8125 42.953125 43.707031 42.492188 43.910156 C 42.007812 44.113281 41.546875 44.308594 41.105469 44.496094 C 40.277344 44.851562 39.332031 44.371094 39.058594 43.652344 C 38.539062 42.414062 38.105469 41.375 37.730469 40.480469 C 37.503906 39.949219 37.605469 39.359375 37.890625 38.953125 C 38.050781 38.722656 38.292969 38.511719 38.597656 38.386719 C 39.019531 38.210938 39.5 38.015625 40.019531 37.808594 C 40.457031 37.640625 40.816406 37.148438 40.785156 36.59375 C 40.757812 36.046875 40.761719 35.480469 40.808594 34.90625 C 40.859375 34.40625 40.558594 33.878906 40.078125 33.683594 C 39.597656 33.480469 39.109375 33.277344 38.628906 33.074219 C 38.25 32.917969 37.9375 32.597656 37.789062 32.226562 C 37.628906 31.847656 37.632812 31.398438 37.789062 31.027344 C 37.917969 30.722656 38.042969 30.417969 38.164062 30.117188 C 38.433594 29.460938 38.75 28.691406 39.101562 27.847656 C 39.410156 27.101562 40.335938 26.660156 41.167969 26.996094 C 41.648438 27.195312 42.140625 27.402344 42.636719 27.609375 C 43.09375 27.808594 43.675781 27.671875 44.003906 27.285156 C 44.378906 26.859375 44.777344 26.460938 45.199219 26.09375 C 45.597656 25.753906 45.726562 25.160156 45.53125 24.710938 C 45.320312 24.207031 45.121094 23.71875 44.925781 23.253906 C 44.558594 22.394531 45.074219 21.429688 45.792969 21.160156 C 46.269531 20.960938 46.691406 20.78125 47.058594 20.625 C 47.863281 20.28125 48.46875 20.03125 48.964844 19.832031 C 49.992188 19.460938 50.789062 20.050781 51.046875 20.742188 C 51.199219 21.160156 51.359375 21.613281 51.589844 22.222656 C 51.652344 22.398438 51.765625 22.578125 51.9375 22.730469 Z M 51.9375 22.730469 " fill-opacity="1" fill-rule="nonzero"/></g></g></g></g><g clip-path="url(#3e1352e2aa)"><g clip-path="url(#333a305bd3)"><g clip-path="url(#c545874bb7)"><g clip-path="url(#0a8ba76a99)"><path fill="#ffffff" d="M 50.585938 28.300781 C 46.453125 30 44.472656 34.742188 46.167969 38.875 C 47.863281 43.007812 52.609375 44.988281 56.738281 43.289062 C 60.871094 41.59375 62.855469 36.851562 61.15625 32.71875 C 59.460938 28.585938 54.71875 26.605469 50.585938 28.300781 Z M 57.082031 44.125 C 52.488281 46.011719 47.222656 43.808594 45.335938 39.214844 C 43.449219 34.625 45.652344 29.355469 50.242188 27.46875 C 54.835938 25.582031 60.105469 27.785156 61.988281 32.378906 C 63.875 36.96875 61.675781 42.238281 57.082031 44.125 Z M 57.082031 44.125 " fill-opacity="1" fill-rule="nonzero"/></g></g></g></g><g clip-path="url(#8aa922d316)"><g clip-path="url(#ee1284195a)"><g clip-path="url(#c453ff2cd1)"><g clip-path="url(#c205e7db77)"><path fill="#ffffff" d="M 59.085938 41.417969 C 59.902344 40.6875 60.199219 39.832031 60.734375 38.671875 C 61.199219 37.480469 61.421875 37.292969 61.453125 35.785156 C 61.433594 34.660156 61.195312 33.550781 60.890625 32.828125 C 60.789062 32.578125 60.6875 32.375 60.59375 32.230469 C 60.222656 31.675781 60.355469 31.5 59.726562 30.765625 C 59.070312 30.058594 58.636719 29.667969 57.964844 29.152344 C 57.339844 28.539062 54.789062 27.671875 53.8125 27.84375 C 52.867188 27.882812 51.78125 27.972656 51.140625 28.164062 C 50.941406 28.21875 50.789062 28.265625 50.667969 28.296875 C 50.617188 28.3125 50.589844 28.3125 50.585938 28.300781 C 50.578125 28.289062 50.609375 28.257812 50.671875 28.234375 C 50.976562 28.101562 51.4375 27.917969 52.003906 27.746094 C 53.078125 27.472656 53.222656 27.519531 54.707031 27.605469 C 56.179688 27.785156 57.144531 27.992188 58.578125 29.054688 C 59.863281 30.195312 60.507812 30.324219 61.433594 32.605469 C 61.445312 32.636719 61.457031 32.667969 61.464844 32.699219 C 62.074219 35.113281 62.378906 35.421875 61.949219 37.949219 C 61.429688 40.558594 58.800781 42.824219 57.402344 43.382812 C 57.234375 43.46875 57.0625 43.546875 56.878906 43.625 C 55.554688 44.203125 53.664062 44.523438 51.800781 44.054688 C 49.695312 43.59375 47.265625 42 46.214844 39.808594 C 46.089844 39.554688 45.96875 39.285156 45.859375 39 C 44.949219 36.859375 45.375 33.980469 45.984375 32.789062 C 46.644531 31.421875 46.871094 31.113281 47.828125 30.015625 C 48.394531 29.394531 49.363281 28.714844 50.28125 28.390625 C 50.742188 28.230469 50.652344 28.316406 50.226562 28.539062 C 49.601562 28.871094 49.109375 29.183594 48.859375 29.453125 C 48.375 30 48.1875 30.222656 47.554688 30.863281 C 46.9375 31.53125 46.886719 32.007812 46.644531 32.457031 C 46.484375 32.933594 46.046875 32.832031 45.847656 35.492188 C 45.839844 36.921875 46.175781 37.964844 46.503906 38.734375 C 46.796875 39.402344 47.097656 39.871094 47.367188 40.242188 C 47.902344 41.0625 49.429688 42.582031 51.011719 43.066406 C 52.347656 43.648438 55.207031 43.652344 56.589844 42.921875 C 56.769531 42.84375 56.921875 42.765625 57.054688 42.695312 C 58.1875 42.027344 58.234375 42.089844 59.085938 41.417969 Z M 53.554688 26.503906 C 54.824219 26.570312 55.914062 26.449219 57.390625 27.097656 C 58.816406 27.828125 58.964844 28.0625 60.300781 29.261719 C 61.273438 30.195312 61.914062 31.410156 62.253906 32.269531 C 62.375 32.5625 62.464844 32.816406 62.542969 33.007812 C 62.820312 33.765625 62.691406 33.886719 62.855469 35 C 62.976562 36.121094 62.886719 36.824219 62.628906 37.773438 C 62.476562 38.769531 61.03125 41.425781 60.214844 42.179688 C 59.503906 43.035156 58.367188 43.628906 57.6875 43.917969 C 57.476562 44.011719 57.304688 44.074219 57.171875 44.117188 C 57.117188 44.132812 57.085938 44.132812 57.082031 44.121094 C 57.074219 44.109375 57.109375 44.078125 57.179688 44.046875 C 57.511719 43.898438 57.996094 43.640625 58.503906 43.246094 C 59.414062 42.484375 59.625 42.511719 60.625 41.25 C 61.53125 39.933594 61.890625 39.015625 62.304688 37.203125 C 62.558594 35.382812 62.40625 34.898438 61.710938 32.492188 C 61.699219 32.460938 61.6875 32.429688 61.675781 32.394531 C 60.628906 29.996094 60.125 29.863281 58.03125 28.464844 C 55.839844 27.054688 52.382812 26.96875 50.929688 27.59375 C 50.75 27.65625 50.570312 27.726562 50.378906 27.804688 C 49.011719 28.367188 47.464844 29.503906 46.394531 31.136719 C 45.121094 32.972656 44.683594 35.875 45.367188 38.230469 C 45.4375 38.507812 45.53125 38.796875 45.640625 39.089844 C 46.398438 41.355469 48.734375 43.335938 50.066406 43.882812 C 51.5625 44.542969 51.992188 44.640625 53.566406 44.683594 C 54.476562 44.6875 55.71875 44.523438 56.742188 44.210938 C 57.257812 44.050781 57.167969 44.148438 56.664062 44.359375 C 55.917969 44.660156 55.261719 44.75 54.859375 44.867188 C 54.054688 45.085938 53.671875 45.164062 52.625 44.988281 C 51.589844 44.78125 51.074219 44.785156 50.488281 44.5625 C 49.957031 44.246094 49.792969 44.511719 47.316406 42.574219 C 46.054688 41.441406 45.402344 40.28125 44.996094 39.355469 C 44.652344 38.546875 44.492188 37.886719 44.390625 37.335938 C 44.109375 36.152344 44.320312 33.566406 45.203125 31.796875 C 45.800781 30.128906 48.300781 27.710938 50.089844 27.101562 C 50.308594 27.007812 50.507812 26.929688 50.679688 26.867188 C 52.214844 26.363281 52.269531 26.507812 53.554688 26.503906 Z M 53.554688 26.503906 " fill-opacity="1" fill-rule="nonzero"/></g></g></g></g></svg>