<svg xmlns="http://www.w3.org/2000/svg" xmlns:xlink="http://www.w3.org/1999/xlink" width="100" zoomAndPan="magnify" viewBox="0 0 75 74.999997" height="100" preserveAspectRatio="xMidYMid meet" version="1.0"><defs><clipPath id="561c6b6352"><path d="M 9.464844 9 L 65.714844 9 L 65.714844 66 L 9.464844 66 Z M 9.464844 9 " clip-rule="nonzero"/></clipPath><clipPath id="e6c4deab15"><path d="M 43.886719 47.734375 L 65.636719 47.734375 L 65.636719 58 L 43.886719 58 Z M 43.886719 47.734375 " clip-rule="nonzero"/></clipPath><clipPath id="217cd9d722"><path d="M 43.886719 55 L 65.636719 55 L 65.636719 65.734375 L 43.886719 65.734375 Z M 43.886719 55 " clip-rule="nonzero"/></clipPath></defs><path fill="#ffffff" d="M 25.023438 52.066406 L 20.132812 49.242188 C 19.949219 49.140625 19.726562 49.140625 19.546875 49.242188 L 14.652344 52.066406 C 14.472656 52.171875 14.359375 52.367188 14.359375 52.578125 L 14.359375 58.226562 C 14.359375 58.433594 14.472656 58.628906 14.652344 58.734375 L 19.546875 61.558594 C 19.636719 61.609375 19.738281 61.636719 19.839844 61.636719 C 19.941406 61.636719 20.042969 61.609375 20.132812 61.558594 L 25.023438 58.734375 C 25.207031 58.628906 25.316406 58.433594 25.316406 58.226562 L 25.316406 52.578125 C 25.316406 52.367188 25.207031 52.171875 25.023438 52.066406 Z M 24.144531 57.886719 L 19.839844 60.371094 L 15.535156 57.886719 L 15.535156 52.914062 L 19.839844 50.429688 L 24.144531 52.914062 Z M 24.144531 57.886719 " fill-opacity="1" fill-rule="nonzero"/><g clip-path="url(#561c6b6352)"><path fill="#ffffff" d="M 65.402344 19.476562 C 65.390625 19.308594 65.378906 19.140625 65.359375 18.972656 C 65.304688 18.476562 65.210938 17.984375 65.082031 17.492188 C 65.027344 17.289062 64.867188 17.132812 64.664062 17.078125 C 64.464844 17.023438 64.246094 17.082031 64.097656 17.230469 L 56.917969 24.410156 C 54.015625 23.515625 51.722656 21.226562 50.832031 18.320312 L 58.007812 11.140625 C 58.085938 11.066406 58.136719 10.976562 58.160156 10.878906 C 58.1875 10.78125 58.1875 10.675781 58.160156 10.574219 C 58.105469 10.371094 57.949219 10.214844 57.746094 10.160156 C 54.179688 9.207031 50.335938 10.234375 47.730469 12.84375 C 47.683594 12.890625 47.644531 12.945312 47.597656 12.992188 C 47.394531 13.203125 47.195312 13.417969 47.011719 13.640625 C 46.964844 13.699219 46.925781 13.761719 46.878906 13.820312 C 46.699219 14.046875 46.527344 14.28125 46.371094 14.523438 C 46.34375 14.566406 46.320312 14.609375 46.292969 14.652344 C 46.128906 14.914062 45.972656 15.183594 45.828125 15.460938 C 45.8125 15.496094 45.796875 15.535156 45.777344 15.570312 C 45.636719 15.855469 45.507812 16.140625 45.394531 16.4375 C 45.375 16.484375 45.359375 16.53125 45.34375 16.578125 C 45.238281 16.859375 45.148438 17.140625 45.070312 17.429688 C 45.046875 17.503906 45.03125 17.582031 45.011719 17.65625 C 44.949219 17.910156 44.890625 18.171875 44.847656 18.433594 C 44.828125 18.542969 44.8125 18.65625 44.796875 18.765625 C 44.769531 18.992188 44.742188 19.222656 44.726562 19.453125 C 44.71875 19.589844 44.710938 19.730469 44.707031 19.871094 C 44.703125 19.972656 44.691406 20.070312 44.691406 20.167969 C 44.691406 21.265625 44.234375 22.347656 43.4375 23.144531 L 22.804688 43.777344 C 22.007812 44.574219 20.925781 45.03125 19.828125 45.03125 C 18.164062 45.03125 16.566406 45.429688 15.125 46.167969 C 15.085938 46.1875 15.042969 46.203125 15.003906 46.226562 C 14.792969 46.335938 14.589844 46.464844 14.386719 46.589844 C 14.292969 46.644531 14.199219 46.695312 14.109375 46.753906 C 13.972656 46.847656 13.84375 46.953125 13.707031 47.050781 C 13.5625 47.15625 13.410156 47.257812 13.269531 47.375 C 13.265625 47.378906 13.265625 47.382812 13.261719 47.382812 C 13 47.597656 12.746094 47.824219 12.503906 48.066406 C 12.355469 48.214844 12.222656 48.375 12.085938 48.53125 C 11.992188 48.636719 11.894531 48.734375 11.804688 48.84375 C 11.753906 48.90625 11.710938 48.972656 11.660156 49.035156 C 10.242188 50.847656 9.464844 53.0625 9.464844 55.402344 C 9.464844 57.746094 10.246094 59.964844 11.667969 61.777344 C 11.714844 61.835938 11.753906 61.898438 11.804688 61.957031 C 11.894531 62.070312 11.996094 62.171875 12.09375 62.277344 C 12.226562 62.429688 12.359375 62.585938 12.503906 62.734375 C 12.65625 62.886719 12.820312 63.023438 12.980469 63.164062 C 13.078125 63.253906 13.175781 63.347656 13.28125 63.433594 C 13.347656 63.488281 13.417969 63.535156 13.488281 63.589844 C 15.296875 65 17.503906 65.773438 19.839844 65.773438 C 22.175781 65.773438 24.386719 65 26.195312 63.582031 C 26.261719 63.53125 26.332031 63.488281 26.398438 63.433594 C 26.503906 63.347656 26.601562 63.25 26.703125 63.15625 C 26.859375 63.019531 27.023438 62.886719 27.171875 62.734375 C 27.402344 62.503906 27.617188 62.261719 27.824219 62.015625 C 27.835938 62 27.851562 61.984375 27.863281 61.96875 C 27.976562 61.832031 28.074219 61.6875 28.179688 61.542969 C 28.28125 61.40625 28.390625 61.269531 28.484375 61.128906 C 28.539062 61.042969 28.585938 60.957031 28.640625 60.871094 C 28.769531 60.660156 28.902344 60.453125 29.015625 60.234375 C 29.03125 60.203125 29.042969 60.171875 29.058594 60.140625 C 29.804688 58.691406 30.207031 57.082031 30.207031 55.410156 C 30.207031 54.316406 30.664062 53.230469 31.460938 52.4375 L 52.109375 31.789062 C 52.890625 31.007812 53.867188 30.570312 54.902344 30.542969 C 54.953125 30.542969 55.007812 30.546875 55.058594 30.546875 C 57.058594 30.546875 59.054688 29.972656 60.78125 28.828125 C 61.074219 28.632812 61.363281 28.429688 61.636719 28.203125 C 62.566406 27.4375 63.332031 26.523438 63.933594 25.523438 C 63.96875 25.46875 64.003906 25.414062 64.035156 25.359375 C 64.050781 25.332031 64.0625 25.304688 64.078125 25.28125 C 65.03125 23.59375 65.503906 21.660156 65.417969 19.710938 C 65.414062 19.632812 65.40625 19.554688 65.402344 19.476562 Z M 60.886719 27.296875 C 60.671875 27.472656 60.449219 27.636719 60.222656 27.792969 C 58.703125 28.8125 56.859375 29.351562 55 29.359375 C 54.96875 29.359375 54.9375 29.367188 54.90625 29.367188 C 52.9375 29.335938 50.972656 28.683594 49.355469 27.390625 C 47.261719 25.722656 46.027344 23.34375 45.882812 20.695312 C 45.867188 20.425781 45.871094 20.15625 45.878906 19.886719 C 45.882812 19.777344 45.886719 19.664062 45.894531 19.554688 C 45.910156 19.335938 45.933594 19.121094 45.964844 18.90625 C 45.976562 18.816406 45.988281 18.730469 46 18.644531 C 46.042969 18.402344 46.09375 18.160156 46.152344 17.921875 C 46.167969 17.863281 46.179688 17.808594 46.195312 17.75 C 46.269531 17.488281 46.355469 17.226562 46.449219 16.96875 C 46.460938 16.933594 46.472656 16.898438 46.484375 16.867188 C 46.589844 16.597656 46.707031 16.339844 46.832031 16.082031 C 46.847656 16.054688 46.859375 16.027344 46.871094 15.996094 C 47 15.75 47.140625 15.507812 47.289062 15.273438 C 47.3125 15.238281 47.332031 15.199219 47.355469 15.164062 C 47.492188 14.949219 47.648438 14.742188 47.804688 14.542969 C 47.84375 14.488281 47.882812 14.433594 47.921875 14.382812 C 48.082031 14.1875 48.253906 14.003906 48.425781 13.820312 C 48.472656 13.773438 48.511719 13.722656 48.558594 13.675781 C 50.300781 11.933594 52.664062 10.984375 55.082031 10.984375 C 55.523438 10.984375 55.96875 11.015625 56.410156 11.082031 L 49.757812 17.734375 C 49.683594 17.808594 49.628906 17.898438 49.605469 18 C 49.578125 18.097656 49.574219 18.203125 49.601562 18.304688 C 50.066406 20.050781 50.996094 21.660156 52.289062 22.953125 C 53.578125 24.246094 55.1875 25.171875 56.9375 25.636719 C 57.035156 25.664062 57.140625 25.664062 57.242188 25.636719 C 57.316406 25.613281 57.382812 25.566406 57.445312 25.515625 C 57.464844 25.503906 57.484375 25.5 57.5 25.484375 C 57.503906 25.484375 57.503906 25.484375 57.503906 25.484375 L 64.15625 18.828125 C 64.164062 18.863281 64.160156 18.902344 64.167969 18.9375 C 64.445312 21.023438 63.984375 23.132812 62.914062 24.917969 C 62.382812 25.804688 61.710938 26.617188 60.886719 27.296875 Z M 28.03125 59.574219 C 28.011719 59.613281 27.996094 59.652344 27.976562 59.6875 C 27.882812 59.867188 27.773438 60.039062 27.664062 60.214844 C 27.609375 60.304688 27.5625 60.394531 27.503906 60.484375 C 27.429688 60.589844 27.347656 60.695312 27.269531 60.800781 C 26.988281 61.1875 26.683594 61.558594 26.339844 61.902344 C 26.195312 62.050781 26.039062 62.179688 25.886719 62.316406 C 25.808594 62.382812 25.734375 62.460938 25.65625 62.523438 C 25.59375 62.574219 25.53125 62.613281 25.46875 62.664062 C 22.175781 65.21875 17.53125 65.226562 14.230469 62.679688 C 14.160156 62.625 14.089844 62.578125 14.019531 62.523438 C 13.949219 62.464844 13.882812 62.394531 13.808594 62.332031 C 13.648438 62.191406 13.488281 62.054688 13.335938 61.902344 C 13.1875 61.753906 13.050781 61.59375 12.910156 61.433594 C 12.847656 61.363281 12.777344 61.292969 12.714844 61.21875 C 12.660156 61.152344 12.617188 61.082031 12.566406 61.015625 C 10.15625 57.902344 10.015625 53.589844 12.15625 50.339844 C 12.15625 50.339844 12.160156 50.339844 12.160156 50.339844 C 12.28125 50.148438 12.421875 49.96875 12.5625 49.789062 C 12.617188 49.71875 12.660156 49.648438 12.714844 49.582031 C 12.777344 49.507812 12.847656 49.4375 12.910156 49.367188 C 13.050781 49.207031 13.1875 49.046875 13.335938 48.898438 C 13.675781 48.5625 14.039062 48.261719 14.417969 47.984375 C 14.53125 47.902344 14.640625 47.8125 14.757812 47.734375 C 14.839844 47.679688 14.921875 47.636719 15.003906 47.585938 C 15.183594 47.476562 15.363281 47.363281 15.550781 47.261719 C 15.582031 47.246094 15.613281 47.234375 15.644531 47.21875 C 19.101562 45.453125 23.453125 46.007812 26.34375 48.898438 C 29.226562 51.78125 29.785156 56.121094 28.03125 59.574219 Z M 51.277344 30.957031 L 30.632812 51.605469 C 30.316406 51.921875 30.058594 52.28125 29.828125 52.660156 C 29.371094 50.976562 28.492188 49.386719 27.171875 48.066406 C 25.851562 46.75 24.261719 45.867188 22.582031 45.410156 C 22.957031 45.179688 23.316406 44.925781 23.632812 44.609375 L 44.269531 23.972656 C 44.582031 23.660156 44.839844 23.300781 45.066406 22.925781 C 45.644531 25.027344 46.882812 26.917969 48.621094 28.308594 C 49.730469 29.191406 50.984375 29.808594 52.296875 30.167969 C 51.933594 30.394531 51.589844 30.648438 51.277344 30.957031 Z M 51.277344 30.957031 " fill-opacity="1" fill-rule="nonzero"/></g><path fill="#ffffff" d="M 43.953125 30.457031 L 30.117188 44.292969 C 29.886719 44.523438 29.886719 44.894531 30.117188 45.125 C 30.230469 45.238281 30.382812 45.296875 30.53125 45.296875 C 30.679688 45.296875 30.832031 45.238281 30.945312 45.125 L 44.78125 31.285156 C 45.011719 31.058594 45.011719 30.683594 44.78125 30.457031 C 44.554688 30.226562 44.183594 30.226562 43.953125 30.457031 Z M 43.953125 30.457031 " fill-opacity="1" fill-rule="nonzero"/><g clip-path="url(#e6c4deab15)"><path fill="#ffffff" d="M 60.121094 52.886719 L 65.535156 47.785156 L 60.625 47.785156 L 60.121094 48.261719 L 54.707031 53.363281 L 49.292969 48.261719 L 48.789062 47.785156 L 43.878906 47.785156 L 49.292969 52.886719 L 54.707031 57.984375 Z M 60.121094 52.886719 " fill-opacity="1" fill-rule="nonzero"/></g><g clip-path="url(#217cd9d722)"><path fill="#ffffff" d="M 60.121094 60.863281 L 65.535156 55.765625 L 60.625 55.765625 L 60.121094 56.238281 L 54.707031 61.339844 L 49.292969 56.238281 L 48.789062 55.765625 L 43.878906 55.765625 L 49.292969 60.863281 L 54.707031 65.964844 Z M 60.121094 60.863281 " fill-opacity="1" fill-rule="nonzero"/></g></svg>