<svg xmlns="http://www.w3.org/2000/svg" xmlns:xlink="http://www.w3.org/1999/xlink" width="100" zoomAndPan="magnify" viewBox="0 0 75 74.999997" height="100" preserveAspectRatio="xMidYMid meet" version="1.0"><defs><clipPath id="b691d25173"><path d="M 0 0.046875 L 75 0.046875 L 75 75 L 0 75 Z M 0 0.046875 " clip-rule="nonzero"/></clipPath></defs><path fill="#ffffff" d="M 49.933594 57.582031 C 48.167969 57.582031 45.871094 57.359375 43.207031 56.589844 C 37.894531 55.054688 32.773438 51.84375 27.980469 47.050781 C 23.1875 42.261719 19.980469 37.136719 18.445312 31.828125 C 17.171875 27.4375 17.394531 24.035156 17.640625 22.398438 C 17.792969 21.390625 18.367188 20.511719 19.21875 19.980469 C 20.863281 18.953125 22.628906 18.261719 24.464844 17.929688 C 25.378906 17.761719 26.320312 18.058594 26.976562 18.714844 L 31.257812 22.996094 C 32.257812 23.996094 32.742188 25.375 32.589844 26.78125 C 32.476562 27.832031 32.003906 28.824219 31.257812 29.570312 L 29.941406 30.882812 C 29.691406 31.132812 29.609375 31.515625 29.730469 31.855469 C 30.667969 34.476562 34.144531 38.359375 35.40625 39.636719 C 35.445312 39.671875 40.023438 44.175781 43.179688 45.300781 C 43.519531 45.425781 43.898438 45.339844 44.148438 45.089844 L 45.464844 43.777344 C 46.210938 43.03125 47.199219 42.554688 48.25 42.441406 C 49.660156 42.289062 51.039062 42.777344 52.039062 43.777344 L 56.316406 48.054688 C 56.976562 48.714844 57.269531 49.65625 57.105469 50.570312 C 56.769531 52.402344 56.078125 54.167969 55.050781 55.816406 C 54.523438 56.667969 53.640625 57.242188 52.636719 57.390625 C 51.992188 57.488281 51.074219 57.582031 49.933594 57.582031 Z M 24.972656 20.292969 C 24.945312 20.292969 24.917969 20.292969 24.894531 20.296875 C 23.359375 20.578125 21.878906 21.15625 20.492188 22.023438 C 20.238281 22.179688 20.070312 22.445312 20.023438 22.753906 C 19.804688 24.195312 19.613281 27.207031 20.757812 31.15625 C 22.179688 36.074219 25.183594 40.847656 29.683594 45.351562 C 34.183594 49.851562 38.960938 52.855469 43.875 54.277344 C 47.828125 55.421875 50.835938 55.226562 52.277344 55.011719 C 52.585938 54.964844 52.851562 54.792969 53.011719 54.542969 C 53.875 53.152344 54.457031 51.671875 54.734375 50.140625 C 54.761719 50 54.714844 49.859375 54.617188 49.757812 L 50.335938 45.476562 C 49.855469 44.996094 49.1875 44.761719 48.511719 44.835938 C 48.003906 44.890625 47.527344 45.117188 47.164062 45.476562 L 45.851562 46.792969 C 44.945312 47.695312 43.578125 48.003906 42.367188 47.570312 C 38.710938 46.261719 33.90625 41.539062 33.703125 41.335938 C 33.496094 41.125 28.769531 36.324219 27.464844 32.664062 C 27.03125 31.453125 27.335938 30.085938 28.242188 29.179688 L 29.554688 27.867188 C 29.914062 27.507812 30.144531 27.03125 30.199219 26.523438 C 30.273438 25.84375 30.035156 25.179688 29.554688 24.695312 L 25.273438 20.417969 C 25.195312 20.335938 25.082031 20.289062 24.96875 20.289062 Z M 24.972656 20.292969 " fill-opacity="1" fill-rule="nonzero"/><g clip-path="url(#b691d25173)"><path fill="#ffffff" d="M 37.53125 74.945312 C 31.9375 74.945312 26.554688 73.738281 21.523438 71.355469 C 19.246094 70.277344 16.652344 69.980469 14.21875 70.527344 L 0.0117188 73.714844 L 3.96875 61.058594 C 4.792969 58.410156 4.617188 55.570312 3.46875 53.058594 C 1.148438 47.992188 0.0117188 42.574219 0.09375 36.957031 C 0.230469 27.027344 4.183594 17.738281 11.222656 10.800781 C 18.261719 3.863281 27.609375 0.0390625 37.539062 0.0390625 C 47.542969 0.0390625 56.949219 3.9375 64.023438 11.011719 C 71.097656 18.085938 74.992188 27.488281 74.992188 37.492188 C 74.992188 47.433594 71.167969 56.785156 64.21875 63.824219 C 57.269531 70.867188 47.972656 74.8125 38.03125 74.941406 C 37.867188 74.945312 37.699219 74.945312 37.53125 74.945312 Z M 16.648438 67.851562 C 18.671875 67.851562 20.703125 68.300781 22.554688 69.179688 C 27.398438 71.476562 32.597656 72.601562 38 72.535156 C 47.304688 72.414062 56.003906 68.722656 62.503906 62.132812 C 69.003906 55.546875 72.585938 46.796875 72.585938 37.492188 C 72.585938 28.132812 68.941406 19.332031 62.320312 12.710938 C 55.703125 6.09375 46.898438 2.449219 37.539062 2.449219 C 28.246094 2.449219 19.5 6.023438 12.914062 12.515625 C 6.328125 19.003906 2.628906 27.699219 2.5 36.992188 C 2.425781 42.25 3.488281 47.316406 5.65625 52.058594 C 7.054688 55.109375 7.269531 58.558594 6.265625 61.773438 L 3.554688 70.453125 L 13.691406 68.179688 C 14.664062 67.960938 15.65625 67.851562 16.648438 67.851562 Z M 16.648438 67.851562 " fill-opacity="1" fill-rule="nonzero"/></g></svg>