<svg xmlns="http://www.w3.org/2000/svg" xmlns:xlink="http://www.w3.org/1999/xlink" width="100" zoomAndPan="magnify" viewBox="0 0 75 74.999997" height="100" preserveAspectRatio="xMidYMid meet" version="1.0"><defs><clipPath id="56bed19069"><path d="M 36 29 L 61.214844 29 L 61.214844 66 L 36 66 Z M 36 29 " clip-rule="nonzero"/></clipPath><clipPath id="69f513496c"><path d="M 53 16 L 61.214844 16 L 61.214844 32 L 53 32 Z M 53 16 " clip-rule="nonzero"/></clipPath><clipPath id="af748da0e9"><path d="M 13.964844 29 L 39 29 L 39 66 L 13.964844 66 Z M 13.964844 29 " clip-rule="nonzero"/></clipPath><clipPath id="2a3652fa0b"><path d="M 13.964844 16 L 22 16 L 22 32 L 13.964844 32 Z M 13.964844 16 " clip-rule="nonzero"/></clipPath><clipPath id="0bd6370273"><path d="M 19 9.1875 L 56 9.1875 L 56 19 L 19 19 Z M 19 9.1875 " clip-rule="nonzero"/></clipPath></defs><g clip-path="url(#56bed19069)"><path fill="#ffffff" d="M 37.5 65.738281 C 37.015625 65.738281 36.558594 65.433594 36.390625 64.949219 C 36.171875 64.335938 36.496094 63.664062 37.109375 63.449219 C 58.640625 55.863281 58.679688 30.546875 58.679688 30.292969 C 58.671875 29.644531 59.195312 29.113281 59.84375 29.105469 C 60.472656 29.117188 61.027344 29.625 61.03125 30.273438 C 61.03125 30.546875 60.988281 57.53125 37.890625 65.671875 C 37.757812 65.714844 37.628906 65.738281 37.5 65.738281 Z M 37.5 65.738281 " fill-opacity="1" fill-rule="nonzero"/></g><g clip-path="url(#69f513496c)"><path fill="#ffffff" d="M 59.855469 31.460938 C 59.203125 31.460938 58.675781 30.933594 58.675781 30.285156 L 58.675781 18.671875 L 54.382812 18.671875 C 53.734375 18.671875 53.203125 18.148438 53.203125 17.496094 C 53.203125 16.84375 53.730469 16.316406 54.382812 16.316406 L 58.675781 16.316406 C 59.972656 16.316406 61.03125 17.375 61.03125 18.671875 L 61.03125 30.28125 C 61.03125 30.933594 60.503906 31.460938 59.855469 31.460938 Z M 59.855469 31.460938 " fill-opacity="1" fill-rule="nonzero"/></g><g clip-path="url(#af748da0e9)"><path fill="#ffffff" d="M 37.5 65.738281 C 37.367188 65.738281 37.238281 65.714844 37.109375 65.667969 C 14.011719 57.53125 13.964844 30.546875 13.964844 30.273438 C 13.96875 29.625 14.496094 29.105469 15.144531 29.105469 C 15.144531 29.105469 15.148438 29.105469 15.152344 29.105469 C 15.800781 29.109375 16.324219 29.640625 16.320312 30.292969 C 16.316406 30.546875 16.398438 55.875 37.890625 63.449219 C 38.503906 63.667969 38.824219 64.339844 38.609375 64.949219 C 38.4375 65.433594 37.984375 65.738281 37.5 65.738281 Z M 37.5 65.738281 " fill-opacity="1" fill-rule="nonzero"/></g><g clip-path="url(#2a3652fa0b)"><path fill="#ffffff" d="M 15.144531 31.460938 C 14.492188 31.460938 13.964844 30.933594 13.964844 30.285156 L 13.964844 18.671875 C 13.964844 17.375 15.019531 16.320312 16.316406 16.320312 L 20.617188 16.320312 C 21.265625 16.320312 21.792969 16.847656 21.792969 17.496094 C 21.792969 18.148438 21.269531 18.675781 20.617188 18.675781 L 16.316406 18.675781 L 16.316406 30.285156 C 16.316406 30.933594 15.792969 31.460938 15.144531 31.460938 Z M 15.144531 31.460938 " fill-opacity="1" fill-rule="nonzero"/></g><g clip-path="url(#0bd6370273)"><path fill="#ffffff" d="M 54.320312 18.671875 C 44.5625 18.671875 39.441406 14.375 37.5 12.242188 C 35.558594 14.378906 30.4375 18.671875 20.671875 18.671875 C 20.023438 18.671875 19.496094 18.148438 19.496094 17.496094 C 19.496094 16.84375 20.023438 16.316406 20.671875 16.316406 C 32.121094 16.316406 36.410156 9.863281 36.449219 9.796875 C 36.667969 9.460938 37.039062 9.257812 37.441406 9.257812 L 37.558594 9.257812 C 37.957031 9.257812 38.328125 9.460938 38.546875 9.796875 C 38.71875 10.058594 42.960938 16.316406 54.320312 16.316406 C 54.972656 16.316406 55.5 16.84375 55.5 17.496094 C 55.5 18.148438 54.972656 18.671875 54.320312 18.671875 Z M 54.320312 18.671875 " fill-opacity="1" fill-rule="nonzero"/></g><path fill="#ffffff" d="M 36.511719 45.734375 C 36.234375 45.734375 35.96875 45.640625 35.753906 45.460938 L 27.328125 38.402344 C 26.832031 37.984375 26.765625 37.242188 27.183594 36.742188 C 27.601562 36.246094 28.34375 36.179688 28.84375 36.597656 L 36.308594 42.851562 L 45.964844 29.742188 C 46.351562 29.21875 47.085938 29.105469 47.609375 29.492188 C 48.136719 29.878906 48.246094 30.613281 47.863281 31.136719 L 37.460938 45.257812 C 37.269531 45.519531 36.976562 45.6875 36.65625 45.726562 C 36.601562 45.730469 36.554688 45.734375 36.511719 45.734375 Z M 36.511719 45.734375 " fill-opacity="1" fill-rule="nonzero"/></svg>