<svg xmlns="http://www.w3.org/2000/svg" xmlns:xlink="http://www.w3.org/1999/xlink" width="100" zoomAndPan="magnify" viewBox="0 0 75 74.999997" height="100" preserveAspectRatio="xMidYMid meet" version="1.0"><defs><clipPath id="772599a005"><path d="M 10.109375 30.308594 L 64.859375 30.308594 L 64.859375 44.558594 L 10.109375 44.558594 Z M 10.109375 30.308594 " clip-rule="nonzero"/></clipPath></defs><g clip-path="url(#772599a005)"><path fill="#ffffff" d="M 37.496094 30.308594 C 33.53125 30.308594 30.308594 33.53125 30.308594 37.5 C 30.308594 41.46875 33.53125 44.691406 37.496094 44.691406 C 41.464844 44.691406 44.6875 41.46875 44.6875 37.5 C 44.6875 33.53125 41.464844 30.308594 37.496094 30.308594 Z M 17.558594 30.308594 C 13.589844 30.308594 10.367188 33.53125 10.367188 37.5 C 10.367188 41.46875 13.589844 44.691406 17.558594 44.691406 C 21.527344 44.691406 24.746094 41.46875 24.746094 37.5 C 24.746094 33.53125 21.527344 30.308594 17.558594 30.308594 Z M 57.4375 30.308594 C 53.46875 30.308594 50.25 33.53125 50.25 37.5 C 50.25 41.46875 53.46875 44.691406 57.4375 44.691406 C 61.40625 44.691406 64.628906 41.46875 64.628906 37.5 C 64.628906 33.53125 61.40625 30.308594 57.4375 30.308594 Z M 37.496094 32.34375 C 40.34375 32.34375 42.652344 34.65625 42.652344 37.5 C 42.652344 40.34375 40.34375 42.65625 37.496094 42.65625 C 34.652344 42.65625 32.34375 40.34375 32.34375 37.5 C 32.34375 34.65625 34.652344 32.34375 37.496094 32.34375 Z M 17.558594 32.34375 C 20.402344 32.34375 22.710938 34.65625 22.710938 37.5 C 22.710938 40.34375 20.402344 42.65625 17.558594 42.65625 C 14.710938 42.65625 12.402344 40.34375 12.402344 37.5 C 12.402344 34.65625 14.710938 32.34375 17.558594 32.34375 Z M 57.4375 32.34375 C 60.285156 32.34375 62.59375 34.65625 62.59375 37.5 C 62.59375 40.34375 60.285156 42.65625 57.4375 42.65625 C 54.59375 42.65625 52.285156 40.34375 52.285156 37.5 C 52.285156 34.65625 54.59375 32.34375 57.4375 32.34375 Z M 57.4375 32.34375 " fill-opacity="1" fill-rule="evenodd"/></g></svg>