<svg xmlns="http://www.w3.org/2000/svg" xmlns:xlink="http://www.w3.org/1999/xlink" width="100" zoomAndPan="magnify" viewBox="0 0 75 74.999997" height="100" preserveAspectRatio="xMidYMid meet" version="1.0"><defs><clipPath id="19b1756b5c"><path d="M 0 26.589844 L 75 26.589844 L 75 48.339844 L 0 48.339844 Z M 0 26.589844 " clip-rule="nonzero"/></clipPath></defs><path fill="#ffffff" d="M 11.894531 43.535156 C 11.832031 43.535156 11.765625 43.519531 11.707031 43.488281 C 11.613281 43.441406 11.539062 43.355469 11.503906 43.25 L 11.023438 41.769531 C 10.78125 41.769531 10.539062 41.75 10.300781 41.710938 L 9.589844 43.097656 C 9.542969 43.195312 9.457031 43.269531 9.351562 43.304688 C 9.25 43.335938 9.136719 43.328125 9.039062 43.277344 L 7.464844 42.476562 C 7.261719 42.375 7.179688 42.125 7.285156 41.925781 L 7.992188 40.535156 C 7.820312 40.367188 7.660156 40.179688 7.519531 39.984375 L 6.039062 40.464844 C 5.933594 40.5 5.820312 40.488281 5.726562 40.441406 C 5.628906 40.390625 5.554688 40.304688 5.519531 40.203125 L 4.972656 38.519531 C 4.941406 38.417969 4.949219 38.304688 5 38.207031 C 5.046875 38.109375 5.132812 38.035156 5.238281 38.003906 L 6.71875 37.523438 C 6.71875 37.28125 6.738281 37.039062 6.777344 36.796875 L 5.390625 36.089844 C 5.292969 36.042969 5.21875 35.957031 5.183594 35.851562 C 5.152344 35.746094 5.160156 35.632812 5.210938 35.539062 L 6.011719 33.964844 C 6.113281 33.761719 6.363281 33.679688 6.566406 33.785156 L 7.953125 34.492188 C 8.125 34.316406 8.308594 34.160156 8.503906 34.019531 L 8.023438 32.539062 C 7.953125 32.320312 8.070312 32.089844 8.289062 32.019531 L 9.96875 31.472656 C 10.070312 31.441406 10.183594 31.449219 10.28125 31.496094 C 10.378906 31.546875 10.453125 31.632812 10.484375 31.738281 L 10.96875 33.21875 C 11.210938 33.214844 11.453125 33.234375 11.691406 33.277344 L 12.398438 31.886719 C 12.449219 31.789062 12.535156 31.71875 12.636719 31.683594 C 12.742188 31.648438 12.855469 31.660156 12.953125 31.707031 L 14.527344 32.511719 C 14.726562 32.613281 14.808594 32.859375 14.703125 33.0625 L 13.996094 34.453125 C 14.171875 34.621094 14.328125 34.804688 14.46875 35.003906 L 15.949219 34.523438 C 16.167969 34.453125 16.398438 34.570312 16.46875 34.785156 L 17.015625 36.46875 C 17.050781 36.570312 17.039062 36.683594 16.992188 36.78125 C 16.941406 36.878906 16.855469 36.949219 16.75 36.984375 L 15.269531 37.464844 C 15.269531 37.707031 15.253906 37.949219 15.210938 38.191406 L 16.601562 38.898438 C 16.699219 38.945312 16.769531 39.03125 16.804688 39.136719 C 16.839844 39.242188 16.828125 39.355469 16.78125 39.449219 L 15.976562 41.023438 C 15.875 41.226562 15.628906 41.308594 15.425781 41.203125 L 14.035156 40.496094 C 13.867188 40.671875 13.683594 40.828125 13.484375 40.96875 L 13.964844 42.449219 C 14.035156 42.667969 13.917969 42.898438 13.703125 42.96875 L 12.019531 43.515625 C 11.980469 43.527344 11.9375 43.535156 11.894531 43.535156 Z M 11.316406 40.933594 C 11.496094 40.933594 11.652344 41.046875 11.707031 41.21875 L 12.160156 42.605469 L 13.058594 42.3125 L 12.605469 40.925781 C 12.546875 40.742188 12.621094 40.546875 12.785156 40.445312 C 13.105469 40.253906 13.390625 40.007812 13.632812 39.722656 C 13.753906 39.578125 13.960938 39.535156 14.132812 39.621094 L 15.433594 40.285156 L 15.863281 39.441406 L 14.5625 38.78125 C 14.390625 38.695312 14.304688 38.5 14.347656 38.316406 C 14.4375 37.953125 14.46875 37.578125 14.4375 37.207031 C 14.421875 37.015625 14.539062 36.839844 14.71875 36.78125 L 16.105469 36.328125 L 15.816406 35.429688 L 14.425781 35.882812 C 14.246094 35.941406 14.046875 35.867188 13.949219 35.703125 C 13.753906 35.382812 13.511719 35.097656 13.226562 34.855469 C 13.078125 34.734375 13.035156 34.527344 13.125 34.355469 L 13.785156 33.054688 L 12.945312 32.625 L 12.28125 33.925781 C 12.195312 34.097656 12.003906 34.1875 11.816406 34.140625 C 11.453125 34.050781 11.082031 34.019531 10.707031 34.050781 C 10.515625 34.066406 10.339844 33.949219 10.28125 33.769531 L 9.832031 32.382812 L 8.933594 32.675781 L 9.382812 34.0625 C 9.441406 34.242188 9.367188 34.441406 9.207031 34.539062 C 8.886719 34.734375 8.601562 34.976562 8.359375 35.265625 C 8.234375 35.410156 8.027344 35.453125 7.859375 35.363281 L 6.558594 34.703125 L 6.128906 35.542969 L 7.429688 36.207031 C 7.597656 36.292969 7.6875 36.484375 7.640625 36.671875 C 7.550781 37.035156 7.523438 37.410156 7.554688 37.78125 C 7.570312 37.972656 7.453125 38.148438 7.269531 38.207031 L 5.882812 38.65625 L 6.175781 39.554688 L 7.5625 39.105469 C 7.746094 39.046875 7.941406 39.121094 8.042969 39.285156 C 8.234375 39.605469 8.480469 39.886719 8.765625 40.128906 C 8.910156 40.253906 8.953125 40.460938 8.867188 40.628906 L 8.203125 41.929688 L 9.046875 42.359375 L 9.707031 41.058594 C 9.792969 40.890625 9.988281 40.800781 10.171875 40.847656 C 10.535156 40.9375 10.910156 40.964844 11.28125 40.933594 C 11.292969 40.933594 11.304688 40.933594 11.316406 40.933594 Z M 11.316406 40.933594 " fill-opacity="1" fill-rule="nonzero"/><path fill="#ffffff" d="M 64.808594 43.550781 C 64.628906 43.550781 64.46875 43.433594 64.414062 43.257812 L 63.957031 41.769531 C 63.714844 41.765625 63.472656 41.742188 63.234375 41.699219 L 62.503906 43.074219 C 62.453125 43.171875 62.363281 43.242188 62.261719 43.273438 C 62.15625 43.304688 62.042969 43.296875 61.949219 43.242188 L 60.386719 42.414062 C 60.292969 42.363281 60.21875 42.277344 60.1875 42.171875 C 60.15625 42.066406 60.167969 41.953125 60.21875 41.859375 L 60.949219 40.484375 C 60.777344 40.308594 60.625 40.121094 60.488281 39.921875 L 58.996094 40.378906 C 58.894531 40.410156 58.78125 40.398438 58.683594 40.347656 C 58.585938 40.296875 58.515625 40.210938 58.484375 40.105469 L 57.96875 38.414062 C 57.902344 38.199219 58.023438 37.96875 58.238281 37.902344 L 59.730469 37.445312 C 59.730469 37.203125 59.753906 36.960938 59.800781 36.722656 L 58.425781 35.992188 C 58.222656 35.886719 58.148438 35.636719 58.253906 35.4375 L 59.082031 33.875 C 59.132812 33.78125 59.222656 33.707031 59.324219 33.675781 C 59.429688 33.644531 59.542969 33.65625 59.640625 33.707031 L 61.015625 34.4375 C 61.1875 34.269531 61.375 34.113281 61.574219 33.976562 L 61.121094 32.484375 C 61.089844 32.382812 61.097656 32.269531 61.148438 32.171875 C 61.203125 32.078125 61.289062 32.003906 61.394531 31.972656 L 63.082031 31.457031 C 63.300781 31.390625 63.53125 31.511719 63.597656 31.730469 L 64.050781 33.21875 C 64.292969 33.222656 64.535156 33.246094 64.773438 33.289062 L 65.507812 31.914062 C 65.613281 31.710938 65.859375 31.636719 66.0625 31.742188 L 67.621094 32.574219 C 67.71875 32.625 67.789062 32.710938 67.820312 32.816406 C 67.855469 32.917969 67.84375 33.03125 67.792969 33.128906 L 67.0625 34.503906 C 67.230469 34.675781 67.386719 34.863281 67.523438 35.066406 L 69.011719 34.609375 C 69.117188 34.578125 69.230469 34.585938 69.324219 34.640625 C 69.421875 34.691406 69.496094 34.777344 69.527344 34.882812 L 70.042969 36.570312 C 70.109375 36.789062 69.988281 37.019531 69.769531 37.085938 L 68.28125 37.539062 C 68.277344 37.78125 68.253906 38.023438 68.210938 38.261719 L 69.585938 38.996094 C 69.785156 39.101562 69.863281 39.351562 69.753906 39.550781 L 68.925781 41.109375 C 68.875 41.207031 68.789062 41.28125 68.683594 41.3125 C 68.578125 41.34375 68.464844 41.332031 68.371094 41.28125 L 66.996094 40.550781 C 66.820312 40.71875 66.632812 40.875 66.433594 41.011719 L 66.890625 42.5 C 66.921875 42.605469 66.910156 42.71875 66.859375 42.816406 C 66.808594 42.910156 66.722656 42.984375 66.617188 43.015625 L 64.925781 43.53125 C 64.886719 43.542969 64.847656 43.550781 64.808594 43.550781 Z M 64.261719 40.9375 C 64.4375 40.9375 64.597656 41.054688 64.652344 41.226562 L 65.078125 42.625 L 65.984375 42.347656 L 65.554688 40.953125 C 65.5 40.769531 65.578125 40.574219 65.742188 40.476562 C 66.066406 40.289062 66.355469 40.050781 66.601562 39.769531 C 66.726562 39.625 66.9375 39.585938 67.105469 39.675781 L 68.394531 40.363281 L 68.835938 39.527344 L 67.546875 38.84375 C 67.378906 38.753906 67.296875 38.558594 67.34375 38.375 C 67.441406 38.011719 67.476562 37.640625 67.449219 37.265625 C 67.4375 37.074219 67.558594 36.902344 67.738281 36.847656 L 69.136719 36.417969 L 68.859375 35.515625 L 67.464844 35.941406 C 67.28125 36 67.082031 35.921875 66.988281 35.753906 C 66.800781 35.433594 66.5625 35.144531 66.28125 34.894531 C 66.136719 34.769531 66.097656 34.5625 66.1875 34.394531 L 66.871094 33.105469 L 66.039062 32.660156 L 65.355469 33.949219 C 65.265625 34.117188 65.070312 34.203125 64.886719 34.15625 C 64.523438 34.058594 64.152344 34.023438 63.777344 34.050781 C 63.585938 34.0625 63.414062 33.941406 63.355469 33.757812 L 62.929688 32.363281 L 62.027344 32.640625 L 62.453125 34.035156 C 62.507812 34.21875 62.429688 34.414062 62.265625 34.511719 C 61.941406 34.699219 61.652344 34.9375 61.40625 35.21875 C 61.28125 35.363281 61.074219 35.398438 60.90625 35.3125 L 59.617188 34.625 L 59.171875 35.460938 L 60.460938 36.144531 C 60.628906 36.234375 60.714844 36.429688 60.664062 36.613281 C 60.570312 36.976562 60.535156 37.347656 60.558594 37.722656 C 60.574219 37.910156 60.453125 38.085938 60.269531 38.140625 L 58.875 38.570312 L 59.148438 39.472656 L 60.546875 39.046875 C 60.726562 38.988281 60.925781 39.066406 61.019531 39.230469 C 61.210938 39.554688 61.449219 39.84375 61.730469 40.089844 C 61.871094 40.21875 61.910156 40.425781 61.820312 40.59375 L 61.136719 41.882812 L 61.96875 42.324219 L 62.65625 41.039062 C 62.746094 40.867188 62.9375 40.785156 63.125 40.832031 C 63.484375 40.929688 63.859375 40.964844 64.230469 40.9375 C 64.242188 40.9375 64.25 40.9375 64.261719 40.9375 Z M 64.261719 40.9375 " fill-opacity="1" fill-rule="nonzero"/><g clip-path="url(#19b1756b5c)"><path fill="#ffffff" d="M 64.003906 48.394531 L 10.996094 48.394531 C 4.984375 48.394531 0.09375 43.503906 0.09375 37.492188 C 0.09375 31.480469 4.984375 26.589844 10.996094 26.589844 L 64.003906 26.589844 C 70.015625 26.589844 74.90625 31.480469 74.90625 37.492188 C 74.90625 43.503906 70.015625 48.394531 64.003906 48.394531 Z M 10.996094 27.414062 C 5.4375 27.414062 0.914062 31.933594 0.914062 37.492188 C 0.914062 43.050781 5.4375 47.574219 10.996094 47.574219 L 64.003906 47.574219 C 69.5625 47.574219 74.085938 43.050781 74.085938 37.492188 C 74.085938 31.933594 69.5625 27.414062 64.003906 27.414062 Z M 10.996094 27.414062 " fill-opacity="1" fill-rule="nonzero"/></g><path fill="#ffffff" d="M 62.238281 45.082031 L 58.191406 45.082031 C 57.964844 45.082031 57.78125 44.898438 57.78125 44.671875 L 57.78125 43.316406 L 56.835938 43.316406 L 56.835938 44.671875 C 56.835938 44.898438 56.652344 45.082031 56.425781 45.082031 L 52.382812 45.082031 C 52.152344 45.082031 51.96875 44.898438 51.96875 44.671875 L 51.96875 43.316406 L 51.027344 43.316406 L 51.027344 44.671875 C 51.027344 44.898438 50.839844 45.082031 50.613281 45.082031 L 46.570312 45.082031 C 46.34375 45.082031 46.15625 44.898438 46.15625 44.671875 L 46.15625 43.316406 L 45.214844 43.316406 L 45.214844 44.671875 C 45.214844 44.898438 45.03125 45.082031 44.800781 45.082031 L 40.757812 45.082031 C 40.53125 45.082031 40.347656 44.898438 40.347656 44.671875 L 40.347656 43.316406 L 39.402344 43.316406 L 39.402344 44.671875 C 39.402344 44.898438 39.21875 45.082031 38.992188 45.082031 L 34.945312 45.082031 C 34.71875 45.082031 34.535156 44.898438 34.535156 44.671875 L 34.535156 43.316406 L 33.589844 43.316406 L 33.589844 44.671875 C 33.589844 44.898438 33.40625 45.082031 33.179688 45.082031 L 29.132812 45.082031 C 28.90625 45.082031 28.722656 44.898438 28.722656 44.671875 L 28.722656 43.316406 L 27.777344 43.316406 L 27.777344 44.671875 C 27.777344 44.898438 27.59375 45.082031 27.367188 45.082031 L 23.320312 45.082031 C 23.09375 45.082031 22.910156 44.898438 22.910156 44.671875 L 22.910156 43.316406 L 21.96875 43.316406 L 21.96875 44.671875 C 21.96875 44.898438 21.78125 45.082031 21.554688 45.082031 L 17.511719 45.082031 C 17.28125 45.082031 17.097656 44.898438 17.097656 44.671875 L 17.097656 43.316406 L 16.15625 43.316406 L 16.15625 44.671875 C 16.15625 44.898438 15.972656 45.082031 15.746094 45.082031 L 11.699219 45.082031 C 11.472656 45.082031 11.289062 44.898438 11.289062 44.671875 L 11.289062 43.316406 L 10.996094 43.316406 C 10.84375 43.316406 10.695312 43.308594 10.542969 43.296875 L 10.34375 44.652344 C 10.308594 44.878906 10.101562 45.035156 9.875 45 C 8.460938 44.789062 7.136719 44.179688 6.042969 43.238281 C 5.960938 43.167969 5.910156 43.066406 5.902344 42.957031 C 5.894531 42.847656 5.929688 42.738281 6 42.65625 L 6.894531 41.621094 C 6.75 41.476562 6.613281 41.328125 6.484375 41.167969 L 5.367188 41.957031 C 5.277344 42.019531 5.167969 42.046875 5.058594 42.027344 C 4.953125 42.007812 4.855469 41.949219 4.792969 41.859375 C 3.960938 40.683594 3.488281 39.304688 3.414062 37.871094 C 3.410156 37.761719 3.449219 37.65625 3.523438 37.574219 C 3.59375 37.492188 3.695312 37.445312 3.804688 37.441406 L 5.175781 37.371094 C 5.179688 37.167969 5.191406 36.964844 5.21875 36.761719 L 3.875 36.496094 C 3.769531 36.476562 3.675781 36.414062 3.613281 36.320312 C 3.550781 36.230469 3.53125 36.121094 3.550781 36.011719 C 3.828125 34.609375 4.503906 33.316406 5.496094 32.269531 C 5.570312 32.191406 5.675781 32.144531 5.785156 32.140625 C 5.894531 32.140625 6 32.179688 6.078125 32.253906 L 7.070312 33.195312 C 7.21875 33.058594 7.378906 32.929688 7.542969 32.808594 L 6.808594 31.652344 C 6.683594 31.460938 6.742188 31.207031 6.933594 31.085938 C 8.144531 30.3125 9.546875 29.90625 10.984375 29.902344 C 11.089844 29.902344 11.195312 29.945312 11.273438 30.023438 C 11.351562 30.101562 11.394531 30.203125 11.394531 30.3125 L 11.394531 31.667969 L 12.339844 31.667969 L 12.339844 30.316406 C 12.339844 30.089844 12.523438 29.902344 12.75 29.902344 L 16.796875 29.902344 C 17.023438 29.902344 17.207031 30.089844 17.207031 30.316406 L 17.207031 31.671875 L 18.152344 31.671875 L 18.152344 30.316406 C 18.152344 30.089844 18.335938 29.902344 18.5625 29.902344 L 22.609375 29.902344 C 22.835938 29.902344 23.019531 30.089844 23.019531 30.316406 L 23.019531 31.671875 L 23.964844 31.671875 L 23.964844 30.316406 C 23.964844 30.089844 24.148438 29.902344 24.375 29.902344 L 28.417969 29.902344 C 28.648438 29.902344 28.832031 30.089844 28.832031 30.316406 L 28.832031 31.671875 L 29.773438 31.671875 L 29.773438 30.316406 C 29.773438 30.089844 29.960938 29.902344 30.1875 29.902344 L 34.230469 29.902344 C 34.457031 29.902344 34.644531 30.089844 34.644531 30.316406 L 34.644531 31.671875 L 35.585938 31.671875 L 35.585938 30.316406 C 35.585938 30.089844 35.769531 29.902344 36 29.902344 L 40.042969 29.902344 C 40.269531 29.902344 40.453125 30.089844 40.453125 30.316406 L 40.453125 31.671875 L 41.398438 31.671875 L 41.398438 30.316406 C 41.398438 30.089844 41.582031 29.902344 41.808594 29.902344 L 45.855469 29.902344 C 46.082031 29.902344 46.265625 30.089844 46.265625 30.316406 L 46.265625 31.671875 L 47.210938 31.671875 L 47.210938 30.316406 C 47.210938 30.089844 47.394531 29.902344 47.621094 29.902344 L 51.667969 29.902344 C 51.894531 29.902344 52.078125 30.089844 52.078125 30.316406 L 52.078125 31.671875 L 53.023438 31.671875 L 53.023438 30.316406 C 53.023438 30.089844 53.207031 29.902344 53.433594 29.902344 L 57.480469 29.902344 C 57.707031 29.902344 57.890625 30.089844 57.890625 30.316406 L 57.890625 31.671875 L 58.835938 31.671875 L 58.835938 30.316406 C 58.835938 30.089844 59.019531 29.902344 59.246094 29.902344 L 63.292969 29.902344 C 63.519531 29.902344 63.703125 30.089844 63.703125 30.316406 L 63.703125 31.671875 L 64.007812 31.671875 C 64.152344 31.671875 64.300781 31.675781 64.449219 31.6875 L 64.648438 30.332031 C 64.664062 30.226562 64.722656 30.128906 64.808594 30.0625 C 64.894531 29.996094 65.003906 29.96875 65.113281 29.984375 C 66.53125 30.195312 67.855469 30.800781 68.949219 31.742188 C 69.121094 31.890625 69.140625 32.148438 68.992188 32.320312 L 68.101562 33.359375 C 68.246094 33.503906 68.382812 33.652344 68.511719 33.8125 L 69.628906 33.019531 C 69.71875 32.957031 69.828125 32.933594 69.9375 32.949219 C 70.042969 32.96875 70.140625 33.027344 70.203125 33.117188 C 71.035156 34.292969 71.515625 35.671875 71.585938 37.105469 C 71.597656 37.332031 71.421875 37.523438 71.195312 37.535156 L 69.828125 37.605469 C 69.824219 37.808594 69.808594 38.011719 69.785156 38.214844 L 71.128906 38.476562 C 71.234375 38.5 71.332031 38.5625 71.390625 38.652344 C 71.453125 38.742188 71.472656 38.851562 71.453125 38.960938 C 71.175781 40.363281 70.507812 41.660156 69.515625 42.707031 C 69.4375 42.789062 69.335938 42.832031 69.226562 42.835938 C 69.117188 42.839844 69.011719 42.800781 68.933594 42.722656 L 67.941406 41.78125 C 67.789062 41.921875 67.632812 42.050781 67.46875 42.171875 L 68.207031 43.324219 C 68.265625 43.417969 68.285156 43.527344 68.261719 43.636719 C 68.238281 43.742188 68.171875 43.835938 68.078125 43.894531 C 66.867188 44.667969 65.46875 45.078125 64.03125 45.082031 C 63.921875 45.082031 63.816406 45.039062 63.742188 44.960938 C 63.664062 44.882812 63.621094 44.78125 63.621094 44.671875 L 63.621094 43.316406 L 62.652344 43.316406 L 62.652344 44.671875 C 62.648438 44.898438 62.464844 45.082031 62.238281 45.082031 Z M 58.605469 44.261719 L 61.828125 44.261719 L 61.828125 42.90625 C 61.828125 42.675781 62.011719 42.492188 62.238281 42.492188 L 64.027344 42.492188 C 64.136719 42.492188 64.242188 42.535156 64.320312 42.613281 C 64.394531 42.691406 64.4375 42.796875 64.4375 42.90625 L 64.4375 44.246094 C 65.4375 44.183594 66.40625 43.898438 67.28125 43.410156 L 66.558594 42.28125 C 66.4375 42.089844 66.492188 41.835938 66.683594 41.710938 C 67.03125 41.492188 67.351562 41.226562 67.632812 40.929688 C 67.789062 40.765625 68.050781 40.757812 68.214844 40.914062 L 69.1875 41.835938 C 69.835938 41.066406 70.300781 40.167969 70.550781 39.203125 L 69.234375 38.945312 C 69.128906 38.921875 69.035156 38.859375 68.972656 38.769531 C 68.914062 38.679688 68.890625 38.566406 68.910156 38.460938 C 68.972656 38.144531 69.003906 37.820312 69.003906 37.492188 C 69.003906 37.40625 69.003906 37.320312 69 37.238281 C 68.992188 37.128906 69.03125 37.019531 69.105469 36.941406 C 69.175781 36.859375 69.277344 36.808594 69.386719 36.804688 L 70.730469 36.734375 C 70.617188 35.742188 70.285156 34.789062 69.757812 33.933594 L 68.664062 34.710938 C 68.574219 34.773438 68.464844 34.800781 68.355469 34.78125 C 68.25 34.761719 68.152344 34.703125 68.089844 34.613281 C 67.851562 34.277344 67.574219 33.972656 67.261719 33.703125 C 67.179688 33.632812 67.128906 33.53125 67.117188 33.421875 C 67.109375 33.3125 67.144531 33.207031 67.21875 33.121094 L 68.09375 32.105469 C 67.292969 31.496094 66.375 31.074219 65.398438 30.871094 L 65.203125 32.199219 C 65.1875 32.304688 65.128906 32.402344 65.039062 32.46875 C 64.953125 32.535156 64.84375 32.5625 64.734375 32.546875 C 64.496094 32.511719 64.25 32.492188 64.003906 32.492188 L 63.289062 32.492188 C 63.0625 32.492188 62.878906 32.308594 62.878906 32.082031 L 62.878906 30.726562 L 59.65625 30.726562 L 59.65625 32.082031 C 59.65625 32.308594 59.472656 32.492188 59.246094 32.492188 L 57.476562 32.492188 C 57.25 32.492188 57.066406 32.308594 57.066406 32.082031 L 57.066406 30.726562 L 53.84375 30.726562 L 53.84375 32.082031 C 53.84375 32.308594 53.660156 32.492188 53.433594 32.492188 L 51.667969 32.492188 C 51.4375 32.492188 51.253906 32.308594 51.253906 32.082031 L 51.253906 30.726562 L 48.03125 30.726562 L 48.03125 32.082031 C 48.03125 32.308594 47.847656 32.492188 47.621094 32.492188 L 45.855469 32.492188 C 45.628906 32.492188 45.445312 32.308594 45.445312 32.082031 L 45.445312 30.726562 L 42.21875 30.726562 L 42.21875 32.082031 C 42.21875 32.308594 42.035156 32.492188 41.808594 32.492188 L 40.042969 32.492188 C 39.816406 32.492188 39.632812 32.308594 39.632812 32.082031 L 39.632812 30.726562 L 36.40625 30.726562 L 36.40625 32.082031 C 36.40625 32.308594 36.222656 32.492188 35.996094 32.492188 L 34.230469 32.492188 C 34.003906 32.492188 33.820312 32.308594 33.820312 32.082031 L 33.820312 30.726562 L 30.597656 30.726562 L 30.597656 32.082031 C 30.597656 32.308594 30.410156 32.492188 30.183594 32.492188 L 28.417969 32.492188 C 28.191406 32.492188 28.007812 32.308594 28.007812 32.082031 L 28.007812 30.726562 L 24.785156 30.726562 L 24.785156 32.082031 C 24.785156 32.308594 24.601562 32.492188 24.375 32.492188 L 22.605469 32.492188 C 22.378906 32.492188 22.195312 32.308594 22.195312 32.082031 L 22.195312 30.726562 L 18.972656 30.726562 L 18.972656 32.082031 C 18.972656 32.308594 18.789062 32.492188 18.5625 32.492188 L 16.796875 32.492188 C 16.566406 32.492188 16.382812 32.308594 16.382812 32.082031 L 16.382812 30.726562 L 13.160156 30.726562 L 13.160156 32.082031 C 13.160156 32.308594 12.976562 32.492188 12.75 32.492188 L 10.984375 32.492188 C 10.757812 32.492188 10.570312 32.308594 10.570312 32.082031 L 10.570312 30.738281 C 9.574219 30.800781 8.601562 31.085938 7.726562 31.570312 L 8.449219 32.703125 C 8.570312 32.894531 8.511719 33.148438 8.320312 33.269531 C 7.976562 33.488281 7.65625 33.753906 7.371094 34.050781 C 7.296875 34.128906 7.191406 34.175781 7.082031 34.179688 C 6.976562 34.183594 6.867188 34.140625 6.789062 34.066406 L 5.816406 33.140625 C 5.167969 33.910156 4.703125 34.808594 4.449219 35.773438 L 5.765625 36.035156 C 5.988281 36.078125 6.132812 36.292969 6.089844 36.515625 C 6.027344 36.835938 5.992188 37.164062 5.992188 37.492188 C 5.992188 37.574219 5.996094 37.660156 6 37.742188 C 6.011719 37.96875 5.835938 38.164062 5.609375 38.171875 L 4.265625 38.238281 C 4.378906 39.234375 4.707031 40.1875 5.234375 41.042969 L 6.332031 40.269531 C 6.515625 40.136719 6.773438 40.179688 6.90625 40.367188 C 7.140625 40.703125 7.417969 41.011719 7.730469 41.277344 C 7.902344 41.425781 7.921875 41.6875 7.773438 41.859375 L 6.898438 42.875 C 7.695312 43.484375 8.613281 43.90625 9.589844 44.113281 L 9.789062 42.785156 C 9.804688 42.675781 9.863281 42.582031 9.949219 42.515625 C 10.039062 42.449219 10.148438 42.421875 10.253906 42.4375 C 10.496094 42.476562 10.746094 42.492188 10.992188 42.492188 L 11.695312 42.492188 C 11.921875 42.492188 12.109375 42.675781 12.109375 42.90625 L 12.109375 44.261719 L 15.332031 44.261719 L 15.332031 42.90625 C 15.332031 42.675781 15.515625 42.492188 15.742188 42.492188 L 17.507812 42.492188 C 17.734375 42.492188 17.917969 42.675781 17.917969 42.90625 L 17.917969 44.261719 L 21.144531 44.261719 L 21.144531 42.90625 C 21.144531 42.675781 21.328125 42.492188 21.554688 42.492188 L 23.320312 42.492188 C 23.546875 42.492188 23.730469 42.675781 23.730469 42.90625 L 23.730469 44.261719 L 26.953125 44.261719 L 26.953125 42.90625 C 26.953125 42.675781 27.140625 42.492188 27.367188 42.492188 L 29.132812 42.492188 C 29.359375 42.492188 29.542969 42.675781 29.542969 42.90625 L 29.542969 44.261719 L 32.765625 44.261719 L 32.765625 42.90625 C 32.765625 42.675781 32.949219 42.492188 33.175781 42.492188 L 34.945312 42.492188 C 35.171875 42.492188 35.355469 42.675781 35.355469 42.90625 L 35.355469 44.261719 L 38.578125 44.261719 L 38.578125 42.90625 C 38.578125 42.675781 38.761719 42.492188 38.988281 42.492188 L 40.757812 42.492188 C 40.984375 42.492188 41.167969 42.675781 41.167969 42.90625 L 41.167969 44.261719 L 44.390625 44.261719 L 44.390625 42.90625 C 44.390625 42.675781 44.574219 42.492188 44.800781 42.492188 L 46.566406 42.492188 C 46.792969 42.492188 46.980469 42.675781 46.980469 42.90625 L 46.980469 44.261719 L 50.203125 44.261719 L 50.203125 42.90625 C 50.203125 42.675781 50.386719 42.492188 50.613281 42.492188 L 52.378906 42.492188 C 52.605469 42.492188 52.789062 42.675781 52.789062 42.90625 L 52.789062 44.261719 L 56.015625 44.261719 L 56.015625 42.90625 C 56.015625 42.675781 56.199219 42.492188 56.425781 42.492188 L 58.191406 42.492188 C 58.417969 42.492188 58.601562 42.675781 58.601562 42.90625 L 58.601562 44.261719 Z M 58.605469 44.261719 " fill-opacity="1" fill-rule="nonzero"/><path fill="#ffffff" d="M 65.914062 37.492188 C 65.914062 38.546875 65.058594 39.402344 64.003906 39.402344 C 62.949219 39.402344 62.097656 38.546875 62.097656 37.492188 C 62.097656 36.441406 62.949219 35.585938 64.003906 35.585938 C 65.058594 35.585938 65.914062 36.441406 65.914062 37.492188 Z M 64.003906 34.761719 C 62.496094 34.761719 61.273438 35.984375 61.273438 37.492188 C 61.273438 39 62.496094 40.222656 64.003906 40.222656 C 65.511719 40.222656 66.734375 39 66.734375 37.492188 C 66.734375 35.984375 65.511719 34.761719 64.003906 34.761719 Z M 64.003906 34.761719 " fill-opacity="1" fill-rule="nonzero"/><path fill="#ffffff" d="M 12.902344 37.492188 C 12.902344 38.546875 12.050781 39.402344 10.996094 39.402344 C 9.941406 39.402344 9.085938 38.546875 9.085938 37.492188 C 9.085938 36.4375 9.941406 35.585938 10.996094 35.585938 C 12.050781 35.585938 12.902344 36.4375 12.902344 37.492188 Z M 10.996094 34.761719 C 9.488281 34.761719 8.265625 35.984375 8.265625 37.492188 C 8.265625 39 9.488281 40.222656 10.996094 40.222656 C 12.503906 40.222656 13.726562 39 13.726562 37.492188 C 13.726562 35.984375 12.503906 34.761719 10.996094 34.761719 Z M 10.996094 34.761719 " fill-opacity="1" fill-rule="nonzero"/></svg>