<svg xmlns="http://www.w3.org/2000/svg" xmlns:xlink="http://www.w3.org/1999/xlink" width="100" zoomAndPan="magnify" viewBox="0 0 75 74.999997" height="100" preserveAspectRatio="xMidYMid meet" version="1.0"><defs><clipPath id="425ed63a2f"><path d="M 15.230469 1.871094 L 59.480469 1.871094 L 59.480469 53 L 15.230469 53 Z M 15.230469 1.871094 " clip-rule="nonzero"/></clipPath><clipPath id="97befd2769"><path d="M 28 55 L 46 55 L 46 73.121094 L 28 73.121094 Z M 28 55 " clip-rule="nonzero"/></clipPath></defs><g clip-path="url(#425ed63a2f)"><path fill="#ffffff" d="M 16.132812 23.316406 C 15.539062 23.15625 15.152344 22.574219 15.246094 21.957031 C 16.300781 15.0625 19.265625 9.808594 24.132812 6.1875 C 34.941406 -1.84375 53.625 1.476562 58.492188 15.105469 C 62.367188 25.945312 56.863281 32.828125 48.75 39.679688 C 44.914062 42.917969 43.714844 45.277344 43.476562 50 C 43.414062 51.230469 42.398438 52.191406 41.167969 52.191406 L 32.101562 52.191406 C 31.183594 52.191406 30.421875 51.503906 30.328125 50.59375 C 29.554688 42.78125 32.6875 36.671875 38.410156 31.679688 C 42.097656 28.464844 45.492188 25.832031 44.875 21.007812 C 44.238281 16.054688 39.871094 13.769531 35.371094 15.261719 C 31.496094 16.546875 30.546875 19.742188 28.824219 23.761719 C 28.625 24.234375 28.164062 24.535156 27.652344 24.535156 C 23.128906 24.570312 19.289062 24.160156 16.132812 23.316406 M 18.566406 21.90625 L 25.679688 22.898438 C 26.691406 23.03125 27.652344 22.425781 27.957031 21.464844 C 29.667969 16.054688 33.25 12.359375 39.421875 13.183594 C 47.714844 14.300781 49.050781 24.476562 43.546875 29.519531 C 41.730469 31.179688 40.007812 32.765625 38.378906 34.257812 C 34.199219 38.09375 32.039062 42.992188 31.894531 48.945312 C 31.882812 49.664062 32.457031 50.25 33.175781 50.25 L 40.4375 50.25 C 41.199219 50.25 41.835938 49.644531 41.867188 48.882812 C 42.273438 39.722656 49.175781 38.519531 54.136719 31.921875 C 62.882812 20.277344 54.785156 4.984375 40.738281 3.972656 C 28.550781 3.085938 20.738281 8.421875 17.324219 19.972656 C 17.0625 20.859375 17.648438 21.78125 18.566406 21.90625 Z M 18.566406 21.90625 " fill-opacity="1" fill-rule="nonzero"/></g><g clip-path="url(#97befd2769)"><path fill="#ffffff" d="M 45.605469 64.535156 C 45.605469 69.269531 41.761719 73.113281 37.03125 73.113281 C 32.300781 73.113281 28.457031 69.269531 28.457031 64.535156 C 28.457031 59.808594 32.300781 55.960938 37.03125 55.960938 C 41.761719 55.960938 45.605469 59.808594 45.605469 64.535156 M 43.789062 64.496094 C 43.789062 60.789062 40.78125 57.78125 37.074219 57.78125 C 33.363281 57.78125 30.359375 60.789062 30.359375 64.496094 C 30.359375 68.203125 33.363281 71.210938 37.074219 71.210938 C 40.78125 71.210938 43.789062 68.203125 43.789062 64.496094 Z M 43.789062 64.496094 " fill-opacity="1" fill-rule="nonzero"/></g></svg>