<svg xmlns="http://www.w3.org/2000/svg" xmlns:xlink="http://www.w3.org/1999/xlink" width="100" zoomAndPan="magnify" viewBox="0 0 75 74.999997" height="100" preserveAspectRatio="xMidYMid meet" version="1.0"><defs><clipPath id="e408588f24"><path d="M 5.53125 0 L 69.28125 0 L 69.28125 75 L 5.53125 75 Z M 5.53125 0 " clip-rule="nonzero"/></clipPath></defs><g clip-path="url(#e408588f24)"><path fill="#ffffff" d="M 65.339844 0.0351562 L 9.652344 0.0351562 C 7.382812 0.0351562 5.53125 1.886719 5.53125 4.15625 L 5.53125 70.84375 C 5.53125 73.113281 7.382812 74.964844 9.652344 74.964844 L 65.347656 74.964844 C 67.617188 74.964844 69.46875 73.113281 69.46875 70.84375 L 69.46875 4.15625 C 69.46875 1.886719 67.617188 0.0351562 65.339844 0.0351562 Z M 9.652344 1.683594 L 65.347656 1.683594 C 66.710938 1.683594 67.820312 2.792969 67.820312 4.15625 L 67.820312 8.824219 L 7.179688 8.824219 L 7.179688 4.15625 C 7.179688 2.792969 8.289062 1.683594 9.652344 1.683594 Z M 65.339844 73.316406 L 9.652344 73.316406 C 8.289062 73.316406 7.179688 72.207031 7.179688 70.84375 L 7.179688 10.480469 L 67.820312 10.480469 L 67.820312 70.84375 C 67.8125 72.207031 66.703125 73.316406 65.339844 73.316406 Z M 65.339844 73.316406 " fill-opacity="1" fill-rule="nonzero"/></g><path fill="#ffffff" d="M 61.796875 6.996094 C 62.753906 6.996094 63.535156 6.21875 63.535156 5.257812 C 63.535156 4.296875 62.753906 3.519531 61.796875 3.519531 C 60.835938 3.519531 60.058594 4.296875 60.058594 5.257812 C 60.058594 6.21875 60.835938 6.996094 61.796875 6.996094 Z M 61.796875 6.996094 " fill-opacity="1" fill-rule="nonzero"/><path fill="#ffffff" d="M 55.523438 6.996094 C 56.484375 6.996094 57.261719 6.21875 57.261719 5.257812 C 57.261719 4.296875 56.484375 3.519531 55.523438 3.519531 C 54.566406 3.519531 53.785156 4.296875 53.785156 5.257812 C 53.785156 6.21875 54.566406 6.996094 55.523438 6.996094 Z M 55.523438 6.996094 " fill-opacity="1" fill-rule="nonzero"/><path fill="#ffffff" d="M 49.261719 6.996094 C 50.21875 6.996094 51 6.21875 51 5.257812 C 51 4.296875 50.21875 3.519531 49.261719 3.519531 C 48.300781 3.519531 47.523438 4.296875 47.523438 5.257812 C 47.523438 6.21875 48.292969 6.996094 49.261719 6.996094 Z M 49.261719 6.996094 " fill-opacity="1" fill-rule="nonzero"/><path fill="#ffffff" d="M 58.15625 58 L 60.574219 55.582031 C 60.777344 55.378906 60.859375 55.09375 60.800781 54.824219 C 60.738281 54.546875 60.542969 54.320312 60.28125 54.222656 L 43.632812 48.078125 C 43.332031 47.96875 42.988281 48.042969 42.765625 48.265625 C 42.539062 48.492188 42.464844 48.835938 42.578125 49.136719 L 48.722656 65.785156 C 48.816406 66.046875 49.042969 66.242188 49.320312 66.304688 C 49.597656 66.363281 49.882812 66.28125 50.078125 66.078125 L 52.496094 63.65625 L 58.429688 69.59375 C 58.589844 69.75 58.804688 69.832031 59.015625 69.832031 C 59.226562 69.832031 59.4375 69.75 59.601562 69.59375 L 64.089844 65.105469 C 64.246094 64.945312 64.328125 64.738281 64.328125 64.519531 C 64.328125 64.300781 64.238281 64.09375 64.089844 63.933594 Z M 59.023438 67.847656 L 53.089844 61.910156 C 52.933594 61.753906 52.714844 61.671875 52.503906 61.671875 C 52.292969 61.671875 52.085938 61.753906 51.921875 61.910156 L 49.820312 64.011719 L 44.742188 50.253906 L 58.5 55.332031 L 56.402344 57.429688 C 56.242188 57.589844 56.160156 57.796875 56.160156 58.015625 C 56.160156 58.234375 56.25 58.441406 56.402344 58.601562 L 62.335938 64.535156 Z M 59.023438 67.847656 " fill-opacity="1" fill-rule="nonzero"/><path fill="#ffffff" d="M 29.066406 24.730469 L 42.898438 24.730469 C 43.355469 24.730469 43.722656 24.363281 43.722656 23.90625 C 43.722656 23.449219 43.355469 23.082031 42.898438 23.082031 L 29.066406 23.082031 C 28.609375 23.082031 28.242188 23.449219 28.242188 23.90625 C 28.242188 24.363281 28.609375 24.730469 29.066406 24.730469 Z M 29.066406 24.730469 " fill-opacity="1" fill-rule="nonzero"/><path fill="#ffffff" d="M 29.066406 18.136719 L 60.851562 18.136719 C 61.308594 18.136719 61.675781 17.769531 61.675781 17.3125 C 61.675781 16.855469 61.308594 16.488281 60.851562 16.488281 L 29.066406 16.488281 C 28.609375 16.488281 28.242188 16.855469 28.242188 17.3125 C 28.242188 17.769531 28.609375 18.136719 29.066406 18.136719 Z M 29.066406 18.136719 " fill-opacity="1" fill-rule="nonzero"/><path fill="#ffffff" d="M 22.433594 15.644531 L 14.140625 15.644531 C 13.683594 15.644531 13.316406 16.011719 13.316406 16.46875 L 13.316406 24.753906 C 13.316406 25.210938 13.683594 25.578125 14.140625 25.578125 L 22.433594 25.578125 C 22.890625 25.578125 23.257812 25.210938 23.257812 24.753906 L 23.257812 16.46875 C 23.257812 16.011719 22.886719 15.644531 22.433594 15.644531 Z M 21.609375 23.929688 L 14.972656 23.929688 L 14.972656 17.292969 L 21.609375 17.292969 Z M 21.609375 23.929688 " fill-opacity="1" fill-rule="nonzero"/><path fill="#ffffff" d="M 29.066406 39.835938 L 42.898438 39.835938 C 43.355469 39.835938 43.722656 39.46875 43.722656 39.011719 C 43.722656 38.554688 43.355469 38.1875 42.898438 38.1875 L 29.066406 38.1875 C 28.609375 38.1875 28.242188 38.554688 28.242188 39.011719 C 28.242188 39.464844 28.609375 39.835938 29.066406 39.835938 Z M 29.066406 39.835938 " fill-opacity="1" fill-rule="nonzero"/><path fill="#ffffff" d="M 29.066406 33.238281 L 60.851562 33.238281 C 61.308594 33.238281 61.675781 32.871094 61.675781 32.414062 C 61.675781 31.957031 61.308594 31.589844 60.851562 31.589844 L 29.066406 31.589844 C 28.609375 31.589844 28.242188 31.957031 28.242188 32.414062 C 28.242188 32.871094 28.609375 33.238281 29.066406 33.238281 Z M 29.066406 33.238281 " fill-opacity="1" fill-rule="nonzero"/><path fill="#ffffff" d="M 22.433594 30.742188 L 14.140625 30.742188 C 13.683594 30.742188 13.316406 31.109375 13.316406 31.566406 L 13.316406 39.851562 C 13.316406 40.308594 13.683594 40.675781 14.140625 40.675781 L 22.433594 40.675781 C 22.890625 40.675781 23.257812 40.308594 23.257812 39.851562 L 23.257812 31.566406 C 23.257812 31.117188 22.886719 30.742188 22.433594 30.742188 Z M 21.609375 39.035156 L 14.972656 39.035156 L 14.972656 32.398438 L 21.609375 32.398438 Z M 21.609375 39.035156 " fill-opacity="1" fill-rule="nonzero"/><path fill="#ffffff" d="M 38.597656 53.289062 L 29.066406 53.289062 C 28.609375 53.289062 28.242188 53.65625 28.242188 54.113281 C 28.242188 54.570312 28.609375 54.9375 29.066406 54.9375 L 38.605469 54.9375 C 39.0625 54.9375 39.429688 54.570312 39.429688 54.113281 C 39.421875 53.65625 39.054688 53.289062 38.597656 53.289062 Z M 38.597656 53.289062 " fill-opacity="1" fill-rule="nonzero"/><path fill="#ffffff" d="M 38.597656 46.695312 L 29.066406 46.695312 C 28.609375 46.695312 28.242188 47.0625 28.242188 47.519531 C 28.242188 47.976562 28.609375 48.34375 29.066406 48.34375 L 38.605469 48.34375 C 39.0625 48.34375 39.429688 47.976562 39.429688 47.519531 C 39.421875 47.0625 39.054688 46.695312 38.597656 46.695312 Z M 38.597656 46.695312 " fill-opacity="1" fill-rule="nonzero"/><path fill="#ffffff" d="M 22.433594 45.847656 L 14.140625 45.847656 C 13.683594 45.847656 13.316406 46.214844 13.316406 46.671875 L 13.316406 54.957031 C 13.316406 55.414062 13.683594 55.78125 14.140625 55.78125 L 22.433594 55.78125 C 22.890625 55.78125 23.257812 55.414062 23.257812 54.957031 L 23.257812 46.671875 C 23.257812 46.214844 22.886719 45.847656 22.433594 45.847656 Z M 21.609375 54.132812 L 14.972656 54.132812 L 14.972656 47.496094 L 21.609375 47.496094 Z M 21.609375 54.132812 " fill-opacity="1" fill-rule="nonzero"/></svg>