<svg xmlns="http://www.w3.org/2000/svg" xmlns:xlink="http://www.w3.org/1999/xlink" width="100" zoomAndPan="magnify" viewBox="0 0 75 74.999997" height="100" preserveAspectRatio="xMidYMid meet" version="1.0"><defs><clipPath id="d4400d367c"><path d="M 7.992188 8 L 67 8 L 67 67.5 L 7.992188 67.5 Z M 7.992188 8 " clip-rule="nonzero"/></clipPath></defs><path fill="#ff6200" d="M 24.371094 52.835938 L 19.21875 49.863281 C 19.027344 49.753906 18.792969 49.753906 18.601562 49.863281 L 13.453125 52.835938 C 13.261719 52.949219 13.144531 53.152344 13.144531 53.371094 L 13.144531 59.320312 C 13.144531 59.539062 13.261719 59.742188 13.453125 59.855469 L 18.601562 62.828125 C 18.699219 62.882812 18.804688 62.910156 18.910156 62.910156 C 19.015625 62.910156 19.125 62.882812 19.21875 62.828125 L 24.371094 59.855469 C 24.5625 59.742188 24.679688 59.539062 24.679688 59.320312 L 24.679688 53.371094 C 24.679688 53.152344 24.5625 52.949219 24.371094 52.835938 Z M 23.441406 58.960938 L 18.910156 61.578125 L 14.378906 58.960938 L 14.378906 53.730469 L 18.910156 51.113281 L 23.441406 53.730469 Z M 23.441406 58.960938 " fill-opacity="1" fill-rule="nonzero"/><g clip-path="url(#d4400d367c)"><path fill="#ff6200" d="M 66.875 18.527344 C 66.863281 18.351562 66.851562 18.175781 66.832031 17.996094 C 66.769531 17.476562 66.671875 16.957031 66.535156 16.441406 C 66.476562 16.226562 66.3125 16.058594 66.097656 16.003906 C 65.886719 15.945312 65.65625 16.007812 65.5 16.164062 L 57.945312 23.71875 C 54.886719 22.78125 52.476562 20.371094 51.535156 17.3125 L 59.09375 9.753906 C 59.171875 9.675781 59.226562 9.582031 59.253906 9.476562 C 59.28125 9.375 59.28125 9.265625 59.253906 9.15625 C 59.195312 8.945312 59.03125 8.777344 58.816406 8.71875 C 55.058594 7.71875 51.015625 8.800781 48.269531 11.546875 C 48.222656 11.597656 48.179688 11.652344 48.132812 11.703125 C 47.917969 11.925781 47.707031 12.148438 47.515625 12.386719 C 47.46875 12.445312 47.425781 12.511719 47.375 12.574219 C 47.1875 12.816406 47.007812 13.058594 46.839844 13.3125 C 46.8125 13.359375 46.789062 13.402344 46.761719 13.449219 C 46.585938 13.726562 46.417969 14.011719 46.269531 14.300781 C 46.25 14.339844 46.234375 14.378906 46.214844 14.417969 C 46.066406 14.714844 45.933594 15.019531 45.8125 15.328125 C 45.792969 15.378906 45.777344 15.425781 45.757812 15.476562 C 45.652344 15.773438 45.554688 16.070312 45.46875 16.375 C 45.449219 16.453125 45.429688 16.53125 45.410156 16.613281 C 45.34375 16.882812 45.285156 17.152344 45.238281 17.429688 C 45.21875 17.546875 45.203125 17.664062 45.183594 17.78125 C 45.152344 18.019531 45.128906 18.261719 45.109375 18.503906 C 45.101562 18.648438 45.09375 18.796875 45.089844 18.945312 C 45.085938 19.050781 45.074219 19.152344 45.074219 19.257812 C 45.074219 20.410156 44.59375 21.550781 43.753906 22.390625 L 22.03125 44.109375 C 21.195312 44.949219 20.054688 45.429688 18.902344 45.429688 C 17.148438 45.429688 15.464844 45.851562 13.949219 46.625 C 13.90625 46.648438 13.863281 46.664062 13.820312 46.6875 C 13.597656 46.804688 13.386719 46.9375 13.171875 47.070312 C 13.074219 47.128906 12.976562 47.179688 12.882812 47.242188 C 12.734375 47.339844 12.597656 47.449219 12.457031 47.554688 C 12.304688 47.667969 12.144531 47.773438 11.996094 47.898438 C 11.992188 47.902344 11.988281 47.902344 11.988281 47.90625 C 11.710938 48.132812 11.445312 48.371094 11.191406 48.625 C 11.035156 48.78125 10.894531 48.949219 10.75 49.113281 C 10.652344 49.222656 10.546875 49.328125 10.453125 49.441406 C 10.398438 49.507812 10.355469 49.578125 10.300781 49.644531 C 8.808594 51.550781 7.992188 53.882812 7.992188 56.34375 C 7.992188 58.8125 8.8125 61.148438 10.308594 63.058594 C 10.359375 63.121094 10.402344 63.1875 10.453125 63.25 C 10.546875 63.363281 10.65625 63.472656 10.757812 63.585938 C 10.898438 63.746094 11.035156 63.910156 11.191406 64.066406 C 11.351562 64.226562 11.523438 64.367188 11.691406 64.515625 C 11.796875 64.609375 11.898438 64.710938 12.007812 64.800781 C 12.078125 64.859375 12.152344 64.910156 12.226562 64.964844 C 14.128906 66.453125 16.457031 67.265625 18.910156 67.265625 C 21.371094 67.265625 23.699219 66.449219 25.605469 64.960938 C 25.671875 64.90625 25.746094 64.859375 25.816406 64.800781 C 25.925781 64.710938 26.03125 64.605469 26.136719 64.511719 C 26.304688 64.363281 26.472656 64.222656 26.632812 64.066406 C 26.875 63.820312 27.101562 63.566406 27.316406 63.308594 C 27.328125 63.289062 27.34375 63.277344 27.359375 63.257812 C 27.476562 63.113281 27.582031 62.960938 27.691406 62.8125 C 27.796875 62.667969 27.914062 62.523438 28.011719 62.375 C 28.070312 62.285156 28.121094 62.191406 28.175781 62.101562 C 28.3125 61.882812 28.449219 61.660156 28.570312 61.433594 C 28.589844 61.398438 28.601562 61.367188 28.617188 61.332031 C 29.402344 59.8125 29.824219 58.117188 29.828125 56.355469 C 29.828125 55.203125 30.308594 54.0625 31.144531 53.222656 L 52.878906 31.488281 C 53.703125 30.667969 54.734375 30.207031 55.820312 30.175781 C 55.875 30.179688 55.929688 30.183594 55.988281 30.183594 C 58.089844 30.183594 60.195312 29.574219 62.007812 28.371094 C 62.320312 28.167969 62.621094 27.953125 62.910156 27.714844 L 62.914062 27.714844 C 63.890625 26.90625 64.699219 25.949219 65.328125 24.894531 C 65.363281 24.835938 65.402344 24.78125 65.4375 24.722656 C 65.453125 24.695312 65.464844 24.664062 65.480469 24.636719 C 66.484375 22.863281 66.980469 20.828125 66.894531 18.777344 C 66.890625 18.695312 66.878906 18.609375 66.875 18.527344 Z M 62.121094 26.761719 C 61.894531 26.945312 61.660156 27.121094 61.421875 27.28125 C 59.820312 28.355469 57.878906 28.921875 55.925781 28.929688 C 55.894531 28.929688 55.859375 28.941406 55.828125 28.941406 C 53.753906 28.90625 51.683594 28.21875 49.980469 26.859375 C 47.78125 25.101562 46.480469 22.597656 46.324219 19.808594 C 46.308594 19.527344 46.316406 19.242188 46.324219 18.960938 C 46.328125 18.84375 46.332031 18.726562 46.339844 18.609375 C 46.355469 18.378906 46.378906 18.152344 46.410156 17.925781 C 46.425781 17.835938 46.4375 17.746094 46.453125 17.652344 C 46.496094 17.398438 46.550781 17.144531 46.613281 16.890625 C 46.628906 16.832031 46.640625 16.773438 46.65625 16.710938 C 46.734375 16.433594 46.824219 16.160156 46.921875 15.890625 C 46.9375 15.855469 46.949219 15.816406 46.960938 15.78125 C 47.070312 15.5 47.191406 15.226562 47.328125 14.957031 C 47.34375 14.925781 47.355469 14.894531 47.371094 14.867188 C 47.503906 14.605469 47.652344 14.351562 47.808594 14.105469 C 47.832031 14.066406 47.851562 14.027344 47.875 13.988281 C 48.023438 13.761719 48.183594 13.546875 48.351562 13.332031 C 48.394531 13.277344 48.429688 13.21875 48.476562 13.164062 C 48.640625 12.960938 48.824219 12.765625 49.007812 12.574219 C 49.054688 12.523438 49.09375 12.472656 49.144531 12.421875 C 50.980469 10.585938 53.464844 9.589844 56.007812 9.589844 C 56.472656 9.589844 56.941406 9.625 57.40625 9.691406 L 50.40625 16.695312 C 50.324219 16.773438 50.273438 16.871094 50.242188 16.972656 C 50.214844 17.074219 50.214844 17.1875 50.242188 17.292969 C 50.730469 19.132812 51.710938 20.824219 53.070312 22.1875 C 54.429688 23.546875 56.121094 24.523438 57.960938 25.015625 C 58.066406 25.042969 58.179688 25.039062 58.28125 25.011719 C 58.363281 24.992188 58.433594 24.941406 58.5 24.886719 C 58.519531 24.875 58.542969 24.871094 58.558594 24.855469 C 58.558594 24.851562 58.558594 24.851562 58.5625 24.851562 L 65.566406 17.847656 C 65.570312 17.882812 65.570312 17.921875 65.574219 17.960938 C 65.871094 20.15625 65.382812 22.375 64.253906 24.253906 C 63.695312 25.1875 62.988281 26.046875 62.121094 26.761719 Z M 27.535156 60.738281 C 27.511719 60.777344 27.496094 60.820312 27.476562 60.859375 C 27.375 61.046875 27.261719 61.230469 27.148438 61.410156 C 27.09375 61.503906 27.042969 61.601562 26.980469 61.695312 C 26.902344 61.808594 26.816406 61.917969 26.734375 62.03125 C 26.4375 62.4375 26.117188 62.828125 25.753906 63.191406 C 25.601562 63.34375 25.4375 63.480469 25.277344 63.625 C 25.195312 63.695312 25.117188 63.777344 25.035156 63.84375 C 24.972656 63.894531 24.902344 63.941406 24.839844 63.988281 C 21.371094 66.683594 16.484375 66.6875 13.007812 64.007812 C 12.933594 63.949219 12.859375 63.902344 12.785156 63.84375 C 12.710938 63.78125 12.640625 63.707031 12.566406 63.644531 C 12.394531 63.496094 12.226562 63.347656 12.066406 63.1875 C 11.90625 63.03125 11.765625 62.863281 11.617188 62.699219 C 11.550781 62.621094 11.476562 62.546875 11.414062 62.46875 C 11.355469 62.402344 11.308594 62.328125 11.253906 62.257812 C 8.71875 58.976562 8.570312 54.4375 10.824219 51.019531 C 10.824219 51.015625 10.828125 51.015625 10.828125 51.015625 C 10.957031 50.816406 11.105469 50.628906 11.253906 50.4375 C 11.308594 50.367188 11.355469 50.289062 11.414062 50.222656 C 11.476562 50.140625 11.550781 50.070312 11.621094 49.992188 C 11.765625 49.824219 11.910156 49.660156 12.066406 49.5 C 12.421875 49.144531 12.808594 48.828125 13.207031 48.539062 C 13.324219 48.449219 13.441406 48.355469 13.5625 48.273438 C 13.648438 48.21875 13.734375 48.171875 13.820312 48.121094 C 14.011719 48.003906 14.203125 47.882812 14.398438 47.78125 C 14.429688 47.761719 14.464844 47.75 14.496094 47.734375 C 18.136719 45.871094 22.714844 46.457031 25.757812 49.5 C 28.792969 52.535156 29.382812 57.101562 27.535156 60.738281 Z M 52.007812 30.617188 L 30.273438 52.351562 C 29.9375 52.683594 29.667969 53.0625 29.429688 53.460938 C 28.945312 51.6875 28.019531 50.015625 26.632812 48.625 C 25.242188 47.238281 23.566406 46.308594 21.796875 45.828125 C 22.195312 45.585938 22.574219 45.316406 22.90625 44.984375 L 44.628906 23.261719 C 44.957031 22.933594 45.226562 22.554688 45.464844 22.160156 C 46.078125 24.371094 47.378906 26.363281 49.210938 27.824219 C 50.378906 28.757812 51.699219 29.40625 53.078125 29.785156 C 52.699219 30.019531 52.332031 30.289062 52.007812 30.617188 Z M 52.007812 30.617188 " fill-opacity="1" fill-rule="nonzero"/></g><path fill="#ff6200" d="M 44.296875 30.085938 L 29.730469 44.652344 C 29.488281 44.894531 29.488281 45.285156 29.730469 45.527344 C 29.851562 45.648438 30.007812 45.707031 30.167969 45.707031 C 30.324219 45.707031 30.484375 45.648438 30.605469 45.527344 L 45.167969 30.960938 C 45.410156 30.71875 45.410156 30.328125 45.167969 30.085938 C 44.929688 29.84375 44.539062 29.84375 44.296875 30.085938 Z M 44.296875 30.085938 " fill-opacity="1" fill-rule="nonzero"/></svg>