<svg xmlns="http://www.w3.org/2000/svg" xmlns:xlink="http://www.w3.org/1999/xlink" width="100" zoomAndPan="magnify" viewBox="0 0 75 74.999997" height="100" preserveAspectRatio="xMidYMid meet" version="1.0"><defs><clipPath id="1fd9f19d1d"><path d="M 14.535156 7.5 L 60.285156 7.5 L 60.285156 67.5 L 14.535156 67.5 Z M 14.535156 7.5 " clip-rule="nonzero"/></clipPath></defs><path fill="#ff6200" d="M 48.660156 24.914062 L 32.148438 41.425781 L 26.335938 35.609375 C 26.003906 35.289062 25.476562 35.289062 25.144531 35.609375 C 24.804688 35.9375 24.796875 36.480469 25.125 36.820312 L 31.542969 43.238281 C 31.703125 43.398438 31.921875 43.492188 32.148438 43.492188 C 32.375 43.492188 32.59375 43.398438 32.753906 43.238281 L 49.871094 26.125 C 50.191406 25.792969 50.191406 25.265625 49.871094 24.933594 C 49.542969 24.59375 49 24.585938 48.660156 24.914062 Z M 48.660156 24.914062 " fill-opacity="1" fill-rule="nonzero"/><g clip-path="url(#1fd9f19d1d)"><path fill="#ff6200" d="M 60.457031 15.875 C 60.457031 15.820312 60.453125 15.761719 60.441406 15.707031 L 60.441406 15.6875 C 60.441406 15.214844 60.0625 14.835938 59.59375 14.832031 C 52.585938 14.757812 46.6875 13.273438 41.691406 10.304688 C 40.457031 9.539062 39.234375 8.683594 38.027344 7.730469 C 38.007812 7.71875 37.992188 7.707031 37.972656 7.695312 C 37.953125 7.679688 37.929688 7.667969 37.910156 7.652344 C 37.886719 7.644531 37.867188 7.632812 37.84375 7.625 C 37.820312 7.613281 37.800781 7.601562 37.777344 7.59375 C 37.753906 7.585938 37.730469 7.582031 37.707031 7.574219 C 37.683594 7.570312 37.660156 7.5625 37.636719 7.558594 C 37.613281 7.554688 37.589844 7.554688 37.566406 7.550781 C 37.546875 7.550781 37.523438 7.546875 37.496094 7.546875 C 37.472656 7.546875 37.449219 7.550781 37.425781 7.554688 C 37.402344 7.554688 37.378906 7.554688 37.355469 7.558594 C 37.332031 7.5625 37.308594 7.570312 37.285156 7.578125 C 37.261719 7.582031 37.238281 7.585938 37.214844 7.59375 C 37.191406 7.605469 37.171875 7.617188 37.148438 7.625 C 37.125 7.636719 37.105469 7.644531 37.082031 7.65625 C 37.0625 7.667969 37.039062 7.683594 37.019531 7.695312 C 37.003906 7.710938 36.984375 7.71875 36.964844 7.730469 C 35.757812 8.683594 34.535156 9.542969 33.300781 10.304688 C 28.308594 13.273438 22.410156 14.757812 15.402344 14.832031 C 14.933594 14.832031 14.554688 15.214844 14.554688 15.6875 L 14.554688 15.707031 C 14.542969 15.761719 14.535156 15.820312 14.535156 15.875 L 14.546875 23.625 L 14.535156 31.460938 C 14.535156 32.058594 14.554688 32.65625 14.589844 33.246094 C 14.59375 33.304688 14.601562 33.359375 14.617188 33.410156 C 15.066406 41.070312 17.960938 48.441406 22.855469 54.824219 C 22.871094 54.96875 22.925781 55.113281 23.023438 55.238281 C 23.027344 55.242188 23.03125 55.246094 23.035156 55.25 C 26.859375 60.109375 31.558594 64.203125 36.886719 67.332031 C 37.019531 67.410156 37.171875 67.453125 37.328125 67.453125 C 37.386719 67.453125 37.441406 67.445312 37.496094 67.433594 C 37.554688 67.445312 37.613281 67.453125 37.667969 67.453125 C 37.824219 67.453125 37.976562 67.410156 38.109375 67.332031 C 43.4375 64.203125 48.136719 60.109375 51.960938 55.25 C 51.964844 55.246094 51.96875 55.242188 51.972656 55.238281 C 52.066406 55.113281 52.121094 54.96875 52.140625 54.824219 C 53.273438 53.347656 54.300781 51.816406 55.210938 50.242188 C 55.332031 50.167969 55.433594 50.066406 55.503906 49.941406 C 55.976562 49.113281 56.367188 48.359375 56.703125 47.632812 C 56.75 47.515625 56.773438 47.398438 56.773438 47.28125 C 57.554688 45.628906 58.21875 43.941406 58.757812 42.21875 C 58.832031 42.132812 58.890625 42.027344 58.925781 41.910156 C 59.167969 41.09375 59.386719 40.25 59.582031 39.402344 C 59.609375 39.292969 59.609375 39.183594 59.59375 39.078125 C 60.003906 37.214844 60.269531 35.324219 60.382812 33.414062 C 60.394531 33.359375 60.402344 33.304688 60.40625 33.25 C 60.441406 32.660156 60.460938 32.058594 60.460938 31.460938 L 60.453125 23.625 Z M 37.496094 65.496094 C 24.25 57.511719 16.332031 44.839844 16.261719 31.480469 L 16.257812 26.007812 L 16.265625 16.761719 C 22.613281 16.871094 28.46875 15.269531 34.023438 11.871094 C 35.226562 11.164062 36.386719 10.378906 37.496094 9.503906 C 38.609375 10.378906 39.765625 11.164062 40.972656 11.871094 C 46.523438 15.269531 52.382812 16.875 58.726562 16.761719 L 58.738281 26.007812 L 58.730469 31.480469 C 58.664062 44.839844 50.742188 57.511719 37.496094 65.496094 Z M 37.496094 65.496094 " fill-opacity="1" fill-rule="nonzero"/></g></svg>