<svg xmlns="http://www.w3.org/2000/svg" xmlns:xlink="http://www.w3.org/1999/xlink" width="100" zoomAndPan="magnify" viewBox="0 0 75 74.999997" height="100" preserveAspectRatio="xMidYMid meet" version="1.0"><defs><clipPath id="0fc2ba736e"><path d="M 18 7.800781 L 59 7.800781 L 59 31 L 18 31 Z M 18 7.800781 " clip-rule="nonzero"/></clipPath><clipPath id="abb5bdbfea"><path d="M 7.5 28 L 36 28 L 36 64 L 7.5 64 Z M 7.5 28 " clip-rule="nonzero"/></clipPath><clipPath id="f3c5c5f553"><path d="M 37 27 L 67.5 27 L 67.5 67.050781 L 37 67.050781 Z M 37 27 " clip-rule="nonzero"/></clipPath></defs><g clip-path="url(#0fc2ba736e)"><path fill="#ff6200" d="M 28.878906 29.855469 C 29.296875 30.082031 29.773438 30.160156 30.230469 30.023438 C 31.25 29.71875 36.394531 19.1875 37.550781 17.6875 L 41.449219 24.261719 C 40.796875 25.292969 36.804688 26.09375 38.21875 27.515625 L 52.84375 29.539062 L 58.160156 15.933594 L 58.019531 14.980469 C 57.222656 13.816406 53.972656 17.066406 53.308594 16.601562 C 51.972656 13.984375 49.878906 9.214844 46.789062 8.453125 C 44.042969 7.777344 32.359375 7.585938 29.542969 8.0625 C 29.03125 8.148438 27.273438 8.839844 26.828125 9.113281 C 25.109375 10.167969 19.683594 19.40625 18.628906 21.640625 C 18.421875 22.078125 17.941406 22.992188 18.070312 23.429688 C 18.304688 24.238281 27.65625 28.71875 28.878906 29.855469 Z M 45.625 9.613281 C 46.285156 9.707031 47.664062 10.339844 48.179688 10.824219 C 49.535156 12.101562 52.03125 17.859375 53.027344 18.378906 C 53.675781 18.71875 55.074219 17.203125 55.984375 17.421875 L 51.796875 28.148438 L 40.917969 26.566406 C 41.53125 25.546875 43.578125 25.441406 42.953125 23.871094 L 37.632812 14.375 L 34.1875 9.613281 C 37.730469 9.972656 42.203125 9.132812 45.625 9.613281 Z M 26.273438 11.789062 C 27.0625 10.808594 28.265625 9.859375 29.546875 9.671875 C 32.714844 9.207031 35.773438 13.222656 36.625 15.9375 L 29.476562 28.199219 C 26.300781 26.941406 23.457031 24.808594 20.363281 23.308594 L 19.914062 22.671875 C 22.152344 19.429688 23.863281 14.796875 26.273438 11.789062 Z M 26.273438 11.789062 " fill-opacity="1" fill-rule="nonzero"/></g><g clip-path="url(#abb5bdbfea)"><path fill="#ff6200" d="M 31.105469 48.378906 C 27.96875 48.367188 23.832031 48.707031 20.855469 48.382812 C 20.449219 48.335938 20.183594 48.355469 19.933594 47.964844 L 23.714844 41.386719 C 24.734375 41.3125 28.035156 44.3125 28.511719 42.8125 C 28.859375 41.714844 23.773438 30.675781 23.097656 28.78125 C 21.28125 28.777344 8.878906 30.339844 8.328125 30.984375 C 7.058594 32.472656 11.230469 33.183594 11.328125 34.242188 C 11.449219 35.574219 7.957031 39.464844 7.609375 41.300781 C 7.472656 42.035156 7.476562 43.171875 7.550781 43.925781 C 7.765625 46.15625 12.808594 55.03125 14.269531 57.386719 C 16.078125 60.304688 17.132812 62.238281 20.871094 62.625 C 22.113281 62.757812 23.886719 62.855469 25.160156 62.910156 C 26.839844 62.984375 33.058594 63.199219 34.265625 62.84375 C 34.574219 62.753906 35.125 62.238281 35.191406 61.921875 C 35.359375 57.488281 35.019531 53.0625 34.878906 48.617188 C 33.675781 47.953125 32.257812 48.382812 31.105469 48.378906 Z M 8.90625 43.628906 C 8.804688 42.65625 9.085938 41.625 9.460938 40.726562 C 10.089844 39.207031 13.054688 35.429688 13.199219 34.214844 C 13.382812 32.632812 11.457031 32.871094 10.777344 31.683594 L 22.308594 30.375 L 26.382812 40.832031 C 26.09375 41.128906 23.699219 38.808594 23.019531 39.753906 L 14.679688 54.824219 C 14.050781 54.511719 9.03125 44.761719 8.90625 43.628906 Z M 33.648438 61.285156 L 21.136719 61.285156 C 19.605469 61.285156 17.265625 59.667969 16.644531 58.242188 C 15.273438 55.074219 17.300781 52.472656 18.578125 49.714844 L 33.246094 49.714844 C 33.273438 49.714844 33.648438 50.089844 33.648438 50.117188 Z M 33.648438 61.285156 " fill-opacity="1" fill-rule="nonzero"/></g><g clip-path="url(#f3c5c5f553)"><path fill="#ff6200" d="M 60.402344 28.476562 C 60.285156 28.238281 60.097656 28.023438 59.835938 27.945312 C 59.070312 27.722656 49.140625 33.964844 47.757812 34.914062 L 54.910156 48.097656 L 47.105469 48.097656 L 47.105469 44.195312 C 47.105469 44.128906 46.332031 43.402344 46.128906 43.273438 C 45.777344 43.214844 45.5625 43.582031 45.351562 43.789062 C 42.671875 46.386719 40.445312 51.847656 37.667969 54.671875 L 37.390625 55.503906 C 39.558594 59.5 42.902344 62.972656 45.289062 66.867188 C 45.714844 67.289062 47.105469 67.324219 47.105469 66.804688 L 47.105469 62.902344 C 50.542969 62.117188 54.828125 63.566406 57.742188 61.023438 C 59.476562 59.511719 64.4375 50.515625 65.722656 48.011719 C 66.5 46.488281 67.488281 44.875 67.5 43.121094 C 67.535156 38.835938 62.015625 32.539062 60.402344 28.476562 Z M 63.25 49.304688 C 61.203125 52.042969 58.292969 60.050781 54.980469 60.953125 C 54.492188 61.085938 53.1875 61.238281 52.621094 61.28125 C 51.054688 61.40625 47.339844 60.949219 46.207031 61.328125 C 45.246094 61.652344 45.578125 63.019531 45.644531 63.691406 C 45.675781 64.054688 46.035156 64.332031 45.359375 64.246094 L 39.035156 55.5 L 45.488281 46.484375 C 45.496094 47 45.347656 49.316406 45.9375 49.457031 C 50.933594 49.601562 55.957031 50.011719 60.9375 49.417969 C 61.355469 49.367188 63.503906 48.453125 63.25 49.304688 Z M 61.160156 48.023438 C 59.792969 48.320312 57.21875 48.816406 56.292969 47.65625 L 49.550781 35.617188 C 49.652344 35.359375 49.875 35.222656 50.082031 35.0625 C 51.382812 34.046875 57.007812 30.644531 58.484375 30.007812 C 58.765625 29.890625 59.152344 29.664062 59.445312 29.835938 L 65.183594 39.839844 C 67.066406 43.808594 65.382812 47.109375 61.160156 48.023438 Z M 61.160156 48.023438 " fill-opacity="1" fill-rule="nonzero"/></g></svg>