<svg xmlns="http://www.w3.org/2000/svg" xmlns:xlink="http://www.w3.org/1999/xlink" width="100" zoomAndPan="magnify" viewBox="0 0 75 74.999997" height="100" preserveAspectRatio="xMidYMid meet" version="1.0"><defs><clipPath id="764e78d1a0"><path d="M 7.5 7.5 L 67.5 7.5 L 67.5 67.5 L 7.5 67.5 Z M 7.5 7.5 " clip-rule="nonzero"/></clipPath></defs><g clip-path="url(#764e78d1a0)"><path fill="#ff6200" d="M 8.546875 43.050781 L 14.433594 43.71875 L 16.804688 49.441406 L 13.109375 54.074219 C 12.90625 54.328125 12.898438 54.6875 13.085938 54.949219 C 15.011719 57.648438 17.359375 59.992188 20.070312 61.921875 C 20.332031 62.109375 20.691406 62.101562 20.945312 61.898438 L 25.578125 58.210938 L 31.300781 60.585938 L 31.96875 66.476562 C 32.003906 66.800781 32.253906 67.0625 32.574219 67.113281 C 34.214844 67.386719 35.863281 67.523438 37.511719 67.523438 C 39.160156 67.523438 40.804688 67.386719 42.4375 67.113281 C 42.757812 67.058594 43.003906 66.800781 43.039062 66.476562 L 43.707031 60.589844 L 49.4375 58.214844 L 54.078125 61.90625 C 54.332031 62.109375 54.691406 62.117188 54.953125 61.929688 C 57.660156 60 60.003906 57.652344 61.921875 54.957031 C 62.109375 54.691406 62.101562 54.335938 61.898438 54.078125 L 58.207031 49.441406 L 60.574219 43.714844 L 66.460938 43.046875 C 66.785156 43.007812 67.046875 42.761719 67.097656 42.441406 C 67.652344 39.164062 67.65625 35.847656 67.109375 32.582031 C 67.054688 32.261719 66.796875 32.015625 66.472656 31.980469 L 60.574219 31.308594 L 58.203125 25.585938 L 61.902344 20.941406 C 62.105469 20.6875 62.113281 20.328125 61.925781 20.066406 C 60 17.371094 57.652344 15.027344 54.945312 13.101562 C 54.679688 12.910156 54.324219 12.921875 54.070312 13.125 L 49.433594 16.816406 L 43.707031 14.441406 L 43.039062 8.550781 C 43 8.226562 42.753906 7.964844 42.433594 7.914062 C 39.171875 7.363281 35.855469 7.363281 32.578125 7.910156 C 32.257812 7.964844 32.011719 8.222656 31.976562 8.546875 L 31.300781 14.4375 L 25.570312 16.8125 L 20.9375 13.117188 C 20.683594 12.914062 20.324219 12.90625 20.0625 13.09375 C 17.367188 15.015625 15.023438 17.363281 13.085938 20.070312 C 12.898438 20.332031 12.90625 20.691406 13.109375 20.945312 L 16.800781 25.582031 L 14.433594 31.3125 L 8.554688 31.976562 C 8.230469 32.015625 7.96875 32.261719 7.914062 32.582031 C 7.363281 35.863281 7.359375 39.183594 7.910156 42.449219 C 7.960938 42.769531 8.222656 43.015625 8.546875 43.050781 Z M 9.269531 33.363281 L 15.027344 32.710938 C 15.289062 32.683594 15.515625 32.511719 15.617188 32.265625 L 18.3125 25.746094 C 18.414062 25.5 18.375 25.21875 18.210938 25.011719 L 14.597656 20.472656 C 16.261719 18.234375 18.234375 16.261719 20.464844 14.605469 L 25 18.21875 C 25.207031 18.382812 25.488281 18.425781 25.734375 18.320312 L 32.257812 15.621094 C 32.5 15.519531 32.671875 15.292969 32.703125 15.027344 L 33.359375 9.261719 C 36.121094 8.855469 38.902344 8.855469 41.652344 9.265625 L 42.304688 15.03125 C 42.335938 15.292969 42.507812 15.519531 42.75 15.621094 L 49.269531 18.328125 C 49.515625 18.429688 49.796875 18.390625 50.003906 18.226562 L 54.542969 14.609375 C 56.785156 16.273438 58.757812 18.238281 60.414062 20.46875 L 56.796875 25.015625 C 56.632812 25.222656 56.589844 25.503906 56.691406 25.746094 L 59.390625 32.265625 C 59.492188 32.507812 59.71875 32.679688 59.984375 32.710938 L 65.757812 33.363281 C 66.160156 36.113281 66.15625 38.898438 65.746094 41.660156 L 59.980469 42.3125 C 59.71875 42.34375 59.492188 42.515625 59.390625 42.761719 L 56.695312 49.28125 C 56.59375 49.527344 56.632812 49.808594 56.796875 50.015625 L 60.410156 54.554688 C 58.757812 56.785156 56.789062 58.753906 54.550781 60.417969 L 50.007812 56.808594 C 49.800781 56.640625 49.519531 56.601562 49.273438 56.703125 L 42.75 59.40625 C 42.507812 59.507812 42.335938 59.734375 42.304688 60 L 41.652344 65.761719 C 38.90625 66.164062 36.117188 66.164062 33.355469 65.761719 L 32.699219 59.996094 C 32.671875 59.734375 32.5 59.507812 32.257812 59.40625 L 25.738281 56.699219 C 25.492188 56.597656 25.210938 56.636719 25.003906 56.800781 L 20.472656 60.414062 C 18.230469 58.75 16.257812 56.78125 14.597656 54.546875 L 18.210938 50.011719 C 18.375 49.804688 18.417969 49.523438 18.3125 49.277344 L 15.617188 42.761719 C 15.515625 42.515625 15.289062 42.347656 15.023438 42.316406 L 9.261719 41.664062 C 8.855469 38.914062 8.855469 36.128906 9.269531 33.363281 Z M 9.269531 33.363281 " fill-opacity="1" fill-rule="nonzero"/></g><path fill="#ff6200" d="M 37.503906 53.9375 C 46.5625 53.9375 53.929688 46.566406 53.929688 37.511719 C 53.929688 28.453125 46.5625 21.085938 37.503906 21.085938 C 28.449219 21.085938 21.078125 28.453125 21.078125 37.511719 C 21.078125 46.566406 28.449219 53.9375 37.503906 53.9375 Z M 37.503906 22.542969 C 45.757812 22.542969 52.472656 29.257812 52.472656 37.511719 C 52.472656 45.765625 45.757812 52.476562 37.503906 52.476562 C 29.253906 52.476562 22.539062 45.765625 22.539062 37.511719 C 22.539062 29.257812 29.253906 22.542969 37.503906 22.542969 Z M 37.503906 22.542969 " fill-opacity="1" fill-rule="nonzero"/></svg>